G04 #@! TF.FileFunction,Copper,L1,Top,Signal*
%FSLAX46Y46*%
G04 Gerber Fmt 4.6, Leading zero omitted, Abs format (unit mm)*
G04 Created by KiCad (PCBNEW 4.0.2+dfsg1-stable) date Thu 12 Apr 2018 12:39:55 PM EDT*
%MOMM*%
G01*
G04 APERTURE LIST*
%ADD10C,0.100000*%
%ADD11C,4.064000*%
%ADD12R,0.700000X1.300000*%
%ADD13R,1.300000X0.700000*%
%ADD14C,1.000000*%
%ADD15C,2.000000*%
%ADD16R,1.600000X1.600000*%
%ADD17C,1.600000*%
%ADD18R,1.560000X0.650000*%
%ADD19R,3.100000X1.000000*%
%ADD20C,4.500000*%
%ADD21R,1.650000X0.400000*%
%ADD22O,1.500000X1.200000*%
%ADD23O,1.700000X1.700000*%
%ADD24R,2.500000X1.430000*%
%ADD25C,13.000000*%
%ADD26R,2.600000X2.000000*%
%ADD27O,2.600000X2.000000*%
%ADD28C,3.000000*%
%ADD29C,0.600000*%
%ADD30C,0.381000*%
%ADD31C,1.143000*%
G04 APERTURE END LIST*
D10*
D11*
X101080000Y-50100000D03*
D12*
X116590000Y-62410000D03*
X118490000Y-62410000D03*
D10*
G36*
X106287083Y-59919167D02*
X107412917Y-59269167D01*
X107762917Y-59875385D01*
X106637083Y-60525385D01*
X106287083Y-59919167D01*
X106287083Y-59919167D01*
G37*
G36*
X107237083Y-61564615D02*
X108362917Y-60914615D01*
X108712917Y-61520833D01*
X107587083Y-62170833D01*
X107237083Y-61564615D01*
X107237083Y-61564615D01*
G37*
D12*
X119020000Y-70000000D03*
X120920000Y-70000000D03*
D13*
X121170000Y-64400000D03*
X121170000Y-66300000D03*
D10*
G36*
X113032917Y-45340833D02*
X111907083Y-45990833D01*
X111557083Y-45384615D01*
X112682917Y-44734615D01*
X113032917Y-45340833D01*
X113032917Y-45340833D01*
G37*
G36*
X112082917Y-43695385D02*
X110957083Y-44345385D01*
X110607083Y-43739167D01*
X111732917Y-43089167D01*
X112082917Y-43695385D01*
X112082917Y-43695385D01*
G37*
D13*
X119220000Y-49510000D03*
X119220000Y-47610000D03*
D14*
X100012894Y-61041031D02*
X99104914Y-59259017D01*
X101794907Y-60133050D02*
X100886927Y-58351036D01*
X103576921Y-59225069D02*
X102668941Y-57443055D01*
X105358934Y-58317088D02*
X104450954Y-56535074D01*
X107140947Y-57409107D02*
X106232967Y-55627093D01*
X108922960Y-56501126D02*
X108014980Y-54719112D01*
X110704973Y-55593145D02*
X109796993Y-53811131D01*
X112486986Y-54685164D02*
X111579006Y-52903150D01*
X112453038Y-50213157D02*
X110671024Y-51121137D01*
X111545057Y-48431144D02*
X109763043Y-49339124D01*
X110637076Y-46649131D02*
X108855062Y-47557111D01*
X109729095Y-44867117D02*
X107947081Y-45775097D01*
X108821114Y-43085104D02*
X107039100Y-43993084D01*
X107913133Y-41303091D02*
X106131119Y-42211071D01*
X104315158Y-38647045D02*
X105223138Y-40429059D01*
X102533145Y-39555026D02*
X103441125Y-41337040D01*
X100751132Y-40463007D02*
X101659112Y-42245021D01*
X98969119Y-41370988D02*
X99877099Y-43153002D01*
X97187106Y-42278969D02*
X98095086Y-44060983D01*
X95405093Y-43186950D02*
X96313073Y-44968964D01*
X93623079Y-44094931D02*
X94531059Y-45876945D01*
X91841066Y-45002912D02*
X92749046Y-46784926D01*
D10*
G36*
X175329268Y-49965828D02*
X177739946Y-50939805D01*
X176990732Y-52794172D01*
X174580054Y-51820195D01*
X175329268Y-49965828D01*
X175329268Y-49965828D01*
G37*
D15*
X175486654Y-53847429D02*
X174930344Y-53622665D01*
X174535154Y-56202476D02*
X173978844Y-55977712D01*
X173583653Y-58557523D02*
X173027343Y-58332759D01*
D16*
X115900000Y-79680000D03*
D17*
X115900000Y-77180000D03*
D16*
X114300000Y-80350937D03*
D17*
X117500000Y-76509063D03*
D10*
G36*
X116203936Y-59868613D02*
X115867472Y-61124316D01*
X115191324Y-60943143D01*
X115527788Y-59687440D01*
X116203936Y-59868613D01*
X116203936Y-59868613D01*
G37*
G36*
X114368676Y-59376857D02*
X114032212Y-60632560D01*
X113356064Y-60451387D01*
X113692528Y-59195684D01*
X114368676Y-59376857D01*
X114368676Y-59376857D01*
G37*
G36*
X115275868Y-40787378D02*
X113995618Y-41013121D01*
X113874064Y-40323756D01*
X115154314Y-40098013D01*
X115275868Y-40787378D01*
X115275868Y-40787378D01*
G37*
G36*
X114945936Y-38916244D02*
X113665686Y-39141987D01*
X113544132Y-38452622D01*
X114824382Y-38226879D01*
X114945936Y-38916244D01*
X114945936Y-38916244D01*
G37*
D12*
X136320000Y-82600000D03*
X138220000Y-82600000D03*
D13*
X116960000Y-69840000D03*
X116960000Y-71740000D03*
X128020000Y-77150000D03*
X128020000Y-75250000D03*
D18*
X118720000Y-66320000D03*
X118720000Y-65370000D03*
X118720000Y-64420000D03*
X116020000Y-64420000D03*
X116020000Y-66320000D03*
X120210000Y-54590000D03*
X120210000Y-53640000D03*
X120210000Y-52690000D03*
X117510000Y-52690000D03*
X117510000Y-54590000D03*
D10*
G36*
X98100559Y-34905076D02*
X98807665Y-35612182D01*
X97747005Y-36672842D01*
X97039899Y-35965736D01*
X98100559Y-34905076D01*
X98100559Y-34905076D01*
G37*
G36*
X97004544Y-33809061D02*
X97711650Y-34516167D01*
X96650990Y-35576827D01*
X95943884Y-34869721D01*
X97004544Y-33809061D01*
X97004544Y-33809061D01*
G37*
G36*
X95837818Y-32642335D02*
X96544924Y-33349441D01*
X95484264Y-34410101D01*
X94777158Y-33702995D01*
X95837818Y-32642335D01*
X95837818Y-32642335D01*
G37*
G36*
X92372995Y-36107158D02*
X93080101Y-36814264D01*
X92019441Y-37874924D01*
X91312335Y-37167818D01*
X92372995Y-36107158D01*
X92372995Y-36107158D01*
G37*
G36*
X93504365Y-37238529D02*
X94211471Y-37945635D01*
X93150811Y-39006295D01*
X92443705Y-38299189D01*
X93504365Y-37238529D01*
X93504365Y-37238529D01*
G37*
G36*
X94635736Y-38369899D02*
X95342842Y-39077005D01*
X94282182Y-40137665D01*
X93575076Y-39430559D01*
X94635736Y-38369899D01*
X94635736Y-38369899D01*
G37*
G36*
X111671949Y-35513941D02*
X111811122Y-36504209D01*
X110325719Y-36712969D01*
X110186546Y-35722701D01*
X111671949Y-35513941D01*
X111671949Y-35513941D01*
G37*
G36*
X111456230Y-33979025D02*
X111595403Y-34969293D01*
X110110000Y-35178053D01*
X109970827Y-34187785D01*
X111456230Y-33979025D01*
X111456230Y-33979025D01*
G37*
G36*
X111226595Y-32345083D02*
X111365768Y-33335351D01*
X109880365Y-33544111D01*
X109741192Y-32553843D01*
X111226595Y-32345083D01*
X111226595Y-32345083D01*
G37*
G36*
X106374281Y-33027031D02*
X106513454Y-34017299D01*
X105028051Y-34226059D01*
X104888878Y-33235791D01*
X106374281Y-33027031D01*
X106374281Y-33027031D01*
G37*
G36*
X106596958Y-34611460D02*
X106736131Y-35601728D01*
X105250728Y-35810488D01*
X105111555Y-34820220D01*
X106596958Y-34611460D01*
X106596958Y-34611460D01*
G37*
G36*
X106819635Y-36195889D02*
X106958808Y-37186157D01*
X105473405Y-37394917D01*
X105334232Y-36404649D01*
X106819635Y-36195889D01*
X106819635Y-36195889D01*
G37*
G36*
X123470372Y-37188962D02*
X123296724Y-38173770D01*
X121819512Y-37913298D01*
X121993160Y-36928490D01*
X123470372Y-37188962D01*
X123470372Y-37188962D01*
G37*
G36*
X123739527Y-35662510D02*
X123565879Y-36647318D01*
X122088667Y-36386846D01*
X122262315Y-35402038D01*
X123739527Y-35662510D01*
X123739527Y-35662510D01*
G37*
G36*
X124026046Y-34037578D02*
X123852398Y-35022386D01*
X122375186Y-34761914D01*
X122548834Y-33777106D01*
X124026046Y-34037578D01*
X124026046Y-34037578D01*
G37*
G36*
X119200488Y-33186702D02*
X119026840Y-34171510D01*
X117549628Y-33911038D01*
X117723276Y-32926230D01*
X119200488Y-33186702D01*
X119200488Y-33186702D01*
G37*
G36*
X118922651Y-34762394D02*
X118749003Y-35747202D01*
X117271791Y-35486730D01*
X117445439Y-34501922D01*
X118922651Y-34762394D01*
X118922651Y-34762394D01*
G37*
G36*
X118644814Y-36338086D02*
X118471166Y-37322894D01*
X116993954Y-37062422D01*
X117167602Y-36077614D01*
X118644814Y-36338086D01*
X118644814Y-36338086D01*
G37*
G36*
X132917451Y-36609483D02*
X133021980Y-37604005D01*
X131530197Y-37760797D01*
X131425668Y-36766275D01*
X132917451Y-36609483D01*
X132917451Y-36609483D01*
G37*
G36*
X132755432Y-35067974D02*
X132859961Y-36062496D01*
X131368178Y-36219288D01*
X131263649Y-35224766D01*
X132755432Y-35067974D01*
X132755432Y-35067974D01*
G37*
G36*
X132582960Y-33427013D02*
X132687489Y-34421535D01*
X131195706Y-34578327D01*
X131091177Y-33583805D01*
X132582960Y-33427013D01*
X132582960Y-33427013D01*
G37*
G36*
X127709803Y-33939203D02*
X127814332Y-34933725D01*
X126322549Y-35090517D01*
X126218020Y-34095995D01*
X127709803Y-33939203D01*
X127709803Y-33939203D01*
G37*
G36*
X127877048Y-35530438D02*
X127981577Y-36524960D01*
X126489794Y-36681752D01*
X126385265Y-35687230D01*
X127877048Y-35530438D01*
X127877048Y-35530438D01*
G37*
G36*
X128044294Y-37121673D02*
X128148823Y-38116195D01*
X126657040Y-38272987D01*
X126552511Y-37278465D01*
X128044294Y-37121673D01*
X128044294Y-37121673D01*
G37*
G36*
X143240372Y-38248962D02*
X143066724Y-39233770D01*
X141589512Y-38973298D01*
X141763160Y-37988490D01*
X143240372Y-38248962D01*
X143240372Y-38248962D01*
G37*
G36*
X143509527Y-36722510D02*
X143335879Y-37707318D01*
X141858667Y-37446846D01*
X142032315Y-36462038D01*
X143509527Y-36722510D01*
X143509527Y-36722510D01*
G37*
G36*
X143796046Y-35097578D02*
X143622398Y-36082386D01*
X142145186Y-35821914D01*
X142318834Y-34837106D01*
X143796046Y-35097578D01*
X143796046Y-35097578D01*
G37*
G36*
X138970488Y-34246702D02*
X138796840Y-35231510D01*
X137319628Y-34971038D01*
X137493276Y-33986230D01*
X138970488Y-34246702D01*
X138970488Y-34246702D01*
G37*
G36*
X138692651Y-35822394D02*
X138519003Y-36807202D01*
X137041791Y-36546730D01*
X137215439Y-35561922D01*
X138692651Y-35822394D01*
X138692651Y-35822394D01*
G37*
G36*
X138414814Y-37398086D02*
X138241166Y-38382894D01*
X136763954Y-38122422D01*
X136937602Y-37137614D01*
X138414814Y-37398086D01*
X138414814Y-37398086D01*
G37*
G36*
X154638937Y-37794100D02*
X154708693Y-38791664D01*
X153212347Y-38896298D01*
X153142591Y-37898734D01*
X154638937Y-37794100D01*
X154638937Y-37794100D01*
G37*
G36*
X154530815Y-36247876D02*
X154600571Y-37245440D01*
X153104225Y-37350074D01*
X153034469Y-36352510D01*
X154530815Y-36247876D01*
X154530815Y-36247876D01*
G37*
G36*
X154415717Y-34601895D02*
X154485473Y-35599459D01*
X152989127Y-35704093D01*
X152919371Y-34706529D01*
X154415717Y-34601895D01*
X154415717Y-34601895D01*
G37*
G36*
X149527653Y-34943702D02*
X149597409Y-35941266D01*
X148101063Y-36045900D01*
X148031307Y-35048336D01*
X149527653Y-34943702D01*
X149527653Y-34943702D01*
G37*
G36*
X149639263Y-36539804D02*
X149709019Y-37537368D01*
X148212673Y-37642002D01*
X148142917Y-36644438D01*
X149639263Y-36539804D01*
X149639263Y-36539804D01*
G37*
G36*
X149750873Y-38135907D02*
X149820629Y-39133471D01*
X148324283Y-39238105D01*
X148254527Y-38240541D01*
X149750873Y-38135907D01*
X149750873Y-38135907D01*
G37*
G36*
X163961370Y-38646280D02*
X163753458Y-39624428D01*
X162286236Y-39312560D01*
X162494148Y-38334412D01*
X163961370Y-38646280D01*
X163961370Y-38646280D01*
G37*
G36*
X164283633Y-37130151D02*
X164075721Y-38108299D01*
X162608499Y-37796431D01*
X162816411Y-36818283D01*
X164283633Y-37130151D01*
X164283633Y-37130151D01*
G37*
G36*
X164626687Y-35516207D02*
X164418775Y-36494355D01*
X162951553Y-36182487D01*
X163159465Y-35204339D01*
X164626687Y-35516207D01*
X164626687Y-35516207D01*
G37*
G36*
X159833764Y-34497440D02*
X159625852Y-35475588D01*
X158158630Y-35163720D01*
X158366542Y-34185572D01*
X159833764Y-34497440D01*
X159833764Y-34497440D01*
G37*
G36*
X159501105Y-36062476D02*
X159293193Y-37040624D01*
X157825971Y-36728756D01*
X158033883Y-35750608D01*
X159501105Y-36062476D01*
X159501105Y-36062476D01*
G37*
G36*
X159168447Y-37627513D02*
X158960535Y-38605661D01*
X157493313Y-38293793D01*
X157701225Y-37315645D01*
X159168447Y-37627513D01*
X159168447Y-37627513D01*
G37*
G36*
X167104924Y-51200559D02*
X166397818Y-51907665D01*
X165337158Y-50847005D01*
X166044264Y-50139899D01*
X167104924Y-51200559D01*
X167104924Y-51200559D01*
G37*
G36*
X168200939Y-50104544D02*
X167493833Y-50811650D01*
X166433173Y-49750990D01*
X167140279Y-49043884D01*
X168200939Y-50104544D01*
X168200939Y-50104544D01*
G37*
G36*
X169367665Y-48937818D02*
X168660559Y-49644924D01*
X167599899Y-48584264D01*
X168307005Y-47877158D01*
X169367665Y-48937818D01*
X169367665Y-48937818D01*
G37*
G36*
X165902842Y-45472995D02*
X165195736Y-46180101D01*
X164135076Y-45119441D01*
X164842182Y-44412335D01*
X165902842Y-45472995D01*
X165902842Y-45472995D01*
G37*
G36*
X164771471Y-46604365D02*
X164064365Y-47311471D01*
X163003705Y-46250811D01*
X163710811Y-45543705D01*
X164771471Y-46604365D01*
X164771471Y-46604365D01*
G37*
G36*
X163640101Y-47735736D02*
X162932995Y-48442842D01*
X161872335Y-47382182D01*
X162579441Y-46675076D01*
X163640101Y-47735736D01*
X163640101Y-47735736D01*
G37*
D19*
X102055000Y-86040000D03*
X102055000Y-90040000D03*
X110965000Y-90040000D03*
X110965000Y-86040000D03*
X112275000Y-95930000D03*
X112275000Y-99930000D03*
X121185000Y-99930000D03*
X121185000Y-95930000D03*
X122335000Y-85870000D03*
X122335000Y-89870000D03*
X131245000Y-89870000D03*
X131245000Y-85870000D03*
X142535000Y-85930000D03*
X142535000Y-89930000D03*
X151445000Y-89930000D03*
X151445000Y-85930000D03*
X162955000Y-85860000D03*
X162955000Y-89860000D03*
X171865000Y-89860000D03*
X171865000Y-85860000D03*
X152515000Y-95840000D03*
X152515000Y-99840000D03*
X161425000Y-99840000D03*
X161425000Y-95840000D03*
D20*
X166700000Y-68700000D03*
X160700000Y-68700000D03*
D21*
X169860000Y-79900000D03*
X169860000Y-79250000D03*
X169860000Y-78600000D03*
X169860000Y-77950000D03*
X169860000Y-77300000D03*
D22*
X169740000Y-81020000D03*
X169740000Y-76180000D03*
D23*
X172740000Y-81330000D03*
X172740000Y-75870000D03*
D24*
X172980000Y-79560000D03*
X172980000Y-77640000D03*
D10*
G36*
X150474974Y-81467716D02*
X152737716Y-79204974D01*
X154576194Y-81043452D01*
X152313452Y-83306194D01*
X150474974Y-81467716D01*
X150474974Y-81467716D01*
G37*
G36*
X145383806Y-76376548D02*
X147646548Y-74113806D01*
X149485026Y-75952284D01*
X147222284Y-78215026D01*
X145383806Y-76376548D01*
X145383806Y-76376548D01*
G37*
G36*
X148281142Y-69450381D02*
X149200381Y-68531142D01*
X149695356Y-69026117D01*
X148776117Y-69945356D01*
X148281142Y-69450381D01*
X148281142Y-69450381D01*
G37*
G36*
X149624644Y-70793883D02*
X150543883Y-69874644D01*
X151038858Y-70369619D01*
X150119619Y-71288858D01*
X149624644Y-70793883D01*
X149624644Y-70793883D01*
G37*
D25*
X174680000Y-40850000D03*
D26*
X135128000Y-46228000D03*
D27*
X135128000Y-48768000D03*
X135128000Y-51308000D03*
X135128000Y-53848000D03*
X135128000Y-56388000D03*
D28*
X99420515Y-73880000D03*
X111285064Y-67030000D03*
X111720000Y-72783332D03*
D12*
X107120000Y-82140000D03*
X109020000Y-82140000D03*
X115560000Y-89840000D03*
X117460000Y-89840000D03*
D10*
G36*
X141808858Y-80089619D02*
X140889619Y-81008858D01*
X140394644Y-80513883D01*
X141313883Y-79594644D01*
X141808858Y-80089619D01*
X141808858Y-80089619D01*
G37*
G36*
X140465356Y-78746117D02*
X139546117Y-79665356D01*
X139051142Y-79170381D01*
X139970381Y-78251142D01*
X140465356Y-78746117D01*
X140465356Y-78746117D01*
G37*
G36*
X102259167Y-63572917D02*
X101609167Y-62447083D01*
X102215385Y-62097083D01*
X102865385Y-63222917D01*
X102259167Y-63572917D01*
X102259167Y-63572917D01*
G37*
G36*
X103904615Y-62622917D02*
X103254615Y-61497083D01*
X103860833Y-61147083D01*
X104510833Y-62272917D01*
X103904615Y-62622917D01*
X103904615Y-62622917D01*
G37*
G36*
X110092917Y-60400833D02*
X108967083Y-61050833D01*
X108617083Y-60444615D01*
X109742917Y-59794615D01*
X110092917Y-60400833D01*
X110092917Y-60400833D01*
G37*
G36*
X109142917Y-58755385D02*
X108017083Y-59405385D01*
X107667083Y-58799167D01*
X108792917Y-58149167D01*
X109142917Y-58755385D01*
X109142917Y-58755385D01*
G37*
G36*
X104627083Y-60879167D02*
X105752917Y-60229167D01*
X106102917Y-60835385D01*
X104977083Y-61485385D01*
X104627083Y-60879167D01*
X104627083Y-60879167D01*
G37*
G36*
X105577083Y-62524615D02*
X106702917Y-61874615D01*
X107052917Y-62480833D01*
X105927083Y-63130833D01*
X105577083Y-62524615D01*
X105577083Y-62524615D01*
G37*
G36*
X111940833Y-59827083D02*
X112590833Y-60952917D01*
X111984615Y-61302917D01*
X111334615Y-60177083D01*
X111940833Y-59827083D01*
X111940833Y-59827083D01*
G37*
G36*
X110295385Y-60777083D02*
X110945385Y-61902917D01*
X110339167Y-62252917D01*
X109689167Y-61127083D01*
X110295385Y-60777083D01*
X110295385Y-60777083D01*
G37*
G36*
X109555879Y-58253734D02*
X109230879Y-57690818D01*
X110148865Y-57160818D01*
X110473865Y-57723734D01*
X109555879Y-58253734D01*
X109555879Y-58253734D01*
G37*
G36*
X110030879Y-59076458D02*
X109705879Y-58513542D01*
X110623865Y-57983542D01*
X110948865Y-58546458D01*
X110030879Y-59076458D01*
X110030879Y-59076458D01*
G37*
G36*
X110505879Y-59899182D02*
X110180879Y-59336266D01*
X111098865Y-58806266D01*
X111423865Y-59369182D01*
X110505879Y-59899182D01*
X110505879Y-59899182D01*
G37*
G36*
X112411135Y-58799182D02*
X112086135Y-58236266D01*
X113004121Y-57706266D01*
X113329121Y-58269182D01*
X112411135Y-58799182D01*
X112411135Y-58799182D01*
G37*
G36*
X111461135Y-57153734D02*
X111136135Y-56590818D01*
X112054121Y-56060818D01*
X112379121Y-56623734D01*
X111461135Y-57153734D01*
X111461135Y-57153734D01*
G37*
D29*
X111200000Y-58060000D03*
X117480000Y-60280000D03*
X112760000Y-40580000D03*
X126340000Y-71970000D03*
X105670000Y-74990000D03*
X145080000Y-60990000D03*
X149620000Y-89170000D03*
X102320000Y-49840000D03*
X117350000Y-65210000D03*
X119080000Y-53785000D03*
X164900000Y-61525000D03*
X163475000Y-44730000D03*
X156060000Y-37570000D03*
X150285000Y-37350000D03*
X139210000Y-37185000D03*
X147220000Y-37675000D03*
X128750000Y-36350000D03*
X119480000Y-35785000D03*
X125365000Y-36460000D03*
X116350000Y-35560000D03*
X109515000Y-39245000D03*
X107690000Y-35800000D03*
X135480000Y-36575000D03*
X109600000Y-62060000D03*
X107440000Y-63080000D03*
X121090000Y-58085000D03*
X118530000Y-67140000D03*
X120005000Y-64315000D03*
X122935000Y-53765000D03*
X151770000Y-74825000D03*
X166340000Y-48960000D03*
X162280000Y-37170000D03*
X152400000Y-36580000D03*
X141110000Y-36530000D03*
X130830000Y-35620000D03*
X121550000Y-35620000D03*
X109210000Y-34310000D03*
X102920000Y-34750000D03*
X124250000Y-41800000D03*
X124090000Y-47970000D03*
X119580000Y-87820000D03*
X118190000Y-83260000D03*
X128190000Y-88510000D03*
X130048000Y-61976000D03*
X123430000Y-55320000D03*
X134700000Y-82840000D03*
X138330000Y-76975000D03*
X113445000Y-46005000D03*
X114970000Y-41230000D03*
X104880000Y-59080000D03*
X102570000Y-61500000D03*
X105380000Y-55380000D03*
X100570000Y-62775000D03*
X116800000Y-55820000D03*
X111420000Y-55260000D03*
X140515000Y-83170000D03*
X136370000Y-78840000D03*
X122100000Y-47835000D03*
X124905000Y-50250000D03*
X123495000Y-58225000D03*
X103630000Y-42365000D03*
X127600000Y-46910000D03*
X130480000Y-58395000D03*
X143610000Y-76585000D03*
X160430000Y-86110000D03*
X98005000Y-40050000D03*
X123425000Y-52650000D03*
X107420000Y-37130000D03*
X93840000Y-36050000D03*
X171095000Y-48790000D03*
X168960000Y-46025000D03*
X108800000Y-35410000D03*
X115260000Y-36545000D03*
X121035000Y-37370000D03*
X125425000Y-37780000D03*
X111375000Y-41405000D03*
X91630000Y-43930000D03*
X109640000Y-56160000D03*
X117220000Y-57180000D03*
X120520000Y-49330000D03*
X94975000Y-41960000D03*
X129640000Y-56010000D03*
X127630000Y-53890000D03*
X127000000Y-56896000D03*
X126492000Y-54356000D03*
X96255000Y-41910000D03*
X120585000Y-50370000D03*
X105140000Y-63040000D03*
X112640000Y-59280000D03*
D30*
X95816000Y-68808000D02*
X96324000Y-68300000D01*
X96324000Y-68300000D02*
X96324000Y-67284000D01*
X96324000Y-67284000D02*
X96832000Y-67792000D01*
X96832000Y-67792000D02*
X95816000Y-67792000D01*
X95816000Y-67792000D02*
X95308000Y-68300000D01*
X95308000Y-68300000D02*
X95308000Y-68808000D01*
X95308000Y-68808000D02*
X95816000Y-68808000D01*
X141226581Y-50812652D02*
X164301479Y-49385060D01*
X164301479Y-49385060D02*
X164301479Y-49385061D01*
X111200000Y-58060000D02*
X110327372Y-58530000D01*
X118490000Y-62410000D02*
X117480000Y-60280000D01*
X110327372Y-58530000D02*
X109360000Y-58920000D01*
X109360000Y-58920000D02*
X108405000Y-58777276D01*
X112760000Y-40580000D02*
X110800000Y-40480000D01*
X110800000Y-40480000D02*
X109648676Y-41212661D01*
X128020000Y-75250000D02*
X126340000Y-71970000D01*
X110965000Y-90040000D02*
X120250000Y-83480000D01*
X120250000Y-83480000D02*
X125900000Y-75720000D01*
X125900000Y-75720000D02*
X128020000Y-75250000D01*
X114300000Y-80350937D02*
X105670000Y-74990000D01*
X120920000Y-70000000D02*
X119360000Y-77170000D01*
X119360000Y-77170000D02*
X115900000Y-79680000D01*
X120920000Y-70000000D02*
X121385547Y-67075410D01*
X121385547Y-67075410D02*
X121385547Y-67075409D01*
X118490000Y-62410000D02*
X117470000Y-63570000D01*
X117470000Y-63570000D02*
X117350000Y-65210000D01*
X172740000Y-81330000D02*
X169740000Y-81020000D01*
X172980000Y-79560000D02*
X172740000Y-81330000D01*
X172980000Y-77640000D02*
X172980000Y-79560000D01*
X172740000Y-75870000D02*
X172980000Y-77640000D01*
X169740000Y-76180000D02*
X172740000Y-75870000D01*
X168620000Y-77020000D02*
X169860000Y-77300000D01*
X166700000Y-68700000D02*
X168930000Y-67220000D01*
X168930000Y-67220000D02*
X175210000Y-60840000D01*
X175210000Y-60840000D02*
X178090000Y-53640000D01*
X178090000Y-53640000D02*
X177470000Y-52220000D01*
X177470000Y-52220000D02*
X176160000Y-51380000D01*
X176160000Y-51380000D02*
X177640000Y-53700000D01*
X177640000Y-53700000D02*
X174900000Y-60690000D01*
X174900000Y-60690000D02*
X166700000Y-68700000D01*
X145080000Y-60990000D02*
X141226581Y-50812652D01*
X141226581Y-50812652D02*
X139730000Y-46860000D01*
X139730000Y-46860000D02*
X135128000Y-46228000D01*
X166700000Y-68700000D02*
X161890000Y-72630000D01*
X161890000Y-72630000D02*
X158780000Y-71740000D01*
X158780000Y-71740000D02*
X152640000Y-66140000D01*
X152640000Y-66140000D02*
X145080000Y-60990000D01*
X149620000Y-89170000D02*
X151445000Y-89930000D01*
X104769148Y-39538052D02*
X104740000Y-42630000D01*
X104740000Y-42630000D02*
X102320000Y-49840000D01*
X119220000Y-47610000D02*
X116580359Y-47884391D01*
X116580359Y-47884391D02*
X116580359Y-47884390D01*
X118720000Y-65370000D02*
X120335000Y-65400000D01*
X120335000Y-65400000D02*
X121170000Y-66300000D01*
X121170000Y-66300000D02*
X121385547Y-67075409D01*
X116930441Y-65364916D02*
X117350000Y-65210000D01*
X119080000Y-53785000D02*
X120210000Y-53640000D01*
X115900000Y-79680000D02*
X114300000Y-80350937D01*
X161425000Y-99840000D02*
X171865000Y-89860000D01*
X164979064Y-47284265D02*
X164301479Y-49385061D01*
X164301479Y-49385061D02*
X163450000Y-52025000D01*
X163450000Y-52025000D02*
X164900000Y-61525000D01*
X163887588Y-46427588D02*
X164979064Y-47284265D01*
X164979064Y-47284265D02*
X164980000Y-47285000D01*
X164980000Y-47285000D02*
X167985000Y-47080000D01*
X167985000Y-47080000D02*
X172210000Y-47630000D01*
X172210000Y-47630000D02*
X176160000Y-51380000D01*
X163475000Y-44730000D02*
X163887588Y-46427588D01*
X158663538Y-36395616D02*
X156930000Y-36130000D01*
X156930000Y-36130000D02*
X156910000Y-36130000D01*
X156910000Y-36130000D02*
X156060000Y-37570000D01*
X150285000Y-37350000D02*
X148925968Y-37090903D01*
X137867221Y-36184562D02*
X139210000Y-37185000D01*
X147220000Y-37675000D02*
X148925968Y-37090903D01*
X127183421Y-36106095D02*
X128750000Y-36350000D01*
X135480000Y-36575000D02*
X137867221Y-36184562D01*
X118097221Y-35124562D02*
X119480000Y-35785000D01*
X125365000Y-36460000D02*
X127183421Y-36106095D01*
X110965000Y-90040000D02*
X108910000Y-96450000D01*
X108910000Y-96450000D02*
X111455000Y-98210000D01*
X111455000Y-98210000D02*
X117710000Y-99020000D01*
X117710000Y-99020000D02*
X121185000Y-99930000D01*
X171865000Y-89860000D02*
X173590000Y-88095000D01*
X173590000Y-88095000D02*
X174540000Y-86025000D01*
X174540000Y-86025000D02*
X173900000Y-81835000D01*
X173900000Y-81835000D02*
X171530000Y-81330000D01*
X161425000Y-99840000D02*
X172375000Y-90500000D01*
X151445000Y-89930000D02*
X161425000Y-99840000D01*
X171530000Y-81330000D02*
X168530000Y-81020000D01*
X171770000Y-79560000D02*
X171530000Y-81330000D01*
X171770000Y-77640000D02*
X171770000Y-79560000D01*
X171770000Y-77640000D02*
X171530000Y-75870000D01*
X168530000Y-76180000D02*
X168620000Y-77020000D01*
X168620000Y-77020000D02*
X168650000Y-77300000D01*
X171530000Y-75870000D02*
X168530000Y-76180000D01*
X166700000Y-68700000D02*
X171530000Y-75870000D01*
X118097221Y-35124562D02*
X116350000Y-35560000D01*
X93327588Y-38122412D02*
X95690000Y-37020000D01*
X101590000Y-36930000D02*
X105923843Y-35210974D01*
X98080000Y-37260000D02*
X101590000Y-36930000D01*
X95690000Y-37020000D02*
X98080000Y-37260000D01*
X105923843Y-35210974D02*
X107690000Y-35800000D01*
X109515000Y-39245000D02*
X109549293Y-39459502D01*
X120210000Y-53640000D02*
X119010000Y-53600000D01*
X113790000Y-43480000D02*
X111345000Y-43717276D01*
X118890000Y-51530000D02*
X116580359Y-47884390D01*
X116580359Y-47884390D02*
X113790000Y-43480000D01*
X118810000Y-52770000D02*
X118890000Y-51530000D01*
X119010000Y-53600000D02*
X118810000Y-52770000D01*
X111345000Y-43717276D02*
X109648676Y-41212661D01*
X109648676Y-41212661D02*
X108570000Y-39620000D01*
X106510000Y-39230000D02*
X104769148Y-39538052D01*
X108570000Y-39620000D02*
X109549293Y-39459502D01*
X109549293Y-39459502D02*
X106510000Y-39230000D01*
X115200000Y-65360000D02*
X116930441Y-65364916D01*
X116930441Y-65364916D02*
X118720000Y-65370000D01*
X110317276Y-61515000D02*
X109600000Y-62060000D01*
X107440000Y-63080000D02*
X106315000Y-62502724D01*
X106315000Y-62502724D02*
X106880000Y-60700000D01*
X106880000Y-60700000D02*
X107025000Y-59897276D01*
X111285064Y-67030000D02*
X110785064Y-64970000D01*
X107975000Y-61542724D02*
X110785064Y-64970000D01*
X111720000Y-72783332D02*
X116960000Y-71740000D01*
X116960000Y-71740000D02*
X118610000Y-71320000D01*
X118610000Y-71320000D02*
X119020000Y-70000000D01*
X116170000Y-71550000D02*
X116960000Y-71740000D01*
X117500000Y-76509063D02*
X115900000Y-77180000D01*
X116960000Y-71740000D02*
X117500000Y-76509063D01*
X119220000Y-49510000D02*
X120210000Y-52690000D01*
X121170000Y-64400000D02*
X121090000Y-58085000D01*
X120005000Y-64315000D02*
X118720000Y-64420000D01*
X119012900Y-66930208D02*
X118530000Y-67140000D01*
X120005000Y-64315000D02*
X121170000Y-64400000D01*
X119012900Y-66930208D02*
X118720000Y-66320000D01*
X121577471Y-54228880D02*
X122935000Y-53765000D01*
X123850000Y-36290000D02*
X122914097Y-36024678D01*
X120210000Y-54590000D02*
X121535000Y-54420000D01*
X121535000Y-54420000D02*
X121577471Y-54228880D01*
X121577471Y-54228880D02*
X121685000Y-53745000D01*
X121685000Y-53745000D02*
X121685000Y-52820000D01*
X121685000Y-52820000D02*
X120210000Y-52690000D01*
D31*
X147434416Y-76164416D02*
X151770000Y-74825000D01*
X160700000Y-68700000D02*
X170265000Y-59820000D01*
X170265000Y-59820000D02*
X173305498Y-58445141D01*
D30*
X166340000Y-48960000D02*
X167227056Y-50397767D01*
X152400000Y-36580000D02*
X153817520Y-36798975D01*
X141110000Y-36530000D02*
X142684097Y-37084678D01*
X130830000Y-35620000D02*
X132061805Y-35643631D01*
X121550000Y-35620000D02*
X122914097Y-36024678D01*
X96827767Y-34692944D02*
X99410000Y-33940000D01*
X109210000Y-34310000D02*
X110783115Y-34578539D01*
X101960000Y-34640000D02*
X102920000Y-34750000D01*
X99410000Y-33940000D02*
X101960000Y-34640000D01*
X162280000Y-37170000D02*
X163576066Y-37498291D01*
X124360000Y-36635000D02*
X123850000Y-36290000D01*
X124250000Y-41800000D02*
X124235000Y-37915000D01*
X124235000Y-37915000D02*
X124360000Y-36635000D01*
X125160000Y-48730000D02*
X124090000Y-47970000D01*
X134615000Y-53890000D02*
X131710000Y-53265000D01*
X131710000Y-53265000D02*
X125160000Y-48730000D01*
X112032996Y-53794157D02*
X110060000Y-52340000D01*
X110060000Y-52340000D02*
X108820000Y-52180000D01*
X108820000Y-52180000D02*
X102860000Y-55360000D01*
X102860000Y-55360000D02*
X102300000Y-56100000D01*
X102300000Y-56100000D02*
X103122931Y-58334062D01*
X139758249Y-78958249D02*
X138330000Y-76975000D01*
X117460000Y-89840000D02*
X119580000Y-87820000D01*
X109020000Y-82140000D02*
X116510000Y-83710000D01*
X116510000Y-83710000D02*
X118190000Y-83260000D01*
X128190000Y-88510000D02*
X131245000Y-89870000D01*
X130048000Y-61976000D02*
X138330000Y-76975000D01*
X117510000Y-54590000D02*
X118690000Y-55365000D01*
X118690000Y-55365000D02*
X120365000Y-55445000D01*
X120365000Y-55445000D02*
X123430000Y-55320000D01*
X140510000Y-77032232D02*
X143195000Y-77730000D01*
X143195000Y-77730000D02*
X144480000Y-77170000D01*
X144480000Y-77170000D02*
X144700000Y-75270000D01*
X144700000Y-75270000D02*
X148988249Y-69238249D01*
X134390671Y-84193215D02*
X134700000Y-82840000D01*
X138330000Y-76975000D02*
X140510000Y-77032232D01*
X140510000Y-77032232D02*
X140425000Y-77030000D01*
X131245000Y-89870000D02*
X133420000Y-87335000D01*
X133420000Y-87335000D02*
X134390671Y-84193215D01*
X134390671Y-84193215D02*
X134455000Y-83985000D01*
X134455000Y-83985000D02*
X136320000Y-82600000D01*
X112730550Y-46476277D02*
X113445000Y-46005000D01*
X114970000Y-41230000D02*
X114574966Y-40555567D01*
X117510000Y-54590000D02*
X112032996Y-53794157D01*
X112032996Y-53794157D02*
X113630000Y-51610000D01*
X113350000Y-48060000D02*
X112730550Y-46476277D01*
X112730550Y-46476277D02*
X112295000Y-45362724D01*
X113630000Y-51610000D02*
X113350000Y-48060000D01*
X99558904Y-60150024D02*
X100780000Y-61620000D01*
X104880000Y-59080000D02*
X104904944Y-57426081D01*
X100780000Y-61620000D02*
X102570000Y-61500000D01*
X107120000Y-82140000D02*
X101950874Y-82303946D01*
X101950874Y-82303946D02*
X101950874Y-82303959D01*
X105380000Y-55380000D02*
X106686957Y-56518100D01*
X100505000Y-68255000D02*
X101115000Y-65975000D01*
X101115000Y-65975000D02*
X101435000Y-65225000D01*
X101435000Y-65225000D02*
X101055000Y-64650000D01*
X101055000Y-64650000D02*
X100570000Y-62775000D01*
X102055000Y-86040000D02*
X101950874Y-82303959D01*
X101950874Y-82303959D02*
X101680000Y-72585000D01*
X101680000Y-72585000D02*
X100505000Y-68255000D01*
X141101751Y-80301751D02*
X140515000Y-83170000D01*
X118420000Y-56280000D02*
X116800000Y-55820000D01*
X111420000Y-55260000D02*
X110250983Y-54702138D01*
X142535000Y-85930000D02*
X140515000Y-83170000D01*
X136370000Y-78840000D02*
X124275000Y-56105000D01*
X124275000Y-56105000D02*
X118420000Y-56280000D01*
X118420000Y-56280000D02*
X118525000Y-56278094D01*
X128020000Y-77150000D02*
X122335000Y-85870000D01*
X122100000Y-47835000D02*
X124905000Y-50250000D01*
X123495000Y-58225000D02*
X129250000Y-74545000D01*
X129250000Y-74545000D02*
X129250000Y-76945000D01*
X129250000Y-76945000D02*
X128020000Y-77150000D01*
X102987135Y-40446033D02*
X103630000Y-42365000D01*
X114245034Y-38684433D02*
X120510000Y-42865000D01*
X120510000Y-42865000D02*
X127600000Y-46910000D01*
X130480000Y-58395000D02*
X143610000Y-76585000D01*
X160430000Y-86110000D02*
X162955000Y-85860000D01*
X114245034Y-38684433D02*
X107970000Y-38070000D01*
X101040000Y-39580000D02*
X101205122Y-41354014D01*
X102730000Y-37910000D02*
X101040000Y-39580000D01*
X104320000Y-37570000D02*
X102730000Y-37910000D01*
X105220000Y-37890000D02*
X104320000Y-37570000D01*
X107970000Y-38070000D02*
X105220000Y-37890000D01*
X131572000Y-54864000D02*
X125235699Y-55920050D01*
X125235699Y-55920050D02*
X125235699Y-55920051D01*
X135128000Y-56388000D02*
X131572000Y-54864000D01*
X138220000Y-82600000D02*
X140250000Y-87235000D01*
X140250000Y-87235000D02*
X143420000Y-88390000D01*
X143420000Y-88390000D02*
X146140000Y-88940000D01*
X146140000Y-88940000D02*
X152515000Y-95840000D01*
X99423109Y-42261995D02*
X98005000Y-40050000D01*
X123425000Y-52650000D02*
X125235699Y-55920051D01*
X125235699Y-55920051D02*
X138860000Y-80525000D01*
X138860000Y-80525000D02*
X138220000Y-82600000D01*
X107420000Y-37130000D02*
X109470000Y-37400000D01*
X109470000Y-37400000D02*
X113490000Y-37645000D01*
X113490000Y-37645000D02*
X115460000Y-37675000D01*
X115460000Y-37675000D02*
X126685000Y-44805000D01*
X107420000Y-37130000D02*
X106146520Y-36795403D01*
X92196218Y-36991041D02*
X93840000Y-36050000D01*
X92196218Y-36991041D02*
X91680000Y-38760000D01*
X92370000Y-41160000D02*
X94077069Y-44985938D01*
X91680000Y-38760000D02*
X92370000Y-41160000D01*
X126685000Y-44805000D02*
X133588145Y-48291393D01*
X133588145Y-48291393D02*
X134651393Y-48291393D01*
X134651393Y-48291393D02*
X135128000Y-48768000D01*
X133588145Y-48291393D02*
X134615000Y-48810000D01*
X163789120Y-35849347D02*
X165770000Y-37085000D01*
X165770000Y-37085000D02*
X165018959Y-45296218D01*
X175208499Y-53735047D02*
X171645000Y-50720000D01*
X171645000Y-50720000D02*
X171095000Y-48790000D01*
X168960000Y-46025000D02*
X165018959Y-45296218D01*
X168483782Y-48761041D02*
X174256999Y-56090094D01*
X105701166Y-33626545D02*
X107485000Y-33530000D01*
X107485000Y-33530000D02*
X108800000Y-35410000D01*
X115260000Y-36545000D02*
X117819384Y-36700254D01*
X95661041Y-33526218D02*
X97510000Y-32810000D01*
X99960000Y-32870000D02*
X105701166Y-33626545D01*
X97510000Y-32810000D02*
X99960000Y-32870000D01*
X118375058Y-33548870D02*
X120075000Y-34230000D01*
X120075000Y-34230000D02*
X120685000Y-36820000D01*
X120685000Y-36820000D02*
X121035000Y-37370000D01*
X125425000Y-37780000D02*
X127350667Y-37697330D01*
X110553480Y-32944597D02*
X118375058Y-33548870D01*
X137589384Y-37760254D02*
X130690000Y-38440000D01*
X130690000Y-38440000D02*
X129355000Y-34700000D01*
X129355000Y-34700000D02*
X127016176Y-34514860D01*
X123200616Y-34399746D02*
X127016176Y-34514860D01*
X138145058Y-34608870D02*
X140450000Y-35600000D01*
X140450000Y-35600000D02*
X140165000Y-37755000D01*
X140165000Y-37755000D02*
X141080000Y-40050000D01*
X141080000Y-40050000D02*
X146530000Y-40295000D01*
X146530000Y-40295000D02*
X149037578Y-38687006D01*
X131889333Y-34002670D02*
X138145058Y-34608870D01*
X148814358Y-35494801D02*
X150935000Y-36130000D01*
X150935000Y-36130000D02*
X151385000Y-37735000D01*
X151385000Y-37735000D02*
X152440000Y-39360000D01*
X152440000Y-39360000D02*
X154045000Y-39685000D01*
X154045000Y-39685000D02*
X155995000Y-39320000D01*
X155995000Y-39320000D02*
X158330880Y-37960653D01*
X142970616Y-35459746D02*
X148814358Y-35494801D01*
X111375000Y-41405000D02*
X114880000Y-42460000D01*
X114880000Y-42460000D02*
X134615000Y-51350000D01*
X92295056Y-45893919D02*
X91630000Y-43930000D01*
X162756218Y-47558959D02*
X160655000Y-42245000D01*
X160655000Y-42245000D02*
X160880000Y-35820000D01*
X160880000Y-35820000D02*
X158996197Y-34830580D01*
X158996197Y-34830580D02*
X153702422Y-35152994D01*
X169860000Y-79900000D02*
X168650000Y-79900000D01*
X168650000Y-79900000D02*
X167450000Y-79910000D01*
X163800000Y-80910000D02*
X152525584Y-81255584D01*
X167450000Y-79910000D02*
X163800000Y-80910000D01*
X115560000Y-89840000D02*
X115517899Y-94534210D01*
X108468970Y-55610119D02*
X109640000Y-56160000D01*
X117220000Y-57180000D02*
X123865000Y-57035000D01*
X123865000Y-57035000D02*
X130745000Y-70090000D01*
X130745000Y-70090000D02*
X135330000Y-79400000D01*
X135330000Y-79400000D02*
X128410000Y-84435000D01*
X128410000Y-84435000D02*
X125115000Y-91475000D01*
X125115000Y-91475000D02*
X119640000Y-92760000D01*
X119640000Y-92760000D02*
X115517899Y-94534210D01*
X115517899Y-94534210D02*
X112275000Y-95930000D01*
X169860000Y-78600000D02*
X168650000Y-78600000D01*
X126760000Y-52394382D02*
X125914883Y-51777600D01*
X121930000Y-49705000D02*
X124790000Y-51250000D01*
X124790000Y-51250000D02*
X125914883Y-51777600D01*
X125914883Y-51777600D02*
X125920000Y-51780000D01*
X121930000Y-49705000D02*
X120520000Y-49330000D01*
X130048000Y-55880000D02*
X129640000Y-56010000D01*
X127630000Y-53890000D02*
X126760000Y-52394382D01*
X126760000Y-52394382D02*
X126740000Y-52360000D01*
X154883398Y-69655527D02*
X152400000Y-68072000D01*
X152400000Y-68072000D02*
X150876000Y-67564000D01*
X150876000Y-67564000D02*
X146812000Y-63500000D01*
X146812000Y-63500000D02*
X134620000Y-58928000D01*
X134620000Y-58928000D02*
X130048000Y-55880000D01*
X168650000Y-78600000D02*
X164285000Y-78595000D01*
X164285000Y-78595000D02*
X154883398Y-69655527D01*
X154883398Y-69655527D02*
X154825000Y-69600000D01*
X94975000Y-41960000D02*
X95859083Y-44077957D01*
X169860000Y-79250000D02*
X168650000Y-79250000D01*
X151484975Y-69733235D02*
X146304000Y-64516000D01*
X146304000Y-64516000D02*
X133604000Y-59436000D01*
X133604000Y-59436000D02*
X130048000Y-56896000D01*
X130048000Y-56896000D02*
X127000000Y-56896000D01*
X126492000Y-54356000D02*
X123952000Y-51816000D01*
X123952000Y-51816000D02*
X123560000Y-51550000D01*
X150331751Y-70581751D02*
X151484975Y-69733235D01*
X151484975Y-69733235D02*
X152494283Y-68990609D01*
X154230000Y-70075000D02*
X162535000Y-77830000D01*
X97641096Y-43169976D02*
X96255000Y-41910000D01*
X120585000Y-50370000D02*
X123560000Y-51550000D01*
X152494283Y-68990609D02*
X154230000Y-70075000D01*
X168650000Y-79250000D02*
X163945000Y-79265000D01*
X163945000Y-79265000D02*
X162535000Y-77830000D01*
X115697630Y-60405878D02*
X115520000Y-57800000D01*
X115520000Y-57800000D02*
X114340000Y-56420000D01*
X114340000Y-56420000D02*
X111757628Y-56607276D01*
X115697630Y-60405878D02*
X116590000Y-62410000D01*
X116020000Y-66320000D02*
X113870000Y-66000000D01*
X113870000Y-66000000D02*
X114160000Y-63110000D01*
X116590000Y-62410000D02*
X114160000Y-63110000D01*
X116020000Y-66320000D02*
X116960000Y-69840000D01*
X103080000Y-60927069D02*
X105440000Y-59720000D01*
X103882724Y-61885000D02*
X103080000Y-60927069D01*
X103080000Y-60927069D02*
X102940000Y-60760000D01*
X102940000Y-60760000D02*
X101340917Y-59242043D01*
X107100000Y-58697600D02*
X105440000Y-59720000D01*
X107120000Y-58680000D02*
X107100000Y-58697600D01*
X107100000Y-58697600D02*
X107620000Y-58240000D01*
X107620000Y-58240000D02*
X108640000Y-57580000D01*
X108640000Y-57580000D02*
X109852372Y-57707276D01*
X111962724Y-60565000D02*
X113862370Y-59914122D01*
X111962724Y-60565000D02*
X110802372Y-59352724D01*
X109355000Y-60422724D02*
X110802372Y-59352724D01*
X104980000Y-62640000D02*
X105140000Y-63040000D01*
X112640000Y-59280000D02*
X112707628Y-58252724D01*
X105365000Y-60857276D02*
X104980000Y-62640000D01*
X104980000Y-62640000D02*
X103920000Y-63460000D01*
X103920000Y-63460000D02*
X103060000Y-63560000D01*
X103060000Y-63560000D02*
X102237276Y-62835000D01*
M02*
