G04 #@! TF.FileFunction,Profile,NP*
%FSLAX46Y46*%
G04 Gerber Fmt 4.6, Leading zero omitted, Abs format (unit mm)*
G04 Created by KiCad (PCBNEW 4.0.2+dfsg1-stable) date Thu 12 Apr 2018 12:39:55 PM EDT*
%MOMM*%
G01*
G04 APERTURE LIST*
%ADD10C,0.100000*%
%ADD11C,0.200000*%
G04 APERTURE END LIST*
D10*
D11*
X112563394Y-28060528D02*
X114455320Y-28286707D01*
X114455320Y-28286707D02*
X116373874Y-28681681D01*
X116373874Y-28681681D02*
X120013147Y-29339901D01*
X120013147Y-29339901D02*
X123762652Y-29622407D01*
X123762652Y-29622407D02*
X127533355Y-29526985D01*
X127533355Y-29526985D02*
X131236219Y-29051421D01*
X131236219Y-29051421D02*
X131237500Y-29051187D01*
X131237500Y-29051187D02*
X132509428Y-28829645D01*
X132509428Y-28829645D02*
X133515601Y-28697507D01*
X133515601Y-28697507D02*
X134382920Y-28658406D01*
X134382920Y-28658406D02*
X135238288Y-28715978D01*
X135238288Y-28715978D02*
X136208607Y-28873856D01*
X136208607Y-28873856D02*
X137420778Y-29135675D01*
X137420778Y-29135675D02*
X137877734Y-29241363D01*
X137877734Y-29241363D02*
X139100490Y-29512238D01*
X139100490Y-29512238D02*
X140378412Y-29771793D01*
X140378412Y-29771793D02*
X141548912Y-29988226D01*
X141548912Y-29988226D02*
X142350000Y-30116225D01*
X142350000Y-30116225D02*
X143810345Y-30260481D01*
X143810345Y-30260481D02*
X145573682Y-30338943D01*
X145573682Y-30338943D02*
X147525146Y-30353680D01*
X147525146Y-30353680D02*
X149549869Y-30306764D01*
X149549869Y-30306764D02*
X151532987Y-30200262D01*
X151532987Y-30200262D02*
X153359632Y-30036247D01*
X153359632Y-30036247D02*
X154415000Y-29898814D01*
X154415000Y-29898814D02*
X156080086Y-29666341D01*
X156080086Y-29666341D02*
X157425255Y-29530628D01*
X157425255Y-29530628D02*
X158542976Y-29492780D01*
X158542976Y-29492780D02*
X159525717Y-29553902D01*
X159525717Y-29553902D02*
X160465945Y-29715098D01*
X160465945Y-29715098D02*
X161456130Y-29977476D01*
X161456130Y-29977476D02*
X161475223Y-29983205D01*
X161475223Y-29983205D02*
X163048781Y-30414257D01*
X163048781Y-30414257D02*
X164623998Y-30751671D01*
X164623998Y-30751671D02*
X166306198Y-31011747D01*
X166306198Y-31011747D02*
X168200704Y-31210785D01*
X168200704Y-31210785D02*
X170399608Y-31364327D01*
X170399608Y-31364327D02*
X173369476Y-31610119D01*
X173369476Y-31610119D02*
X175946773Y-31990575D01*
X175946773Y-31990575D02*
X178143087Y-32514398D01*
X178143087Y-32514398D02*
X179970005Y-33190287D01*
X179970005Y-33190287D02*
X181439115Y-34026943D01*
X181439115Y-34026943D02*
X182562003Y-35033066D01*
X182562003Y-35033066D02*
X183350259Y-36217358D01*
X183350259Y-36217358D02*
X183815468Y-37588519D01*
X183815468Y-37588519D02*
X183969219Y-39155248D01*
X183969219Y-39155248D02*
X183823100Y-40926248D01*
X183823100Y-40926248D02*
X183744375Y-41384371D01*
X183744375Y-41384371D02*
X183465748Y-42685472D01*
X183465748Y-42685472D02*
X183114718Y-43945324D01*
X183114718Y-43945324D02*
X182658563Y-45253457D01*
X182658563Y-45253457D02*
X182064560Y-46699396D01*
X182064560Y-46699396D02*
X181299986Y-48372670D01*
X181299986Y-48372670D02*
X180841192Y-49327298D01*
X180841192Y-49327298D02*
X180383057Y-50316956D01*
X180383057Y-50316956D02*
X179814041Y-51622461D01*
X179814041Y-51622461D02*
X179167931Y-53161814D01*
X179167931Y-53161814D02*
X178478517Y-54853016D01*
X178478517Y-54853016D02*
X177779587Y-56614069D01*
X177779587Y-56614069D02*
X177104929Y-58362973D01*
X177104929Y-58362973D02*
X176959913Y-58746465D01*
X176959913Y-58746465D02*
X176299104Y-60502939D01*
X176299104Y-60502939D02*
X175775844Y-61904046D01*
X175775844Y-61904046D02*
X175378202Y-62990480D01*
X175378202Y-62990480D02*
X175094246Y-63802939D01*
X175094246Y-63802939D02*
X174912045Y-64382118D01*
X174912045Y-64382118D02*
X174819669Y-64768713D01*
X174819669Y-64768713D02*
X174805186Y-65003422D01*
X174805186Y-65003422D02*
X174856665Y-65126939D01*
X174856665Y-65126939D02*
X174962175Y-65179961D01*
X174962175Y-65179961D02*
X175068535Y-65197810D01*
X175068535Y-65197810D02*
X175581667Y-65264786D01*
X175581667Y-65264786D02*
X175581667Y-75510152D01*
X175581667Y-75510152D02*
X175577698Y-78250956D01*
X175577698Y-78250956D02*
X175563711Y-80610598D01*
X175563711Y-80610598D02*
X175536590Y-82631194D01*
X175536590Y-82631194D02*
X175493214Y-84354859D01*
X175493214Y-84354859D02*
X175430466Y-85823708D01*
X175430466Y-85823708D02*
X175345228Y-87079857D01*
X175345228Y-87079857D02*
X175234381Y-88165421D01*
X175234381Y-88165421D02*
X175094807Y-89122516D01*
X175094807Y-89122516D02*
X174923388Y-89993256D01*
X174923388Y-89993256D02*
X174717005Y-90819758D01*
X174717005Y-90819758D02*
X174472539Y-91644136D01*
X174472539Y-91644136D02*
X174361597Y-91988192D01*
X174361597Y-91988192D02*
X173417456Y-94243633D01*
X173417456Y-94243633D02*
X172120253Y-96413349D01*
X172120253Y-96413349D02*
X170540081Y-98399343D01*
X170540081Y-98399343D02*
X168747032Y-100103618D01*
X168747032Y-100103618D02*
X168313108Y-100444527D01*
X168313108Y-100444527D02*
X167072955Y-101344664D01*
X167072955Y-101344664D02*
X165996190Y-102026896D01*
X165996190Y-102026896D02*
X164941597Y-102567301D01*
X164941597Y-102567301D02*
X163767958Y-103041958D01*
X163767958Y-103041958D02*
X162987500Y-103313622D01*
X162987500Y-103313622D02*
X160387592Y-103991710D01*
X160387592Y-103991710D02*
X157809310Y-104290069D01*
X157809310Y-104290069D02*
X155317557Y-104201306D01*
X155317557Y-104201306D02*
X155257162Y-104194091D01*
X155257162Y-104194091D02*
X152498728Y-103657277D01*
X152498728Y-103657277D02*
X149921030Y-102754909D01*
X149921030Y-102754909D02*
X147550580Y-101513176D01*
X147550580Y-101513176D02*
X145413890Y-99958266D01*
X145413890Y-99958266D02*
X143537471Y-98116371D01*
X143537471Y-98116371D02*
X141947836Y-96013678D01*
X141947836Y-96013678D02*
X140671495Y-93676379D01*
X140671495Y-93676379D02*
X139734961Y-91130661D01*
X139734961Y-91130661D02*
X139164744Y-88402715D01*
X139164744Y-88402715D02*
X139148812Y-88281478D01*
X139148812Y-88281478D02*
X138906072Y-86388694D01*
X138906072Y-86388694D02*
X136870953Y-86448931D01*
X136870953Y-86448931D02*
X134835834Y-86509167D01*
X134835834Y-86509167D02*
X134700056Y-87990834D01*
X134700056Y-87990834D02*
X134254137Y-90602668D01*
X134254137Y-90602668D02*
X133424710Y-93092537D01*
X133424710Y-93092537D02*
X132242765Y-95424506D01*
X132242765Y-95424506D02*
X130739295Y-97562638D01*
X130739295Y-97562638D02*
X128945291Y-99470996D01*
X128945291Y-99470996D02*
X126891745Y-101113643D01*
X126891745Y-101113643D02*
X124609648Y-102454644D01*
X124609648Y-102454644D02*
X122129991Y-103458062D01*
X122129991Y-103458062D02*
X121107323Y-103752373D01*
X121107323Y-103752373D02*
X119639967Y-104040095D01*
X119639967Y-104040095D02*
X117988299Y-104222407D01*
X117988299Y-104222407D02*
X116329486Y-104287865D01*
X116329486Y-104287865D02*
X114840689Y-104225024D01*
X114840689Y-104225024D02*
X114466933Y-104181293D01*
X114466933Y-104181293D02*
X111698661Y-103594597D01*
X111698661Y-103594597D02*
X109113545Y-102640087D01*
X109113545Y-102640087D02*
X106738781Y-101338879D01*
X106738781Y-101338879D02*
X104601567Y-99712092D01*
X104601567Y-99712092D02*
X102729097Y-97780843D01*
X102729097Y-97780843D02*
X101148568Y-95566249D01*
X101148568Y-95566249D02*
X99887176Y-93089429D01*
X99887176Y-93089429D02*
X99749666Y-92753334D01*
X99749666Y-92753334D02*
X99091147Y-90756608D01*
X99091147Y-90756608D02*
X98702495Y-88702400D01*
X98702495Y-88702400D02*
X98565657Y-86472134D01*
X98565657Y-86472134D02*
X98590658Y-85140007D01*
X98590658Y-85140007D02*
X98654799Y-83929392D01*
X98654799Y-83929392D02*
X98745720Y-82998292D01*
X98745720Y-82998292D02*
X98889462Y-82202892D01*
X98889462Y-82202892D02*
X99112070Y-81399374D01*
X99112070Y-81399374D02*
X99439585Y-80443923D01*
X99439585Y-80443923D02*
X99442507Y-80435811D01*
X99442507Y-80435811D02*
X100181616Y-78384121D01*
X100181616Y-78384121D02*
X97075880Y-73768311D01*
X97075880Y-73768311D02*
X96208157Y-72479877D01*
X96208157Y-72479877D02*
X95387800Y-71264008D01*
X95387800Y-71264008D02*
X94653846Y-70178387D01*
X94653846Y-70178387D02*
X94045332Y-69280697D01*
X94045332Y-69280697D02*
X93601294Y-68628623D01*
X93601294Y-68628623D02*
X93384974Y-68314332D01*
X93384974Y-68314332D02*
X92937277Y-67436085D01*
X92937277Y-67436085D02*
X92895740Y-66668723D01*
X92895740Y-66668723D02*
X93260127Y-66016560D01*
X93260127Y-66016560D02*
X93522379Y-65786761D01*
X93522379Y-65786761D02*
X93796669Y-65613197D01*
X93796669Y-65613197D02*
X94131062Y-65486137D01*
X94131062Y-65486137D02*
X94599908Y-65394991D01*
X94599908Y-65394991D02*
X95277555Y-65329170D01*
X95277555Y-65329170D02*
X96238352Y-65278084D01*
X96238352Y-65278084D02*
X97384545Y-65236667D01*
X97384545Y-65236667D02*
X100650164Y-65130834D01*
X100650164Y-65130834D02*
X95481985Y-54759167D01*
X95481985Y-54759167D02*
X94095414Y-51966382D01*
X94095414Y-51966382D02*
X92892242Y-49516684D01*
X92892242Y-49516684D02*
X91859905Y-47377910D01*
X91859905Y-47377910D02*
X90985838Y-45517903D01*
X90985838Y-45517903D02*
X90257474Y-43904503D01*
X90257474Y-43904503D02*
X89662248Y-42505549D01*
X89662248Y-42505549D02*
X89187596Y-41288883D01*
X89187596Y-41288883D02*
X88820952Y-40222344D01*
X88820952Y-40222344D02*
X88549750Y-39273774D01*
X88549750Y-39273774D02*
X88361426Y-38411012D01*
X88361426Y-38411012D02*
X88243414Y-37601899D01*
X88243414Y-37601899D02*
X88183149Y-36814275D01*
X88183149Y-36814275D02*
X88167982Y-36039719D01*
X88167982Y-36039719D02*
X88255227Y-34741419D01*
X88255227Y-34741419D02*
X88540352Y-33676901D01*
X88540352Y-33676901D02*
X89070967Y-32779424D01*
X89070967Y-32779424D02*
X89894680Y-31982249D01*
X89894680Y-31982249D02*
X91059102Y-31218637D01*
X91059102Y-31218637D02*
X91942954Y-30747883D01*
X91942954Y-30747883D02*
X92956320Y-30279113D01*
X92956320Y-30279113D02*
X93970677Y-29907159D01*
X93970677Y-29907159D02*
X95060041Y-29617981D01*
X95060041Y-29617981D02*
X96298428Y-29397539D01*
X96298428Y-29397539D02*
X97759855Y-29231791D01*
X97759855Y-29231791D02*
X99518338Y-29106698D01*
X99518338Y-29106698D02*
X100969167Y-29035653D01*
X100969167Y-29035653D02*
X102718698Y-28958084D01*
X102718698Y-28958084D02*
X104122798Y-28886660D01*
X104122798Y-28886660D02*
X105259157Y-28814138D01*
X105259157Y-28814138D02*
X106205464Y-28733274D01*
X106205464Y-28733274D02*
X107039409Y-28636827D01*
X107039409Y-28636827D02*
X107838683Y-28517553D01*
X107838683Y-28517553D02*
X108680975Y-28368208D01*
X108680975Y-28368208D02*
X109205235Y-28267800D01*
X109205235Y-28267800D02*
X110845096Y-28056058D01*
X110845096Y-28056058D02*
X112563394Y-28060528D01*
M02*
