G04 #@! TF.FileFunction,Paste,Top*
%FSLAX46Y46*%
G04 Gerber Fmt 4.6, Leading zero omitted, Abs format (unit mm)*
G04 Created by KiCad (PCBNEW 4.0.7-e2-6376~58~ubuntu16.04.1) date Wed Mar 28 00:34:47 2018*
%MOMM*%
%LPD*%
G01*
G04 APERTURE LIST*
%ADD10C,0.100000*%
%ADD11R,1.300000X0.700000*%
%ADD12C,1.000000*%
%ADD13R,0.700000X1.300000*%
%ADD14R,1.560000X0.650000*%
%ADD15R,3.100000X1.000000*%
%ADD16R,1.650000X0.400000*%
%ADD17R,2.500000X1.430000*%
G04 APERTURE END LIST*
D10*
D11*
X113460000Y-66660000D03*
X113460000Y-64760000D03*
D10*
G36*
X109369619Y-60591142D02*
X110288858Y-61510381D01*
X109793883Y-62005356D01*
X108874644Y-61086117D01*
X109369619Y-60591142D01*
X109369619Y-60591142D01*
G37*
G36*
X108026117Y-61934644D02*
X108945356Y-62853883D01*
X108450381Y-63348858D01*
X107531142Y-62429619D01*
X108026117Y-61934644D01*
X108026117Y-61934644D01*
G37*
G36*
X112128858Y-65389619D02*
X111209619Y-66308858D01*
X110714644Y-65813883D01*
X111633883Y-64894644D01*
X112128858Y-65389619D01*
X112128858Y-65389619D01*
G37*
G36*
X110785356Y-64046117D02*
X109866117Y-64965356D01*
X109371142Y-64470381D01*
X110290381Y-63551142D01*
X110785356Y-64046117D01*
X110785356Y-64046117D01*
G37*
D11*
X121170000Y-64400000D03*
X121170000Y-66300000D03*
D10*
G36*
X113032917Y-45340833D02*
X111907083Y-45990833D01*
X111557083Y-45384615D01*
X112682917Y-44734615D01*
X113032917Y-45340833D01*
X113032917Y-45340833D01*
G37*
G36*
X112082917Y-43695385D02*
X110957083Y-44345385D01*
X110607083Y-43739167D01*
X111732917Y-43089167D01*
X112082917Y-43695385D01*
X112082917Y-43695385D01*
G37*
D11*
X119220000Y-49510000D03*
X119220000Y-47610000D03*
D12*
X100012894Y-61041031D02*
X99104914Y-59259017D01*
X101794907Y-60133050D02*
X100886927Y-58351036D01*
X103576921Y-59225069D02*
X102668941Y-57443055D01*
X105358934Y-58317088D02*
X104450954Y-56535074D01*
X107140947Y-57409107D02*
X106232967Y-55627093D01*
X108922960Y-56501126D02*
X108014980Y-54719112D01*
X110704973Y-55593145D02*
X109796993Y-53811131D01*
X112486986Y-54685164D02*
X111579006Y-52903150D01*
X112453038Y-50213157D02*
X110671024Y-51121137D01*
X111545057Y-48431144D02*
X109763043Y-49339124D01*
X110637076Y-46649131D02*
X108855062Y-47557111D01*
X109729095Y-44867117D02*
X107947081Y-45775097D01*
X108821114Y-43085104D02*
X107039100Y-43993084D01*
X107913133Y-41303091D02*
X106131119Y-42211071D01*
X104315158Y-38647045D02*
X105223138Y-40429059D01*
X102533145Y-39555026D02*
X103441125Y-41337040D01*
X100751132Y-40463007D02*
X101659112Y-42245021D01*
X98969119Y-41370988D02*
X99877099Y-43153002D01*
X97187106Y-42278969D02*
X98095086Y-44060983D01*
X95405093Y-43186950D02*
X96313073Y-44968964D01*
X93623079Y-44094931D02*
X94531059Y-45876945D01*
X91841066Y-45002912D02*
X92749046Y-46784926D01*
D10*
G36*
X114002917Y-62180833D02*
X112877083Y-62830833D01*
X112527083Y-62224615D01*
X113652917Y-61574615D01*
X114002917Y-62180833D01*
X114002917Y-62180833D01*
G37*
G36*
X113052917Y-60535385D02*
X111927083Y-61185385D01*
X111577083Y-60579167D01*
X112702917Y-59929167D01*
X113052917Y-60535385D01*
X113052917Y-60535385D01*
G37*
G36*
X115275868Y-40787378D02*
X113995618Y-41013121D01*
X113874064Y-40323756D01*
X115154314Y-40098013D01*
X115275868Y-40787378D01*
X115275868Y-40787378D01*
G37*
G36*
X114945936Y-38916244D02*
X113665686Y-39141987D01*
X113544132Y-38452622D01*
X114824382Y-38226879D01*
X114945936Y-38916244D01*
X114945936Y-38916244D01*
G37*
D13*
X136320000Y-82600000D03*
X138220000Y-82600000D03*
D11*
X116960000Y-69840000D03*
X116960000Y-71740000D03*
X128020000Y-77150000D03*
X128020000Y-75250000D03*
D14*
X118720000Y-66320000D03*
X118720000Y-65370000D03*
X118720000Y-64420000D03*
X116020000Y-64420000D03*
X116020000Y-66320000D03*
X120210000Y-54590000D03*
X120210000Y-53640000D03*
X120210000Y-52690000D03*
X117510000Y-52690000D03*
X117510000Y-54590000D03*
D10*
G36*
X98100559Y-34905076D02*
X98807665Y-35612182D01*
X97747005Y-36672842D01*
X97039899Y-35965736D01*
X98100559Y-34905076D01*
X98100559Y-34905076D01*
G37*
G36*
X97004544Y-33809061D02*
X97711650Y-34516167D01*
X96650990Y-35576827D01*
X95943884Y-34869721D01*
X97004544Y-33809061D01*
X97004544Y-33809061D01*
G37*
G36*
X95837818Y-32642335D02*
X96544924Y-33349441D01*
X95484264Y-34410101D01*
X94777158Y-33702995D01*
X95837818Y-32642335D01*
X95837818Y-32642335D01*
G37*
G36*
X92372995Y-36107158D02*
X93080101Y-36814264D01*
X92019441Y-37874924D01*
X91312335Y-37167818D01*
X92372995Y-36107158D01*
X92372995Y-36107158D01*
G37*
G36*
X93504365Y-37238529D02*
X94211471Y-37945635D01*
X93150811Y-39006295D01*
X92443705Y-38299189D01*
X93504365Y-37238529D01*
X93504365Y-37238529D01*
G37*
G36*
X94635736Y-38369899D02*
X95342842Y-39077005D01*
X94282182Y-40137665D01*
X93575076Y-39430559D01*
X94635736Y-38369899D01*
X94635736Y-38369899D01*
G37*
G36*
X111671949Y-35513941D02*
X111811122Y-36504209D01*
X110325719Y-36712969D01*
X110186546Y-35722701D01*
X111671949Y-35513941D01*
X111671949Y-35513941D01*
G37*
G36*
X111456230Y-33979025D02*
X111595403Y-34969293D01*
X110110000Y-35178053D01*
X109970827Y-34187785D01*
X111456230Y-33979025D01*
X111456230Y-33979025D01*
G37*
G36*
X111226595Y-32345083D02*
X111365768Y-33335351D01*
X109880365Y-33544111D01*
X109741192Y-32553843D01*
X111226595Y-32345083D01*
X111226595Y-32345083D01*
G37*
G36*
X106374281Y-33027031D02*
X106513454Y-34017299D01*
X105028051Y-34226059D01*
X104888878Y-33235791D01*
X106374281Y-33027031D01*
X106374281Y-33027031D01*
G37*
G36*
X106596958Y-34611460D02*
X106736131Y-35601728D01*
X105250728Y-35810488D01*
X105111555Y-34820220D01*
X106596958Y-34611460D01*
X106596958Y-34611460D01*
G37*
G36*
X106819635Y-36195889D02*
X106958808Y-37186157D01*
X105473405Y-37394917D01*
X105334232Y-36404649D01*
X106819635Y-36195889D01*
X106819635Y-36195889D01*
G37*
G36*
X123470372Y-37188962D02*
X123296724Y-38173770D01*
X121819512Y-37913298D01*
X121993160Y-36928490D01*
X123470372Y-37188962D01*
X123470372Y-37188962D01*
G37*
G36*
X123739527Y-35662510D02*
X123565879Y-36647318D01*
X122088667Y-36386846D01*
X122262315Y-35402038D01*
X123739527Y-35662510D01*
X123739527Y-35662510D01*
G37*
G36*
X124026046Y-34037578D02*
X123852398Y-35022386D01*
X122375186Y-34761914D01*
X122548834Y-33777106D01*
X124026046Y-34037578D01*
X124026046Y-34037578D01*
G37*
G36*
X119200488Y-33186702D02*
X119026840Y-34171510D01*
X117549628Y-33911038D01*
X117723276Y-32926230D01*
X119200488Y-33186702D01*
X119200488Y-33186702D01*
G37*
G36*
X118922651Y-34762394D02*
X118749003Y-35747202D01*
X117271791Y-35486730D01*
X117445439Y-34501922D01*
X118922651Y-34762394D01*
X118922651Y-34762394D01*
G37*
G36*
X118644814Y-36338086D02*
X118471166Y-37322894D01*
X116993954Y-37062422D01*
X117167602Y-36077614D01*
X118644814Y-36338086D01*
X118644814Y-36338086D01*
G37*
G36*
X132917451Y-36609483D02*
X133021980Y-37604005D01*
X131530197Y-37760797D01*
X131425668Y-36766275D01*
X132917451Y-36609483D01*
X132917451Y-36609483D01*
G37*
G36*
X132755432Y-35067974D02*
X132859961Y-36062496D01*
X131368178Y-36219288D01*
X131263649Y-35224766D01*
X132755432Y-35067974D01*
X132755432Y-35067974D01*
G37*
G36*
X132582960Y-33427013D02*
X132687489Y-34421535D01*
X131195706Y-34578327D01*
X131091177Y-33583805D01*
X132582960Y-33427013D01*
X132582960Y-33427013D01*
G37*
G36*
X127709803Y-33939203D02*
X127814332Y-34933725D01*
X126322549Y-35090517D01*
X126218020Y-34095995D01*
X127709803Y-33939203D01*
X127709803Y-33939203D01*
G37*
G36*
X127877048Y-35530438D02*
X127981577Y-36524960D01*
X126489794Y-36681752D01*
X126385265Y-35687230D01*
X127877048Y-35530438D01*
X127877048Y-35530438D01*
G37*
G36*
X128044294Y-37121673D02*
X128148823Y-38116195D01*
X126657040Y-38272987D01*
X126552511Y-37278465D01*
X128044294Y-37121673D01*
X128044294Y-37121673D01*
G37*
G36*
X143240372Y-38248962D02*
X143066724Y-39233770D01*
X141589512Y-38973298D01*
X141763160Y-37988490D01*
X143240372Y-38248962D01*
X143240372Y-38248962D01*
G37*
G36*
X143509527Y-36722510D02*
X143335879Y-37707318D01*
X141858667Y-37446846D01*
X142032315Y-36462038D01*
X143509527Y-36722510D01*
X143509527Y-36722510D01*
G37*
G36*
X143796046Y-35097578D02*
X143622398Y-36082386D01*
X142145186Y-35821914D01*
X142318834Y-34837106D01*
X143796046Y-35097578D01*
X143796046Y-35097578D01*
G37*
G36*
X138970488Y-34246702D02*
X138796840Y-35231510D01*
X137319628Y-34971038D01*
X137493276Y-33986230D01*
X138970488Y-34246702D01*
X138970488Y-34246702D01*
G37*
G36*
X138692651Y-35822394D02*
X138519003Y-36807202D01*
X137041791Y-36546730D01*
X137215439Y-35561922D01*
X138692651Y-35822394D01*
X138692651Y-35822394D01*
G37*
G36*
X138414814Y-37398086D02*
X138241166Y-38382894D01*
X136763954Y-38122422D01*
X136937602Y-37137614D01*
X138414814Y-37398086D01*
X138414814Y-37398086D01*
G37*
G36*
X154638937Y-37794100D02*
X154708693Y-38791664D01*
X153212347Y-38896298D01*
X153142591Y-37898734D01*
X154638937Y-37794100D01*
X154638937Y-37794100D01*
G37*
G36*
X154530815Y-36247876D02*
X154600571Y-37245440D01*
X153104225Y-37350074D01*
X153034469Y-36352510D01*
X154530815Y-36247876D01*
X154530815Y-36247876D01*
G37*
G36*
X154415717Y-34601895D02*
X154485473Y-35599459D01*
X152989127Y-35704093D01*
X152919371Y-34706529D01*
X154415717Y-34601895D01*
X154415717Y-34601895D01*
G37*
G36*
X149527653Y-34943702D02*
X149597409Y-35941266D01*
X148101063Y-36045900D01*
X148031307Y-35048336D01*
X149527653Y-34943702D01*
X149527653Y-34943702D01*
G37*
G36*
X149639263Y-36539804D02*
X149709019Y-37537368D01*
X148212673Y-37642002D01*
X148142917Y-36644438D01*
X149639263Y-36539804D01*
X149639263Y-36539804D01*
G37*
G36*
X149750873Y-38135907D02*
X149820629Y-39133471D01*
X148324283Y-39238105D01*
X148254527Y-38240541D01*
X149750873Y-38135907D01*
X149750873Y-38135907D01*
G37*
G36*
X163961370Y-38646280D02*
X163753458Y-39624428D01*
X162286236Y-39312560D01*
X162494148Y-38334412D01*
X163961370Y-38646280D01*
X163961370Y-38646280D01*
G37*
G36*
X164283633Y-37130151D02*
X164075721Y-38108299D01*
X162608499Y-37796431D01*
X162816411Y-36818283D01*
X164283633Y-37130151D01*
X164283633Y-37130151D01*
G37*
G36*
X164626687Y-35516207D02*
X164418775Y-36494355D01*
X162951553Y-36182487D01*
X163159465Y-35204339D01*
X164626687Y-35516207D01*
X164626687Y-35516207D01*
G37*
G36*
X159833764Y-34497440D02*
X159625852Y-35475588D01*
X158158630Y-35163720D01*
X158366542Y-34185572D01*
X159833764Y-34497440D01*
X159833764Y-34497440D01*
G37*
G36*
X159501105Y-36062476D02*
X159293193Y-37040624D01*
X157825971Y-36728756D01*
X158033883Y-35750608D01*
X159501105Y-36062476D01*
X159501105Y-36062476D01*
G37*
G36*
X159168447Y-37627513D02*
X158960535Y-38605661D01*
X157493313Y-38293793D01*
X157701225Y-37315645D01*
X159168447Y-37627513D01*
X159168447Y-37627513D01*
G37*
G36*
X167104924Y-51200559D02*
X166397818Y-51907665D01*
X165337158Y-50847005D01*
X166044264Y-50139899D01*
X167104924Y-51200559D01*
X167104924Y-51200559D01*
G37*
G36*
X168200939Y-50104544D02*
X167493833Y-50811650D01*
X166433173Y-49750990D01*
X167140279Y-49043884D01*
X168200939Y-50104544D01*
X168200939Y-50104544D01*
G37*
G36*
X169367665Y-48937818D02*
X168660559Y-49644924D01*
X167599899Y-48584264D01*
X168307005Y-47877158D01*
X169367665Y-48937818D01*
X169367665Y-48937818D01*
G37*
G36*
X165902842Y-45472995D02*
X165195736Y-46180101D01*
X164135076Y-45119441D01*
X164842182Y-44412335D01*
X165902842Y-45472995D01*
X165902842Y-45472995D01*
G37*
G36*
X164771471Y-46604365D02*
X164064365Y-47311471D01*
X163003705Y-46250811D01*
X163710811Y-45543705D01*
X164771471Y-46604365D01*
X164771471Y-46604365D01*
G37*
G36*
X163640101Y-47735736D02*
X162932995Y-48442842D01*
X161872335Y-47382182D01*
X162579441Y-46675076D01*
X163640101Y-47735736D01*
X163640101Y-47735736D01*
G37*
D15*
X102055000Y-86040000D03*
X102055000Y-90040000D03*
X110965000Y-90040000D03*
X110965000Y-86040000D03*
X112275000Y-95930000D03*
X112275000Y-99930000D03*
X121185000Y-99930000D03*
X121185000Y-95930000D03*
X122335000Y-85870000D03*
X122335000Y-89870000D03*
X131245000Y-89870000D03*
X131245000Y-85870000D03*
X142535000Y-85930000D03*
X142535000Y-89930000D03*
X151445000Y-89930000D03*
X151445000Y-85930000D03*
X162955000Y-85860000D03*
X162955000Y-89860000D03*
X171865000Y-89860000D03*
X171865000Y-85860000D03*
X152515000Y-95840000D03*
X152515000Y-99840000D03*
X161425000Y-99840000D03*
X161425000Y-95840000D03*
D16*
X168650000Y-79900000D03*
X168650000Y-79250000D03*
X168650000Y-78600000D03*
X168650000Y-77950000D03*
X168650000Y-77300000D03*
D17*
X171770000Y-79560000D03*
X171770000Y-77640000D03*
D10*
G36*
X150474974Y-81467716D02*
X152737716Y-79204974D01*
X154576194Y-81043452D01*
X152313452Y-83306194D01*
X150474974Y-81467716D01*
X150474974Y-81467716D01*
G37*
G36*
X145383806Y-76376548D02*
X147646548Y-74113806D01*
X149485026Y-75952284D01*
X147222284Y-78215026D01*
X145383806Y-76376548D01*
X145383806Y-76376548D01*
G37*
G36*
X148281142Y-69450381D02*
X149200381Y-68531142D01*
X149695356Y-69026117D01*
X148776117Y-69945356D01*
X148281142Y-69450381D01*
X148281142Y-69450381D01*
G37*
G36*
X149624644Y-70793883D02*
X150543883Y-69874644D01*
X151038858Y-70369619D01*
X150119619Y-71288858D01*
X149624644Y-70793883D01*
X149624644Y-70793883D01*
G37*
M02*
