G04 #@! TF.FileFunction,Soldermask,Top*
%FSLAX46Y46*%
G04 Gerber Fmt 4.6, Leading zero omitted, Abs format (unit mm)*
G04 Created by KiCad (PCBNEW 4.0.7-e2-6376~58~ubuntu16.04.1) date Tue Mar 27 00:42:42 2018*
%MOMM*%
%LPD*%
G01*
G04 APERTURE LIST*
%ADD10C,0.100000*%
%ADD11R,1.700000X1.100000*%
%ADD12C,1.400000*%
%ADD13C,3.400000*%
%ADD14C,3.000000*%
%ADD15C,2.400000*%
%ADD16R,2.000000X2.000000*%
%ADD17C,2.000000*%
%ADD18R,1.100000X1.700000*%
%ADD19R,1.960000X1.050000*%
%ADD20R,3.500000X1.400000*%
%ADD21C,4.900000*%
%ADD22R,2.050000X0.800000*%
%ADD23O,1.900000X1.500000*%
%ADD24O,2.100000X1.600000*%
%ADD25R,2.900000X1.830000*%
%ADD26C,13.400000*%
%ADD27R,3.000000X2.400000*%
%ADD28O,3.000000X2.400000*%
G04 APERTURE END LIST*
D10*
D11*
X113460000Y-66660000D03*
X113460000Y-64760000D03*
D10*
G36*
X109369619Y-60308300D02*
X110571700Y-61510381D01*
X109793883Y-62288198D01*
X108591802Y-61086117D01*
X109369619Y-60308300D01*
X109369619Y-60308300D01*
G37*
G36*
X108026117Y-61651802D02*
X109228198Y-62853883D01*
X108450381Y-63631700D01*
X107248300Y-62429619D01*
X108026117Y-61651802D01*
X108026117Y-61651802D01*
G37*
G36*
X112411700Y-65389619D02*
X111209619Y-66591700D01*
X110431802Y-65813883D01*
X111633883Y-64611802D01*
X112411700Y-65389619D01*
X112411700Y-65389619D01*
G37*
G36*
X111068198Y-64046117D02*
X109866117Y-65248198D01*
X109088300Y-64470381D01*
X110290381Y-63268300D01*
X111068198Y-64046117D01*
X111068198Y-64046117D01*
G37*
D11*
X121170000Y-64400000D03*
X121170000Y-66300000D03*
D10*
G36*
X113306122Y-45414038D02*
X111833878Y-46264038D01*
X111283878Y-45311410D01*
X112756122Y-44461410D01*
X113306122Y-45414038D01*
X113306122Y-45414038D01*
G37*
G36*
X112356122Y-43768590D02*
X110883878Y-44618590D01*
X110333878Y-43665962D01*
X111806122Y-42815962D01*
X112356122Y-43768590D01*
X112356122Y-43768590D01*
G37*
D11*
X119220000Y-49510000D03*
X119220000Y-47610000D03*
D12*
X100012894Y-61041031D02*
X99104914Y-59259017D01*
X101794907Y-60133050D02*
X100886927Y-58351036D01*
X103576921Y-59225069D02*
X102668941Y-57443055D01*
X105358934Y-58317088D02*
X104450954Y-56535074D01*
X107140947Y-57409107D02*
X106232967Y-55627093D01*
X108922960Y-56501126D02*
X108014980Y-54719112D01*
X110704973Y-55593145D02*
X109796993Y-53811131D01*
X112486986Y-54685164D02*
X111579006Y-52903150D01*
X112453038Y-50213157D02*
X110671024Y-51121137D01*
X111545057Y-48431144D02*
X109763043Y-49339124D01*
X110637076Y-46649131D02*
X108855062Y-47557111D01*
X109729095Y-44867117D02*
X107947081Y-45775097D01*
X108821114Y-43085104D02*
X107039100Y-43993084D01*
X107913133Y-41303091D02*
X106131119Y-42211071D01*
X104315158Y-38647045D02*
X105223138Y-40429059D01*
X102533145Y-39555026D02*
X103441125Y-41337040D01*
X100751132Y-40463007D02*
X101659112Y-42245021D01*
X98969119Y-41370988D02*
X99877099Y-43153002D01*
X97187106Y-42278969D02*
X98095086Y-44060983D01*
X95405093Y-43186950D02*
X96313073Y-44968964D01*
X93623079Y-44094931D02*
X94531059Y-45876945D01*
X91841066Y-45002912D02*
X92749046Y-46784926D01*
D13*
X99198075Y-72451614D03*
D14*
X102756765Y-63778914D03*
X103105933Y-66800186D03*
D13*
X110554260Y-69616643D03*
X104533171Y-74281027D03*
D10*
G36*
X175218752Y-49705469D02*
X178000304Y-50829289D01*
X177101248Y-53054531D01*
X174319696Y-51930711D01*
X175218752Y-49705469D01*
X175218752Y-49705469D01*
G37*
D15*
X175486654Y-53847429D02*
X174930344Y-53622665D01*
X174535154Y-56202476D02*
X173978844Y-55977712D01*
X173583653Y-58557523D02*
X173027343Y-58332759D01*
D16*
X115900000Y-79680000D03*
D17*
X115900000Y-77180000D03*
D16*
X114300000Y-80350937D03*
D17*
X117500000Y-76509063D03*
D10*
G36*
X114276122Y-62254038D02*
X112803878Y-63104038D01*
X112253878Y-62151410D01*
X113726122Y-61301410D01*
X114276122Y-62254038D01*
X114276122Y-62254038D01*
G37*
G36*
X113326122Y-60608590D02*
X111853878Y-61458590D01*
X111303878Y-60505962D01*
X112776122Y-59655962D01*
X113326122Y-60608590D01*
X113326122Y-60608590D01*
G37*
G36*
X115507559Y-40949610D02*
X113833386Y-41244812D01*
X113642373Y-40161524D01*
X115316546Y-39866322D01*
X115507559Y-40949610D01*
X115507559Y-40949610D01*
G37*
G36*
X115177627Y-39078476D02*
X113503454Y-39373678D01*
X113312441Y-38290390D01*
X114986614Y-37995188D01*
X115177627Y-39078476D01*
X115177627Y-39078476D01*
G37*
D18*
X136320000Y-82600000D03*
X138220000Y-82600000D03*
D11*
X116960000Y-69840000D03*
X116960000Y-71740000D03*
X128020000Y-77150000D03*
X128020000Y-75250000D03*
D19*
X118720000Y-66320000D03*
X118720000Y-65370000D03*
X118720000Y-64420000D03*
X116020000Y-64420000D03*
X116020000Y-66320000D03*
X120210000Y-54590000D03*
X120210000Y-53640000D03*
X120210000Y-52690000D03*
X117510000Y-52690000D03*
X117510000Y-54590000D03*
D10*
G36*
X98100559Y-34622233D02*
X99090508Y-35612182D01*
X97747005Y-36955685D01*
X96757056Y-35965736D01*
X98100559Y-34622233D01*
X98100559Y-34622233D01*
G37*
G36*
X97004544Y-33526218D02*
X97994493Y-34516167D01*
X96650990Y-35859670D01*
X95661041Y-34869721D01*
X97004544Y-33526218D01*
X97004544Y-33526218D01*
G37*
G36*
X95837818Y-32359492D02*
X96827767Y-33349441D01*
X95484264Y-34692944D01*
X94494315Y-33702995D01*
X95837818Y-32359492D01*
X95837818Y-32359492D01*
G37*
G36*
X92372995Y-35824315D02*
X93362944Y-36814264D01*
X92019441Y-38157767D01*
X91029492Y-37167818D01*
X92372995Y-35824315D01*
X92372995Y-35824315D01*
G37*
G36*
X93504365Y-36955686D02*
X94494314Y-37945635D01*
X93150811Y-39289138D01*
X92160862Y-38299189D01*
X93504365Y-36955686D01*
X93504365Y-36955686D01*
G37*
G36*
X94635736Y-38087056D02*
X95625685Y-39077005D01*
X94282182Y-40420508D01*
X93292233Y-39430559D01*
X94635736Y-38087056D01*
X94635736Y-38087056D01*
G37*
G36*
X111842167Y-35288053D02*
X112037010Y-36674428D01*
X110155501Y-36938857D01*
X109960658Y-35552482D01*
X111842167Y-35288053D01*
X111842167Y-35288053D01*
G37*
G36*
X111626448Y-33753137D02*
X111821291Y-35139512D01*
X109939782Y-35403941D01*
X109744939Y-34017566D01*
X111626448Y-33753137D01*
X111626448Y-33753137D01*
G37*
G36*
X111396813Y-32119195D02*
X111591656Y-33505570D01*
X109710147Y-33769999D01*
X109515304Y-32383624D01*
X111396813Y-32119195D01*
X111396813Y-32119195D01*
G37*
G36*
X106544499Y-32801143D02*
X106739342Y-34187518D01*
X104857833Y-34451947D01*
X104662990Y-33065572D01*
X106544499Y-32801143D01*
X106544499Y-32801143D01*
G37*
G36*
X106767176Y-34385572D02*
X106962019Y-35771947D01*
X105080510Y-36036376D01*
X104885667Y-34650001D01*
X106767176Y-34385572D01*
X106767176Y-34385572D01*
G37*
G36*
X106989853Y-35970001D02*
X107184696Y-37356376D01*
X105303187Y-37620805D01*
X105108344Y-36234430D01*
X106989853Y-35970001D01*
X106989853Y-35970001D01*
G37*
G36*
X123702063Y-37026730D02*
X123458956Y-38405461D01*
X121587821Y-38075530D01*
X121830928Y-36696799D01*
X123702063Y-37026730D01*
X123702063Y-37026730D01*
G37*
G36*
X123971218Y-35500278D02*
X123728111Y-36879009D01*
X121856976Y-36549078D01*
X122100083Y-35170347D01*
X123971218Y-35500278D01*
X123971218Y-35500278D01*
G37*
G36*
X124257737Y-33875346D02*
X124014630Y-35254077D01*
X122143495Y-34924146D01*
X122386602Y-33545415D01*
X124257737Y-33875346D01*
X124257737Y-33875346D01*
G37*
G36*
X119432179Y-33024470D02*
X119189072Y-34403201D01*
X117317937Y-34073270D01*
X117561044Y-32694539D01*
X119432179Y-33024470D01*
X119432179Y-33024470D01*
G37*
G36*
X119154342Y-34600162D02*
X118911235Y-35978893D01*
X117040100Y-35648962D01*
X117283207Y-34270231D01*
X119154342Y-34600162D01*
X119154342Y-34600162D01*
G37*
G36*
X118876505Y-36175854D02*
X118633398Y-37554585D01*
X116762263Y-37224654D01*
X117005370Y-35845923D01*
X118876505Y-36175854D01*
X118876505Y-36175854D01*
G37*
G36*
X133095450Y-36389673D02*
X133241790Y-37782003D01*
X131352198Y-37980607D01*
X131205858Y-36588277D01*
X133095450Y-36389673D01*
X133095450Y-36389673D01*
G37*
G36*
X132933431Y-34848164D02*
X133079771Y-36240494D01*
X131190179Y-36439098D01*
X131043839Y-35046768D01*
X132933431Y-34848164D01*
X132933431Y-34848164D01*
G37*
G36*
X132760959Y-33207203D02*
X132907299Y-34599533D01*
X131017707Y-34798137D01*
X130871367Y-33405807D01*
X132760959Y-33207203D01*
X132760959Y-33207203D01*
G37*
G36*
X127887802Y-33719393D02*
X128034142Y-35111723D01*
X126144550Y-35310327D01*
X125998210Y-33917997D01*
X127887802Y-33719393D01*
X127887802Y-33719393D01*
G37*
G36*
X128055047Y-35310628D02*
X128201387Y-36702958D01*
X126311795Y-36901562D01*
X126165455Y-35509232D01*
X128055047Y-35310628D01*
X128055047Y-35310628D01*
G37*
G36*
X128222293Y-36901863D02*
X128368633Y-38294193D01*
X126479041Y-38492797D01*
X126332701Y-37100467D01*
X128222293Y-36901863D01*
X128222293Y-36901863D01*
G37*
G36*
X143472063Y-38086730D02*
X143228956Y-39465461D01*
X141357821Y-39135530D01*
X141600928Y-37756799D01*
X143472063Y-38086730D01*
X143472063Y-38086730D01*
G37*
G36*
X143741218Y-36560278D02*
X143498111Y-37939009D01*
X141626976Y-37609078D01*
X141870083Y-36230347D01*
X143741218Y-36560278D01*
X143741218Y-36560278D01*
G37*
G36*
X144027737Y-34935346D02*
X143784630Y-36314077D01*
X141913495Y-35984146D01*
X142156602Y-34605415D01*
X144027737Y-34935346D01*
X144027737Y-34935346D01*
G37*
G36*
X139202179Y-34084470D02*
X138959072Y-35463201D01*
X137087937Y-35133270D01*
X137331044Y-33754539D01*
X139202179Y-34084470D01*
X139202179Y-34084470D01*
G37*
G36*
X138924342Y-35660162D02*
X138681235Y-37038893D01*
X136810100Y-36708962D01*
X137053207Y-35330231D01*
X138924342Y-35660162D01*
X138924342Y-35660162D01*
G37*
G36*
X138646505Y-37235854D02*
X138403398Y-38614585D01*
X136532263Y-38284654D01*
X136775370Y-36905923D01*
X138646505Y-37235854D01*
X138646505Y-37235854D01*
G37*
G36*
X154824498Y-37580636D02*
X154922157Y-38977225D01*
X153026786Y-39109762D01*
X152929127Y-37713173D01*
X154824498Y-37580636D01*
X154824498Y-37580636D01*
G37*
G36*
X154716376Y-36034412D02*
X154814035Y-37431001D01*
X152918664Y-37563538D01*
X152821005Y-36166949D01*
X154716376Y-36034412D01*
X154716376Y-36034412D01*
G37*
G36*
X154601278Y-34388431D02*
X154698937Y-35785020D01*
X152803566Y-35917557D01*
X152705907Y-34520968D01*
X154601278Y-34388431D01*
X154601278Y-34388431D01*
G37*
G36*
X149713214Y-34730238D02*
X149810873Y-36126827D01*
X147915502Y-36259364D01*
X147817843Y-34862775D01*
X149713214Y-34730238D01*
X149713214Y-34730238D01*
G37*
G36*
X149824824Y-36326340D02*
X149922483Y-37722929D01*
X148027112Y-37855466D01*
X147929453Y-36458877D01*
X149824824Y-36326340D01*
X149824824Y-36326340D01*
G37*
G36*
X149936434Y-37922443D02*
X150034093Y-39319032D01*
X148138722Y-39451569D01*
X148041063Y-38054980D01*
X149936434Y-37922443D01*
X149936434Y-37922443D01*
G37*
G36*
X164198581Y-38492233D02*
X163907505Y-39861639D01*
X162049025Y-39466607D01*
X162340101Y-38097201D01*
X164198581Y-38492233D01*
X164198581Y-38492233D01*
G37*
G36*
X164520844Y-36976104D02*
X164229768Y-38345510D01*
X162371288Y-37950478D01*
X162662364Y-36581072D01*
X164520844Y-36976104D01*
X164520844Y-36976104D01*
G37*
G36*
X164863898Y-35362160D02*
X164572822Y-36731566D01*
X162714342Y-36336534D01*
X163005418Y-34967128D01*
X164863898Y-35362160D01*
X164863898Y-35362160D01*
G37*
G36*
X160070975Y-34343393D02*
X159779899Y-35712799D01*
X157921419Y-35317767D01*
X158212495Y-33948361D01*
X160070975Y-34343393D01*
X160070975Y-34343393D01*
G37*
G36*
X159738316Y-35908429D02*
X159447240Y-37277835D01*
X157588760Y-36882803D01*
X157879836Y-35513397D01*
X159738316Y-35908429D01*
X159738316Y-35908429D01*
G37*
G36*
X159405658Y-37473466D02*
X159114582Y-38842872D01*
X157256102Y-38447840D01*
X157547178Y-37078434D01*
X159405658Y-37473466D01*
X159405658Y-37473466D01*
G37*
G36*
X167387767Y-51200559D02*
X166397818Y-52190508D01*
X165054315Y-50847005D01*
X166044264Y-49857056D01*
X167387767Y-51200559D01*
X167387767Y-51200559D01*
G37*
G36*
X168483782Y-50104544D02*
X167493833Y-51094493D01*
X166150330Y-49750990D01*
X167140279Y-48761041D01*
X168483782Y-50104544D01*
X168483782Y-50104544D01*
G37*
G36*
X169650508Y-48937818D02*
X168660559Y-49927767D01*
X167317056Y-48584264D01*
X168307005Y-47594315D01*
X169650508Y-48937818D01*
X169650508Y-48937818D01*
G37*
G36*
X166185685Y-45472995D02*
X165195736Y-46462944D01*
X163852233Y-45119441D01*
X164842182Y-44129492D01*
X166185685Y-45472995D01*
X166185685Y-45472995D01*
G37*
G36*
X165054314Y-46604365D02*
X164064365Y-47594314D01*
X162720862Y-46250811D01*
X163710811Y-45260862D01*
X165054314Y-46604365D01*
X165054314Y-46604365D01*
G37*
G36*
X163922944Y-47735736D02*
X162932995Y-48725685D01*
X161589492Y-47382182D01*
X162579441Y-46392233D01*
X163922944Y-47735736D01*
X163922944Y-47735736D01*
G37*
D20*
X102055000Y-86040000D03*
X102055000Y-90040000D03*
X110965000Y-90040000D03*
X110965000Y-86040000D03*
X112275000Y-95930000D03*
X112275000Y-99930000D03*
X121185000Y-99930000D03*
X121185000Y-95930000D03*
X122335000Y-85870000D03*
X122335000Y-89870000D03*
X131245000Y-89870000D03*
X131245000Y-85870000D03*
X142535000Y-85930000D03*
X142535000Y-89930000D03*
X151445000Y-89930000D03*
X151445000Y-85930000D03*
X162955000Y-85860000D03*
X162955000Y-89860000D03*
X171865000Y-89860000D03*
X171865000Y-85860000D03*
X152515000Y-95840000D03*
X152515000Y-99840000D03*
X161425000Y-99840000D03*
X161425000Y-95840000D03*
D21*
X166700000Y-68700000D03*
X160700000Y-68700000D03*
D22*
X168650000Y-79900000D03*
X168650000Y-79250000D03*
X168650000Y-78600000D03*
X168650000Y-77950000D03*
X168650000Y-77300000D03*
D23*
X168530000Y-81020000D03*
X168530000Y-76180000D03*
D24*
X171530000Y-81330000D03*
X171530000Y-75870000D03*
D25*
X171770000Y-79560000D03*
X171770000Y-77640000D03*
D10*
G36*
X150192132Y-81467716D02*
X152737716Y-78922132D01*
X154859036Y-81043452D01*
X152313452Y-83589036D01*
X150192132Y-81467716D01*
X150192132Y-81467716D01*
G37*
G36*
X145100964Y-76376548D02*
X147646548Y-73830964D01*
X149767868Y-75952284D01*
X147222284Y-78497868D01*
X145100964Y-76376548D01*
X145100964Y-76376548D01*
G37*
G36*
X147998300Y-69450381D02*
X149200381Y-68248300D01*
X149978198Y-69026117D01*
X148776117Y-70228198D01*
X147998300Y-69450381D01*
X147998300Y-69450381D01*
G37*
G36*
X149341802Y-70793883D02*
X150543883Y-69591802D01*
X151321700Y-70369619D01*
X150119619Y-71571700D01*
X149341802Y-70793883D01*
X149341802Y-70793883D01*
G37*
D26*
X174680000Y-40850000D03*
D27*
X134615000Y-46270000D03*
D28*
X134615000Y-48810000D03*
X134615000Y-51350000D03*
X134615000Y-53890000D03*
M02*
