G04 #@! TF.FileFunction,Legend,Bot*
%FSLAX46Y46*%
G04 Gerber Fmt 4.6, Leading zero omitted, Abs format (unit mm)*
G04 Created by KiCad (PCBNEW 4.0.7-e2-6376~58~ubuntu16.04.1) date Tue Mar 27 00:42:42 2018*
%MOMM*%
%LPD*%
G01*
G04 APERTURE LIST*
%ADD10C,0.100000*%
%ADD11C,0.300000*%
%ADD12C,3.400000*%
%ADD13C,3.000000*%
%ADD14C,2.400000*%
%ADD15R,2.000000X2.000000*%
%ADD16C,2.000000*%
%ADD17C,4.900000*%
%ADD18O,1.900000X1.500000*%
%ADD19O,2.100000X1.600000*%
%ADD20C,13.400000*%
%ADD21R,3.000000X2.400000*%
%ADD22O,3.000000X2.400000*%
G04 APERTURE END LIST*
D10*
D11*
X170343570Y-59913571D02*
X170343570Y-58413571D01*
X169843570Y-59485000D01*
X169343570Y-58413571D01*
X169343570Y-59913571D01*
X168700713Y-59485000D02*
X167986427Y-59485000D01*
X168843570Y-59913571D02*
X168343570Y-58413571D01*
X167843570Y-59913571D01*
X166557856Y-58485000D02*
X166700713Y-58413571D01*
X166914999Y-58413571D01*
X167129284Y-58485000D01*
X167272142Y-58627857D01*
X167343570Y-58770714D01*
X167414999Y-59056429D01*
X167414999Y-59270714D01*
X167343570Y-59556429D01*
X167272142Y-59699286D01*
X167129284Y-59842143D01*
X166914999Y-59913571D01*
X166772142Y-59913571D01*
X166557856Y-59842143D01*
X166486427Y-59770714D01*
X166486427Y-59270714D01*
X166772142Y-59270714D01*
X165914999Y-59842143D02*
X165700713Y-59913571D01*
X165343570Y-59913571D01*
X165200713Y-59842143D01*
X165129284Y-59770714D01*
X165057856Y-59627857D01*
X165057856Y-59485000D01*
X165129284Y-59342143D01*
X165200713Y-59270714D01*
X165343570Y-59199286D01*
X165629284Y-59127857D01*
X165772142Y-59056429D01*
X165843570Y-58985000D01*
X165914999Y-58842143D01*
X165914999Y-58699286D01*
X165843570Y-58556429D01*
X165772142Y-58485000D01*
X165629284Y-58413571D01*
X165272142Y-58413571D01*
X165057856Y-58485000D01*
X164629285Y-58913571D02*
X164057856Y-58913571D01*
X164414999Y-58413571D02*
X164414999Y-59699286D01*
X164343571Y-59842143D01*
X164200713Y-59913571D01*
X164057856Y-59913571D01*
X163343570Y-59913571D02*
X163486428Y-59842143D01*
X163557856Y-59770714D01*
X163629285Y-59627857D01*
X163629285Y-59199286D01*
X163557856Y-59056429D01*
X163486428Y-58985000D01*
X163343570Y-58913571D01*
X163129285Y-58913571D01*
X162986428Y-58985000D01*
X162914999Y-59056429D01*
X162843570Y-59199286D01*
X162843570Y-59627857D01*
X162914999Y-59770714D01*
X162986428Y-59842143D01*
X163129285Y-59913571D01*
X163343570Y-59913571D01*
X161557856Y-59842143D02*
X161700713Y-59913571D01*
X161986427Y-59913571D01*
X162129285Y-59842143D01*
X162200713Y-59770714D01*
X162272142Y-59627857D01*
X162272142Y-59199286D01*
X162200713Y-59056429D01*
X162129285Y-58985000D01*
X161986427Y-58913571D01*
X161700713Y-58913571D01*
X161557856Y-58985000D01*
X160914999Y-59913571D02*
X160914999Y-58413571D01*
X160772142Y-59342143D02*
X160343571Y-59913571D01*
X160343571Y-58913571D02*
X160914999Y-59485000D01*
X158557856Y-59913571D02*
X158557856Y-58413571D01*
X157986428Y-58413571D01*
X157843570Y-58485000D01*
X157772142Y-58556429D01*
X157700713Y-58699286D01*
X157700713Y-58913571D01*
X157772142Y-59056429D01*
X157843570Y-59127857D01*
X157986428Y-59199286D01*
X158557856Y-59199286D01*
X157057856Y-59913571D02*
X157057856Y-58913571D01*
X157057856Y-59199286D02*
X156986428Y-59056429D01*
X156914999Y-58985000D01*
X156772142Y-58913571D01*
X156629285Y-58913571D01*
X155914999Y-59913571D02*
X156057857Y-59842143D01*
X156129285Y-59770714D01*
X156200714Y-59627857D01*
X156200714Y-59199286D01*
X156129285Y-59056429D01*
X156057857Y-58985000D01*
X155914999Y-58913571D01*
X155700714Y-58913571D01*
X155557857Y-58985000D01*
X155486428Y-59056429D01*
X155414999Y-59199286D01*
X155414999Y-59627857D01*
X155486428Y-59770714D01*
X155557857Y-59842143D01*
X155700714Y-59913571D01*
X155914999Y-59913571D01*
X154986428Y-58913571D02*
X154414999Y-58913571D01*
X154772142Y-58413571D02*
X154772142Y-59699286D01*
X154700714Y-59842143D01*
X154557856Y-59913571D01*
X154414999Y-59913571D01*
X153700713Y-59913571D02*
X153843571Y-59842143D01*
X153914999Y-59770714D01*
X153986428Y-59627857D01*
X153986428Y-59199286D01*
X153914999Y-59056429D01*
X153843571Y-58985000D01*
X153700713Y-58913571D01*
X153486428Y-58913571D01*
X153343571Y-58985000D01*
X153272142Y-59056429D01*
X153200713Y-59199286D01*
X153200713Y-59627857D01*
X153272142Y-59770714D01*
X153343571Y-59842143D01*
X153486428Y-59913571D01*
X153700713Y-59913571D01*
X152772142Y-58913571D02*
X152200713Y-58913571D01*
X152557856Y-58413571D02*
X152557856Y-59699286D01*
X152486428Y-59842143D01*
X152343570Y-59913571D01*
X152200713Y-59913571D01*
X151843570Y-58913571D02*
X151486427Y-59913571D01*
X151129285Y-58913571D02*
X151486427Y-59913571D01*
X151629285Y-60270714D01*
X151700713Y-60342143D01*
X151843570Y-60413571D01*
X150557856Y-58913571D02*
X150557856Y-60413571D01*
X150557856Y-58985000D02*
X150414999Y-58913571D01*
X150129285Y-58913571D01*
X149986428Y-58985000D01*
X149914999Y-59056429D01*
X149843570Y-59199286D01*
X149843570Y-59627857D01*
X149914999Y-59770714D01*
X149986428Y-59842143D01*
X150129285Y-59913571D01*
X150414999Y-59913571D01*
X150557856Y-59842143D01*
X148629285Y-59842143D02*
X148772142Y-59913571D01*
X149057856Y-59913571D01*
X149200713Y-59842143D01*
X149272142Y-59699286D01*
X149272142Y-59127857D01*
X149200713Y-58985000D01*
X149057856Y-58913571D01*
X148772142Y-58913571D01*
X148629285Y-58985000D01*
X148557856Y-59127857D01*
X148557856Y-59270714D01*
X149272142Y-59413571D01*
X146272142Y-59127857D02*
X146057856Y-59199286D01*
X145986428Y-59270714D01*
X145914999Y-59413571D01*
X145914999Y-59627857D01*
X145986428Y-59770714D01*
X146057856Y-59842143D01*
X146200714Y-59913571D01*
X146772142Y-59913571D01*
X146772142Y-58413571D01*
X146272142Y-58413571D01*
X146129285Y-58485000D01*
X146057856Y-58556429D01*
X145986428Y-58699286D01*
X145986428Y-58842143D01*
X146057856Y-58985000D01*
X146129285Y-59056429D01*
X146272142Y-59127857D01*
X146772142Y-59127857D01*
X145057856Y-59913571D02*
X145200714Y-59842143D01*
X145272142Y-59770714D01*
X145343571Y-59627857D01*
X145343571Y-59199286D01*
X145272142Y-59056429D01*
X145200714Y-58985000D01*
X145057856Y-58913571D01*
X144843571Y-58913571D01*
X144700714Y-58985000D01*
X144629285Y-59056429D01*
X144557856Y-59199286D01*
X144557856Y-59627857D01*
X144629285Y-59770714D01*
X144700714Y-59842143D01*
X144843571Y-59913571D01*
X145057856Y-59913571D01*
X143272142Y-59913571D02*
X143272142Y-59127857D01*
X143343571Y-58985000D01*
X143486428Y-58913571D01*
X143772142Y-58913571D01*
X143914999Y-58985000D01*
X143272142Y-59842143D02*
X143414999Y-59913571D01*
X143772142Y-59913571D01*
X143914999Y-59842143D01*
X143986428Y-59699286D01*
X143986428Y-59556429D01*
X143914999Y-59413571D01*
X143772142Y-59342143D01*
X143414999Y-59342143D01*
X143272142Y-59270714D01*
X142557856Y-59913571D02*
X142557856Y-58913571D01*
X142557856Y-59199286D02*
X142486428Y-59056429D01*
X142414999Y-58985000D01*
X142272142Y-58913571D01*
X142129285Y-58913571D01*
X140986428Y-59913571D02*
X140986428Y-58413571D01*
X140986428Y-59842143D02*
X141129285Y-59913571D01*
X141414999Y-59913571D01*
X141557857Y-59842143D01*
X141629285Y-59770714D01*
X141700714Y-59627857D01*
X141700714Y-59199286D01*
X141629285Y-59056429D01*
X141557857Y-58985000D01*
X141414999Y-58913571D01*
X141129285Y-58913571D01*
X140986428Y-58985000D01*
X138272142Y-59913571D02*
X138772142Y-59199286D01*
X139129285Y-59913571D02*
X139129285Y-58413571D01*
X138557857Y-58413571D01*
X138414999Y-58485000D01*
X138343571Y-58556429D01*
X138272142Y-58699286D01*
X138272142Y-58913571D01*
X138343571Y-59056429D01*
X138414999Y-59127857D01*
X138557857Y-59199286D01*
X139129285Y-59199286D01*
X137057857Y-59842143D02*
X137200714Y-59913571D01*
X137486428Y-59913571D01*
X137629285Y-59842143D01*
X137700714Y-59699286D01*
X137700714Y-59127857D01*
X137629285Y-58985000D01*
X137486428Y-58913571D01*
X137200714Y-58913571D01*
X137057857Y-58985000D01*
X136986428Y-59127857D01*
X136986428Y-59270714D01*
X137700714Y-59413571D01*
X136486428Y-58913571D02*
X136129285Y-59913571D01*
X135772143Y-58913571D01*
X134129286Y-59485000D02*
X133415000Y-59485000D01*
X134272143Y-59913571D02*
X133772143Y-58413571D01*
X133272143Y-59913571D01*
%LPC*%
D12*
X99198075Y-72451614D03*
D13*
X102756765Y-63778914D03*
X103105933Y-66800186D03*
D12*
X110554260Y-69616643D03*
X104533171Y-74281027D03*
D10*
G36*
X175218752Y-49705469D02*
X178000304Y-50829289D01*
X177101248Y-53054531D01*
X174319696Y-51930711D01*
X175218752Y-49705469D01*
X175218752Y-49705469D01*
G37*
D14*
X175486654Y-53847429D02*
X174930344Y-53622665D01*
X174535154Y-56202476D02*
X173978844Y-55977712D01*
X173583653Y-58557523D02*
X173027343Y-58332759D01*
D15*
X115900000Y-79680000D03*
D16*
X115900000Y-77180000D03*
D15*
X114300000Y-80350937D03*
D16*
X117500000Y-76509063D03*
D17*
X166700000Y-68700000D03*
X160700000Y-68700000D03*
D18*
X168530000Y-81020000D03*
X168530000Y-76180000D03*
D19*
X171530000Y-81330000D03*
X171530000Y-75870000D03*
D20*
X174680000Y-40850000D03*
D21*
X134615000Y-46270000D03*
D22*
X134615000Y-48810000D03*
X134615000Y-51350000D03*
X134615000Y-53890000D03*
M02*
