G04 #@! TF.FileFunction,Copper,L1,Top,Signal*
%FSLAX46Y46*%
G04 Gerber Fmt 4.6, Leading zero omitted, Abs format (unit mm)*
G04 Created by KiCad (PCBNEW 4.0.7-e2-6376~58~ubuntu16.04.1) date Fri Apr 20 01:19:44 2018*
%MOMM*%
%LPD*%
G01*
G04 APERTURE LIST*
%ADD10C,0.100000*%
%ADD11C,4.064000*%
%ADD12R,0.700000X1.300000*%
%ADD13R,1.300000X0.700000*%
%ADD14C,1.000000*%
%ADD15C,2.000000*%
%ADD16R,1.600000X1.600000*%
%ADD17C,1.600000*%
%ADD18R,1.560000X0.650000*%
%ADD19R,3.100000X1.000000*%
%ADD20C,4.500000*%
%ADD21R,1.650000X0.400000*%
%ADD22O,1.500000X1.200000*%
%ADD23O,1.700000X1.700000*%
%ADD24R,2.500000X1.430000*%
%ADD25C,13.000000*%
%ADD26R,2.600000X2.000000*%
%ADD27O,2.600000X2.000000*%
%ADD28C,3.000000*%
%ADD29C,0.600000*%
%ADD30C,0.381000*%
%ADD31C,1.143000*%
%ADD32C,0.254000*%
G04 APERTURE END LIST*
D10*
D11*
X101080000Y-50100000D03*
D12*
X116590000Y-62410000D03*
X118490000Y-62410000D03*
D10*
G36*
X106287083Y-59919167D02*
X107412917Y-59269167D01*
X107762917Y-59875385D01*
X106637083Y-60525385D01*
X106287083Y-59919167D01*
X106287083Y-59919167D01*
G37*
G36*
X107237083Y-61564615D02*
X108362917Y-60914615D01*
X108712917Y-61520833D01*
X107587083Y-62170833D01*
X107237083Y-61564615D01*
X107237083Y-61564615D01*
G37*
D12*
X119020000Y-70000000D03*
X120920000Y-70000000D03*
D13*
X121170000Y-64400000D03*
X121170000Y-66300000D03*
D10*
G36*
X113032917Y-45340833D02*
X111907083Y-45990833D01*
X111557083Y-45384615D01*
X112682917Y-44734615D01*
X113032917Y-45340833D01*
X113032917Y-45340833D01*
G37*
G36*
X112082917Y-43695385D02*
X110957083Y-44345385D01*
X110607083Y-43739167D01*
X111732917Y-43089167D01*
X112082917Y-43695385D01*
X112082917Y-43695385D01*
G37*
D13*
X119220000Y-49510000D03*
X119220000Y-47610000D03*
D14*
X100012894Y-61041031D02*
X99104914Y-59259017D01*
X101794907Y-60133050D02*
X100886927Y-58351036D01*
X103576921Y-59225069D02*
X102668941Y-57443055D01*
X105358934Y-58317088D02*
X104450954Y-56535074D01*
X107140947Y-57409107D02*
X106232967Y-55627093D01*
X108922960Y-56501126D02*
X108014980Y-54719112D01*
X110704973Y-55593145D02*
X109796993Y-53811131D01*
X112486986Y-54685164D02*
X111579006Y-52903150D01*
X112453038Y-50213157D02*
X110671024Y-51121137D01*
X111545057Y-48431144D02*
X109763043Y-49339124D01*
X110637076Y-46649131D02*
X108855062Y-47557111D01*
X109729095Y-44867117D02*
X107947081Y-45775097D01*
X108821114Y-43085104D02*
X107039100Y-43993084D01*
X107913133Y-41303091D02*
X106131119Y-42211071D01*
X104315158Y-38647045D02*
X105223138Y-40429059D01*
X102533145Y-39555026D02*
X103441125Y-41337040D01*
X100751132Y-40463007D02*
X101659112Y-42245021D01*
X98969119Y-41370988D02*
X99877099Y-43153002D01*
X97187106Y-42278969D02*
X98095086Y-44060983D01*
X95405093Y-43186950D02*
X96313073Y-44968964D01*
X93623079Y-44094931D02*
X94531059Y-45876945D01*
X91841066Y-45002912D02*
X92749046Y-46784926D01*
D10*
G36*
X176179268Y-48655828D02*
X178589946Y-49629805D01*
X177840732Y-51484172D01*
X175430054Y-50510195D01*
X176179268Y-48655828D01*
X176179268Y-48655828D01*
G37*
D15*
X176336654Y-52537429D02*
X175780344Y-52312665D01*
X175385154Y-54892476D02*
X174828844Y-54667712D01*
X174433653Y-57247523D02*
X173877343Y-57022759D01*
D16*
X115900000Y-79680000D03*
D17*
X115900000Y-77180000D03*
D16*
X114300000Y-80350937D03*
D17*
X117500000Y-76509063D03*
D10*
G36*
X116203936Y-59868613D02*
X115867472Y-61124316D01*
X115191324Y-60943143D01*
X115527788Y-59687440D01*
X116203936Y-59868613D01*
X116203936Y-59868613D01*
G37*
G36*
X114368676Y-59376857D02*
X114032212Y-60632560D01*
X113356064Y-60451387D01*
X113692528Y-59195684D01*
X114368676Y-59376857D01*
X114368676Y-59376857D01*
G37*
G36*
X115275868Y-40787378D02*
X113995618Y-41013121D01*
X113874064Y-40323756D01*
X115154314Y-40098013D01*
X115275868Y-40787378D01*
X115275868Y-40787378D01*
G37*
G36*
X114945936Y-38916244D02*
X113665686Y-39141987D01*
X113544132Y-38452622D01*
X114824382Y-38226879D01*
X114945936Y-38916244D01*
X114945936Y-38916244D01*
G37*
D12*
X136320000Y-82600000D03*
X138220000Y-82600000D03*
D13*
X116960000Y-69840000D03*
X116960000Y-71740000D03*
X128020000Y-77150000D03*
X128020000Y-75250000D03*
D18*
X118720000Y-66320000D03*
X118720000Y-65370000D03*
X118720000Y-64420000D03*
X116020000Y-64420000D03*
X116020000Y-66320000D03*
X120210000Y-54590000D03*
X120210000Y-53640000D03*
X120210000Y-52690000D03*
X117510000Y-52690000D03*
X117510000Y-54590000D03*
D10*
G36*
X98100559Y-34905076D02*
X98807665Y-35612182D01*
X97747005Y-36672842D01*
X97039899Y-35965736D01*
X98100559Y-34905076D01*
X98100559Y-34905076D01*
G37*
G36*
X97004544Y-33809061D02*
X97711650Y-34516167D01*
X96650990Y-35576827D01*
X95943884Y-34869721D01*
X97004544Y-33809061D01*
X97004544Y-33809061D01*
G37*
G36*
X95837818Y-32642335D02*
X96544924Y-33349441D01*
X95484264Y-34410101D01*
X94777158Y-33702995D01*
X95837818Y-32642335D01*
X95837818Y-32642335D01*
G37*
G36*
X92372995Y-36107158D02*
X93080101Y-36814264D01*
X92019441Y-37874924D01*
X91312335Y-37167818D01*
X92372995Y-36107158D01*
X92372995Y-36107158D01*
G37*
G36*
X93504365Y-37238529D02*
X94211471Y-37945635D01*
X93150811Y-39006295D01*
X92443705Y-38299189D01*
X93504365Y-37238529D01*
X93504365Y-37238529D01*
G37*
G36*
X94635736Y-38369899D02*
X95342842Y-39077005D01*
X94282182Y-40137665D01*
X93575076Y-39430559D01*
X94635736Y-38369899D01*
X94635736Y-38369899D01*
G37*
G36*
X111671949Y-35513941D02*
X111811122Y-36504209D01*
X110325719Y-36712969D01*
X110186546Y-35722701D01*
X111671949Y-35513941D01*
X111671949Y-35513941D01*
G37*
G36*
X111456230Y-33979025D02*
X111595403Y-34969293D01*
X110110000Y-35178053D01*
X109970827Y-34187785D01*
X111456230Y-33979025D01*
X111456230Y-33979025D01*
G37*
G36*
X111226595Y-32345083D02*
X111365768Y-33335351D01*
X109880365Y-33544111D01*
X109741192Y-32553843D01*
X111226595Y-32345083D01*
X111226595Y-32345083D01*
G37*
G36*
X106374281Y-33027031D02*
X106513454Y-34017299D01*
X105028051Y-34226059D01*
X104888878Y-33235791D01*
X106374281Y-33027031D01*
X106374281Y-33027031D01*
G37*
G36*
X106596958Y-34611460D02*
X106736131Y-35601728D01*
X105250728Y-35810488D01*
X105111555Y-34820220D01*
X106596958Y-34611460D01*
X106596958Y-34611460D01*
G37*
G36*
X106819635Y-36195889D02*
X106958808Y-37186157D01*
X105473405Y-37394917D01*
X105334232Y-36404649D01*
X106819635Y-36195889D01*
X106819635Y-36195889D01*
G37*
G36*
X123470372Y-37188962D02*
X123296724Y-38173770D01*
X121819512Y-37913298D01*
X121993160Y-36928490D01*
X123470372Y-37188962D01*
X123470372Y-37188962D01*
G37*
G36*
X123739527Y-35662510D02*
X123565879Y-36647318D01*
X122088667Y-36386846D01*
X122262315Y-35402038D01*
X123739527Y-35662510D01*
X123739527Y-35662510D01*
G37*
G36*
X124026046Y-34037578D02*
X123852398Y-35022386D01*
X122375186Y-34761914D01*
X122548834Y-33777106D01*
X124026046Y-34037578D01*
X124026046Y-34037578D01*
G37*
G36*
X119200488Y-33186702D02*
X119026840Y-34171510D01*
X117549628Y-33911038D01*
X117723276Y-32926230D01*
X119200488Y-33186702D01*
X119200488Y-33186702D01*
G37*
G36*
X118922651Y-34762394D02*
X118749003Y-35747202D01*
X117271791Y-35486730D01*
X117445439Y-34501922D01*
X118922651Y-34762394D01*
X118922651Y-34762394D01*
G37*
G36*
X118644814Y-36338086D02*
X118471166Y-37322894D01*
X116993954Y-37062422D01*
X117167602Y-36077614D01*
X118644814Y-36338086D01*
X118644814Y-36338086D01*
G37*
G36*
X132917451Y-36609483D02*
X133021980Y-37604005D01*
X131530197Y-37760797D01*
X131425668Y-36766275D01*
X132917451Y-36609483D01*
X132917451Y-36609483D01*
G37*
G36*
X132755432Y-35067974D02*
X132859961Y-36062496D01*
X131368178Y-36219288D01*
X131263649Y-35224766D01*
X132755432Y-35067974D01*
X132755432Y-35067974D01*
G37*
G36*
X132582960Y-33427013D02*
X132687489Y-34421535D01*
X131195706Y-34578327D01*
X131091177Y-33583805D01*
X132582960Y-33427013D01*
X132582960Y-33427013D01*
G37*
G36*
X127709803Y-33939203D02*
X127814332Y-34933725D01*
X126322549Y-35090517D01*
X126218020Y-34095995D01*
X127709803Y-33939203D01*
X127709803Y-33939203D01*
G37*
G36*
X127877048Y-35530438D02*
X127981577Y-36524960D01*
X126489794Y-36681752D01*
X126385265Y-35687230D01*
X127877048Y-35530438D01*
X127877048Y-35530438D01*
G37*
G36*
X128044294Y-37121673D02*
X128148823Y-38116195D01*
X126657040Y-38272987D01*
X126552511Y-37278465D01*
X128044294Y-37121673D01*
X128044294Y-37121673D01*
G37*
G36*
X143240372Y-38248962D02*
X143066724Y-39233770D01*
X141589512Y-38973298D01*
X141763160Y-37988490D01*
X143240372Y-38248962D01*
X143240372Y-38248962D01*
G37*
G36*
X143509527Y-36722510D02*
X143335879Y-37707318D01*
X141858667Y-37446846D01*
X142032315Y-36462038D01*
X143509527Y-36722510D01*
X143509527Y-36722510D01*
G37*
G36*
X143796046Y-35097578D02*
X143622398Y-36082386D01*
X142145186Y-35821914D01*
X142318834Y-34837106D01*
X143796046Y-35097578D01*
X143796046Y-35097578D01*
G37*
G36*
X138970488Y-34246702D02*
X138796840Y-35231510D01*
X137319628Y-34971038D01*
X137493276Y-33986230D01*
X138970488Y-34246702D01*
X138970488Y-34246702D01*
G37*
G36*
X138692651Y-35822394D02*
X138519003Y-36807202D01*
X137041791Y-36546730D01*
X137215439Y-35561922D01*
X138692651Y-35822394D01*
X138692651Y-35822394D01*
G37*
G36*
X138414814Y-37398086D02*
X138241166Y-38382894D01*
X136763954Y-38122422D01*
X136937602Y-37137614D01*
X138414814Y-37398086D01*
X138414814Y-37398086D01*
G37*
G36*
X154638937Y-37794100D02*
X154708693Y-38791664D01*
X153212347Y-38896298D01*
X153142591Y-37898734D01*
X154638937Y-37794100D01*
X154638937Y-37794100D01*
G37*
G36*
X154530815Y-36247876D02*
X154600571Y-37245440D01*
X153104225Y-37350074D01*
X153034469Y-36352510D01*
X154530815Y-36247876D01*
X154530815Y-36247876D01*
G37*
G36*
X154415717Y-34601895D02*
X154485473Y-35599459D01*
X152989127Y-35704093D01*
X152919371Y-34706529D01*
X154415717Y-34601895D01*
X154415717Y-34601895D01*
G37*
G36*
X149527653Y-34943702D02*
X149597409Y-35941266D01*
X148101063Y-36045900D01*
X148031307Y-35048336D01*
X149527653Y-34943702D01*
X149527653Y-34943702D01*
G37*
G36*
X149639263Y-36539804D02*
X149709019Y-37537368D01*
X148212673Y-37642002D01*
X148142917Y-36644438D01*
X149639263Y-36539804D01*
X149639263Y-36539804D01*
G37*
G36*
X149750873Y-38135907D02*
X149820629Y-39133471D01*
X148324283Y-39238105D01*
X148254527Y-38240541D01*
X149750873Y-38135907D01*
X149750873Y-38135907D01*
G37*
G36*
X163961370Y-38646280D02*
X163753458Y-39624428D01*
X162286236Y-39312560D01*
X162494148Y-38334412D01*
X163961370Y-38646280D01*
X163961370Y-38646280D01*
G37*
G36*
X164283633Y-37130151D02*
X164075721Y-38108299D01*
X162608499Y-37796431D01*
X162816411Y-36818283D01*
X164283633Y-37130151D01*
X164283633Y-37130151D01*
G37*
G36*
X164626687Y-35516207D02*
X164418775Y-36494355D01*
X162951553Y-36182487D01*
X163159465Y-35204339D01*
X164626687Y-35516207D01*
X164626687Y-35516207D01*
G37*
G36*
X159833764Y-34497440D02*
X159625852Y-35475588D01*
X158158630Y-35163720D01*
X158366542Y-34185572D01*
X159833764Y-34497440D01*
X159833764Y-34497440D01*
G37*
G36*
X159501105Y-36062476D02*
X159293193Y-37040624D01*
X157825971Y-36728756D01*
X158033883Y-35750608D01*
X159501105Y-36062476D01*
X159501105Y-36062476D01*
G37*
G36*
X159168447Y-37627513D02*
X158960535Y-38605661D01*
X157493313Y-38293793D01*
X157701225Y-37315645D01*
X159168447Y-37627513D01*
X159168447Y-37627513D01*
G37*
G36*
X167104924Y-51200559D02*
X166397818Y-51907665D01*
X165337158Y-50847005D01*
X166044264Y-50139899D01*
X167104924Y-51200559D01*
X167104924Y-51200559D01*
G37*
G36*
X168200939Y-50104544D02*
X167493833Y-50811650D01*
X166433173Y-49750990D01*
X167140279Y-49043884D01*
X168200939Y-50104544D01*
X168200939Y-50104544D01*
G37*
G36*
X169367665Y-48937818D02*
X168660559Y-49644924D01*
X167599899Y-48584264D01*
X168307005Y-47877158D01*
X169367665Y-48937818D01*
X169367665Y-48937818D01*
G37*
G36*
X165902842Y-45472995D02*
X165195736Y-46180101D01*
X164135076Y-45119441D01*
X164842182Y-44412335D01*
X165902842Y-45472995D01*
X165902842Y-45472995D01*
G37*
G36*
X164771471Y-46604365D02*
X164064365Y-47311471D01*
X163003705Y-46250811D01*
X163710811Y-45543705D01*
X164771471Y-46604365D01*
X164771471Y-46604365D01*
G37*
G36*
X163640101Y-47735736D02*
X162932995Y-48442842D01*
X161872335Y-47382182D01*
X162579441Y-46675076D01*
X163640101Y-47735736D01*
X163640101Y-47735736D01*
G37*
D19*
X102055000Y-86040000D03*
X102055000Y-90040000D03*
X110965000Y-90040000D03*
X110965000Y-86040000D03*
X112275000Y-95930000D03*
X112275000Y-99930000D03*
X121185000Y-99930000D03*
X121185000Y-95930000D03*
X122335000Y-85870000D03*
X122335000Y-89870000D03*
X131245000Y-89870000D03*
X131245000Y-85870000D03*
X142535000Y-85930000D03*
X142535000Y-89930000D03*
X151445000Y-89930000D03*
X151445000Y-85930000D03*
X162955000Y-85860000D03*
X162955000Y-89860000D03*
X171865000Y-89860000D03*
X171865000Y-85860000D03*
X152515000Y-95840000D03*
X152515000Y-99840000D03*
X161425000Y-99840000D03*
X161425000Y-95840000D03*
D20*
X167330000Y-69340000D03*
X161330000Y-69340000D03*
D21*
X170410000Y-79900000D03*
X170410000Y-79250000D03*
X170410000Y-78600000D03*
X170410000Y-77950000D03*
X170410000Y-77300000D03*
D22*
X170290000Y-81120000D03*
X170290000Y-76080000D03*
D23*
X173290000Y-82050000D03*
X173290000Y-75150000D03*
D24*
X173530000Y-79560000D03*
X173530000Y-77640000D03*
D10*
G36*
X150474974Y-81467716D02*
X152737716Y-79204974D01*
X154576194Y-81043452D01*
X152313452Y-83306194D01*
X150474974Y-81467716D01*
X150474974Y-81467716D01*
G37*
G36*
X145383806Y-76376548D02*
X147646548Y-74113806D01*
X149485026Y-75952284D01*
X147222284Y-78215026D01*
X145383806Y-76376548D01*
X145383806Y-76376548D01*
G37*
G36*
X148281142Y-69450381D02*
X149200381Y-68531142D01*
X149695356Y-69026117D01*
X148776117Y-69945356D01*
X148281142Y-69450381D01*
X148281142Y-69450381D01*
G37*
G36*
X149624644Y-70793883D02*
X150543883Y-69874644D01*
X151038858Y-70369619D01*
X150119619Y-71288858D01*
X149624644Y-70793883D01*
X149624644Y-70793883D01*
G37*
D25*
X174680000Y-40850000D03*
D26*
X135128000Y-46228000D03*
D27*
X135128000Y-48768000D03*
X135128000Y-51308000D03*
X135128000Y-53848000D03*
X135128000Y-56388000D03*
D28*
X99420515Y-73880000D03*
X111285064Y-67030000D03*
X111720000Y-72783332D03*
D12*
X107120000Y-82140000D03*
X109020000Y-82140000D03*
X115560000Y-89840000D03*
X117460000Y-89840000D03*
D10*
G36*
X141808858Y-80089619D02*
X140889619Y-81008858D01*
X140394644Y-80513883D01*
X141313883Y-79594644D01*
X141808858Y-80089619D01*
X141808858Y-80089619D01*
G37*
G36*
X140465356Y-78746117D02*
X139546117Y-79665356D01*
X139051142Y-79170381D01*
X139970381Y-78251142D01*
X140465356Y-78746117D01*
X140465356Y-78746117D01*
G37*
G36*
X102259167Y-63572917D02*
X101609167Y-62447083D01*
X102215385Y-62097083D01*
X102865385Y-63222917D01*
X102259167Y-63572917D01*
X102259167Y-63572917D01*
G37*
G36*
X103904615Y-62622917D02*
X103254615Y-61497083D01*
X103860833Y-61147083D01*
X104510833Y-62272917D01*
X103904615Y-62622917D01*
X103904615Y-62622917D01*
G37*
G36*
X110092917Y-60400833D02*
X108967083Y-61050833D01*
X108617083Y-60444615D01*
X109742917Y-59794615D01*
X110092917Y-60400833D01*
X110092917Y-60400833D01*
G37*
G36*
X109142917Y-58755385D02*
X108017083Y-59405385D01*
X107667083Y-58799167D01*
X108792917Y-58149167D01*
X109142917Y-58755385D01*
X109142917Y-58755385D01*
G37*
G36*
X104627083Y-60879167D02*
X105752917Y-60229167D01*
X106102917Y-60835385D01*
X104977083Y-61485385D01*
X104627083Y-60879167D01*
X104627083Y-60879167D01*
G37*
G36*
X105577083Y-62524615D02*
X106702917Y-61874615D01*
X107052917Y-62480833D01*
X105927083Y-63130833D01*
X105577083Y-62524615D01*
X105577083Y-62524615D01*
G37*
G36*
X111940833Y-59827083D02*
X112590833Y-60952917D01*
X111984615Y-61302917D01*
X111334615Y-60177083D01*
X111940833Y-59827083D01*
X111940833Y-59827083D01*
G37*
G36*
X110295385Y-60777083D02*
X110945385Y-61902917D01*
X110339167Y-62252917D01*
X109689167Y-61127083D01*
X110295385Y-60777083D01*
X110295385Y-60777083D01*
G37*
G36*
X109555879Y-58253734D02*
X109230879Y-57690818D01*
X110148865Y-57160818D01*
X110473865Y-57723734D01*
X109555879Y-58253734D01*
X109555879Y-58253734D01*
G37*
G36*
X110030879Y-59076458D02*
X109705879Y-58513542D01*
X110623865Y-57983542D01*
X110948865Y-58546458D01*
X110030879Y-59076458D01*
X110030879Y-59076458D01*
G37*
G36*
X110505879Y-59899182D02*
X110180879Y-59336266D01*
X111098865Y-58806266D01*
X111423865Y-59369182D01*
X110505879Y-59899182D01*
X110505879Y-59899182D01*
G37*
G36*
X112411135Y-58799182D02*
X112086135Y-58236266D01*
X113004121Y-57706266D01*
X113329121Y-58269182D01*
X112411135Y-58799182D01*
X112411135Y-58799182D01*
G37*
G36*
X111461135Y-57153734D02*
X111136135Y-56590818D01*
X112054121Y-56060818D01*
X112379121Y-56623734D01*
X111461135Y-57153734D01*
X111461135Y-57153734D01*
G37*
G36*
X116901142Y-59080381D02*
X117820381Y-58161142D01*
X118315356Y-58656117D01*
X117396117Y-59575356D01*
X116901142Y-59080381D01*
X116901142Y-59080381D01*
G37*
G36*
X118244644Y-60423883D02*
X119163883Y-59504644D01*
X119658858Y-59999619D01*
X118739619Y-60918858D01*
X118244644Y-60423883D01*
X118244644Y-60423883D01*
G37*
D29*
X139110000Y-66360000D03*
X111200000Y-58060000D03*
X117480000Y-60280000D03*
X112760000Y-40580000D03*
X126340000Y-71970000D03*
X105670000Y-74990000D03*
X145080000Y-60990000D03*
X149620000Y-89170000D03*
X102320000Y-49840000D03*
X117350000Y-65210000D03*
X119080000Y-53785000D03*
X164900000Y-61525000D03*
X163475000Y-44730000D03*
X156060000Y-37570000D03*
X150285000Y-37350000D03*
X139210000Y-37185000D03*
X147220000Y-37675000D03*
X128750000Y-36350000D03*
X119480000Y-35785000D03*
X125365000Y-36460000D03*
X116350000Y-35560000D03*
X109515000Y-39245000D03*
X107690000Y-35800000D03*
X135480000Y-36575000D03*
X109600000Y-62060000D03*
X107440000Y-63080000D03*
X121090000Y-58085000D03*
X118530000Y-67140000D03*
X120005000Y-64315000D03*
X122935000Y-53765000D03*
X151770000Y-74825000D03*
X166340000Y-48960000D03*
X162280000Y-37170000D03*
X152400000Y-36580000D03*
X141110000Y-36530000D03*
X130830000Y-35620000D03*
X121550000Y-35620000D03*
X109210000Y-34310000D03*
X102920000Y-34750000D03*
X124250000Y-41800000D03*
X124090000Y-47970000D03*
X119580000Y-87820000D03*
X118190000Y-83260000D03*
X128190000Y-88510000D03*
X130048000Y-61976000D03*
X123430000Y-55320000D03*
X134700000Y-82840000D03*
X138330000Y-76975000D03*
X113445000Y-46005000D03*
X114970000Y-41230000D03*
X104880000Y-59080000D03*
X102570000Y-61500000D03*
X105380000Y-55380000D03*
X100570000Y-62775000D03*
X116800000Y-55820000D03*
X111420000Y-55260000D03*
X140515000Y-83170000D03*
X136370000Y-78840000D03*
X122100000Y-47835000D03*
X124905000Y-50250000D03*
X123495000Y-58225000D03*
X103630000Y-42365000D03*
X127600000Y-46910000D03*
X130480000Y-58395000D03*
X143610000Y-76585000D03*
X160430000Y-86110000D03*
X98005000Y-40050000D03*
X123425000Y-52650000D03*
X107420000Y-37130000D03*
X93840000Y-36050000D03*
X171095000Y-48790000D03*
X168960000Y-46025000D03*
X108800000Y-35410000D03*
X115260000Y-36545000D03*
X121035000Y-37370000D03*
X125425000Y-37780000D03*
X111375000Y-41405000D03*
X91630000Y-43930000D03*
X109640000Y-56160000D03*
X117220000Y-57180000D03*
X120520000Y-49330000D03*
X94975000Y-41960000D03*
X129640000Y-56010000D03*
X127630000Y-53890000D03*
X127000000Y-56896000D03*
X126492000Y-54356000D03*
X96255000Y-41910000D03*
X120585000Y-50370000D03*
X115760000Y-58240000D03*
X117420000Y-58250000D03*
X105140000Y-63040000D03*
X112640000Y-59280000D03*
D30*
X95816000Y-68808000D02*
X96324000Y-68300000D01*
X96324000Y-68300000D02*
X96324000Y-67284000D01*
X96324000Y-67284000D02*
X96832000Y-67792000D01*
X96832000Y-67792000D02*
X95816000Y-67792000D01*
X95816000Y-67792000D02*
X95308000Y-68300000D01*
X95308000Y-68300000D02*
X95308000Y-68808000D01*
X95308000Y-68808000D02*
X95816000Y-68808000D01*
X139110000Y-66360000D02*
X139140000Y-66360000D01*
X118951751Y-60211751D02*
X117480000Y-60280000D01*
X178090000Y-53640000D02*
X178840000Y-51800000D01*
X178840000Y-51800000D02*
X178670000Y-50740000D01*
X178670000Y-50740000D02*
X177010000Y-50070000D01*
X177640000Y-53700000D02*
X178570000Y-51690000D01*
X178570000Y-51690000D02*
X178350000Y-50880000D01*
X178350000Y-50880000D02*
X177010000Y-50070000D01*
X172210000Y-47630000D02*
X177010000Y-50070000D01*
X141226581Y-50812652D02*
X164301479Y-49385060D01*
X164301479Y-49385060D02*
X164301479Y-49385061D01*
X111200000Y-58060000D02*
X110327372Y-58530000D01*
X118490000Y-62410000D02*
X117480000Y-60280000D01*
X110327372Y-58530000D02*
X109360000Y-58920000D01*
X109360000Y-58920000D02*
X108405000Y-58777276D01*
X112760000Y-40580000D02*
X110800000Y-40480000D01*
X110800000Y-40480000D02*
X109648676Y-41212661D01*
X128020000Y-75250000D02*
X126340000Y-71970000D01*
X110965000Y-90040000D02*
X120250000Y-83480000D01*
X120250000Y-83480000D02*
X125900000Y-75720000D01*
X125900000Y-75720000D02*
X128020000Y-75250000D01*
X114300000Y-80350937D02*
X105670000Y-74990000D01*
X120920000Y-70000000D02*
X119360000Y-77170000D01*
X119360000Y-77170000D02*
X115900000Y-79680000D01*
X120920000Y-70000000D02*
X121385547Y-67075410D01*
X121385547Y-67075410D02*
X121385547Y-67075409D01*
X118490000Y-62410000D02*
X117470000Y-63570000D01*
X117470000Y-63570000D02*
X117350000Y-65210000D01*
X172740000Y-81330000D02*
X169740000Y-81020000D01*
X172980000Y-79560000D02*
X172740000Y-81330000D01*
X172980000Y-77640000D02*
X172980000Y-79560000D01*
X172740000Y-75870000D02*
X172980000Y-77640000D01*
X169740000Y-76180000D02*
X172740000Y-75870000D01*
X168620000Y-77020000D02*
X169860000Y-77300000D01*
X166700000Y-68700000D02*
X168930000Y-67220000D01*
X168930000Y-67220000D02*
X175210000Y-60840000D01*
X175210000Y-60840000D02*
X178090000Y-53640000D01*
X177640000Y-53700000D02*
X174900000Y-60690000D01*
X174900000Y-60690000D02*
X166700000Y-68700000D01*
X145080000Y-60990000D02*
X141226581Y-50812652D01*
X141226581Y-50812652D02*
X139730000Y-46860000D01*
X139730000Y-46860000D02*
X135128000Y-46228000D01*
X166700000Y-68700000D02*
X161890000Y-72630000D01*
X161890000Y-72630000D02*
X158780000Y-71740000D01*
X158780000Y-71740000D02*
X152640000Y-66140000D01*
X152640000Y-66140000D02*
X145080000Y-60990000D01*
X149620000Y-89170000D02*
X151445000Y-89930000D01*
X104769148Y-39538052D02*
X104740000Y-42630000D01*
X104740000Y-42630000D02*
X102320000Y-49840000D01*
X119220000Y-47610000D02*
X116580359Y-47884391D01*
X116580359Y-47884391D02*
X116580359Y-47884390D01*
X118720000Y-65370000D02*
X120335000Y-65400000D01*
X120335000Y-65400000D02*
X121170000Y-66300000D01*
X121170000Y-66300000D02*
X121385547Y-67075409D01*
X116930441Y-65364916D02*
X117350000Y-65210000D01*
X119080000Y-53785000D02*
X120210000Y-53640000D01*
X115900000Y-79680000D02*
X114300000Y-80350937D01*
X161425000Y-99840000D02*
X171865000Y-89860000D01*
X164979064Y-47284265D02*
X164301479Y-49385061D01*
X164301479Y-49385061D02*
X163450000Y-52025000D01*
X163450000Y-52025000D02*
X164900000Y-61525000D01*
X163887588Y-46427588D02*
X164979064Y-47284265D01*
X164979064Y-47284265D02*
X164980000Y-47285000D01*
X164980000Y-47285000D02*
X167985000Y-47080000D01*
X167985000Y-47080000D02*
X172210000Y-47630000D01*
X163475000Y-44730000D02*
X163887588Y-46427588D01*
X158663538Y-36395616D02*
X156930000Y-36130000D01*
X156930000Y-36130000D02*
X156910000Y-36130000D01*
X156910000Y-36130000D02*
X156060000Y-37570000D01*
X150285000Y-37350000D02*
X148925968Y-37090903D01*
X137867221Y-36184562D02*
X139210000Y-37185000D01*
X147220000Y-37675000D02*
X148925968Y-37090903D01*
X127183421Y-36106095D02*
X128750000Y-36350000D01*
X135480000Y-36575000D02*
X137867221Y-36184562D01*
X118097221Y-35124562D02*
X119480000Y-35785000D01*
X125365000Y-36460000D02*
X127183421Y-36106095D01*
X110965000Y-90040000D02*
X108910000Y-96450000D01*
X108910000Y-96450000D02*
X111455000Y-98210000D01*
X111455000Y-98210000D02*
X117710000Y-99020000D01*
X117710000Y-99020000D02*
X121185000Y-99930000D01*
X171865000Y-89860000D02*
X173590000Y-88095000D01*
X173590000Y-88095000D02*
X174540000Y-86025000D01*
X174540000Y-86025000D02*
X173900000Y-81835000D01*
X173900000Y-81835000D02*
X171530000Y-81330000D01*
X161425000Y-99840000D02*
X172375000Y-90500000D01*
X151445000Y-89930000D02*
X161425000Y-99840000D01*
X171530000Y-81330000D02*
X168530000Y-81020000D01*
X171770000Y-79560000D02*
X171530000Y-81330000D01*
X171770000Y-77640000D02*
X171770000Y-79560000D01*
X171770000Y-77640000D02*
X171530000Y-75870000D01*
X168530000Y-76180000D02*
X168620000Y-77020000D01*
X168620000Y-77020000D02*
X168650000Y-77300000D01*
X171530000Y-75870000D02*
X168530000Y-76180000D01*
X166700000Y-68700000D02*
X171530000Y-75870000D01*
X118097221Y-35124562D02*
X116350000Y-35560000D01*
X93327588Y-38122412D02*
X95690000Y-37020000D01*
X101590000Y-36930000D02*
X105923843Y-35210974D01*
X98080000Y-37260000D02*
X101590000Y-36930000D01*
X95690000Y-37020000D02*
X98080000Y-37260000D01*
X105923843Y-35210974D02*
X107690000Y-35800000D01*
X109515000Y-39245000D02*
X109549293Y-39459502D01*
X120210000Y-53640000D02*
X119010000Y-53600000D01*
X113790000Y-43480000D02*
X111345000Y-43717276D01*
X118890000Y-51530000D02*
X116580359Y-47884390D01*
X116580359Y-47884390D02*
X113790000Y-43480000D01*
X118810000Y-52770000D02*
X118890000Y-51530000D01*
X119010000Y-53600000D02*
X118810000Y-52770000D01*
X111345000Y-43717276D02*
X109648676Y-41212661D01*
X109648676Y-41212661D02*
X108570000Y-39620000D01*
X106510000Y-39230000D02*
X104769148Y-39538052D01*
X108570000Y-39620000D02*
X109549293Y-39459502D01*
X109549293Y-39459502D02*
X106510000Y-39230000D01*
X115200000Y-65360000D02*
X116930441Y-65364916D01*
X116930441Y-65364916D02*
X118720000Y-65370000D01*
X110317276Y-61515000D02*
X109600000Y-62060000D01*
X107440000Y-63080000D02*
X106315000Y-62502724D01*
X106315000Y-62502724D02*
X106880000Y-60700000D01*
X106880000Y-60700000D02*
X107025000Y-59897276D01*
X111285064Y-67030000D02*
X110785064Y-64970000D01*
X107975000Y-61542724D02*
X110785064Y-64970000D01*
X111720000Y-72783332D02*
X116960000Y-71740000D01*
X116960000Y-71740000D02*
X118610000Y-71320000D01*
X118610000Y-71320000D02*
X119020000Y-70000000D01*
X116170000Y-71550000D02*
X116960000Y-71740000D01*
X117500000Y-76509063D02*
X115900000Y-77180000D01*
X116960000Y-71740000D02*
X117500000Y-76509063D01*
X160700000Y-68700000D02*
X162000000Y-66410000D01*
X162000000Y-66410000D02*
X166350000Y-62000000D01*
X166350000Y-62000000D02*
X167030000Y-53620000D01*
X167030000Y-53620000D02*
X167700000Y-51490000D01*
X167700000Y-51490000D02*
X167317056Y-49927767D01*
X173638587Y-58429709D02*
X174155498Y-57135141D01*
X173246119Y-58471991D02*
X173638587Y-58429709D01*
X173638587Y-58429709D02*
X174100000Y-58380000D01*
X174100000Y-58380000D02*
X174155498Y-57135141D01*
X173246119Y-58471991D02*
X174155498Y-57135141D01*
X167317056Y-49927767D02*
X174155498Y-57135141D01*
X119220000Y-49510000D02*
X120210000Y-52690000D01*
X121170000Y-64400000D02*
X121090000Y-58085000D01*
X120005000Y-64315000D02*
X118720000Y-64420000D01*
X119012900Y-66930208D02*
X118530000Y-67140000D01*
X120005000Y-64315000D02*
X121170000Y-64400000D01*
X119012900Y-66930208D02*
X118720000Y-66320000D01*
X121577471Y-54228880D02*
X122935000Y-53765000D01*
X123850000Y-36290000D02*
X122914097Y-36024678D01*
X120210000Y-54590000D02*
X121535000Y-54420000D01*
X121535000Y-54420000D02*
X121577471Y-54228880D01*
X121577471Y-54228880D02*
X121685000Y-53745000D01*
X121685000Y-53745000D02*
X121685000Y-52820000D01*
X121685000Y-52820000D02*
X120210000Y-52690000D01*
D31*
X147434416Y-76164416D02*
X151770000Y-74825000D01*
X160700000Y-68700000D02*
X170265000Y-59820000D01*
X170265000Y-59820000D02*
X173246119Y-58471991D01*
X173246119Y-58471991D02*
X173305498Y-58445141D01*
D30*
X166340000Y-48960000D02*
X167227056Y-50397767D01*
X152400000Y-36580000D02*
X153817520Y-36798975D01*
X141110000Y-36530000D02*
X142684097Y-37084678D01*
X130830000Y-35620000D02*
X132061805Y-35643631D01*
X121550000Y-35620000D02*
X122914097Y-36024678D01*
X96827767Y-34692944D02*
X99410000Y-33940000D01*
X109210000Y-34310000D02*
X110783115Y-34578539D01*
X101960000Y-34640000D02*
X102920000Y-34750000D01*
X99410000Y-33940000D02*
X101960000Y-34640000D01*
X162280000Y-37170000D02*
X163576066Y-37498291D01*
X124360000Y-36635000D02*
X123850000Y-36290000D01*
X124250000Y-41800000D02*
X124235000Y-37915000D01*
X124235000Y-37915000D02*
X124360000Y-36635000D01*
X125160000Y-48730000D02*
X124090000Y-47970000D01*
X134615000Y-53890000D02*
X131710000Y-53265000D01*
X131710000Y-53265000D02*
X125160000Y-48730000D01*
X112032996Y-53794157D02*
X110060000Y-52340000D01*
X110060000Y-52340000D02*
X108820000Y-52180000D01*
X108820000Y-52180000D02*
X102860000Y-55360000D01*
X102860000Y-55360000D02*
X102300000Y-56100000D01*
X102300000Y-56100000D02*
X103122931Y-58334062D01*
X139758249Y-78958249D02*
X138330000Y-76975000D01*
X117460000Y-89840000D02*
X119580000Y-87820000D01*
X109020000Y-82140000D02*
X116510000Y-83710000D01*
X116510000Y-83710000D02*
X118190000Y-83260000D01*
X128190000Y-88510000D02*
X131245000Y-89870000D01*
X130048000Y-61976000D02*
X138330000Y-76975000D01*
X117510000Y-54590000D02*
X118690000Y-55365000D01*
X118690000Y-55365000D02*
X120365000Y-55445000D01*
X120365000Y-55445000D02*
X123430000Y-55320000D01*
X140510000Y-77032232D02*
X143195000Y-77730000D01*
X143195000Y-77730000D02*
X144480000Y-77170000D01*
X144480000Y-77170000D02*
X144700000Y-75270000D01*
X144700000Y-75270000D02*
X148988249Y-69238249D01*
X134390671Y-84193215D02*
X134700000Y-82840000D01*
X138330000Y-76975000D02*
X140510000Y-77032232D01*
X140510000Y-77032232D02*
X140425000Y-77030000D01*
X131245000Y-89870000D02*
X133420000Y-87335000D01*
X133420000Y-87335000D02*
X134390671Y-84193215D01*
X134390671Y-84193215D02*
X134455000Y-83985000D01*
X134455000Y-83985000D02*
X136320000Y-82600000D01*
X112730550Y-46476277D02*
X113445000Y-46005000D01*
X114970000Y-41230000D02*
X114574966Y-40555567D01*
X117510000Y-54590000D02*
X112032996Y-53794157D01*
X112032996Y-53794157D02*
X113630000Y-51610000D01*
X113350000Y-48060000D02*
X112730550Y-46476277D01*
X112730550Y-46476277D02*
X112295000Y-45362724D01*
X113630000Y-51610000D02*
X113350000Y-48060000D01*
X99558904Y-60150024D02*
X100780000Y-61620000D01*
X104880000Y-59080000D02*
X104904944Y-57426081D01*
X100780000Y-61620000D02*
X102570000Y-61500000D01*
X107120000Y-82140000D02*
X101950874Y-82303946D01*
X101950874Y-82303946D02*
X101950874Y-82303959D01*
X105380000Y-55380000D02*
X106686957Y-56518100D01*
X100505000Y-68255000D02*
X101115000Y-65975000D01*
X101115000Y-65975000D02*
X101435000Y-65225000D01*
X101435000Y-65225000D02*
X101055000Y-64650000D01*
X101055000Y-64650000D02*
X100570000Y-62775000D01*
X102055000Y-86040000D02*
X101950874Y-82303959D01*
X101950874Y-82303959D02*
X101680000Y-72585000D01*
X101680000Y-72585000D02*
X100505000Y-68255000D01*
X141101751Y-80301751D02*
X140515000Y-83170000D01*
X118420000Y-56280000D02*
X116800000Y-55820000D01*
X111420000Y-55260000D02*
X110250983Y-54702138D01*
X142535000Y-85930000D02*
X140515000Y-83170000D01*
X136370000Y-78840000D02*
X124275000Y-56105000D01*
X124275000Y-56105000D02*
X118420000Y-56280000D01*
X118420000Y-56280000D02*
X118525000Y-56278094D01*
X128020000Y-77150000D02*
X122335000Y-85870000D01*
X122100000Y-47835000D02*
X124905000Y-50250000D01*
X123495000Y-58225000D02*
X129250000Y-74545000D01*
X129250000Y-74545000D02*
X129250000Y-76945000D01*
X129250000Y-76945000D02*
X128020000Y-77150000D01*
X102987135Y-40446033D02*
X103630000Y-42365000D01*
X114245034Y-38684433D02*
X120510000Y-42865000D01*
X120510000Y-42865000D02*
X127600000Y-46910000D01*
X130480000Y-58395000D02*
X143610000Y-76585000D01*
X160430000Y-86110000D02*
X162955000Y-85860000D01*
X114245034Y-38684433D02*
X107970000Y-38070000D01*
X101040000Y-39580000D02*
X101205122Y-41354014D01*
X102730000Y-37910000D02*
X101040000Y-39580000D01*
X104320000Y-37570000D02*
X102730000Y-37910000D01*
X105220000Y-37890000D02*
X104320000Y-37570000D01*
X107970000Y-38070000D02*
X105220000Y-37890000D01*
X131572000Y-54864000D02*
X125235699Y-55920050D01*
X125235699Y-55920050D02*
X125235699Y-55920051D01*
X135128000Y-56388000D02*
X131572000Y-54864000D01*
X138220000Y-82600000D02*
X140250000Y-87235000D01*
X140250000Y-87235000D02*
X143420000Y-88390000D01*
X143420000Y-88390000D02*
X146140000Y-88940000D01*
X146140000Y-88940000D02*
X152515000Y-95840000D01*
X99423109Y-42261995D02*
X98005000Y-40050000D01*
X123425000Y-52650000D02*
X125235699Y-55920051D01*
X125235699Y-55920051D02*
X138860000Y-80525000D01*
X138860000Y-80525000D02*
X138220000Y-82600000D01*
X107420000Y-37130000D02*
X109470000Y-37400000D01*
X109470000Y-37400000D02*
X113490000Y-37645000D01*
X113490000Y-37645000D02*
X115460000Y-37675000D01*
X115460000Y-37675000D02*
X126685000Y-44805000D01*
X107420000Y-37130000D02*
X106146520Y-36795403D01*
X92196218Y-36991041D02*
X93840000Y-36050000D01*
X92196218Y-36991041D02*
X91680000Y-38760000D01*
X92370000Y-41160000D02*
X94077069Y-44985938D01*
X91680000Y-38760000D02*
X92370000Y-41160000D01*
X126685000Y-44805000D02*
X133588145Y-48291393D01*
X133588145Y-48291393D02*
X134651393Y-48291393D01*
X134651393Y-48291393D02*
X135128000Y-48768000D01*
X133588145Y-48291393D02*
X134615000Y-48810000D01*
X171095000Y-48790000D02*
X176058499Y-52425047D01*
X163789120Y-35849347D02*
X165770000Y-37085000D01*
X165770000Y-37085000D02*
X165018959Y-45296218D01*
X168960000Y-46025000D02*
X165018959Y-45296218D01*
X175106999Y-54780094D02*
X168483782Y-48761041D01*
X105701166Y-33626545D02*
X107485000Y-33530000D01*
X107485000Y-33530000D02*
X108800000Y-35410000D01*
X115260000Y-36545000D02*
X117819384Y-36700254D01*
X95661041Y-33526218D02*
X97510000Y-32810000D01*
X99960000Y-32870000D02*
X105701166Y-33626545D01*
X97510000Y-32810000D02*
X99960000Y-32870000D01*
X118375058Y-33548870D02*
X120075000Y-34230000D01*
X120075000Y-34230000D02*
X120685000Y-36820000D01*
X120685000Y-36820000D02*
X121035000Y-37370000D01*
X125425000Y-37780000D02*
X127350667Y-37697330D01*
X110553480Y-32944597D02*
X118375058Y-33548870D01*
X137589384Y-37760254D02*
X130690000Y-38440000D01*
X130690000Y-38440000D02*
X129355000Y-34700000D01*
X129355000Y-34700000D02*
X127016176Y-34514860D01*
X123200616Y-34399746D02*
X127016176Y-34514860D01*
X138145058Y-34608870D02*
X140450000Y-35600000D01*
X140450000Y-35600000D02*
X140165000Y-37755000D01*
X140165000Y-37755000D02*
X141080000Y-40050000D01*
X141080000Y-40050000D02*
X146530000Y-40295000D01*
X146530000Y-40295000D02*
X149037578Y-38687006D01*
X131889333Y-34002670D02*
X138145058Y-34608870D01*
X148814358Y-35494801D02*
X150935000Y-36130000D01*
X150935000Y-36130000D02*
X151385000Y-37735000D01*
X151385000Y-37735000D02*
X152440000Y-39360000D01*
X152440000Y-39360000D02*
X154045000Y-39685000D01*
X154045000Y-39685000D02*
X155995000Y-39320000D01*
X155995000Y-39320000D02*
X158330880Y-37960653D01*
X142970616Y-35459746D02*
X148814358Y-35494801D01*
X111375000Y-41405000D02*
X114880000Y-42460000D01*
X114880000Y-42460000D02*
X134615000Y-51350000D01*
X92295056Y-45893919D02*
X91630000Y-43930000D01*
X162756218Y-47558959D02*
X160655000Y-42245000D01*
X160655000Y-42245000D02*
X160880000Y-35820000D01*
X160880000Y-35820000D02*
X158996197Y-34830580D01*
X158996197Y-34830580D02*
X153702422Y-35152994D01*
X169860000Y-79900000D02*
X168650000Y-79900000D01*
X168650000Y-79900000D02*
X167450000Y-79910000D01*
X163800000Y-80910000D02*
X152525584Y-81255584D01*
X167450000Y-79910000D02*
X163800000Y-80910000D01*
X115560000Y-89840000D02*
X115517899Y-94534210D01*
X108468970Y-55610119D02*
X109640000Y-56160000D01*
X117220000Y-57180000D02*
X123865000Y-57035000D01*
X123865000Y-57035000D02*
X130745000Y-70090000D01*
X130745000Y-70090000D02*
X135330000Y-79400000D01*
X135330000Y-79400000D02*
X128410000Y-84435000D01*
X128410000Y-84435000D02*
X125115000Y-91475000D01*
X125115000Y-91475000D02*
X119640000Y-92760000D01*
X119640000Y-92760000D02*
X115517899Y-94534210D01*
X115517899Y-94534210D02*
X112275000Y-95930000D01*
X169860000Y-78600000D02*
X168650000Y-78600000D01*
X126760000Y-52394382D02*
X125914883Y-51777600D01*
X121930000Y-49705000D02*
X124790000Y-51250000D01*
X124790000Y-51250000D02*
X125914883Y-51777600D01*
X125914883Y-51777600D02*
X125920000Y-51780000D01*
X121930000Y-49705000D02*
X120520000Y-49330000D01*
X130048000Y-55880000D02*
X129640000Y-56010000D01*
X127630000Y-53890000D02*
X126760000Y-52394382D01*
X126760000Y-52394382D02*
X126740000Y-52360000D01*
X154883398Y-69655527D02*
X152400000Y-68072000D01*
X152400000Y-68072000D02*
X150876000Y-67564000D01*
X150876000Y-67564000D02*
X146812000Y-63500000D01*
X146812000Y-63500000D02*
X134620000Y-58928000D01*
X134620000Y-58928000D02*
X130048000Y-55880000D01*
X168650000Y-78600000D02*
X164285000Y-78595000D01*
X164285000Y-78595000D02*
X154883398Y-69655527D01*
X154883398Y-69655527D02*
X154825000Y-69600000D01*
X94975000Y-41960000D02*
X95859083Y-44077957D01*
X169860000Y-79250000D02*
X168650000Y-79250000D01*
X151484975Y-69733235D02*
X146304000Y-64516000D01*
X146304000Y-64516000D02*
X133604000Y-59436000D01*
X133604000Y-59436000D02*
X130048000Y-56896000D01*
X130048000Y-56896000D02*
X127000000Y-56896000D01*
X126492000Y-54356000D02*
X123952000Y-51816000D01*
X123952000Y-51816000D02*
X123560000Y-51550000D01*
X150331751Y-70581751D02*
X151484975Y-69733235D01*
X151484975Y-69733235D02*
X152494283Y-68990609D01*
X154230000Y-70075000D02*
X162535000Y-77830000D01*
X97641096Y-43169976D02*
X96255000Y-41910000D01*
X120585000Y-50370000D02*
X123560000Y-51550000D01*
X152494283Y-68990609D02*
X154230000Y-70075000D01*
X168650000Y-79250000D02*
X163945000Y-79265000D01*
X163945000Y-79265000D02*
X162535000Y-77830000D01*
X115697630Y-60405878D02*
X116630000Y-58300000D01*
X116630000Y-58300000D02*
X116350000Y-57300000D01*
X116350000Y-57300000D02*
X114340000Y-56420000D01*
X114340000Y-56420000D02*
X111757628Y-56607276D01*
X115697630Y-60405878D02*
X116590000Y-62410000D01*
X116020000Y-66320000D02*
X113870000Y-66000000D01*
X113870000Y-66000000D02*
X114160000Y-63110000D01*
X116590000Y-62410000D02*
X114160000Y-63110000D01*
X116020000Y-66320000D02*
X116960000Y-69840000D01*
X103080000Y-60927069D02*
X105440000Y-59720000D01*
X103882724Y-61885000D02*
X103080000Y-60927069D01*
X103080000Y-60927069D02*
X102940000Y-60760000D01*
X102940000Y-60760000D02*
X101340917Y-59242043D01*
X107100000Y-58697600D02*
X105440000Y-59720000D01*
X107120000Y-58680000D02*
X107100000Y-58697600D01*
X107100000Y-58697600D02*
X107620000Y-58240000D01*
X107620000Y-58240000D02*
X108640000Y-57580000D01*
X108640000Y-57580000D02*
X109852372Y-57707276D01*
X113862370Y-59914122D02*
X115760000Y-58240000D01*
X117420000Y-58250000D02*
X117608249Y-58868249D01*
X111962724Y-60565000D02*
X113862370Y-59914122D01*
X111962724Y-60565000D02*
X110802372Y-59352724D01*
X109355000Y-60422724D02*
X110802372Y-59352724D01*
X104980000Y-62640000D02*
X105140000Y-63040000D01*
X112640000Y-59280000D02*
X112707628Y-58252724D01*
X105365000Y-60857276D02*
X104980000Y-62640000D01*
X104980000Y-62640000D02*
X103920000Y-63460000D01*
X103920000Y-63460000D02*
X103060000Y-63560000D01*
X103060000Y-63560000D02*
X102237276Y-62835000D01*
D32*
G36*
X114691021Y-60809087D02*
X114676513Y-61000094D01*
X114739230Y-61195898D01*
X114873184Y-61351874D01*
X115057268Y-61443446D01*
X115440766Y-61546204D01*
X115625440Y-61960953D01*
X113966648Y-62438794D01*
X113962788Y-62440788D01*
X113958464Y-62441206D01*
X113841867Y-62503253D01*
X113724507Y-62563879D01*
X113721704Y-62567198D01*
X113717869Y-62569239D01*
X113633890Y-62671186D01*
X113548666Y-62772106D01*
X113547347Y-62776245D01*
X113544584Y-62779599D01*
X113506000Y-62905955D01*
X113465894Y-63031775D01*
X113466259Y-63036103D01*
X113464990Y-63040258D01*
X113174990Y-65930259D01*
X113186525Y-66049625D01*
X113192350Y-66169389D01*
X113199578Y-66184691D01*
X113201206Y-66201536D01*
X113257541Y-66307399D01*
X113308756Y-66415821D01*
X113321289Y-66427191D01*
X113329239Y-66442131D01*
X113421797Y-66518376D01*
X113510606Y-66598947D01*
X113526537Y-66604656D01*
X113539599Y-66615416D01*
X113654292Y-66650438D01*
X113767170Y-66690889D01*
X114761050Y-66838816D01*
X114868728Y-67006153D01*
X115038488Y-67122145D01*
X115240000Y-67162952D01*
X115522130Y-67162952D01*
X116030397Y-69066252D01*
X115948847Y-69118728D01*
X115832855Y-69288488D01*
X115792048Y-69490000D01*
X115792048Y-70190000D01*
X115827470Y-70378253D01*
X115938728Y-70551153D01*
X116108488Y-70667145D01*
X116310000Y-70707952D01*
X117610000Y-70707952D01*
X117798253Y-70672530D01*
X117971153Y-70561272D01*
X118087145Y-70391512D01*
X118127952Y-70190000D01*
X118127952Y-69490000D01*
X118092530Y-69301747D01*
X117981272Y-69128847D01*
X117811512Y-69012855D01*
X117610000Y-68972048D01*
X117451194Y-68972048D01*
X116960042Y-67132838D01*
X116988253Y-67127530D01*
X117161153Y-67016272D01*
X117277145Y-66846512D01*
X117317952Y-66645000D01*
X117317952Y-65995000D01*
X117282530Y-65806747D01*
X117171272Y-65633847D01*
X117001512Y-65517855D01*
X116800000Y-65477048D01*
X115240000Y-65477048D01*
X115178679Y-65488586D01*
X114631499Y-65407145D01*
X114722048Y-64504776D01*
X114722048Y-64745000D01*
X114757470Y-64933253D01*
X114868728Y-65106153D01*
X115038488Y-65222145D01*
X115240000Y-65262952D01*
X116800000Y-65262952D01*
X116988253Y-65227530D01*
X117161153Y-65116272D01*
X117277145Y-64946512D01*
X117317952Y-64745000D01*
X117317952Y-64095000D01*
X117282530Y-63906747D01*
X117171272Y-63733847D01*
X117001512Y-63617855D01*
X116804464Y-63577952D01*
X116940000Y-63577952D01*
X117128253Y-63542530D01*
X117301153Y-63431272D01*
X117346998Y-63364176D01*
X117346998Y-63695000D01*
X117623492Y-63695000D01*
X117578847Y-63723728D01*
X117462855Y-63893488D01*
X117422048Y-64095000D01*
X117422048Y-64664926D01*
X117401673Y-64685301D01*
X117305000Y-64918690D01*
X117305000Y-65048750D01*
X117463750Y-65207500D01*
X117717054Y-65207500D01*
X117738488Y-65222145D01*
X117940000Y-65262952D01*
X119500000Y-65262952D01*
X119688253Y-65227530D01*
X119719381Y-65207500D01*
X119885000Y-65207500D01*
X119885000Y-65532500D01*
X119722946Y-65532500D01*
X119701512Y-65517855D01*
X119500000Y-65477048D01*
X117940000Y-65477048D01*
X117751747Y-65512470D01*
X117720619Y-65532500D01*
X117463750Y-65532500D01*
X117305000Y-65691250D01*
X117305000Y-65821310D01*
X117401673Y-66054699D01*
X117422048Y-66075074D01*
X117422048Y-66645000D01*
X117457470Y-66833253D01*
X117568728Y-67006153D01*
X117722025Y-67110896D01*
X117721860Y-67300016D01*
X117844611Y-67597097D01*
X118071707Y-67824590D01*
X118368574Y-67947860D01*
X118690016Y-67948140D01*
X118987097Y-67825389D01*
X119204192Y-67608672D01*
X119291227Y-67570861D01*
X119302213Y-67563245D01*
X119315163Y-67559922D01*
X119413820Y-67485872D01*
X119515208Y-67415584D01*
X119522445Y-67404341D01*
X119533135Y-67396317D01*
X119595945Y-67290149D01*
X119662717Y-67186411D01*
X119665100Y-67173257D01*
X119671907Y-67161751D01*
X119676467Y-67129748D01*
X119688253Y-67127530D01*
X119861153Y-67016272D01*
X119885000Y-66981370D01*
X119885000Y-67443002D01*
X120520000Y-67443002D01*
X120520000Y-67285000D01*
X120686250Y-67285000D01*
X120845000Y-67126250D01*
X120845000Y-66475000D01*
X121495000Y-66475000D01*
X121495000Y-67126250D01*
X121653750Y-67285000D01*
X121946310Y-67285000D01*
X122179699Y-67188327D01*
X122358327Y-67009698D01*
X122455000Y-66776309D01*
X122455000Y-66633750D01*
X122296250Y-66475000D01*
X121495000Y-66475000D01*
X120845000Y-66475000D01*
X120520000Y-66475000D01*
X120520000Y-66125000D01*
X120845000Y-66125000D01*
X120845000Y-65473750D01*
X121495000Y-65473750D01*
X121495000Y-66125000D01*
X122296250Y-66125000D01*
X122455000Y-65966250D01*
X122455000Y-65823691D01*
X122358327Y-65590302D01*
X122179699Y-65411673D01*
X121946310Y-65315000D01*
X121653750Y-65315000D01*
X121495000Y-65473750D01*
X120845000Y-65473750D01*
X120686250Y-65315000D01*
X120520000Y-65315000D01*
X120520000Y-65267952D01*
X121820000Y-65267952D01*
X122008253Y-65232530D01*
X122181153Y-65121272D01*
X122297145Y-64951512D01*
X122337952Y-64750000D01*
X122337952Y-64529568D01*
X123321125Y-67510778D01*
X121843342Y-77073327D01*
X117060550Y-80080000D01*
X116300000Y-80080000D01*
X116300000Y-80480000D01*
X115500000Y-80480000D01*
X115500000Y-80080000D01*
X114623750Y-80080000D01*
X114465000Y-80238750D01*
X114465000Y-80606309D01*
X114561673Y-80839698D01*
X114700000Y-80978026D01*
X114700000Y-81563945D01*
X114057762Y-81967684D01*
X113615174Y-81785937D01*
X113741250Y-81785937D01*
X113900000Y-81627187D01*
X113900000Y-80750937D01*
X113023750Y-80750937D01*
X112865000Y-80909687D01*
X112865000Y-81277246D01*
X112961673Y-81510635D01*
X112973455Y-81522417D01*
X107864950Y-79424628D01*
X112865000Y-79424628D01*
X112865000Y-79792187D01*
X113023750Y-79950937D01*
X113900000Y-79950937D01*
X113900000Y-79074687D01*
X113741250Y-78915937D01*
X113373690Y-78915937D01*
X113140301Y-79012610D01*
X112961673Y-79191239D01*
X112865000Y-79424628D01*
X107864950Y-79424628D01*
X106235365Y-78755445D01*
X102492284Y-76657828D01*
X102395383Y-73180996D01*
X109711652Y-73180996D01*
X110016708Y-73919287D01*
X110581074Y-74484639D01*
X111318832Y-74790983D01*
X112117664Y-74791680D01*
X112855955Y-74486624D01*
X113421307Y-73922258D01*
X113727651Y-73184500D01*
X113727728Y-73095786D01*
X116244465Y-72594681D01*
X116310000Y-72607952D01*
X116355314Y-72607952D01*
X116680408Y-75479047D01*
X116391778Y-75767173D01*
X116320679Y-75938400D01*
X116161319Y-75872228D01*
X115640964Y-75871774D01*
X115160046Y-76070485D01*
X114791778Y-76438110D01*
X114592228Y-76918681D01*
X114591774Y-77439036D01*
X114790485Y-77919954D01*
X115114963Y-78245000D01*
X114756998Y-78245000D01*
X114756998Y-78334757D01*
X114740301Y-78341673D01*
X114561673Y-78520302D01*
X114465000Y-78753691D01*
X114465000Y-79121250D01*
X114623750Y-79280000D01*
X114700000Y-79280000D01*
X114700000Y-79950937D01*
X115576250Y-79950937D01*
X115735000Y-79792187D01*
X115735000Y-79424628D01*
X115638327Y-79191239D01*
X115500000Y-79052911D01*
X115500000Y-78880000D01*
X116300000Y-78880000D01*
X116300000Y-79280000D01*
X117176250Y-79280000D01*
X117335000Y-79121250D01*
X117335000Y-78753691D01*
X117238327Y-78520302D01*
X117059699Y-78341673D01*
X117043002Y-78334757D01*
X117043002Y-78245000D01*
X116684547Y-78245000D01*
X117008222Y-77921890D01*
X117079321Y-77750663D01*
X117238681Y-77816835D01*
X117759036Y-77817289D01*
X118239954Y-77618578D01*
X118608222Y-77250953D01*
X118807772Y-76770382D01*
X118808226Y-76250027D01*
X118609515Y-75769109D01*
X118241890Y-75400841D01*
X118069368Y-75329204D01*
X117758087Y-72580088D01*
X117798253Y-72572530D01*
X117971153Y-72461272D01*
X118087145Y-72291512D01*
X118112264Y-72167470D01*
X118782306Y-71996914D01*
X118856421Y-71961514D01*
X118935177Y-71938193D01*
X118978239Y-71903328D01*
X119028233Y-71879449D01*
X119083159Y-71818381D01*
X119146996Y-71766696D01*
X119173438Y-71718006D01*
X119210489Y-71676812D01*
X119237864Y-71599374D01*
X119277063Y-71527194D01*
X119389803Y-71164226D01*
X119558253Y-71132530D01*
X119731153Y-71021272D01*
X119847145Y-70851512D01*
X119887952Y-70650000D01*
X119887952Y-70483750D01*
X119935000Y-70483750D01*
X119935000Y-70776310D01*
X120031673Y-71009699D01*
X120210302Y-71188327D01*
X120443691Y-71285000D01*
X120586250Y-71285000D01*
X120745000Y-71126250D01*
X120745000Y-70325000D01*
X121095000Y-70325000D01*
X121095000Y-71126250D01*
X121253750Y-71285000D01*
X121396309Y-71285000D01*
X121629698Y-71188327D01*
X121808327Y-71009699D01*
X121905000Y-70776310D01*
X121905000Y-70483750D01*
X121746250Y-70325000D01*
X121095000Y-70325000D01*
X120745000Y-70325000D01*
X120093750Y-70325000D01*
X119935000Y-70483750D01*
X119887952Y-70483750D01*
X119887952Y-69350000D01*
X119864186Y-69223690D01*
X119935000Y-69223690D01*
X119935000Y-69516250D01*
X120093750Y-69675000D01*
X120745000Y-69675000D01*
X120745000Y-68873750D01*
X121095000Y-68873750D01*
X121095000Y-69675000D01*
X121746250Y-69675000D01*
X121905000Y-69516250D01*
X121905000Y-69223690D01*
X121808327Y-68990301D01*
X121629698Y-68811673D01*
X121396309Y-68715000D01*
X121253750Y-68715000D01*
X121095000Y-68873750D01*
X120745000Y-68873750D01*
X120586250Y-68715000D01*
X120443691Y-68715000D01*
X120210302Y-68811673D01*
X120031673Y-68990301D01*
X119935000Y-69223690D01*
X119864186Y-69223690D01*
X119852530Y-69161747D01*
X119741272Y-68988847D01*
X119571512Y-68872855D01*
X119370000Y-68832048D01*
X118670000Y-68832048D01*
X118481747Y-68867470D01*
X118308847Y-68978728D01*
X118192855Y-69148488D01*
X118152048Y-69350000D01*
X118152048Y-70439571D01*
X118058885Y-70739510D01*
X117538201Y-70872048D01*
X116338251Y-70872048D01*
X116333336Y-70870866D01*
X116061010Y-70860056D01*
X115805276Y-70954283D01*
X115605067Y-71139204D01*
X115524588Y-71313592D01*
X113455592Y-71725548D01*
X113423292Y-71647377D01*
X112858926Y-71082025D01*
X112121168Y-70775681D01*
X111322336Y-70774984D01*
X110584045Y-71080040D01*
X110018693Y-71644406D01*
X109712349Y-72382164D01*
X109711652Y-73180996D01*
X102395383Y-73180996D01*
X102378229Y-72565540D01*
X102359804Y-72484747D01*
X102354121Y-72402069D01*
X101228412Y-68253712D01*
X101776943Y-66203467D01*
X102077465Y-65499118D01*
X102091991Y-65429927D01*
X102119379Y-65364743D01*
X102119718Y-65297853D01*
X102133461Y-65232392D01*
X102120402Y-65162908D01*
X102120761Y-65092205D01*
X102095476Y-65030275D01*
X102083122Y-64964540D01*
X102044468Y-64905344D01*
X102017742Y-64839884D01*
X101702039Y-64362175D01*
X101365416Y-63060799D01*
X101810607Y-63831893D01*
X101935411Y-63977214D01*
X102118212Y-64071321D01*
X102323224Y-64086893D01*
X102518143Y-64021477D01*
X102523601Y-64018326D01*
X102598192Y-64084057D01*
X102614341Y-64093432D01*
X102626439Y-64107656D01*
X102731651Y-64161536D01*
X102833892Y-64220892D01*
X102852401Y-64223374D01*
X102869021Y-64231885D01*
X102986845Y-64241401D01*
X103104016Y-64257112D01*
X103122066Y-64252322D01*
X103140677Y-64253825D01*
X104000677Y-64153825D01*
X104050844Y-64137638D01*
X104103434Y-64133984D01*
X104179347Y-64096177D01*
X104260051Y-64070137D01*
X104300205Y-64035985D01*
X104347393Y-64012483D01*
X104706330Y-63734815D01*
X104978574Y-63847860D01*
X105300016Y-63848140D01*
X105597097Y-63725389D01*
X105724962Y-63597748D01*
X105786128Y-63629236D01*
X105991140Y-63644809D01*
X106186059Y-63579393D01*
X106514116Y-63389990D01*
X106742183Y-63507019D01*
X106754611Y-63537097D01*
X106981707Y-63764590D01*
X107278574Y-63887860D01*
X107600016Y-63888140D01*
X107897097Y-63765389D01*
X108124590Y-63538293D01*
X108247860Y-63241426D01*
X108248090Y-62977464D01*
X110143863Y-65289632D01*
X110152520Y-65325298D01*
X110149109Y-65326708D01*
X109583757Y-65891074D01*
X109277413Y-66628832D01*
X109276716Y-67427664D01*
X109581772Y-68165955D01*
X110146138Y-68731307D01*
X110883896Y-69037651D01*
X111682728Y-69038348D01*
X112421019Y-68733292D01*
X112986371Y-68168926D01*
X113292715Y-67431168D01*
X113293412Y-66632336D01*
X112988356Y-65894045D01*
X112423990Y-65328693D01*
X111686232Y-65022349D01*
X111516515Y-65022201D01*
X111463856Y-64805245D01*
X111455512Y-64787264D01*
X111453579Y-64767542D01*
X111398431Y-64664252D01*
X111349137Y-64558024D01*
X111334549Y-64544607D01*
X111325215Y-64527124D01*
X109913124Y-62804877D01*
X110057097Y-62745389D01*
X110101190Y-62701373D01*
X110198212Y-62751321D01*
X110403224Y-62766893D01*
X110598143Y-62701477D01*
X111204361Y-62351477D01*
X111349682Y-62226673D01*
X111443788Y-62043872D01*
X111459361Y-61838860D01*
X111393945Y-61643941D01*
X110743945Y-60518107D01*
X110635047Y-60391306D01*
X110764855Y-60347741D01*
X110779676Y-60339184D01*
X110906808Y-60472005D01*
X111536055Y-61561893D01*
X111660859Y-61707214D01*
X111843660Y-61801321D01*
X112048672Y-61816893D01*
X112243591Y-61751477D01*
X112849809Y-61401477D01*
X112995130Y-61276673D01*
X113089236Y-61093872D01*
X113103000Y-60912669D01*
X113127021Y-60904439D01*
X113222008Y-60951690D01*
X113898156Y-61132863D01*
X114089163Y-61147371D01*
X114284967Y-61084654D01*
X114440943Y-60950700D01*
X114532515Y-60766616D01*
X114712257Y-60095809D01*
X114934734Y-59899536D01*
X114691021Y-60809087D01*
X114691021Y-60809087D01*
G37*
X114691021Y-60809087D02*
X114676513Y-61000094D01*
X114739230Y-61195898D01*
X114873184Y-61351874D01*
X115057268Y-61443446D01*
X115440766Y-61546204D01*
X115625440Y-61960953D01*
X113966648Y-62438794D01*
X113962788Y-62440788D01*
X113958464Y-62441206D01*
X113841867Y-62503253D01*
X113724507Y-62563879D01*
X113721704Y-62567198D01*
X113717869Y-62569239D01*
X113633890Y-62671186D01*
X113548666Y-62772106D01*
X113547347Y-62776245D01*
X113544584Y-62779599D01*
X113506000Y-62905955D01*
X113465894Y-63031775D01*
X113466259Y-63036103D01*
X113464990Y-63040258D01*
X113174990Y-65930259D01*
X113186525Y-66049625D01*
X113192350Y-66169389D01*
X113199578Y-66184691D01*
X113201206Y-66201536D01*
X113257541Y-66307399D01*
X113308756Y-66415821D01*
X113321289Y-66427191D01*
X113329239Y-66442131D01*
X113421797Y-66518376D01*
X113510606Y-66598947D01*
X113526537Y-66604656D01*
X113539599Y-66615416D01*
X113654292Y-66650438D01*
X113767170Y-66690889D01*
X114761050Y-66838816D01*
X114868728Y-67006153D01*
X115038488Y-67122145D01*
X115240000Y-67162952D01*
X115522130Y-67162952D01*
X116030397Y-69066252D01*
X115948847Y-69118728D01*
X115832855Y-69288488D01*
X115792048Y-69490000D01*
X115792048Y-70190000D01*
X115827470Y-70378253D01*
X115938728Y-70551153D01*
X116108488Y-70667145D01*
X116310000Y-70707952D01*
X117610000Y-70707952D01*
X117798253Y-70672530D01*
X117971153Y-70561272D01*
X118087145Y-70391512D01*
X118127952Y-70190000D01*
X118127952Y-69490000D01*
X118092530Y-69301747D01*
X117981272Y-69128847D01*
X117811512Y-69012855D01*
X117610000Y-68972048D01*
X117451194Y-68972048D01*
X116960042Y-67132838D01*
X116988253Y-67127530D01*
X117161153Y-67016272D01*
X117277145Y-66846512D01*
X117317952Y-66645000D01*
X117317952Y-65995000D01*
X117282530Y-65806747D01*
X117171272Y-65633847D01*
X117001512Y-65517855D01*
X116800000Y-65477048D01*
X115240000Y-65477048D01*
X115178679Y-65488586D01*
X114631499Y-65407145D01*
X114722048Y-64504776D01*
X114722048Y-64745000D01*
X114757470Y-64933253D01*
X114868728Y-65106153D01*
X115038488Y-65222145D01*
X115240000Y-65262952D01*
X116800000Y-65262952D01*
X116988253Y-65227530D01*
X117161153Y-65116272D01*
X117277145Y-64946512D01*
X117317952Y-64745000D01*
X117317952Y-64095000D01*
X117282530Y-63906747D01*
X117171272Y-63733847D01*
X117001512Y-63617855D01*
X116804464Y-63577952D01*
X116940000Y-63577952D01*
X117128253Y-63542530D01*
X117301153Y-63431272D01*
X117346998Y-63364176D01*
X117346998Y-63695000D01*
X117623492Y-63695000D01*
X117578847Y-63723728D01*
X117462855Y-63893488D01*
X117422048Y-64095000D01*
X117422048Y-64664926D01*
X117401673Y-64685301D01*
X117305000Y-64918690D01*
X117305000Y-65048750D01*
X117463750Y-65207500D01*
X117717054Y-65207500D01*
X117738488Y-65222145D01*
X117940000Y-65262952D01*
X119500000Y-65262952D01*
X119688253Y-65227530D01*
X119719381Y-65207500D01*
X119885000Y-65207500D01*
X119885000Y-65532500D01*
X119722946Y-65532500D01*
X119701512Y-65517855D01*
X119500000Y-65477048D01*
X117940000Y-65477048D01*
X117751747Y-65512470D01*
X117720619Y-65532500D01*
X117463750Y-65532500D01*
X117305000Y-65691250D01*
X117305000Y-65821310D01*
X117401673Y-66054699D01*
X117422048Y-66075074D01*
X117422048Y-66645000D01*
X117457470Y-66833253D01*
X117568728Y-67006153D01*
X117722025Y-67110896D01*
X117721860Y-67300016D01*
X117844611Y-67597097D01*
X118071707Y-67824590D01*
X118368574Y-67947860D01*
X118690016Y-67948140D01*
X118987097Y-67825389D01*
X119204192Y-67608672D01*
X119291227Y-67570861D01*
X119302213Y-67563245D01*
X119315163Y-67559922D01*
X119413820Y-67485872D01*
X119515208Y-67415584D01*
X119522445Y-67404341D01*
X119533135Y-67396317D01*
X119595945Y-67290149D01*
X119662717Y-67186411D01*
X119665100Y-67173257D01*
X119671907Y-67161751D01*
X119676467Y-67129748D01*
X119688253Y-67127530D01*
X119861153Y-67016272D01*
X119885000Y-66981370D01*
X119885000Y-67443002D01*
X120520000Y-67443002D01*
X120520000Y-67285000D01*
X120686250Y-67285000D01*
X120845000Y-67126250D01*
X120845000Y-66475000D01*
X121495000Y-66475000D01*
X121495000Y-67126250D01*
X121653750Y-67285000D01*
X121946310Y-67285000D01*
X122179699Y-67188327D01*
X122358327Y-67009698D01*
X122455000Y-66776309D01*
X122455000Y-66633750D01*
X122296250Y-66475000D01*
X121495000Y-66475000D01*
X120845000Y-66475000D01*
X120520000Y-66475000D01*
X120520000Y-66125000D01*
X120845000Y-66125000D01*
X120845000Y-65473750D01*
X121495000Y-65473750D01*
X121495000Y-66125000D01*
X122296250Y-66125000D01*
X122455000Y-65966250D01*
X122455000Y-65823691D01*
X122358327Y-65590302D01*
X122179699Y-65411673D01*
X121946310Y-65315000D01*
X121653750Y-65315000D01*
X121495000Y-65473750D01*
X120845000Y-65473750D01*
X120686250Y-65315000D01*
X120520000Y-65315000D01*
X120520000Y-65267952D01*
X121820000Y-65267952D01*
X122008253Y-65232530D01*
X122181153Y-65121272D01*
X122297145Y-64951512D01*
X122337952Y-64750000D01*
X122337952Y-64529568D01*
X123321125Y-67510778D01*
X121843342Y-77073327D01*
X117060550Y-80080000D01*
X116300000Y-80080000D01*
X116300000Y-80480000D01*
X115500000Y-80480000D01*
X115500000Y-80080000D01*
X114623750Y-80080000D01*
X114465000Y-80238750D01*
X114465000Y-80606309D01*
X114561673Y-80839698D01*
X114700000Y-80978026D01*
X114700000Y-81563945D01*
X114057762Y-81967684D01*
X113615174Y-81785937D01*
X113741250Y-81785937D01*
X113900000Y-81627187D01*
X113900000Y-80750937D01*
X113023750Y-80750937D01*
X112865000Y-80909687D01*
X112865000Y-81277246D01*
X112961673Y-81510635D01*
X112973455Y-81522417D01*
X107864950Y-79424628D01*
X112865000Y-79424628D01*
X112865000Y-79792187D01*
X113023750Y-79950937D01*
X113900000Y-79950937D01*
X113900000Y-79074687D01*
X113741250Y-78915937D01*
X113373690Y-78915937D01*
X113140301Y-79012610D01*
X112961673Y-79191239D01*
X112865000Y-79424628D01*
X107864950Y-79424628D01*
X106235365Y-78755445D01*
X102492284Y-76657828D01*
X102395383Y-73180996D01*
X109711652Y-73180996D01*
X110016708Y-73919287D01*
X110581074Y-74484639D01*
X111318832Y-74790983D01*
X112117664Y-74791680D01*
X112855955Y-74486624D01*
X113421307Y-73922258D01*
X113727651Y-73184500D01*
X113727728Y-73095786D01*
X116244465Y-72594681D01*
X116310000Y-72607952D01*
X116355314Y-72607952D01*
X116680408Y-75479047D01*
X116391778Y-75767173D01*
X116320679Y-75938400D01*
X116161319Y-75872228D01*
X115640964Y-75871774D01*
X115160046Y-76070485D01*
X114791778Y-76438110D01*
X114592228Y-76918681D01*
X114591774Y-77439036D01*
X114790485Y-77919954D01*
X115114963Y-78245000D01*
X114756998Y-78245000D01*
X114756998Y-78334757D01*
X114740301Y-78341673D01*
X114561673Y-78520302D01*
X114465000Y-78753691D01*
X114465000Y-79121250D01*
X114623750Y-79280000D01*
X114700000Y-79280000D01*
X114700000Y-79950937D01*
X115576250Y-79950937D01*
X115735000Y-79792187D01*
X115735000Y-79424628D01*
X115638327Y-79191239D01*
X115500000Y-79052911D01*
X115500000Y-78880000D01*
X116300000Y-78880000D01*
X116300000Y-79280000D01*
X117176250Y-79280000D01*
X117335000Y-79121250D01*
X117335000Y-78753691D01*
X117238327Y-78520302D01*
X117059699Y-78341673D01*
X117043002Y-78334757D01*
X117043002Y-78245000D01*
X116684547Y-78245000D01*
X117008222Y-77921890D01*
X117079321Y-77750663D01*
X117238681Y-77816835D01*
X117759036Y-77817289D01*
X118239954Y-77618578D01*
X118608222Y-77250953D01*
X118807772Y-76770382D01*
X118808226Y-76250027D01*
X118609515Y-75769109D01*
X118241890Y-75400841D01*
X118069368Y-75329204D01*
X117758087Y-72580088D01*
X117798253Y-72572530D01*
X117971153Y-72461272D01*
X118087145Y-72291512D01*
X118112264Y-72167470D01*
X118782306Y-71996914D01*
X118856421Y-71961514D01*
X118935177Y-71938193D01*
X118978239Y-71903328D01*
X119028233Y-71879449D01*
X119083159Y-71818381D01*
X119146996Y-71766696D01*
X119173438Y-71718006D01*
X119210489Y-71676812D01*
X119237864Y-71599374D01*
X119277063Y-71527194D01*
X119389803Y-71164226D01*
X119558253Y-71132530D01*
X119731153Y-71021272D01*
X119847145Y-70851512D01*
X119887952Y-70650000D01*
X119887952Y-70483750D01*
X119935000Y-70483750D01*
X119935000Y-70776310D01*
X120031673Y-71009699D01*
X120210302Y-71188327D01*
X120443691Y-71285000D01*
X120586250Y-71285000D01*
X120745000Y-71126250D01*
X120745000Y-70325000D01*
X121095000Y-70325000D01*
X121095000Y-71126250D01*
X121253750Y-71285000D01*
X121396309Y-71285000D01*
X121629698Y-71188327D01*
X121808327Y-71009699D01*
X121905000Y-70776310D01*
X121905000Y-70483750D01*
X121746250Y-70325000D01*
X121095000Y-70325000D01*
X120745000Y-70325000D01*
X120093750Y-70325000D01*
X119935000Y-70483750D01*
X119887952Y-70483750D01*
X119887952Y-69350000D01*
X119864186Y-69223690D01*
X119935000Y-69223690D01*
X119935000Y-69516250D01*
X120093750Y-69675000D01*
X120745000Y-69675000D01*
X120745000Y-68873750D01*
X121095000Y-68873750D01*
X121095000Y-69675000D01*
X121746250Y-69675000D01*
X121905000Y-69516250D01*
X121905000Y-69223690D01*
X121808327Y-68990301D01*
X121629698Y-68811673D01*
X121396309Y-68715000D01*
X121253750Y-68715000D01*
X121095000Y-68873750D01*
X120745000Y-68873750D01*
X120586250Y-68715000D01*
X120443691Y-68715000D01*
X120210302Y-68811673D01*
X120031673Y-68990301D01*
X119935000Y-69223690D01*
X119864186Y-69223690D01*
X119852530Y-69161747D01*
X119741272Y-68988847D01*
X119571512Y-68872855D01*
X119370000Y-68832048D01*
X118670000Y-68832048D01*
X118481747Y-68867470D01*
X118308847Y-68978728D01*
X118192855Y-69148488D01*
X118152048Y-69350000D01*
X118152048Y-70439571D01*
X118058885Y-70739510D01*
X117538201Y-70872048D01*
X116338251Y-70872048D01*
X116333336Y-70870866D01*
X116061010Y-70860056D01*
X115805276Y-70954283D01*
X115605067Y-71139204D01*
X115524588Y-71313592D01*
X113455592Y-71725548D01*
X113423292Y-71647377D01*
X112858926Y-71082025D01*
X112121168Y-70775681D01*
X111322336Y-70774984D01*
X110584045Y-71080040D01*
X110018693Y-71644406D01*
X109712349Y-72382164D01*
X109711652Y-73180996D01*
X102395383Y-73180996D01*
X102378229Y-72565540D01*
X102359804Y-72484747D01*
X102354121Y-72402069D01*
X101228412Y-68253712D01*
X101776943Y-66203467D01*
X102077465Y-65499118D01*
X102091991Y-65429927D01*
X102119379Y-65364743D01*
X102119718Y-65297853D01*
X102133461Y-65232392D01*
X102120402Y-65162908D01*
X102120761Y-65092205D01*
X102095476Y-65030275D01*
X102083122Y-64964540D01*
X102044468Y-64905344D01*
X102017742Y-64839884D01*
X101702039Y-64362175D01*
X101365416Y-63060799D01*
X101810607Y-63831893D01*
X101935411Y-63977214D01*
X102118212Y-64071321D01*
X102323224Y-64086893D01*
X102518143Y-64021477D01*
X102523601Y-64018326D01*
X102598192Y-64084057D01*
X102614341Y-64093432D01*
X102626439Y-64107656D01*
X102731651Y-64161536D01*
X102833892Y-64220892D01*
X102852401Y-64223374D01*
X102869021Y-64231885D01*
X102986845Y-64241401D01*
X103104016Y-64257112D01*
X103122066Y-64252322D01*
X103140677Y-64253825D01*
X104000677Y-64153825D01*
X104050844Y-64137638D01*
X104103434Y-64133984D01*
X104179347Y-64096177D01*
X104260051Y-64070137D01*
X104300205Y-64035985D01*
X104347393Y-64012483D01*
X104706330Y-63734815D01*
X104978574Y-63847860D01*
X105300016Y-63848140D01*
X105597097Y-63725389D01*
X105724962Y-63597748D01*
X105786128Y-63629236D01*
X105991140Y-63644809D01*
X106186059Y-63579393D01*
X106514116Y-63389990D01*
X106742183Y-63507019D01*
X106754611Y-63537097D01*
X106981707Y-63764590D01*
X107278574Y-63887860D01*
X107600016Y-63888140D01*
X107897097Y-63765389D01*
X108124590Y-63538293D01*
X108247860Y-63241426D01*
X108248090Y-62977464D01*
X110143863Y-65289632D01*
X110152520Y-65325298D01*
X110149109Y-65326708D01*
X109583757Y-65891074D01*
X109277413Y-66628832D01*
X109276716Y-67427664D01*
X109581772Y-68165955D01*
X110146138Y-68731307D01*
X110883896Y-69037651D01*
X111682728Y-69038348D01*
X112421019Y-68733292D01*
X112986371Y-68168926D01*
X113292715Y-67431168D01*
X113293412Y-66632336D01*
X112988356Y-65894045D01*
X112423990Y-65328693D01*
X111686232Y-65022349D01*
X111516515Y-65022201D01*
X111463856Y-64805245D01*
X111455512Y-64787264D01*
X111453579Y-64767542D01*
X111398431Y-64664252D01*
X111349137Y-64558024D01*
X111334549Y-64544607D01*
X111325215Y-64527124D01*
X109913124Y-62804877D01*
X110057097Y-62745389D01*
X110101190Y-62701373D01*
X110198212Y-62751321D01*
X110403224Y-62766893D01*
X110598143Y-62701477D01*
X111204361Y-62351477D01*
X111349682Y-62226673D01*
X111443788Y-62043872D01*
X111459361Y-61838860D01*
X111393945Y-61643941D01*
X110743945Y-60518107D01*
X110635047Y-60391306D01*
X110764855Y-60347741D01*
X110779676Y-60339184D01*
X110906808Y-60472005D01*
X111536055Y-61561893D01*
X111660859Y-61707214D01*
X111843660Y-61801321D01*
X112048672Y-61816893D01*
X112243591Y-61751477D01*
X112849809Y-61401477D01*
X112995130Y-61276673D01*
X113089236Y-61093872D01*
X113103000Y-60912669D01*
X113127021Y-60904439D01*
X113222008Y-60951690D01*
X113898156Y-61132863D01*
X114089163Y-61147371D01*
X114284967Y-61084654D01*
X114440943Y-60950700D01*
X114532515Y-60766616D01*
X114712257Y-60095809D01*
X114934734Y-59899536D01*
X114691021Y-60809087D01*
G36*
X92637275Y-39390785D02*
X92637275Y-39390784D01*
X92791113Y-39544623D01*
X92791115Y-39544624D01*
X93156470Y-39909979D01*
X93239236Y-39827213D01*
X93915935Y-40503912D01*
X94074097Y-40611980D01*
X94275027Y-40655568D01*
X94477084Y-40617548D01*
X94648429Y-40503912D01*
X95709089Y-39443252D01*
X95817157Y-39285090D01*
X95860745Y-39084160D01*
X95822725Y-38882103D01*
X95709089Y-38710758D01*
X95001983Y-38003652D01*
X94846472Y-37897395D01*
X94846472Y-37819326D01*
X94749799Y-37585937D01*
X94595960Y-37432099D01*
X94371454Y-37432099D01*
X93769530Y-38034024D01*
X93946307Y-38210801D01*
X93415977Y-38741131D01*
X93239200Y-38564354D01*
X92974034Y-38829519D01*
X92620481Y-38475966D01*
X92885646Y-38210800D01*
X92708870Y-38034024D01*
X93239200Y-37503694D01*
X93415976Y-37680470D01*
X93683268Y-37413178D01*
X94577039Y-37413178D01*
X94595960Y-37432099D01*
X94595961Y-37432099D01*
X94577039Y-37413178D01*
X93683268Y-37413178D01*
X94017901Y-37078546D01*
X94017901Y-36854040D01*
X94017900Y-36854039D01*
X94017901Y-36854039D01*
X94017901Y-36854040D01*
X94024521Y-36860660D01*
X94017901Y-36854039D01*
X94017900Y-36854039D01*
X94015573Y-36851712D01*
X94297097Y-36735389D01*
X94524590Y-36508293D01*
X94647860Y-36211426D01*
X94648140Y-35889984D01*
X94525389Y-35592903D01*
X94298293Y-35365410D01*
X94001426Y-35242140D01*
X93679984Y-35241860D01*
X93382903Y-35364611D01*
X93155410Y-35591707D01*
X93130709Y-35651194D01*
X92824707Y-35826376D01*
X92739242Y-35740911D01*
X92581080Y-35632843D01*
X92380150Y-35589255D01*
X92178093Y-35627275D01*
X92006748Y-35740911D01*
X90946088Y-36801571D01*
X90838020Y-36959733D01*
X90794432Y-37160663D01*
X90832452Y-37362720D01*
X90946088Y-37534065D01*
X91227885Y-37815862D01*
X91009468Y-38564325D01*
X91004212Y-38624176D01*
X90985935Y-38681412D01*
X90992405Y-38758629D01*
X90985627Y-38835821D01*
X91003676Y-38893129D01*
X91008693Y-38953001D01*
X91698693Y-41353000D01*
X91721229Y-41396681D01*
X91732115Y-41444614D01*
X92709707Y-43635624D01*
X92646554Y-43748391D01*
X92600326Y-44138967D01*
X92695953Y-44478034D01*
X92477850Y-44201372D01*
X92455033Y-44188594D01*
X92429195Y-44112294D01*
X92437860Y-44091426D01*
X92438140Y-43769984D01*
X92315389Y-43472903D01*
X92088293Y-43245410D01*
X91791426Y-43122140D01*
X91469984Y-43121860D01*
X91172903Y-43244611D01*
X90945410Y-43471707D01*
X90841810Y-43721204D01*
X90814348Y-43660373D01*
X90225313Y-42275969D01*
X89758535Y-41079485D01*
X89401129Y-40039819D01*
X89139639Y-39125218D01*
X88959984Y-38302174D01*
X88848054Y-37534759D01*
X88790694Y-36785100D01*
X88776381Y-36054184D01*
X88857880Y-34841395D01*
X89106104Y-33914649D01*
X89552652Y-33159361D01*
X90276187Y-32459138D01*
X91369361Y-31742249D01*
X92213705Y-31292538D01*
X93188997Y-30841381D01*
X94153715Y-30487628D01*
X95191553Y-30212128D01*
X96386045Y-29999500D01*
X97815720Y-29837353D01*
X99554778Y-29713642D01*
X100997491Y-29642994D01*
X102745629Y-29565487D01*
X102747588Y-29565006D01*
X102749586Y-29565299D01*
X104153685Y-29493875D01*
X104157559Y-29492897D01*
X104161522Y-29493426D01*
X105297881Y-29420904D01*
X105304313Y-29419193D01*
X105310923Y-29419930D01*
X106257231Y-29339066D01*
X106266106Y-29336499D01*
X106275315Y-29337248D01*
X107109260Y-29240801D01*
X107118964Y-29237677D01*
X107129146Y-29238168D01*
X107928420Y-29118894D01*
X107936378Y-29116039D01*
X107944831Y-29116215D01*
X108787123Y-28966870D01*
X108791086Y-28965325D01*
X108795342Y-28965355D01*
X109301446Y-28868424D01*
X110883398Y-28664160D01*
X112526395Y-28668434D01*
X114357763Y-28887373D01*
X116251276Y-29277192D01*
X116258728Y-29277242D01*
X116265663Y-29279974D01*
X119904937Y-29938194D01*
X119936782Y-29937639D01*
X119967467Y-29946183D01*
X123716972Y-30228689D01*
X123747617Y-30224958D01*
X123778033Y-30230212D01*
X127548736Y-30134790D01*
X127579421Y-30127875D01*
X127610805Y-30130032D01*
X131313669Y-29654468D01*
X131327487Y-29649826D01*
X131341830Y-29650169D01*
X132601217Y-29430811D01*
X133568978Y-29303718D01*
X134376178Y-29267327D01*
X135168897Y-29320683D01*
X136095529Y-29471452D01*
X137288034Y-29729024D01*
X137740728Y-29833726D01*
X137743602Y-29833815D01*
X137746233Y-29834972D01*
X138968989Y-30105847D01*
X138974443Y-30105965D01*
X138979472Y-30108072D01*
X140257393Y-30367627D01*
X140262821Y-30367649D01*
X140267863Y-30369658D01*
X141438363Y-30586091D01*
X141445907Y-30585989D01*
X141452982Y-30588610D01*
X142254069Y-30716609D01*
X142272542Y-30715908D01*
X142290231Y-30721280D01*
X143750577Y-30865536D01*
X143767147Y-30863909D01*
X143783318Y-30867880D01*
X145546655Y-30946342D01*
X145557925Y-30944617D01*
X145569091Y-30946926D01*
X147520555Y-30961663D01*
X147529880Y-30959881D01*
X147539231Y-30961517D01*
X149563953Y-30914601D01*
X149573149Y-30912549D01*
X149582474Y-30913889D01*
X151565592Y-30807387D01*
X151576335Y-30804644D01*
X151587361Y-30805826D01*
X153414006Y-30641811D01*
X153425841Y-30638332D01*
X153438145Y-30639156D01*
X154493513Y-30501723D01*
X154496220Y-30500808D01*
X154499071Y-30500973D01*
X156152653Y-30270106D01*
X157466098Y-30137594D01*
X158534381Y-30101420D01*
X159455267Y-30158695D01*
X160336454Y-30309769D01*
X161290851Y-30562663D01*
X161300485Y-30565554D01*
X161307915Y-30566263D01*
X161314589Y-30569601D01*
X162888147Y-31000653D01*
X162905479Y-31001886D01*
X162921435Y-31008771D01*
X164496652Y-31346185D01*
X164514414Y-31346446D01*
X164531102Y-31352532D01*
X166213302Y-31612608D01*
X166228317Y-31611963D01*
X166242671Y-31616419D01*
X168137177Y-31815457D01*
X168147933Y-31814468D01*
X168158353Y-31817308D01*
X170353374Y-31970579D01*
X173299927Y-32214441D01*
X175831634Y-32588167D01*
X177966444Y-33097322D01*
X179712366Y-33743245D01*
X181081773Y-34523120D01*
X182098700Y-35434301D01*
X182800050Y-36488026D01*
X183217212Y-37717573D01*
X183358763Y-39159979D01*
X183219357Y-40849616D01*
X183147259Y-41269174D01*
X182875094Y-42540097D01*
X182534235Y-43763448D01*
X182089899Y-45037685D01*
X181506642Y-46457464D01*
X180749449Y-48114585D01*
X180293194Y-49063930D01*
X180292079Y-49068266D01*
X180289444Y-49071881D01*
X179831309Y-50061539D01*
X179829673Y-50068307D01*
X179825698Y-50074026D01*
X179256682Y-51379531D01*
X179255783Y-51383656D01*
X179253422Y-51387153D01*
X178607312Y-52926506D01*
X178606674Y-52929635D01*
X178604914Y-52932302D01*
X177915500Y-54623504D01*
X177914956Y-54626321D01*
X177913398Y-54628730D01*
X177214468Y-56389783D01*
X177213929Y-56392721D01*
X177212331Y-56395244D01*
X176537673Y-58144148D01*
X176537321Y-58146175D01*
X176536231Y-58147922D01*
X176391215Y-58531414D01*
X176391129Y-58531932D01*
X176390852Y-58532377D01*
X175730043Y-60288851D01*
X175729921Y-60289588D01*
X175729528Y-60290224D01*
X175206268Y-61691331D01*
X175205942Y-61693337D01*
X175204885Y-61695072D01*
X174807243Y-62781505D01*
X174806546Y-62785982D01*
X174804247Y-62789882D01*
X174520291Y-63602341D01*
X174518936Y-63611964D01*
X174514268Y-63620486D01*
X174332066Y-64199665D01*
X174329725Y-64221168D01*
X174320693Y-64240816D01*
X174228317Y-64627411D01*
X174226300Y-64680191D01*
X174212823Y-64731267D01*
X174198340Y-64965976D01*
X174200981Y-64985459D01*
X174197187Y-65004751D01*
X174216827Y-65102374D01*
X174230203Y-65201057D01*
X174240099Y-65218048D01*
X174243977Y-65237321D01*
X174295456Y-65360837D01*
X174349072Y-65440700D01*
X174396544Y-65524372D01*
X174414791Y-65538593D01*
X174427685Y-65557799D01*
X174507784Y-65611067D01*
X174583660Y-65670200D01*
X174689170Y-65723222D01*
X174776675Y-65747376D01*
X174861549Y-65779576D01*
X174967909Y-65797425D01*
X174973667Y-65797252D01*
X174973667Y-75509962D01*
X174972498Y-76317416D01*
X174906309Y-76290000D01*
X174313750Y-76290000D01*
X174155000Y-76448750D01*
X174155000Y-77282500D01*
X174693000Y-77282500D01*
X174693000Y-77373000D01*
X172367000Y-77373000D01*
X172367000Y-77282500D01*
X172905000Y-77282500D01*
X172905000Y-76448750D01*
X172865000Y-76408750D01*
X172865000Y-75575000D01*
X173715000Y-75575000D01*
X173715000Y-76414168D01*
X173932361Y-76488915D01*
X174395845Y-76141175D01*
X174628881Y-75792356D01*
X174546310Y-75575000D01*
X173715000Y-75575000D01*
X172865000Y-75575000D01*
X172033690Y-75575000D01*
X171951119Y-75792356D01*
X172184155Y-76141175D01*
X172382516Y-76290000D01*
X172153691Y-76290000D01*
X171920302Y-76386673D01*
X171809976Y-76496998D01*
X171645000Y-76496998D01*
X171645000Y-76611975D01*
X171594698Y-76561673D01*
X171569305Y-76551155D01*
X171473593Y-76380000D01*
X170665000Y-76380000D01*
X170665000Y-76680000D01*
X169997500Y-76680000D01*
X169997500Y-76623750D01*
X169915000Y-76541250D01*
X169915000Y-76380000D01*
X169106407Y-76380000D01*
X169003671Y-76563716D01*
X169036625Y-76603534D01*
X169099237Y-76687738D01*
X169046673Y-76740301D01*
X168950000Y-76973690D01*
X168950000Y-77041250D01*
X169108750Y-77200000D01*
X169146998Y-77200000D01*
X169146998Y-77315000D01*
X169322883Y-77315000D01*
X169232749Y-77373000D01*
X167599158Y-77373000D01*
X167154980Y-75596284D01*
X169003671Y-75596284D01*
X169106407Y-75780000D01*
X169915000Y-75780000D01*
X169915000Y-75038375D01*
X170665000Y-75038375D01*
X170665000Y-75780000D01*
X171473593Y-75780000D01*
X171576329Y-75596284D01*
X171543375Y-75556466D01*
X171259038Y-75174074D01*
X170850010Y-74929601D01*
X170665000Y-75038375D01*
X169915000Y-75038375D01*
X169729990Y-74929601D01*
X169320962Y-75174074D01*
X169036625Y-75556466D01*
X169003671Y-75596284D01*
X167154980Y-75596284D01*
X166882820Y-74507644D01*
X171951119Y-74507644D01*
X172033690Y-74725000D01*
X172865000Y-74725000D01*
X172865000Y-73885832D01*
X173715000Y-73885832D01*
X173715000Y-74725000D01*
X174546310Y-74725000D01*
X174628881Y-74507644D01*
X174395845Y-74158825D01*
X173932361Y-73811085D01*
X173715000Y-73885832D01*
X172865000Y-73885832D01*
X172647639Y-73811085D01*
X172184155Y-74158825D01*
X171951119Y-74507644D01*
X166882820Y-74507644D01*
X166262017Y-72024432D01*
X166339615Y-71946834D01*
X166642609Y-72200077D01*
X167789438Y-72245419D01*
X168017391Y-72200077D01*
X168334253Y-71935243D01*
X167330000Y-70930990D01*
X167303130Y-70957861D01*
X165712140Y-69366871D01*
X165739010Y-69340000D01*
X168920990Y-69340000D01*
X169925243Y-70344253D01*
X170190077Y-70027391D01*
X170235419Y-68880562D01*
X170190077Y-68652609D01*
X169925243Y-68335747D01*
X168920990Y-69340000D01*
X165739010Y-69340000D01*
X165541541Y-69142531D01*
X165123208Y-67469198D01*
X165101517Y-67423690D01*
X165063830Y-67390206D01*
X165000000Y-67373000D01*
X163715984Y-67373000D01*
X164392689Y-66744757D01*
X166325747Y-66744757D01*
X167330000Y-67749010D01*
X168334253Y-66744757D01*
X168017391Y-66479923D01*
X166870562Y-66434581D01*
X166642609Y-66479923D01*
X166325747Y-66744757D01*
X164392689Y-66744757D01*
X170870332Y-60731012D01*
X173690892Y-59455605D01*
X173750269Y-59428756D01*
X174092826Y-59183676D01*
X174159838Y-59076095D01*
X174174818Y-59074481D01*
X174255113Y-59049320D01*
X174338297Y-59036595D01*
X174383955Y-59008947D01*
X174434889Y-58992986D01*
X174499446Y-58939010D01*
X174571426Y-58895422D01*
X174603028Y-58852405D01*
X174643977Y-58818168D01*
X174682964Y-58743597D01*
X174697836Y-58723352D01*
X175055717Y-58648913D01*
X175542076Y-58317763D01*
X175864688Y-57825699D01*
X175974437Y-57247632D01*
X175854616Y-56671570D01*
X175648280Y-56368525D01*
X176007218Y-56293866D01*
X176493577Y-55962716D01*
X176816189Y-55470652D01*
X176925938Y-54892585D01*
X176806117Y-54316523D01*
X176599781Y-54013478D01*
X176958718Y-53938819D01*
X177445077Y-53607669D01*
X177767689Y-53115605D01*
X177877438Y-52537538D01*
X177790514Y-52119635D01*
X177972579Y-52118046D01*
X178205115Y-52019339D01*
X178382178Y-51839159D01*
X178557329Y-51405646D01*
X178469607Y-51198987D01*
X177425366Y-50777086D01*
X177238063Y-51240678D01*
X176032724Y-50753690D01*
X176220027Y-50290098D01*
X175175786Y-49868197D01*
X174969127Y-49955919D01*
X174793976Y-50389432D01*
X174796117Y-50634748D01*
X173724445Y-49849902D01*
X177799973Y-49849902D01*
X178844214Y-50271803D01*
X179050873Y-50184081D01*
X179226024Y-49750568D01*
X179223819Y-49497959D01*
X179125114Y-49265422D01*
X178944933Y-49088360D01*
X178710709Y-48993727D01*
X178372342Y-48857017D01*
X178165682Y-48944739D01*
X177799973Y-49849902D01*
X173724445Y-49849902D01*
X172201212Y-48734354D01*
X175462671Y-48734354D01*
X175550393Y-48941013D01*
X176594634Y-49362914D01*
X176960343Y-48457751D01*
X176872622Y-48251091D01*
X176534254Y-48114382D01*
X176300030Y-48019749D01*
X176047421Y-48021954D01*
X175814885Y-48120661D01*
X175637822Y-48300841D01*
X175462671Y-48734354D01*
X172201212Y-48734354D01*
X171835643Y-48466628D01*
X171780389Y-48332903D01*
X171553293Y-48105410D01*
X171256426Y-47982140D01*
X170934984Y-47981860D01*
X170637903Y-48104611D01*
X170410410Y-48331707D01*
X170287140Y-48628574D01*
X170286860Y-48950016D01*
X170409611Y-49247097D01*
X170636707Y-49474590D01*
X170933574Y-49597860D01*
X171016003Y-49597932D01*
X174298537Y-52001914D01*
X174239560Y-52312556D01*
X174359381Y-52888618D01*
X174565716Y-53191663D01*
X174429007Y-53220099D01*
X169859087Y-49067043D01*
X169885568Y-48944973D01*
X169847548Y-48742916D01*
X169733912Y-48571571D01*
X168673252Y-47510911D01*
X168515090Y-47402843D01*
X168314160Y-47359255D01*
X168112103Y-47397275D01*
X167940758Y-47510911D01*
X167233652Y-48218017D01*
X167125584Y-48376179D01*
X167090774Y-48536642D01*
X167043041Y-48545624D01*
X167025389Y-48502903D01*
X166798293Y-48275410D01*
X166501426Y-48152140D01*
X166179984Y-48151860D01*
X165882903Y-48274611D01*
X165655410Y-48501707D01*
X165532140Y-48798574D01*
X165531860Y-49120016D01*
X165654611Y-49417097D01*
X165881707Y-49644590D01*
X165897186Y-49651017D01*
X165849362Y-49660016D01*
X165678017Y-49773652D01*
X164970911Y-50480758D01*
X164862843Y-50638920D01*
X164819255Y-50839850D01*
X164857275Y-51041907D01*
X164970911Y-51213252D01*
X166031571Y-52273912D01*
X166189733Y-52381980D01*
X166390663Y-52425568D01*
X166592720Y-52387548D01*
X166709871Y-52309854D01*
X166363687Y-53410408D01*
X166355218Y-53488221D01*
X166333788Y-53563506D01*
X165674333Y-61690323D01*
X161502715Y-65919480D01*
X161452394Y-65995919D01*
X161392555Y-66065162D01*
X161099268Y-66581798D01*
X160783807Y-66581523D01*
X159769760Y-67000518D01*
X159396627Y-67373000D01*
X152511850Y-67373000D01*
X151253317Y-66953489D01*
X147305914Y-63006086D01*
X147295902Y-62999396D01*
X147288875Y-62989615D01*
X147182943Y-62923919D01*
X147079305Y-62854670D01*
X147067494Y-62852321D01*
X147057260Y-62845974D01*
X134940550Y-58302208D01*
X130990752Y-55669009D01*
X131484957Y-55586642D01*
X133290095Y-56360272D01*
X133284579Y-56388000D01*
X133399369Y-56965087D01*
X133726262Y-57454317D01*
X134215492Y-57781210D01*
X134792579Y-57896000D01*
X135463421Y-57896000D01*
X136040508Y-57781210D01*
X136529738Y-57454317D01*
X136856631Y-56965087D01*
X136971421Y-56388000D01*
X136856631Y-55810913D01*
X136529738Y-55321683D01*
X136224905Y-55118000D01*
X136529738Y-54914317D01*
X136856631Y-54425087D01*
X136971421Y-53848000D01*
X136856631Y-53270913D01*
X136529738Y-52781683D01*
X136224905Y-52578000D01*
X136529738Y-52374317D01*
X136856631Y-51885087D01*
X136971421Y-51308000D01*
X136856631Y-50730913D01*
X136529738Y-50241683D01*
X136224905Y-50038000D01*
X136529738Y-49834317D01*
X136856631Y-49345087D01*
X136971421Y-48768000D01*
X136856631Y-48190913D01*
X136619487Y-47836003D01*
X136787699Y-47766327D01*
X136966327Y-47587698D01*
X137063000Y-47354309D01*
X137063000Y-46886750D01*
X136904250Y-46728000D01*
X135778000Y-46728000D01*
X135778000Y-47228000D01*
X134478000Y-47228000D01*
X134478000Y-46728000D01*
X133351750Y-46728000D01*
X133193000Y-46886750D01*
X133193000Y-47309299D01*
X128821882Y-45101691D01*
X133193000Y-45101691D01*
X133193000Y-45569250D01*
X133351750Y-45728000D01*
X134478000Y-45728000D01*
X134478000Y-44751750D01*
X135778000Y-44751750D01*
X135778000Y-45728000D01*
X136904250Y-45728000D01*
X137063000Y-45569250D01*
X137063000Y-45101691D01*
X136966327Y-44868302D01*
X136787699Y-44689673D01*
X136554310Y-44593000D01*
X135936750Y-44593000D01*
X135778000Y-44751750D01*
X134478000Y-44751750D01*
X134319250Y-44593000D01*
X133701690Y-44593000D01*
X133468301Y-44689673D01*
X133289673Y-44868302D01*
X133193000Y-45101691D01*
X128821882Y-45101691D01*
X127030537Y-44196983D01*
X124482207Y-42578311D01*
X124707097Y-42485389D01*
X124934590Y-42258293D01*
X125057860Y-41961426D01*
X125058140Y-41639984D01*
X124946848Y-41370635D01*
X124935507Y-38433335D01*
X124966707Y-38464590D01*
X125263574Y-38587860D01*
X125585016Y-38588140D01*
X125882097Y-38465389D01*
X125888241Y-38459256D01*
X126177737Y-38446828D01*
X126196831Y-38510647D01*
X126325552Y-38670970D01*
X126506507Y-38768582D01*
X126711180Y-38788102D01*
X128202963Y-38631310D01*
X128386484Y-38576403D01*
X128546806Y-38447682D01*
X128644418Y-38266728D01*
X128663938Y-38062054D01*
X128559409Y-37067532D01*
X128505423Y-36887088D01*
X128554553Y-36826418D01*
X128626301Y-36584202D01*
X128603560Y-36367834D01*
X128429086Y-36226547D01*
X127582499Y-36315527D01*
X127608632Y-36564158D01*
X126862739Y-36642554D01*
X126836607Y-36393924D01*
X125990021Y-36482904D01*
X125848734Y-36657377D01*
X125871475Y-36873746D01*
X125971196Y-37057408D01*
X125808587Y-37064389D01*
X125586426Y-36972140D01*
X125264984Y-36971860D01*
X125019001Y-37073498D01*
X125055193Y-36702890D01*
X125045272Y-36603007D01*
X125045845Y-36502644D01*
X125031906Y-36468441D01*
X125028255Y-36431684D01*
X124980867Y-36343204D01*
X124942988Y-36250257D01*
X124917019Y-36223990D01*
X124899581Y-36191430D01*
X124821943Y-36127821D01*
X124751376Y-36056444D01*
X124249201Y-35716737D01*
X124247416Y-35560907D01*
X124183892Y-35409498D01*
X124287302Y-35303692D01*
X124354215Y-35133367D01*
X125817262Y-35177507D01*
X125861420Y-35325101D01*
X125812289Y-35385772D01*
X125740541Y-35627988D01*
X125763282Y-35844356D01*
X125937756Y-35985643D01*
X126784343Y-35896663D01*
X126758210Y-35648032D01*
X127504103Y-35569636D01*
X127530235Y-35818266D01*
X128376821Y-35729286D01*
X128518108Y-35554813D01*
X128495367Y-35338444D01*
X128492073Y-35332376D01*
X128849151Y-35360643D01*
X130032154Y-38674820D01*
X130058878Y-38719483D01*
X130073988Y-38769289D01*
X130128206Y-38835350D01*
X130172090Y-38908692D01*
X130213874Y-38939730D01*
X130246893Y-38979961D01*
X130322266Y-39020246D01*
X130390875Y-39071210D01*
X130441354Y-39083895D01*
X130487257Y-39108429D01*
X130572307Y-39116803D01*
X130655198Y-39137633D01*
X130706692Y-39130034D01*
X130758487Y-39135134D01*
X136510830Y-38568398D01*
X136674013Y-38632505D01*
X138151225Y-38892977D01*
X138342769Y-38890783D01*
X138532361Y-38811239D01*
X138676070Y-38664200D01*
X138751249Y-38472835D01*
X138924897Y-37488027D01*
X138922740Y-37299694D01*
X138986690Y-37254916D01*
X139122422Y-37041860D01*
X139160201Y-36827605D01*
X139031429Y-36643700D01*
X138193112Y-36495882D01*
X138149700Y-36742084D01*
X137411094Y-36611848D01*
X137454506Y-36365646D01*
X136616188Y-36217828D01*
X136432284Y-36346599D01*
X136394505Y-36560854D01*
X136449181Y-36807485D01*
X136495751Y-36873992D01*
X136427519Y-37047673D01*
X136405058Y-37175055D01*
X133527499Y-37458560D01*
X133432566Y-36555342D01*
X133377660Y-36371823D01*
X133313204Y-36291542D01*
X133355556Y-36213029D01*
X133375076Y-36008355D01*
X133270547Y-35013833D01*
X133216458Y-34833044D01*
X136711132Y-35171689D01*
X136612020Y-35327264D01*
X136574241Y-35541519D01*
X136703013Y-35725424D01*
X137541330Y-35873242D01*
X137584742Y-35627040D01*
X138323348Y-35757276D01*
X138279936Y-36003478D01*
X139118254Y-36151296D01*
X139302158Y-36022525D01*
X139327687Y-35877743D01*
X139688185Y-36032758D01*
X139472529Y-37663420D01*
X139475228Y-37704972D01*
X139466562Y-37745697D01*
X139483989Y-37839845D01*
X139490195Y-37935388D01*
X139508588Y-37972741D01*
X139516167Y-38013685D01*
X140431167Y-40308685D01*
X140499463Y-40413904D01*
X140564403Y-40521235D01*
X140573444Y-40527882D01*
X140579551Y-40537291D01*
X140682902Y-40608357D01*
X140783985Y-40682675D01*
X140794881Y-40685356D01*
X140804124Y-40691712D01*
X140926812Y-40717820D01*
X141048631Y-40747795D01*
X146498631Y-40992795D01*
X146575543Y-40981059D01*
X146653336Y-40982525D01*
X146708974Y-40960698D01*
X146768053Y-40951683D01*
X146834619Y-40911408D01*
X146907052Y-40882992D01*
X148703864Y-39730779D01*
X149856759Y-39650161D01*
X150042083Y-39601693D01*
X150206801Y-39478646D01*
X150310668Y-39301209D01*
X150337319Y-39097341D01*
X150267563Y-38099777D01*
X150219907Y-37917559D01*
X150271126Y-37858639D01*
X150351283Y-37619075D01*
X150336107Y-37402045D01*
X150166670Y-37254755D01*
X149317494Y-37314135D01*
X149334933Y-37563526D01*
X148586760Y-37615844D01*
X148569321Y-37366453D01*
X147720144Y-37425833D01*
X147572855Y-37595270D01*
X147588031Y-37812300D01*
X147700749Y-38038377D01*
X147762025Y-38091643D01*
X147737837Y-38276671D01*
X147765546Y-38672924D01*
X146339718Y-39587241D01*
X143523022Y-39460619D01*
X143576807Y-39323711D01*
X143750455Y-38338903D01*
X143748261Y-38147359D01*
X143708430Y-38052422D01*
X143770783Y-37988624D01*
X143845962Y-37797259D01*
X144019610Y-36812451D01*
X144017416Y-36620907D01*
X143953892Y-36469498D01*
X144057302Y-36363692D01*
X144132481Y-36172327D01*
X144133731Y-36165235D01*
X147611590Y-36186098D01*
X147632028Y-36264247D01*
X147580810Y-36323167D01*
X147500653Y-36562731D01*
X147515852Y-36780091D01*
X147515829Y-36779761D01*
X147685266Y-36927051D01*
X148534442Y-36867671D01*
X148517003Y-36618280D01*
X149265176Y-36565962D01*
X149282615Y-36815353D01*
X150131792Y-36755973D01*
X150226555Y-36646960D01*
X150366238Y-36688799D01*
X150712435Y-37923570D01*
X150760118Y-38017509D01*
X150799141Y-38115357D01*
X151854141Y-39740358D01*
X151856568Y-39742850D01*
X151857887Y-39746065D01*
X151951509Y-39840334D01*
X152044293Y-39935603D01*
X152047488Y-39936976D01*
X152049938Y-39939443D01*
X152172587Y-39990741D01*
X152294689Y-40043218D01*
X152298164Y-40043264D01*
X152301373Y-40044606D01*
X153906372Y-40369605D01*
X154039913Y-40370065D01*
X154173513Y-40371576D01*
X156123513Y-40006576D01*
X156233863Y-39962323D01*
X156346327Y-39923715D01*
X158038210Y-38939137D01*
X158852847Y-39112294D01*
X159044351Y-39116786D01*
X159236604Y-39043908D01*
X159385356Y-38901974D01*
X159467168Y-38713349D01*
X159675080Y-37735201D01*
X159679497Y-37546905D01*
X159744970Y-37504387D01*
X159888055Y-37296197D01*
X159933289Y-37083392D01*
X159811014Y-36895105D01*
X158978365Y-36718120D01*
X158926387Y-36962656D01*
X158192777Y-36806723D01*
X158244755Y-36562186D01*
X157412107Y-36385201D01*
X157223820Y-36507476D01*
X157178586Y-36720282D01*
X157224623Y-36968670D01*
X157268843Y-37036764D01*
X157194592Y-37207957D01*
X157047653Y-37899250D01*
X155747925Y-38655616D01*
X155225237Y-38753453D01*
X155155627Y-37757970D01*
X155107159Y-37572646D01*
X155045544Y-37490165D01*
X155090610Y-37413178D01*
X155117261Y-37209310D01*
X155047505Y-36211746D01*
X154999037Y-36026422D01*
X154900771Y-35894878D01*
X154970623Y-35775549D01*
X157410988Y-35626920D01*
X157393787Y-35707840D01*
X157516062Y-35896127D01*
X158348711Y-36073112D01*
X158400688Y-35828576D01*
X159134299Y-35984509D01*
X159082321Y-36229046D01*
X159914969Y-36406031D01*
X160103256Y-36283756D01*
X160119077Y-36209328D01*
X160166564Y-36234270D01*
X159956928Y-42220554D01*
X159958004Y-42227168D01*
X159956591Y-42233719D01*
X159979857Y-42361431D01*
X160000710Y-42489555D01*
X160004236Y-42495254D01*
X160005437Y-42501847D01*
X161709817Y-46812206D01*
X161506088Y-47015935D01*
X161398020Y-47174097D01*
X161354432Y-47375027D01*
X161392452Y-47577084D01*
X161506088Y-47748429D01*
X162566748Y-48809089D01*
X162724910Y-48917157D01*
X162925840Y-48960745D01*
X163127897Y-48922725D01*
X163299242Y-48809089D01*
X164006348Y-48101983D01*
X164112605Y-47946472D01*
X164190674Y-47946472D01*
X164424063Y-47849799D01*
X164577901Y-47695960D01*
X164577901Y-47695961D01*
X164600287Y-47673574D01*
X164577901Y-47695960D01*
X164577901Y-47471454D01*
X164237913Y-47131466D01*
X165142395Y-47131466D01*
X165155961Y-47117901D01*
X165155960Y-47117901D01*
X165142395Y-47131466D01*
X164237913Y-47131466D01*
X163975976Y-46869530D01*
X163799200Y-47046307D01*
X163268870Y-46515977D01*
X163445646Y-46339200D01*
X162843722Y-45737275D01*
X162787021Y-45737275D01*
X162568251Y-45184006D01*
X163172485Y-45184006D01*
X163197275Y-45159216D01*
X163197275Y-45159215D01*
X163172485Y-45184006D01*
X162568251Y-45184006D01*
X161358175Y-42123736D01*
X161521814Y-37450915D01*
X161594611Y-37627097D01*
X161821707Y-37854590D01*
X162118574Y-37977860D01*
X162132447Y-37977872D01*
X162069327Y-38038099D01*
X161987515Y-38226724D01*
X161779603Y-39204872D01*
X161775111Y-39396376D01*
X161847989Y-39588629D01*
X161989923Y-39737381D01*
X162178548Y-39819193D01*
X163645770Y-40131061D01*
X163837274Y-40135553D01*
X164029527Y-40062675D01*
X164178279Y-39920741D01*
X164260091Y-39732116D01*
X164468003Y-38753968D01*
X164472495Y-38562464D01*
X164436002Y-38466194D01*
X164500542Y-38404612D01*
X164582354Y-38215987D01*
X164779143Y-37290170D01*
X165035209Y-37449901D01*
X164427453Y-44094570D01*
X163768829Y-44753194D01*
X163662573Y-44908704D01*
X163351113Y-45005377D01*
X163197275Y-45159216D01*
X163197275Y-45383722D01*
X163799200Y-45985646D01*
X163975977Y-45808870D01*
X164506307Y-46339200D01*
X164329530Y-46515976D01*
X164931454Y-47117901D01*
X165155960Y-47117901D01*
X165309799Y-46964063D01*
X165406472Y-46730674D01*
X165406472Y-46649483D01*
X165561983Y-46546348D01*
X165932785Y-46175546D01*
X168429482Y-46637239D01*
X168501707Y-46709590D01*
X168798574Y-46832860D01*
X169120016Y-46833140D01*
X169417097Y-46710389D01*
X169644590Y-46483293D01*
X169767860Y-46186426D01*
X169768140Y-45864984D01*
X169756891Y-45837760D01*
X170705104Y-46787629D01*
X173279907Y-47856781D01*
X176067862Y-47859214D01*
X178644527Y-46794558D01*
X180617629Y-44824896D01*
X181686781Y-42250093D01*
X181689214Y-39462138D01*
X180624558Y-36885473D01*
X178654896Y-34912371D01*
X176080093Y-33843219D01*
X173292138Y-33840786D01*
X170715473Y-34905442D01*
X168742371Y-36875104D01*
X167673219Y-39449907D01*
X167670786Y-42237862D01*
X168735442Y-44814527D01*
X169148629Y-45228436D01*
X169121426Y-45217140D01*
X168799984Y-45216860D01*
X168685947Y-45263979D01*
X165913667Y-44751326D01*
X165782234Y-44619893D01*
X166465596Y-37148622D01*
X166453951Y-37038270D01*
X166450476Y-36927343D01*
X166439734Y-36903547D01*
X166436995Y-36877587D01*
X166384006Y-36780091D01*
X166338345Y-36678937D01*
X166319315Y-36661063D01*
X166306849Y-36638127D01*
X166220579Y-36568327D01*
X166139689Y-36492351D01*
X165088148Y-35836411D01*
X165133320Y-35623895D01*
X165137812Y-35432391D01*
X165064934Y-35240138D01*
X164923000Y-35091386D01*
X164734375Y-35009574D01*
X163267153Y-34697706D01*
X163075649Y-34693214D01*
X162883396Y-34766092D01*
X162734644Y-34908026D01*
X162652832Y-35096651D01*
X162444920Y-36074799D01*
X162440428Y-36266303D01*
X162483357Y-36379551D01*
X162441426Y-36362140D01*
X162119984Y-36361860D01*
X161822903Y-36484611D01*
X161595410Y-36711707D01*
X161543307Y-36837185D01*
X161578072Y-35844447D01*
X161559258Y-35728850D01*
X161546935Y-35612395D01*
X161537472Y-35594996D01*
X161534290Y-35575445D01*
X161472672Y-35475851D01*
X161416720Y-35372973D01*
X161401318Y-35360519D01*
X161390897Y-35343675D01*
X161295864Y-35275247D01*
X161204795Y-35201607D01*
X160313154Y-34733295D01*
X160340397Y-34605128D01*
X160344889Y-34413624D01*
X160272011Y-34221371D01*
X160130077Y-34072619D01*
X159941452Y-33990807D01*
X158474230Y-33678939D01*
X158282726Y-33674447D01*
X158090473Y-33747325D01*
X157941721Y-33889259D01*
X157859909Y-34077884D01*
X157833614Y-34201592D01*
X154884145Y-34381228D01*
X154883939Y-34380441D01*
X154760892Y-34215723D01*
X154583455Y-34111856D01*
X154379587Y-34085205D01*
X152883241Y-34189839D01*
X152697917Y-34238307D01*
X152533199Y-34361354D01*
X152429332Y-34538791D01*
X152402681Y-34742659D01*
X152472437Y-35740223D01*
X152480766Y-35772070D01*
X152239984Y-35771860D01*
X151942903Y-35894611D01*
X151715410Y-36121707D01*
X151681205Y-36204081D01*
X151607565Y-35941430D01*
X151572570Y-35872486D01*
X151549867Y-35798577D01*
X151511479Y-35752134D01*
X151484207Y-35698405D01*
X151425491Y-35648101D01*
X151376232Y-35588505D01*
X151322992Y-35560287D01*
X151277236Y-35521086D01*
X151203742Y-35497082D01*
X151135425Y-35460872D01*
X150060519Y-35138904D01*
X150044343Y-34907572D01*
X149995875Y-34722248D01*
X149872828Y-34557530D01*
X149695391Y-34453663D01*
X149491523Y-34427012D01*
X147995177Y-34531646D01*
X147809853Y-34580114D01*
X147645135Y-34703161D01*
X147594902Y-34788974D01*
X144185653Y-34768523D01*
X144077352Y-34662674D01*
X143885987Y-34587495D01*
X142408775Y-34327023D01*
X142217231Y-34329217D01*
X142027639Y-34408761D01*
X141883930Y-34555800D01*
X141808751Y-34747165D01*
X141635103Y-35731973D01*
X141637193Y-35914430D01*
X141568293Y-35845410D01*
X141271426Y-35722140D01*
X141138445Y-35722024D01*
X141142471Y-35691580D01*
X141139774Y-35650056D01*
X141148437Y-35609361D01*
X141131013Y-35515186D01*
X141124805Y-35419612D01*
X141106424Y-35382284D01*
X141098854Y-35341367D01*
X141046715Y-35261026D01*
X141004407Y-35175106D01*
X140973139Y-35147652D01*
X140950488Y-35112749D01*
X140871577Y-35058479D01*
X140799605Y-34995286D01*
X140760211Y-34981888D01*
X140725928Y-34958310D01*
X139466449Y-34416731D01*
X139480571Y-34336643D01*
X139478377Y-34145099D01*
X139398833Y-33955507D01*
X139251794Y-33811798D01*
X139060429Y-33736619D01*
X137583217Y-33476147D01*
X137391673Y-33478341D01*
X137202081Y-33557885D01*
X137058372Y-33704924D01*
X137021711Y-33798243D01*
X133102870Y-33418494D01*
X133098075Y-33372872D01*
X133043169Y-33189353D01*
X132914448Y-33029030D01*
X132733493Y-32931418D01*
X132528820Y-32911898D01*
X131037037Y-33068690D01*
X130853516Y-33123597D01*
X130693194Y-33252318D01*
X130595582Y-33433272D01*
X130576062Y-33637946D01*
X130680591Y-34632468D01*
X130734279Y-34811916D01*
X130669984Y-34811860D01*
X130372903Y-34934611D01*
X130230982Y-35076284D01*
X130012847Y-34465180D01*
X129947987Y-34356782D01*
X129886349Y-34246602D01*
X129878226Y-34240192D01*
X129872910Y-34231308D01*
X129771525Y-34155997D01*
X129672395Y-34077776D01*
X129662433Y-34074962D01*
X129654125Y-34068790D01*
X129531664Y-34038017D01*
X129410120Y-34003678D01*
X128227546Y-33910066D01*
X128224918Y-33885062D01*
X128170012Y-33701543D01*
X128041291Y-33541220D01*
X127860336Y-33443608D01*
X127655663Y-33424088D01*
X126163880Y-33580880D01*
X125980359Y-33635787D01*
X125820037Y-33764508D01*
X125811838Y-33779708D01*
X124446337Y-33738511D01*
X124307352Y-33602674D01*
X124115987Y-33527495D01*
X122638775Y-33267023D01*
X122447231Y-33269217D01*
X122257639Y-33348761D01*
X122113930Y-33495800D01*
X122038751Y-33687165D01*
X121865103Y-34671973D01*
X121867297Y-34863517D01*
X121874078Y-34879679D01*
X121711426Y-34812140D01*
X121389984Y-34811860D01*
X121092903Y-34934611D01*
X120984135Y-35043189D01*
X120754897Y-34069870D01*
X120729718Y-34014626D01*
X120717183Y-33955223D01*
X120673742Y-33891815D01*
X120641864Y-33821874D01*
X120597460Y-33780471D01*
X120563147Y-33730386D01*
X120498748Y-33688429D01*
X120442531Y-33636011D01*
X120385662Y-33614752D01*
X120334795Y-33581611D01*
X119701537Y-33327878D01*
X119710571Y-33276643D01*
X119708377Y-33085099D01*
X119628833Y-32895507D01*
X119481794Y-32751798D01*
X119290429Y-32676619D01*
X117813217Y-32416147D01*
X117621673Y-32418341D01*
X117432081Y-32497885D01*
X117288372Y-32644924D01*
X117242843Y-32760817D01*
X111748407Y-32336332D01*
X111739506Y-32272998D01*
X111678229Y-32091506D01*
X111543991Y-31935774D01*
X111359740Y-31844537D01*
X111154510Y-31832172D01*
X109669107Y-32040932D01*
X109487615Y-32102209D01*
X109331883Y-32236447D01*
X109240646Y-32420697D01*
X109228281Y-32625928D01*
X109351422Y-33502123D01*
X109049984Y-33501860D01*
X108752903Y-33624611D01*
X108547214Y-33829941D01*
X108057376Y-33129641D01*
X107999541Y-33074221D01*
X107951500Y-33010115D01*
X107902074Y-32980824D01*
X107860596Y-32941078D01*
X107785954Y-32912009D01*
X107717038Y-32871167D01*
X107660168Y-32863021D01*
X107606635Y-32842172D01*
X107526546Y-32843880D01*
X107447251Y-32832521D01*
X106856650Y-32864486D01*
X106825915Y-32773454D01*
X106691677Y-32617722D01*
X106507426Y-32526485D01*
X106302196Y-32514120D01*
X104816793Y-32722880D01*
X104640851Y-32782283D01*
X100051256Y-32177487D01*
X100013764Y-32179940D01*
X99977101Y-32171709D01*
X97527101Y-32111709D01*
X97526626Y-32111791D01*
X97526158Y-32111687D01*
X97392491Y-32135074D01*
X97258575Y-32158319D01*
X97258169Y-32158576D01*
X97257695Y-32158659D01*
X96413605Y-32485628D01*
X96204065Y-32276088D01*
X96045903Y-32168020D01*
X95844973Y-32124432D01*
X95642916Y-32162452D01*
X95471571Y-32276088D01*
X94410911Y-33336748D01*
X94302843Y-33494910D01*
X94259255Y-33695840D01*
X94297275Y-33897897D01*
X94410911Y-34069242D01*
X95118017Y-34776348D01*
X95276179Y-34884416D01*
X95436642Y-34919226D01*
X95464001Y-35064623D01*
X95577637Y-35235968D01*
X96284743Y-35943074D01*
X96442905Y-36051142D01*
X96543520Y-36072968D01*
X96560016Y-36160638D01*
X96673652Y-36331983D01*
X97380758Y-37039089D01*
X97538920Y-37147157D01*
X97739850Y-37190745D01*
X97941907Y-37152725D01*
X98113252Y-37039089D01*
X99173912Y-35978429D01*
X99281980Y-35820267D01*
X99325568Y-35619337D01*
X99287548Y-35417280D01*
X99173912Y-35245935D01*
X98779430Y-34851453D01*
X99415737Y-34665915D01*
X101775096Y-35313582D01*
X101829014Y-35317447D01*
X101880484Y-35333959D01*
X102423346Y-35396162D01*
X102461707Y-35434590D01*
X102758574Y-35557860D01*
X103080016Y-35558140D01*
X103377097Y-35435389D01*
X103604590Y-35208293D01*
X103727860Y-34911426D01*
X103728140Y-34589984D01*
X103605389Y-34292903D01*
X103378293Y-34065410D01*
X103235683Y-34006193D01*
X104497477Y-34172467D01*
X104515140Y-34298144D01*
X104575390Y-34476594D01*
X104528407Y-34538942D01*
X104465156Y-34783514D01*
X104496927Y-35009574D01*
X104495435Y-34998957D01*
X104674734Y-35134068D01*
X105517699Y-35015597D01*
X105482906Y-34768030D01*
X106225607Y-34663650D01*
X106260400Y-34911217D01*
X107103366Y-34792746D01*
X107238477Y-34613447D01*
X107238903Y-34616475D01*
X107208199Y-34398004D01*
X107120573Y-34249246D01*
X107135124Y-34248458D01*
X107991944Y-35473419D01*
X107991860Y-35570016D01*
X108114611Y-35867097D01*
X108341707Y-36094590D01*
X108638574Y-36217860D01*
X108960016Y-36218140D01*
X109257097Y-36095389D01*
X109484590Y-35868293D01*
X109607860Y-35571426D01*
X109608111Y-35282785D01*
X109658366Y-35431630D01*
X109725586Y-35509613D01*
X109686000Y-35589555D01*
X109673635Y-35794786D01*
X109803742Y-36720544D01*
X109536934Y-36704284D01*
X107924749Y-36491947D01*
X107878293Y-36445410D01*
X107581426Y-36322140D01*
X107360393Y-36321947D01*
X107332546Y-36123804D01*
X107272296Y-35945354D01*
X107319279Y-35883006D01*
X107382530Y-35638434D01*
X107352251Y-35422991D01*
X107172952Y-35287880D01*
X106329987Y-35406351D01*
X106364780Y-35653918D01*
X105622079Y-35758298D01*
X105587286Y-35510731D01*
X104744320Y-35629202D01*
X104609209Y-35808501D01*
X104639487Y-36023944D01*
X104767701Y-36241607D01*
X104832543Y-36290469D01*
X104821321Y-36476734D01*
X104899751Y-37034795D01*
X104554004Y-36911863D01*
X104498540Y-36903749D01*
X104446450Y-36883041D01*
X104364967Y-36884207D01*
X104284334Y-36872411D01*
X104229987Y-36886140D01*
X104173937Y-36886942D01*
X102583937Y-37226942D01*
X102527202Y-37251400D01*
X102466541Y-37263091D01*
X102403271Y-37304824D01*
X102333661Y-37334832D01*
X102290603Y-37379140D01*
X102239035Y-37413155D01*
X100549035Y-39083155D01*
X100529500Y-39112018D01*
X100502437Y-39133986D01*
X100453674Y-39224050D01*
X100396273Y-39308859D01*
X100389270Y-39343002D01*
X100372674Y-39373654D01*
X100362089Y-39475520D01*
X100355575Y-39507280D01*
X100275650Y-39529821D01*
X99966783Y-39773312D01*
X99774607Y-40116467D01*
X99728379Y-40507043D01*
X99824006Y-40846110D01*
X99605903Y-40569448D01*
X99262748Y-40377272D01*
X99026616Y-40349324D01*
X98813030Y-40016168D01*
X98813140Y-39889984D01*
X98690389Y-39592903D01*
X98463293Y-39365410D01*
X98166426Y-39242140D01*
X97844984Y-39241860D01*
X97547903Y-39364611D01*
X97320410Y-39591707D01*
X97197140Y-39888574D01*
X97196860Y-40210016D01*
X97319611Y-40507097D01*
X97546707Y-40734590D01*
X97638645Y-40772766D01*
X97962579Y-41278044D01*
X97946366Y-41415024D01*
X98041993Y-41754091D01*
X97823890Y-41477429D01*
X97480735Y-41285253D01*
X97090159Y-41239025D01*
X96806691Y-41318971D01*
X96713293Y-41225410D01*
X96416426Y-41102140D01*
X96094984Y-41101860D01*
X95797903Y-41224611D01*
X95589880Y-41432271D01*
X95433293Y-41275410D01*
X95136426Y-41152140D01*
X94814984Y-41151860D01*
X94517903Y-41274611D01*
X94290410Y-41501707D01*
X94167140Y-41798574D01*
X94166860Y-42120016D01*
X94289611Y-42417097D01*
X94494613Y-42622458D01*
X94518534Y-42679764D01*
X94428568Y-42840410D01*
X94382340Y-43230986D01*
X94477968Y-43570055D01*
X94259863Y-43293391D01*
X94029095Y-43164155D01*
X93027802Y-40920024D01*
X92568321Y-39321830D01*
X92620145Y-39373654D01*
X92637275Y-39390785D01*
X92637275Y-39390785D01*
G37*
X92637275Y-39390785D02*
X92637275Y-39390784D01*
X92791113Y-39544623D01*
X92791115Y-39544624D01*
X93156470Y-39909979D01*
X93239236Y-39827213D01*
X93915935Y-40503912D01*
X94074097Y-40611980D01*
X94275027Y-40655568D01*
X94477084Y-40617548D01*
X94648429Y-40503912D01*
X95709089Y-39443252D01*
X95817157Y-39285090D01*
X95860745Y-39084160D01*
X95822725Y-38882103D01*
X95709089Y-38710758D01*
X95001983Y-38003652D01*
X94846472Y-37897395D01*
X94846472Y-37819326D01*
X94749799Y-37585937D01*
X94595960Y-37432099D01*
X94371454Y-37432099D01*
X93769530Y-38034024D01*
X93946307Y-38210801D01*
X93415977Y-38741131D01*
X93239200Y-38564354D01*
X92974034Y-38829519D01*
X92620481Y-38475966D01*
X92885646Y-38210800D01*
X92708870Y-38034024D01*
X93239200Y-37503694D01*
X93415976Y-37680470D01*
X93683268Y-37413178D01*
X94577039Y-37413178D01*
X94595960Y-37432099D01*
X94595961Y-37432099D01*
X94577039Y-37413178D01*
X93683268Y-37413178D01*
X94017901Y-37078546D01*
X94017901Y-36854040D01*
X94017900Y-36854039D01*
X94017901Y-36854039D01*
X94017901Y-36854040D01*
X94024521Y-36860660D01*
X94017901Y-36854039D01*
X94017900Y-36854039D01*
X94015573Y-36851712D01*
X94297097Y-36735389D01*
X94524590Y-36508293D01*
X94647860Y-36211426D01*
X94648140Y-35889984D01*
X94525389Y-35592903D01*
X94298293Y-35365410D01*
X94001426Y-35242140D01*
X93679984Y-35241860D01*
X93382903Y-35364611D01*
X93155410Y-35591707D01*
X93130709Y-35651194D01*
X92824707Y-35826376D01*
X92739242Y-35740911D01*
X92581080Y-35632843D01*
X92380150Y-35589255D01*
X92178093Y-35627275D01*
X92006748Y-35740911D01*
X90946088Y-36801571D01*
X90838020Y-36959733D01*
X90794432Y-37160663D01*
X90832452Y-37362720D01*
X90946088Y-37534065D01*
X91227885Y-37815862D01*
X91009468Y-38564325D01*
X91004212Y-38624176D01*
X90985935Y-38681412D01*
X90992405Y-38758629D01*
X90985627Y-38835821D01*
X91003676Y-38893129D01*
X91008693Y-38953001D01*
X91698693Y-41353000D01*
X91721229Y-41396681D01*
X91732115Y-41444614D01*
X92709707Y-43635624D01*
X92646554Y-43748391D01*
X92600326Y-44138967D01*
X92695953Y-44478034D01*
X92477850Y-44201372D01*
X92455033Y-44188594D01*
X92429195Y-44112294D01*
X92437860Y-44091426D01*
X92438140Y-43769984D01*
X92315389Y-43472903D01*
X92088293Y-43245410D01*
X91791426Y-43122140D01*
X91469984Y-43121860D01*
X91172903Y-43244611D01*
X90945410Y-43471707D01*
X90841810Y-43721204D01*
X90814348Y-43660373D01*
X90225313Y-42275969D01*
X89758535Y-41079485D01*
X89401129Y-40039819D01*
X89139639Y-39125218D01*
X88959984Y-38302174D01*
X88848054Y-37534759D01*
X88790694Y-36785100D01*
X88776381Y-36054184D01*
X88857880Y-34841395D01*
X89106104Y-33914649D01*
X89552652Y-33159361D01*
X90276187Y-32459138D01*
X91369361Y-31742249D01*
X92213705Y-31292538D01*
X93188997Y-30841381D01*
X94153715Y-30487628D01*
X95191553Y-30212128D01*
X96386045Y-29999500D01*
X97815720Y-29837353D01*
X99554778Y-29713642D01*
X100997491Y-29642994D01*
X102745629Y-29565487D01*
X102747588Y-29565006D01*
X102749586Y-29565299D01*
X104153685Y-29493875D01*
X104157559Y-29492897D01*
X104161522Y-29493426D01*
X105297881Y-29420904D01*
X105304313Y-29419193D01*
X105310923Y-29419930D01*
X106257231Y-29339066D01*
X106266106Y-29336499D01*
X106275315Y-29337248D01*
X107109260Y-29240801D01*
X107118964Y-29237677D01*
X107129146Y-29238168D01*
X107928420Y-29118894D01*
X107936378Y-29116039D01*
X107944831Y-29116215D01*
X108787123Y-28966870D01*
X108791086Y-28965325D01*
X108795342Y-28965355D01*
X109301446Y-28868424D01*
X110883398Y-28664160D01*
X112526395Y-28668434D01*
X114357763Y-28887373D01*
X116251276Y-29277192D01*
X116258728Y-29277242D01*
X116265663Y-29279974D01*
X119904937Y-29938194D01*
X119936782Y-29937639D01*
X119967467Y-29946183D01*
X123716972Y-30228689D01*
X123747617Y-30224958D01*
X123778033Y-30230212D01*
X127548736Y-30134790D01*
X127579421Y-30127875D01*
X127610805Y-30130032D01*
X131313669Y-29654468D01*
X131327487Y-29649826D01*
X131341830Y-29650169D01*
X132601217Y-29430811D01*
X133568978Y-29303718D01*
X134376178Y-29267327D01*
X135168897Y-29320683D01*
X136095529Y-29471452D01*
X137288034Y-29729024D01*
X137740728Y-29833726D01*
X137743602Y-29833815D01*
X137746233Y-29834972D01*
X138968989Y-30105847D01*
X138974443Y-30105965D01*
X138979472Y-30108072D01*
X140257393Y-30367627D01*
X140262821Y-30367649D01*
X140267863Y-30369658D01*
X141438363Y-30586091D01*
X141445907Y-30585989D01*
X141452982Y-30588610D01*
X142254069Y-30716609D01*
X142272542Y-30715908D01*
X142290231Y-30721280D01*
X143750577Y-30865536D01*
X143767147Y-30863909D01*
X143783318Y-30867880D01*
X145546655Y-30946342D01*
X145557925Y-30944617D01*
X145569091Y-30946926D01*
X147520555Y-30961663D01*
X147529880Y-30959881D01*
X147539231Y-30961517D01*
X149563953Y-30914601D01*
X149573149Y-30912549D01*
X149582474Y-30913889D01*
X151565592Y-30807387D01*
X151576335Y-30804644D01*
X151587361Y-30805826D01*
X153414006Y-30641811D01*
X153425841Y-30638332D01*
X153438145Y-30639156D01*
X154493513Y-30501723D01*
X154496220Y-30500808D01*
X154499071Y-30500973D01*
X156152653Y-30270106D01*
X157466098Y-30137594D01*
X158534381Y-30101420D01*
X159455267Y-30158695D01*
X160336454Y-30309769D01*
X161290851Y-30562663D01*
X161300485Y-30565554D01*
X161307915Y-30566263D01*
X161314589Y-30569601D01*
X162888147Y-31000653D01*
X162905479Y-31001886D01*
X162921435Y-31008771D01*
X164496652Y-31346185D01*
X164514414Y-31346446D01*
X164531102Y-31352532D01*
X166213302Y-31612608D01*
X166228317Y-31611963D01*
X166242671Y-31616419D01*
X168137177Y-31815457D01*
X168147933Y-31814468D01*
X168158353Y-31817308D01*
X170353374Y-31970579D01*
X173299927Y-32214441D01*
X175831634Y-32588167D01*
X177966444Y-33097322D01*
X179712366Y-33743245D01*
X181081773Y-34523120D01*
X182098700Y-35434301D01*
X182800050Y-36488026D01*
X183217212Y-37717573D01*
X183358763Y-39159979D01*
X183219357Y-40849616D01*
X183147259Y-41269174D01*
X182875094Y-42540097D01*
X182534235Y-43763448D01*
X182089899Y-45037685D01*
X181506642Y-46457464D01*
X180749449Y-48114585D01*
X180293194Y-49063930D01*
X180292079Y-49068266D01*
X180289444Y-49071881D01*
X179831309Y-50061539D01*
X179829673Y-50068307D01*
X179825698Y-50074026D01*
X179256682Y-51379531D01*
X179255783Y-51383656D01*
X179253422Y-51387153D01*
X178607312Y-52926506D01*
X178606674Y-52929635D01*
X178604914Y-52932302D01*
X177915500Y-54623504D01*
X177914956Y-54626321D01*
X177913398Y-54628730D01*
X177214468Y-56389783D01*
X177213929Y-56392721D01*
X177212331Y-56395244D01*
X176537673Y-58144148D01*
X176537321Y-58146175D01*
X176536231Y-58147922D01*
X176391215Y-58531414D01*
X176391129Y-58531932D01*
X176390852Y-58532377D01*
X175730043Y-60288851D01*
X175729921Y-60289588D01*
X175729528Y-60290224D01*
X175206268Y-61691331D01*
X175205942Y-61693337D01*
X175204885Y-61695072D01*
X174807243Y-62781505D01*
X174806546Y-62785982D01*
X174804247Y-62789882D01*
X174520291Y-63602341D01*
X174518936Y-63611964D01*
X174514268Y-63620486D01*
X174332066Y-64199665D01*
X174329725Y-64221168D01*
X174320693Y-64240816D01*
X174228317Y-64627411D01*
X174226300Y-64680191D01*
X174212823Y-64731267D01*
X174198340Y-64965976D01*
X174200981Y-64985459D01*
X174197187Y-65004751D01*
X174216827Y-65102374D01*
X174230203Y-65201057D01*
X174240099Y-65218048D01*
X174243977Y-65237321D01*
X174295456Y-65360837D01*
X174349072Y-65440700D01*
X174396544Y-65524372D01*
X174414791Y-65538593D01*
X174427685Y-65557799D01*
X174507784Y-65611067D01*
X174583660Y-65670200D01*
X174689170Y-65723222D01*
X174776675Y-65747376D01*
X174861549Y-65779576D01*
X174967909Y-65797425D01*
X174973667Y-65797252D01*
X174973667Y-75509962D01*
X174972498Y-76317416D01*
X174906309Y-76290000D01*
X174313750Y-76290000D01*
X174155000Y-76448750D01*
X174155000Y-77282500D01*
X174693000Y-77282500D01*
X174693000Y-77373000D01*
X172367000Y-77373000D01*
X172367000Y-77282500D01*
X172905000Y-77282500D01*
X172905000Y-76448750D01*
X172865000Y-76408750D01*
X172865000Y-75575000D01*
X173715000Y-75575000D01*
X173715000Y-76414168D01*
X173932361Y-76488915D01*
X174395845Y-76141175D01*
X174628881Y-75792356D01*
X174546310Y-75575000D01*
X173715000Y-75575000D01*
X172865000Y-75575000D01*
X172033690Y-75575000D01*
X171951119Y-75792356D01*
X172184155Y-76141175D01*
X172382516Y-76290000D01*
X172153691Y-76290000D01*
X171920302Y-76386673D01*
X171809976Y-76496998D01*
X171645000Y-76496998D01*
X171645000Y-76611975D01*
X171594698Y-76561673D01*
X171569305Y-76551155D01*
X171473593Y-76380000D01*
X170665000Y-76380000D01*
X170665000Y-76680000D01*
X169997500Y-76680000D01*
X169997500Y-76623750D01*
X169915000Y-76541250D01*
X169915000Y-76380000D01*
X169106407Y-76380000D01*
X169003671Y-76563716D01*
X169036625Y-76603534D01*
X169099237Y-76687738D01*
X169046673Y-76740301D01*
X168950000Y-76973690D01*
X168950000Y-77041250D01*
X169108750Y-77200000D01*
X169146998Y-77200000D01*
X169146998Y-77315000D01*
X169322883Y-77315000D01*
X169232749Y-77373000D01*
X167599158Y-77373000D01*
X167154980Y-75596284D01*
X169003671Y-75596284D01*
X169106407Y-75780000D01*
X169915000Y-75780000D01*
X169915000Y-75038375D01*
X170665000Y-75038375D01*
X170665000Y-75780000D01*
X171473593Y-75780000D01*
X171576329Y-75596284D01*
X171543375Y-75556466D01*
X171259038Y-75174074D01*
X170850010Y-74929601D01*
X170665000Y-75038375D01*
X169915000Y-75038375D01*
X169729990Y-74929601D01*
X169320962Y-75174074D01*
X169036625Y-75556466D01*
X169003671Y-75596284D01*
X167154980Y-75596284D01*
X166882820Y-74507644D01*
X171951119Y-74507644D01*
X172033690Y-74725000D01*
X172865000Y-74725000D01*
X172865000Y-73885832D01*
X173715000Y-73885832D01*
X173715000Y-74725000D01*
X174546310Y-74725000D01*
X174628881Y-74507644D01*
X174395845Y-74158825D01*
X173932361Y-73811085D01*
X173715000Y-73885832D01*
X172865000Y-73885832D01*
X172647639Y-73811085D01*
X172184155Y-74158825D01*
X171951119Y-74507644D01*
X166882820Y-74507644D01*
X166262017Y-72024432D01*
X166339615Y-71946834D01*
X166642609Y-72200077D01*
X167789438Y-72245419D01*
X168017391Y-72200077D01*
X168334253Y-71935243D01*
X167330000Y-70930990D01*
X167303130Y-70957861D01*
X165712140Y-69366871D01*
X165739010Y-69340000D01*
X168920990Y-69340000D01*
X169925243Y-70344253D01*
X170190077Y-70027391D01*
X170235419Y-68880562D01*
X170190077Y-68652609D01*
X169925243Y-68335747D01*
X168920990Y-69340000D01*
X165739010Y-69340000D01*
X165541541Y-69142531D01*
X165123208Y-67469198D01*
X165101517Y-67423690D01*
X165063830Y-67390206D01*
X165000000Y-67373000D01*
X163715984Y-67373000D01*
X164392689Y-66744757D01*
X166325747Y-66744757D01*
X167330000Y-67749010D01*
X168334253Y-66744757D01*
X168017391Y-66479923D01*
X166870562Y-66434581D01*
X166642609Y-66479923D01*
X166325747Y-66744757D01*
X164392689Y-66744757D01*
X170870332Y-60731012D01*
X173690892Y-59455605D01*
X173750269Y-59428756D01*
X174092826Y-59183676D01*
X174159838Y-59076095D01*
X174174818Y-59074481D01*
X174255113Y-59049320D01*
X174338297Y-59036595D01*
X174383955Y-59008947D01*
X174434889Y-58992986D01*
X174499446Y-58939010D01*
X174571426Y-58895422D01*
X174603028Y-58852405D01*
X174643977Y-58818168D01*
X174682964Y-58743597D01*
X174697836Y-58723352D01*
X175055717Y-58648913D01*
X175542076Y-58317763D01*
X175864688Y-57825699D01*
X175974437Y-57247632D01*
X175854616Y-56671570D01*
X175648280Y-56368525D01*
X176007218Y-56293866D01*
X176493577Y-55962716D01*
X176816189Y-55470652D01*
X176925938Y-54892585D01*
X176806117Y-54316523D01*
X176599781Y-54013478D01*
X176958718Y-53938819D01*
X177445077Y-53607669D01*
X177767689Y-53115605D01*
X177877438Y-52537538D01*
X177790514Y-52119635D01*
X177972579Y-52118046D01*
X178205115Y-52019339D01*
X178382178Y-51839159D01*
X178557329Y-51405646D01*
X178469607Y-51198987D01*
X177425366Y-50777086D01*
X177238063Y-51240678D01*
X176032724Y-50753690D01*
X176220027Y-50290098D01*
X175175786Y-49868197D01*
X174969127Y-49955919D01*
X174793976Y-50389432D01*
X174796117Y-50634748D01*
X173724445Y-49849902D01*
X177799973Y-49849902D01*
X178844214Y-50271803D01*
X179050873Y-50184081D01*
X179226024Y-49750568D01*
X179223819Y-49497959D01*
X179125114Y-49265422D01*
X178944933Y-49088360D01*
X178710709Y-48993727D01*
X178372342Y-48857017D01*
X178165682Y-48944739D01*
X177799973Y-49849902D01*
X173724445Y-49849902D01*
X172201212Y-48734354D01*
X175462671Y-48734354D01*
X175550393Y-48941013D01*
X176594634Y-49362914D01*
X176960343Y-48457751D01*
X176872622Y-48251091D01*
X176534254Y-48114382D01*
X176300030Y-48019749D01*
X176047421Y-48021954D01*
X175814885Y-48120661D01*
X175637822Y-48300841D01*
X175462671Y-48734354D01*
X172201212Y-48734354D01*
X171835643Y-48466628D01*
X171780389Y-48332903D01*
X171553293Y-48105410D01*
X171256426Y-47982140D01*
X170934984Y-47981860D01*
X170637903Y-48104611D01*
X170410410Y-48331707D01*
X170287140Y-48628574D01*
X170286860Y-48950016D01*
X170409611Y-49247097D01*
X170636707Y-49474590D01*
X170933574Y-49597860D01*
X171016003Y-49597932D01*
X174298537Y-52001914D01*
X174239560Y-52312556D01*
X174359381Y-52888618D01*
X174565716Y-53191663D01*
X174429007Y-53220099D01*
X169859087Y-49067043D01*
X169885568Y-48944973D01*
X169847548Y-48742916D01*
X169733912Y-48571571D01*
X168673252Y-47510911D01*
X168515090Y-47402843D01*
X168314160Y-47359255D01*
X168112103Y-47397275D01*
X167940758Y-47510911D01*
X167233652Y-48218017D01*
X167125584Y-48376179D01*
X167090774Y-48536642D01*
X167043041Y-48545624D01*
X167025389Y-48502903D01*
X166798293Y-48275410D01*
X166501426Y-48152140D01*
X166179984Y-48151860D01*
X165882903Y-48274611D01*
X165655410Y-48501707D01*
X165532140Y-48798574D01*
X165531860Y-49120016D01*
X165654611Y-49417097D01*
X165881707Y-49644590D01*
X165897186Y-49651017D01*
X165849362Y-49660016D01*
X165678017Y-49773652D01*
X164970911Y-50480758D01*
X164862843Y-50638920D01*
X164819255Y-50839850D01*
X164857275Y-51041907D01*
X164970911Y-51213252D01*
X166031571Y-52273912D01*
X166189733Y-52381980D01*
X166390663Y-52425568D01*
X166592720Y-52387548D01*
X166709871Y-52309854D01*
X166363687Y-53410408D01*
X166355218Y-53488221D01*
X166333788Y-53563506D01*
X165674333Y-61690323D01*
X161502715Y-65919480D01*
X161452394Y-65995919D01*
X161392555Y-66065162D01*
X161099268Y-66581798D01*
X160783807Y-66581523D01*
X159769760Y-67000518D01*
X159396627Y-67373000D01*
X152511850Y-67373000D01*
X151253317Y-66953489D01*
X147305914Y-63006086D01*
X147295902Y-62999396D01*
X147288875Y-62989615D01*
X147182943Y-62923919D01*
X147079305Y-62854670D01*
X147067494Y-62852321D01*
X147057260Y-62845974D01*
X134940550Y-58302208D01*
X130990752Y-55669009D01*
X131484957Y-55586642D01*
X133290095Y-56360272D01*
X133284579Y-56388000D01*
X133399369Y-56965087D01*
X133726262Y-57454317D01*
X134215492Y-57781210D01*
X134792579Y-57896000D01*
X135463421Y-57896000D01*
X136040508Y-57781210D01*
X136529738Y-57454317D01*
X136856631Y-56965087D01*
X136971421Y-56388000D01*
X136856631Y-55810913D01*
X136529738Y-55321683D01*
X136224905Y-55118000D01*
X136529738Y-54914317D01*
X136856631Y-54425087D01*
X136971421Y-53848000D01*
X136856631Y-53270913D01*
X136529738Y-52781683D01*
X136224905Y-52578000D01*
X136529738Y-52374317D01*
X136856631Y-51885087D01*
X136971421Y-51308000D01*
X136856631Y-50730913D01*
X136529738Y-50241683D01*
X136224905Y-50038000D01*
X136529738Y-49834317D01*
X136856631Y-49345087D01*
X136971421Y-48768000D01*
X136856631Y-48190913D01*
X136619487Y-47836003D01*
X136787699Y-47766327D01*
X136966327Y-47587698D01*
X137063000Y-47354309D01*
X137063000Y-46886750D01*
X136904250Y-46728000D01*
X135778000Y-46728000D01*
X135778000Y-47228000D01*
X134478000Y-47228000D01*
X134478000Y-46728000D01*
X133351750Y-46728000D01*
X133193000Y-46886750D01*
X133193000Y-47309299D01*
X128821882Y-45101691D01*
X133193000Y-45101691D01*
X133193000Y-45569250D01*
X133351750Y-45728000D01*
X134478000Y-45728000D01*
X134478000Y-44751750D01*
X135778000Y-44751750D01*
X135778000Y-45728000D01*
X136904250Y-45728000D01*
X137063000Y-45569250D01*
X137063000Y-45101691D01*
X136966327Y-44868302D01*
X136787699Y-44689673D01*
X136554310Y-44593000D01*
X135936750Y-44593000D01*
X135778000Y-44751750D01*
X134478000Y-44751750D01*
X134319250Y-44593000D01*
X133701690Y-44593000D01*
X133468301Y-44689673D01*
X133289673Y-44868302D01*
X133193000Y-45101691D01*
X128821882Y-45101691D01*
X127030537Y-44196983D01*
X124482207Y-42578311D01*
X124707097Y-42485389D01*
X124934590Y-42258293D01*
X125057860Y-41961426D01*
X125058140Y-41639984D01*
X124946848Y-41370635D01*
X124935507Y-38433335D01*
X124966707Y-38464590D01*
X125263574Y-38587860D01*
X125585016Y-38588140D01*
X125882097Y-38465389D01*
X125888241Y-38459256D01*
X126177737Y-38446828D01*
X126196831Y-38510647D01*
X126325552Y-38670970D01*
X126506507Y-38768582D01*
X126711180Y-38788102D01*
X128202963Y-38631310D01*
X128386484Y-38576403D01*
X128546806Y-38447682D01*
X128644418Y-38266728D01*
X128663938Y-38062054D01*
X128559409Y-37067532D01*
X128505423Y-36887088D01*
X128554553Y-36826418D01*
X128626301Y-36584202D01*
X128603560Y-36367834D01*
X128429086Y-36226547D01*
X127582499Y-36315527D01*
X127608632Y-36564158D01*
X126862739Y-36642554D01*
X126836607Y-36393924D01*
X125990021Y-36482904D01*
X125848734Y-36657377D01*
X125871475Y-36873746D01*
X125971196Y-37057408D01*
X125808587Y-37064389D01*
X125586426Y-36972140D01*
X125264984Y-36971860D01*
X125019001Y-37073498D01*
X125055193Y-36702890D01*
X125045272Y-36603007D01*
X125045845Y-36502644D01*
X125031906Y-36468441D01*
X125028255Y-36431684D01*
X124980867Y-36343204D01*
X124942988Y-36250257D01*
X124917019Y-36223990D01*
X124899581Y-36191430D01*
X124821943Y-36127821D01*
X124751376Y-36056444D01*
X124249201Y-35716737D01*
X124247416Y-35560907D01*
X124183892Y-35409498D01*
X124287302Y-35303692D01*
X124354215Y-35133367D01*
X125817262Y-35177507D01*
X125861420Y-35325101D01*
X125812289Y-35385772D01*
X125740541Y-35627988D01*
X125763282Y-35844356D01*
X125937756Y-35985643D01*
X126784343Y-35896663D01*
X126758210Y-35648032D01*
X127504103Y-35569636D01*
X127530235Y-35818266D01*
X128376821Y-35729286D01*
X128518108Y-35554813D01*
X128495367Y-35338444D01*
X128492073Y-35332376D01*
X128849151Y-35360643D01*
X130032154Y-38674820D01*
X130058878Y-38719483D01*
X130073988Y-38769289D01*
X130128206Y-38835350D01*
X130172090Y-38908692D01*
X130213874Y-38939730D01*
X130246893Y-38979961D01*
X130322266Y-39020246D01*
X130390875Y-39071210D01*
X130441354Y-39083895D01*
X130487257Y-39108429D01*
X130572307Y-39116803D01*
X130655198Y-39137633D01*
X130706692Y-39130034D01*
X130758487Y-39135134D01*
X136510830Y-38568398D01*
X136674013Y-38632505D01*
X138151225Y-38892977D01*
X138342769Y-38890783D01*
X138532361Y-38811239D01*
X138676070Y-38664200D01*
X138751249Y-38472835D01*
X138924897Y-37488027D01*
X138922740Y-37299694D01*
X138986690Y-37254916D01*
X139122422Y-37041860D01*
X139160201Y-36827605D01*
X139031429Y-36643700D01*
X138193112Y-36495882D01*
X138149700Y-36742084D01*
X137411094Y-36611848D01*
X137454506Y-36365646D01*
X136616188Y-36217828D01*
X136432284Y-36346599D01*
X136394505Y-36560854D01*
X136449181Y-36807485D01*
X136495751Y-36873992D01*
X136427519Y-37047673D01*
X136405058Y-37175055D01*
X133527499Y-37458560D01*
X133432566Y-36555342D01*
X133377660Y-36371823D01*
X133313204Y-36291542D01*
X133355556Y-36213029D01*
X133375076Y-36008355D01*
X133270547Y-35013833D01*
X133216458Y-34833044D01*
X136711132Y-35171689D01*
X136612020Y-35327264D01*
X136574241Y-35541519D01*
X136703013Y-35725424D01*
X137541330Y-35873242D01*
X137584742Y-35627040D01*
X138323348Y-35757276D01*
X138279936Y-36003478D01*
X139118254Y-36151296D01*
X139302158Y-36022525D01*
X139327687Y-35877743D01*
X139688185Y-36032758D01*
X139472529Y-37663420D01*
X139475228Y-37704972D01*
X139466562Y-37745697D01*
X139483989Y-37839845D01*
X139490195Y-37935388D01*
X139508588Y-37972741D01*
X139516167Y-38013685D01*
X140431167Y-40308685D01*
X140499463Y-40413904D01*
X140564403Y-40521235D01*
X140573444Y-40527882D01*
X140579551Y-40537291D01*
X140682902Y-40608357D01*
X140783985Y-40682675D01*
X140794881Y-40685356D01*
X140804124Y-40691712D01*
X140926812Y-40717820D01*
X141048631Y-40747795D01*
X146498631Y-40992795D01*
X146575543Y-40981059D01*
X146653336Y-40982525D01*
X146708974Y-40960698D01*
X146768053Y-40951683D01*
X146834619Y-40911408D01*
X146907052Y-40882992D01*
X148703864Y-39730779D01*
X149856759Y-39650161D01*
X150042083Y-39601693D01*
X150206801Y-39478646D01*
X150310668Y-39301209D01*
X150337319Y-39097341D01*
X150267563Y-38099777D01*
X150219907Y-37917559D01*
X150271126Y-37858639D01*
X150351283Y-37619075D01*
X150336107Y-37402045D01*
X150166670Y-37254755D01*
X149317494Y-37314135D01*
X149334933Y-37563526D01*
X148586760Y-37615844D01*
X148569321Y-37366453D01*
X147720144Y-37425833D01*
X147572855Y-37595270D01*
X147588031Y-37812300D01*
X147700749Y-38038377D01*
X147762025Y-38091643D01*
X147737837Y-38276671D01*
X147765546Y-38672924D01*
X146339718Y-39587241D01*
X143523022Y-39460619D01*
X143576807Y-39323711D01*
X143750455Y-38338903D01*
X143748261Y-38147359D01*
X143708430Y-38052422D01*
X143770783Y-37988624D01*
X143845962Y-37797259D01*
X144019610Y-36812451D01*
X144017416Y-36620907D01*
X143953892Y-36469498D01*
X144057302Y-36363692D01*
X144132481Y-36172327D01*
X144133731Y-36165235D01*
X147611590Y-36186098D01*
X147632028Y-36264247D01*
X147580810Y-36323167D01*
X147500653Y-36562731D01*
X147515852Y-36780091D01*
X147515829Y-36779761D01*
X147685266Y-36927051D01*
X148534442Y-36867671D01*
X148517003Y-36618280D01*
X149265176Y-36565962D01*
X149282615Y-36815353D01*
X150131792Y-36755973D01*
X150226555Y-36646960D01*
X150366238Y-36688799D01*
X150712435Y-37923570D01*
X150760118Y-38017509D01*
X150799141Y-38115357D01*
X151854141Y-39740358D01*
X151856568Y-39742850D01*
X151857887Y-39746065D01*
X151951509Y-39840334D01*
X152044293Y-39935603D01*
X152047488Y-39936976D01*
X152049938Y-39939443D01*
X152172587Y-39990741D01*
X152294689Y-40043218D01*
X152298164Y-40043264D01*
X152301373Y-40044606D01*
X153906372Y-40369605D01*
X154039913Y-40370065D01*
X154173513Y-40371576D01*
X156123513Y-40006576D01*
X156233863Y-39962323D01*
X156346327Y-39923715D01*
X158038210Y-38939137D01*
X158852847Y-39112294D01*
X159044351Y-39116786D01*
X159236604Y-39043908D01*
X159385356Y-38901974D01*
X159467168Y-38713349D01*
X159675080Y-37735201D01*
X159679497Y-37546905D01*
X159744970Y-37504387D01*
X159888055Y-37296197D01*
X159933289Y-37083392D01*
X159811014Y-36895105D01*
X158978365Y-36718120D01*
X158926387Y-36962656D01*
X158192777Y-36806723D01*
X158244755Y-36562186D01*
X157412107Y-36385201D01*
X157223820Y-36507476D01*
X157178586Y-36720282D01*
X157224623Y-36968670D01*
X157268843Y-37036764D01*
X157194592Y-37207957D01*
X157047653Y-37899250D01*
X155747925Y-38655616D01*
X155225237Y-38753453D01*
X155155627Y-37757970D01*
X155107159Y-37572646D01*
X155045544Y-37490165D01*
X155090610Y-37413178D01*
X155117261Y-37209310D01*
X155047505Y-36211746D01*
X154999037Y-36026422D01*
X154900771Y-35894878D01*
X154970623Y-35775549D01*
X157410988Y-35626920D01*
X157393787Y-35707840D01*
X157516062Y-35896127D01*
X158348711Y-36073112D01*
X158400688Y-35828576D01*
X159134299Y-35984509D01*
X159082321Y-36229046D01*
X159914969Y-36406031D01*
X160103256Y-36283756D01*
X160119077Y-36209328D01*
X160166564Y-36234270D01*
X159956928Y-42220554D01*
X159958004Y-42227168D01*
X159956591Y-42233719D01*
X159979857Y-42361431D01*
X160000710Y-42489555D01*
X160004236Y-42495254D01*
X160005437Y-42501847D01*
X161709817Y-46812206D01*
X161506088Y-47015935D01*
X161398020Y-47174097D01*
X161354432Y-47375027D01*
X161392452Y-47577084D01*
X161506088Y-47748429D01*
X162566748Y-48809089D01*
X162724910Y-48917157D01*
X162925840Y-48960745D01*
X163127897Y-48922725D01*
X163299242Y-48809089D01*
X164006348Y-48101983D01*
X164112605Y-47946472D01*
X164190674Y-47946472D01*
X164424063Y-47849799D01*
X164577901Y-47695960D01*
X164577901Y-47695961D01*
X164600287Y-47673574D01*
X164577901Y-47695960D01*
X164577901Y-47471454D01*
X164237913Y-47131466D01*
X165142395Y-47131466D01*
X165155961Y-47117901D01*
X165155960Y-47117901D01*
X165142395Y-47131466D01*
X164237913Y-47131466D01*
X163975976Y-46869530D01*
X163799200Y-47046307D01*
X163268870Y-46515977D01*
X163445646Y-46339200D01*
X162843722Y-45737275D01*
X162787021Y-45737275D01*
X162568251Y-45184006D01*
X163172485Y-45184006D01*
X163197275Y-45159216D01*
X163197275Y-45159215D01*
X163172485Y-45184006D01*
X162568251Y-45184006D01*
X161358175Y-42123736D01*
X161521814Y-37450915D01*
X161594611Y-37627097D01*
X161821707Y-37854590D01*
X162118574Y-37977860D01*
X162132447Y-37977872D01*
X162069327Y-38038099D01*
X161987515Y-38226724D01*
X161779603Y-39204872D01*
X161775111Y-39396376D01*
X161847989Y-39588629D01*
X161989923Y-39737381D01*
X162178548Y-39819193D01*
X163645770Y-40131061D01*
X163837274Y-40135553D01*
X164029527Y-40062675D01*
X164178279Y-39920741D01*
X164260091Y-39732116D01*
X164468003Y-38753968D01*
X164472495Y-38562464D01*
X164436002Y-38466194D01*
X164500542Y-38404612D01*
X164582354Y-38215987D01*
X164779143Y-37290170D01*
X165035209Y-37449901D01*
X164427453Y-44094570D01*
X163768829Y-44753194D01*
X163662573Y-44908704D01*
X163351113Y-45005377D01*
X163197275Y-45159216D01*
X163197275Y-45383722D01*
X163799200Y-45985646D01*
X163975977Y-45808870D01*
X164506307Y-46339200D01*
X164329530Y-46515976D01*
X164931454Y-47117901D01*
X165155960Y-47117901D01*
X165309799Y-46964063D01*
X165406472Y-46730674D01*
X165406472Y-46649483D01*
X165561983Y-46546348D01*
X165932785Y-46175546D01*
X168429482Y-46637239D01*
X168501707Y-46709590D01*
X168798574Y-46832860D01*
X169120016Y-46833140D01*
X169417097Y-46710389D01*
X169644590Y-46483293D01*
X169767860Y-46186426D01*
X169768140Y-45864984D01*
X169756891Y-45837760D01*
X170705104Y-46787629D01*
X173279907Y-47856781D01*
X176067862Y-47859214D01*
X178644527Y-46794558D01*
X180617629Y-44824896D01*
X181686781Y-42250093D01*
X181689214Y-39462138D01*
X180624558Y-36885473D01*
X178654896Y-34912371D01*
X176080093Y-33843219D01*
X173292138Y-33840786D01*
X170715473Y-34905442D01*
X168742371Y-36875104D01*
X167673219Y-39449907D01*
X167670786Y-42237862D01*
X168735442Y-44814527D01*
X169148629Y-45228436D01*
X169121426Y-45217140D01*
X168799984Y-45216860D01*
X168685947Y-45263979D01*
X165913667Y-44751326D01*
X165782234Y-44619893D01*
X166465596Y-37148622D01*
X166453951Y-37038270D01*
X166450476Y-36927343D01*
X166439734Y-36903547D01*
X166436995Y-36877587D01*
X166384006Y-36780091D01*
X166338345Y-36678937D01*
X166319315Y-36661063D01*
X166306849Y-36638127D01*
X166220579Y-36568327D01*
X166139689Y-36492351D01*
X165088148Y-35836411D01*
X165133320Y-35623895D01*
X165137812Y-35432391D01*
X165064934Y-35240138D01*
X164923000Y-35091386D01*
X164734375Y-35009574D01*
X163267153Y-34697706D01*
X163075649Y-34693214D01*
X162883396Y-34766092D01*
X162734644Y-34908026D01*
X162652832Y-35096651D01*
X162444920Y-36074799D01*
X162440428Y-36266303D01*
X162483357Y-36379551D01*
X162441426Y-36362140D01*
X162119984Y-36361860D01*
X161822903Y-36484611D01*
X161595410Y-36711707D01*
X161543307Y-36837185D01*
X161578072Y-35844447D01*
X161559258Y-35728850D01*
X161546935Y-35612395D01*
X161537472Y-35594996D01*
X161534290Y-35575445D01*
X161472672Y-35475851D01*
X161416720Y-35372973D01*
X161401318Y-35360519D01*
X161390897Y-35343675D01*
X161295864Y-35275247D01*
X161204795Y-35201607D01*
X160313154Y-34733295D01*
X160340397Y-34605128D01*
X160344889Y-34413624D01*
X160272011Y-34221371D01*
X160130077Y-34072619D01*
X159941452Y-33990807D01*
X158474230Y-33678939D01*
X158282726Y-33674447D01*
X158090473Y-33747325D01*
X157941721Y-33889259D01*
X157859909Y-34077884D01*
X157833614Y-34201592D01*
X154884145Y-34381228D01*
X154883939Y-34380441D01*
X154760892Y-34215723D01*
X154583455Y-34111856D01*
X154379587Y-34085205D01*
X152883241Y-34189839D01*
X152697917Y-34238307D01*
X152533199Y-34361354D01*
X152429332Y-34538791D01*
X152402681Y-34742659D01*
X152472437Y-35740223D01*
X152480766Y-35772070D01*
X152239984Y-35771860D01*
X151942903Y-35894611D01*
X151715410Y-36121707D01*
X151681205Y-36204081D01*
X151607565Y-35941430D01*
X151572570Y-35872486D01*
X151549867Y-35798577D01*
X151511479Y-35752134D01*
X151484207Y-35698405D01*
X151425491Y-35648101D01*
X151376232Y-35588505D01*
X151322992Y-35560287D01*
X151277236Y-35521086D01*
X151203742Y-35497082D01*
X151135425Y-35460872D01*
X150060519Y-35138904D01*
X150044343Y-34907572D01*
X149995875Y-34722248D01*
X149872828Y-34557530D01*
X149695391Y-34453663D01*
X149491523Y-34427012D01*
X147995177Y-34531646D01*
X147809853Y-34580114D01*
X147645135Y-34703161D01*
X147594902Y-34788974D01*
X144185653Y-34768523D01*
X144077352Y-34662674D01*
X143885987Y-34587495D01*
X142408775Y-34327023D01*
X142217231Y-34329217D01*
X142027639Y-34408761D01*
X141883930Y-34555800D01*
X141808751Y-34747165D01*
X141635103Y-35731973D01*
X141637193Y-35914430D01*
X141568293Y-35845410D01*
X141271426Y-35722140D01*
X141138445Y-35722024D01*
X141142471Y-35691580D01*
X141139774Y-35650056D01*
X141148437Y-35609361D01*
X141131013Y-35515186D01*
X141124805Y-35419612D01*
X141106424Y-35382284D01*
X141098854Y-35341367D01*
X141046715Y-35261026D01*
X141004407Y-35175106D01*
X140973139Y-35147652D01*
X140950488Y-35112749D01*
X140871577Y-35058479D01*
X140799605Y-34995286D01*
X140760211Y-34981888D01*
X140725928Y-34958310D01*
X139466449Y-34416731D01*
X139480571Y-34336643D01*
X139478377Y-34145099D01*
X139398833Y-33955507D01*
X139251794Y-33811798D01*
X139060429Y-33736619D01*
X137583217Y-33476147D01*
X137391673Y-33478341D01*
X137202081Y-33557885D01*
X137058372Y-33704924D01*
X137021711Y-33798243D01*
X133102870Y-33418494D01*
X133098075Y-33372872D01*
X133043169Y-33189353D01*
X132914448Y-33029030D01*
X132733493Y-32931418D01*
X132528820Y-32911898D01*
X131037037Y-33068690D01*
X130853516Y-33123597D01*
X130693194Y-33252318D01*
X130595582Y-33433272D01*
X130576062Y-33637946D01*
X130680591Y-34632468D01*
X130734279Y-34811916D01*
X130669984Y-34811860D01*
X130372903Y-34934611D01*
X130230982Y-35076284D01*
X130012847Y-34465180D01*
X129947987Y-34356782D01*
X129886349Y-34246602D01*
X129878226Y-34240192D01*
X129872910Y-34231308D01*
X129771525Y-34155997D01*
X129672395Y-34077776D01*
X129662433Y-34074962D01*
X129654125Y-34068790D01*
X129531664Y-34038017D01*
X129410120Y-34003678D01*
X128227546Y-33910066D01*
X128224918Y-33885062D01*
X128170012Y-33701543D01*
X128041291Y-33541220D01*
X127860336Y-33443608D01*
X127655663Y-33424088D01*
X126163880Y-33580880D01*
X125980359Y-33635787D01*
X125820037Y-33764508D01*
X125811838Y-33779708D01*
X124446337Y-33738511D01*
X124307352Y-33602674D01*
X124115987Y-33527495D01*
X122638775Y-33267023D01*
X122447231Y-33269217D01*
X122257639Y-33348761D01*
X122113930Y-33495800D01*
X122038751Y-33687165D01*
X121865103Y-34671973D01*
X121867297Y-34863517D01*
X121874078Y-34879679D01*
X121711426Y-34812140D01*
X121389984Y-34811860D01*
X121092903Y-34934611D01*
X120984135Y-35043189D01*
X120754897Y-34069870D01*
X120729718Y-34014626D01*
X120717183Y-33955223D01*
X120673742Y-33891815D01*
X120641864Y-33821874D01*
X120597460Y-33780471D01*
X120563147Y-33730386D01*
X120498748Y-33688429D01*
X120442531Y-33636011D01*
X120385662Y-33614752D01*
X120334795Y-33581611D01*
X119701537Y-33327878D01*
X119710571Y-33276643D01*
X119708377Y-33085099D01*
X119628833Y-32895507D01*
X119481794Y-32751798D01*
X119290429Y-32676619D01*
X117813217Y-32416147D01*
X117621673Y-32418341D01*
X117432081Y-32497885D01*
X117288372Y-32644924D01*
X117242843Y-32760817D01*
X111748407Y-32336332D01*
X111739506Y-32272998D01*
X111678229Y-32091506D01*
X111543991Y-31935774D01*
X111359740Y-31844537D01*
X111154510Y-31832172D01*
X109669107Y-32040932D01*
X109487615Y-32102209D01*
X109331883Y-32236447D01*
X109240646Y-32420697D01*
X109228281Y-32625928D01*
X109351422Y-33502123D01*
X109049984Y-33501860D01*
X108752903Y-33624611D01*
X108547214Y-33829941D01*
X108057376Y-33129641D01*
X107999541Y-33074221D01*
X107951500Y-33010115D01*
X107902074Y-32980824D01*
X107860596Y-32941078D01*
X107785954Y-32912009D01*
X107717038Y-32871167D01*
X107660168Y-32863021D01*
X107606635Y-32842172D01*
X107526546Y-32843880D01*
X107447251Y-32832521D01*
X106856650Y-32864486D01*
X106825915Y-32773454D01*
X106691677Y-32617722D01*
X106507426Y-32526485D01*
X106302196Y-32514120D01*
X104816793Y-32722880D01*
X104640851Y-32782283D01*
X100051256Y-32177487D01*
X100013764Y-32179940D01*
X99977101Y-32171709D01*
X97527101Y-32111709D01*
X97526626Y-32111791D01*
X97526158Y-32111687D01*
X97392491Y-32135074D01*
X97258575Y-32158319D01*
X97258169Y-32158576D01*
X97257695Y-32158659D01*
X96413605Y-32485628D01*
X96204065Y-32276088D01*
X96045903Y-32168020D01*
X95844973Y-32124432D01*
X95642916Y-32162452D01*
X95471571Y-32276088D01*
X94410911Y-33336748D01*
X94302843Y-33494910D01*
X94259255Y-33695840D01*
X94297275Y-33897897D01*
X94410911Y-34069242D01*
X95118017Y-34776348D01*
X95276179Y-34884416D01*
X95436642Y-34919226D01*
X95464001Y-35064623D01*
X95577637Y-35235968D01*
X96284743Y-35943074D01*
X96442905Y-36051142D01*
X96543520Y-36072968D01*
X96560016Y-36160638D01*
X96673652Y-36331983D01*
X97380758Y-37039089D01*
X97538920Y-37147157D01*
X97739850Y-37190745D01*
X97941907Y-37152725D01*
X98113252Y-37039089D01*
X99173912Y-35978429D01*
X99281980Y-35820267D01*
X99325568Y-35619337D01*
X99287548Y-35417280D01*
X99173912Y-35245935D01*
X98779430Y-34851453D01*
X99415737Y-34665915D01*
X101775096Y-35313582D01*
X101829014Y-35317447D01*
X101880484Y-35333959D01*
X102423346Y-35396162D01*
X102461707Y-35434590D01*
X102758574Y-35557860D01*
X103080016Y-35558140D01*
X103377097Y-35435389D01*
X103604590Y-35208293D01*
X103727860Y-34911426D01*
X103728140Y-34589984D01*
X103605389Y-34292903D01*
X103378293Y-34065410D01*
X103235683Y-34006193D01*
X104497477Y-34172467D01*
X104515140Y-34298144D01*
X104575390Y-34476594D01*
X104528407Y-34538942D01*
X104465156Y-34783514D01*
X104496927Y-35009574D01*
X104495435Y-34998957D01*
X104674734Y-35134068D01*
X105517699Y-35015597D01*
X105482906Y-34768030D01*
X106225607Y-34663650D01*
X106260400Y-34911217D01*
X107103366Y-34792746D01*
X107238477Y-34613447D01*
X107238903Y-34616475D01*
X107208199Y-34398004D01*
X107120573Y-34249246D01*
X107135124Y-34248458D01*
X107991944Y-35473419D01*
X107991860Y-35570016D01*
X108114611Y-35867097D01*
X108341707Y-36094590D01*
X108638574Y-36217860D01*
X108960016Y-36218140D01*
X109257097Y-36095389D01*
X109484590Y-35868293D01*
X109607860Y-35571426D01*
X109608111Y-35282785D01*
X109658366Y-35431630D01*
X109725586Y-35509613D01*
X109686000Y-35589555D01*
X109673635Y-35794786D01*
X109803742Y-36720544D01*
X109536934Y-36704284D01*
X107924749Y-36491947D01*
X107878293Y-36445410D01*
X107581426Y-36322140D01*
X107360393Y-36321947D01*
X107332546Y-36123804D01*
X107272296Y-35945354D01*
X107319279Y-35883006D01*
X107382530Y-35638434D01*
X107352251Y-35422991D01*
X107172952Y-35287880D01*
X106329987Y-35406351D01*
X106364780Y-35653918D01*
X105622079Y-35758298D01*
X105587286Y-35510731D01*
X104744320Y-35629202D01*
X104609209Y-35808501D01*
X104639487Y-36023944D01*
X104767701Y-36241607D01*
X104832543Y-36290469D01*
X104821321Y-36476734D01*
X104899751Y-37034795D01*
X104554004Y-36911863D01*
X104498540Y-36903749D01*
X104446450Y-36883041D01*
X104364967Y-36884207D01*
X104284334Y-36872411D01*
X104229987Y-36886140D01*
X104173937Y-36886942D01*
X102583937Y-37226942D01*
X102527202Y-37251400D01*
X102466541Y-37263091D01*
X102403271Y-37304824D01*
X102333661Y-37334832D01*
X102290603Y-37379140D01*
X102239035Y-37413155D01*
X100549035Y-39083155D01*
X100529500Y-39112018D01*
X100502437Y-39133986D01*
X100453674Y-39224050D01*
X100396273Y-39308859D01*
X100389270Y-39343002D01*
X100372674Y-39373654D01*
X100362089Y-39475520D01*
X100355575Y-39507280D01*
X100275650Y-39529821D01*
X99966783Y-39773312D01*
X99774607Y-40116467D01*
X99728379Y-40507043D01*
X99824006Y-40846110D01*
X99605903Y-40569448D01*
X99262748Y-40377272D01*
X99026616Y-40349324D01*
X98813030Y-40016168D01*
X98813140Y-39889984D01*
X98690389Y-39592903D01*
X98463293Y-39365410D01*
X98166426Y-39242140D01*
X97844984Y-39241860D01*
X97547903Y-39364611D01*
X97320410Y-39591707D01*
X97197140Y-39888574D01*
X97196860Y-40210016D01*
X97319611Y-40507097D01*
X97546707Y-40734590D01*
X97638645Y-40772766D01*
X97962579Y-41278044D01*
X97946366Y-41415024D01*
X98041993Y-41754091D01*
X97823890Y-41477429D01*
X97480735Y-41285253D01*
X97090159Y-41239025D01*
X96806691Y-41318971D01*
X96713293Y-41225410D01*
X96416426Y-41102140D01*
X96094984Y-41101860D01*
X95797903Y-41224611D01*
X95589880Y-41432271D01*
X95433293Y-41275410D01*
X95136426Y-41152140D01*
X94814984Y-41151860D01*
X94517903Y-41274611D01*
X94290410Y-41501707D01*
X94167140Y-41798574D01*
X94166860Y-42120016D01*
X94289611Y-42417097D01*
X94494613Y-42622458D01*
X94518534Y-42679764D01*
X94428568Y-42840410D01*
X94382340Y-43230986D01*
X94477968Y-43570055D01*
X94259863Y-43293391D01*
X94029095Y-43164155D01*
X93027802Y-40920024D01*
X92568321Y-39321830D01*
X92620145Y-39373654D01*
X92637275Y-39390785D01*
G36*
X100865273Y-72249779D02*
X100149780Y-71534286D01*
X99434656Y-72249410D01*
X100380460Y-73195214D01*
X100339074Y-73349670D01*
X100606599Y-73421353D01*
X101015948Y-73830702D01*
X101018621Y-73926625D01*
X100105301Y-74839945D01*
X99950845Y-74798559D01*
X99879162Y-75066084D01*
X99797546Y-75147700D01*
X98499318Y-74420176D01*
X98501956Y-74410330D01*
X98463235Y-74399955D01*
X98298774Y-74307791D01*
X98658496Y-72997288D01*
X98735729Y-72920055D01*
X98890185Y-72961441D01*
X98961868Y-72693916D01*
X99406374Y-72249410D01*
X99149738Y-71992774D01*
X99180977Y-71876190D01*
X98985798Y-71804893D01*
X99870213Y-68582882D01*
X100865273Y-72249779D01*
X100865273Y-72249779D01*
G37*
X100865273Y-72249779D02*
X100149780Y-71534286D01*
X99434656Y-72249410D01*
X100380460Y-73195214D01*
X100339074Y-73349670D01*
X100606599Y-73421353D01*
X101015948Y-73830702D01*
X101018621Y-73926625D01*
X100105301Y-74839945D01*
X99950845Y-74798559D01*
X99879162Y-75066084D01*
X99797546Y-75147700D01*
X98499318Y-74420176D01*
X98501956Y-74410330D01*
X98463235Y-74399955D01*
X98298774Y-74307791D01*
X98658496Y-72997288D01*
X98735729Y-72920055D01*
X98890185Y-72961441D01*
X98961868Y-72693916D01*
X99406374Y-72249410D01*
X99149738Y-71992774D01*
X99180977Y-71876190D01*
X98985798Y-71804893D01*
X99870213Y-68582882D01*
X100865273Y-72249779D01*
G36*
X133198005Y-60004393D02*
X133274366Y-60038852D01*
X133344584Y-60084541D01*
X145910287Y-65110822D01*
X148156742Y-67373000D01*
X137822007Y-67373000D01*
X131763593Y-58979813D01*
X133198005Y-60004393D01*
X133198005Y-60004393D01*
G37*
X133198005Y-60004393D02*
X133274366Y-60038852D01*
X133344584Y-60084541D01*
X145910287Y-65110822D01*
X148156742Y-67373000D01*
X137822007Y-67373000D01*
X131763593Y-58979813D01*
X133198005Y-60004393D01*
G36*
X120282140Y-57923574D02*
X120281860Y-58245016D01*
X120397001Y-58523680D01*
X120460590Y-63543227D01*
X120331747Y-63567470D01*
X120323891Y-63572525D01*
X120166426Y-63507140D01*
X119844984Y-63506860D01*
X119633002Y-63594449D01*
X119633002Y-63060000D01*
X119475000Y-63060000D01*
X119475000Y-62893750D01*
X119316250Y-62735000D01*
X118665000Y-62735000D01*
X118665000Y-63060000D01*
X118315000Y-63060000D01*
X118315000Y-62735000D01*
X117663750Y-62735000D01*
X117505000Y-62893750D01*
X117505000Y-63060000D01*
X117457952Y-63060000D01*
X117457952Y-61760000D01*
X117505000Y-61760000D01*
X117505000Y-61926250D01*
X117663750Y-62085000D01*
X118315000Y-62085000D01*
X118315000Y-61760000D01*
X118665000Y-61760000D01*
X118665000Y-62085000D01*
X119316250Y-62085000D01*
X119475000Y-61926250D01*
X119475000Y-61760000D01*
X119633002Y-61760000D01*
X119633002Y-61125000D01*
X119306188Y-61125000D01*
X119306188Y-61025808D01*
X118845685Y-60565304D01*
X118285990Y-61125000D01*
X117346998Y-61125000D01*
X117346998Y-61454367D01*
X117311272Y-61398847D01*
X117141512Y-61282855D01*
X116940000Y-61242048D01*
X116834563Y-61242048D01*
X116545874Y-60593697D01*
X116625219Y-60297574D01*
X117609644Y-60297574D01*
X117609645Y-60550193D01*
X117706317Y-60783582D01*
X117807122Y-60884386D01*
X118031628Y-60884386D01*
X118598198Y-60317817D01*
X118386066Y-60105685D01*
X119305304Y-60105685D01*
X119765808Y-60566188D01*
X119990314Y-60566188D01*
X120018557Y-60537946D01*
X120197185Y-60359317D01*
X120293858Y-60125928D01*
X120293857Y-59873309D01*
X120197185Y-59639920D01*
X120096380Y-59539116D01*
X119871874Y-59539116D01*
X119305304Y-60105685D01*
X118386066Y-60105685D01*
X118137694Y-59857314D01*
X117913188Y-59857314D01*
X117884945Y-59885556D01*
X117706317Y-60064185D01*
X117609644Y-60297574D01*
X116625219Y-60297574D01*
X116704239Y-60002669D01*
X116717531Y-59827665D01*
X116778416Y-59690149D01*
X117029870Y-59941603D01*
X117188032Y-60049671D01*
X117388962Y-60093259D01*
X117591019Y-60055239D01*
X117762364Y-59941603D01*
X118530779Y-59173188D01*
X118597314Y-59173188D01*
X118597314Y-59397694D01*
X119057817Y-59858198D01*
X119624386Y-59291628D01*
X119624386Y-59067122D01*
X119523582Y-58966317D01*
X119290193Y-58869645D01*
X119037574Y-58869644D01*
X118804185Y-58966317D01*
X118625556Y-59144945D01*
X118597314Y-59173188D01*
X118530779Y-59173188D01*
X118681603Y-59022364D01*
X118789671Y-58864202D01*
X118833259Y-58663272D01*
X118795239Y-58461215D01*
X118681603Y-58289870D01*
X118247968Y-57856235D01*
X120328957Y-57810826D01*
X120282140Y-57923574D01*
X120282140Y-57923574D01*
G37*
X120282140Y-57923574D02*
X120281860Y-58245016D01*
X120397001Y-58523680D01*
X120460590Y-63543227D01*
X120331747Y-63567470D01*
X120323891Y-63572525D01*
X120166426Y-63507140D01*
X119844984Y-63506860D01*
X119633002Y-63594449D01*
X119633002Y-63060000D01*
X119475000Y-63060000D01*
X119475000Y-62893750D01*
X119316250Y-62735000D01*
X118665000Y-62735000D01*
X118665000Y-63060000D01*
X118315000Y-63060000D01*
X118315000Y-62735000D01*
X117663750Y-62735000D01*
X117505000Y-62893750D01*
X117505000Y-63060000D01*
X117457952Y-63060000D01*
X117457952Y-61760000D01*
X117505000Y-61760000D01*
X117505000Y-61926250D01*
X117663750Y-62085000D01*
X118315000Y-62085000D01*
X118315000Y-61760000D01*
X118665000Y-61760000D01*
X118665000Y-62085000D01*
X119316250Y-62085000D01*
X119475000Y-61926250D01*
X119475000Y-61760000D01*
X119633002Y-61760000D01*
X119633002Y-61125000D01*
X119306188Y-61125000D01*
X119306188Y-61025808D01*
X118845685Y-60565304D01*
X118285990Y-61125000D01*
X117346998Y-61125000D01*
X117346998Y-61454367D01*
X117311272Y-61398847D01*
X117141512Y-61282855D01*
X116940000Y-61242048D01*
X116834563Y-61242048D01*
X116545874Y-60593697D01*
X116625219Y-60297574D01*
X117609644Y-60297574D01*
X117609645Y-60550193D01*
X117706317Y-60783582D01*
X117807122Y-60884386D01*
X118031628Y-60884386D01*
X118598198Y-60317817D01*
X118386066Y-60105685D01*
X119305304Y-60105685D01*
X119765808Y-60566188D01*
X119990314Y-60566188D01*
X120018557Y-60537946D01*
X120197185Y-60359317D01*
X120293858Y-60125928D01*
X120293857Y-59873309D01*
X120197185Y-59639920D01*
X120096380Y-59539116D01*
X119871874Y-59539116D01*
X119305304Y-60105685D01*
X118386066Y-60105685D01*
X118137694Y-59857314D01*
X117913188Y-59857314D01*
X117884945Y-59885556D01*
X117706317Y-60064185D01*
X117609644Y-60297574D01*
X116625219Y-60297574D01*
X116704239Y-60002669D01*
X116717531Y-59827665D01*
X116778416Y-59690149D01*
X117029870Y-59941603D01*
X117188032Y-60049671D01*
X117388962Y-60093259D01*
X117591019Y-60055239D01*
X117762364Y-59941603D01*
X118530779Y-59173188D01*
X118597314Y-59173188D01*
X118597314Y-59397694D01*
X119057817Y-59858198D01*
X119624386Y-59291628D01*
X119624386Y-59067122D01*
X119523582Y-58966317D01*
X119290193Y-58869645D01*
X119037574Y-58869644D01*
X118804185Y-58966317D01*
X118625556Y-59144945D01*
X118597314Y-59173188D01*
X118530779Y-59173188D01*
X118681603Y-59022364D01*
X118789671Y-58864202D01*
X118833259Y-58663272D01*
X118795239Y-58461215D01*
X118681603Y-58289870D01*
X118247968Y-57856235D01*
X120328957Y-57810826D01*
X120282140Y-57923574D01*
G36*
X109032433Y-58617100D02*
X108773958Y-58766330D01*
X109099583Y-59330329D01*
X109316440Y-59388436D01*
X109351030Y-59368466D01*
X109437433Y-59318581D01*
X109460957Y-59359325D01*
X108358107Y-59996055D01*
X108334583Y-59955311D01*
X108443970Y-59892157D01*
X108478560Y-59872186D01*
X108536667Y-59655329D01*
X108211042Y-59091330D01*
X107984002Y-59222411D01*
X107861477Y-59010191D01*
X107835923Y-58980436D01*
X108042745Y-58798433D01*
X108588579Y-58445246D01*
X108598958Y-58463222D01*
X108857433Y-58313992D01*
X109032433Y-58617100D01*
X109032433Y-58617100D01*
G37*
X109032433Y-58617100D02*
X108773958Y-58766330D01*
X109099583Y-59330329D01*
X109316440Y-59388436D01*
X109351030Y-59368466D01*
X109437433Y-59318581D01*
X109460957Y-59359325D01*
X108358107Y-59996055D01*
X108334583Y-59955311D01*
X108443970Y-59892157D01*
X108478560Y-59872186D01*
X108536667Y-59655329D01*
X108211042Y-59091330D01*
X107984002Y-59222411D01*
X107861477Y-59010191D01*
X107835923Y-58980436D01*
X108042745Y-58798433D01*
X108588579Y-58445246D01*
X108598958Y-58463222D01*
X108857433Y-58313992D01*
X109032433Y-58617100D01*
G36*
X110411343Y-56586861D02*
X110625401Y-56612196D01*
X110622159Y-56654876D01*
X110687576Y-56849794D01*
X111012576Y-57412710D01*
X111137379Y-57558031D01*
X111320181Y-57652138D01*
X111525193Y-57667710D01*
X111720111Y-57602293D01*
X112298449Y-57268389D01*
X112827674Y-57230009D01*
X112745145Y-57257707D01*
X111827159Y-57787707D01*
X111681838Y-57912510D01*
X111587731Y-58095312D01*
X111572159Y-58300324D01*
X111637576Y-58495242D01*
X111901298Y-58952022D01*
X111851013Y-59073122D01*
X111714924Y-58837409D01*
X111797241Y-58789883D01*
X111569450Y-58395338D01*
X111561947Y-58338346D01*
X111496917Y-58225711D01*
X111280060Y-58167604D01*
X111060692Y-58294256D01*
X111034807Y-58292290D01*
X110839889Y-58357707D01*
X109944887Y-58874437D01*
X109837838Y-58689024D01*
X110732841Y-58172293D01*
X110878162Y-58047490D01*
X110895103Y-58014581D01*
X111117560Y-57886146D01*
X111175667Y-57669290D01*
X111195719Y-57704020D01*
X111175667Y-57669289D01*
X111175667Y-57669290D01*
X111110637Y-57556654D01*
X111065032Y-57521660D01*
X110837241Y-57127115D01*
X110754924Y-57174640D01*
X110597424Y-56901842D01*
X110472621Y-56756521D01*
X110289819Y-56662414D01*
X110281058Y-56661749D01*
X110324590Y-56618293D01*
X110351547Y-56553374D01*
X110411343Y-56586861D01*
X110411343Y-56586861D01*
G37*
X110411343Y-56586861D02*
X110625401Y-56612196D01*
X110622159Y-56654876D01*
X110687576Y-56849794D01*
X111012576Y-57412710D01*
X111137379Y-57558031D01*
X111320181Y-57652138D01*
X111525193Y-57667710D01*
X111720111Y-57602293D01*
X112298449Y-57268389D01*
X112827674Y-57230009D01*
X112745145Y-57257707D01*
X111827159Y-57787707D01*
X111681838Y-57912510D01*
X111587731Y-58095312D01*
X111572159Y-58300324D01*
X111637576Y-58495242D01*
X111901298Y-58952022D01*
X111851013Y-59073122D01*
X111714924Y-58837409D01*
X111797241Y-58789883D01*
X111569450Y-58395338D01*
X111561947Y-58338346D01*
X111496917Y-58225711D01*
X111280060Y-58167604D01*
X111060692Y-58294256D01*
X111034807Y-58292290D01*
X110839889Y-58357707D01*
X109944887Y-58874437D01*
X109837838Y-58689024D01*
X110732841Y-58172293D01*
X110878162Y-58047490D01*
X110895103Y-58014581D01*
X111117560Y-57886146D01*
X111175667Y-57669290D01*
X111195719Y-57704020D01*
X111175667Y-57669289D01*
X111175667Y-57669290D01*
X111110637Y-57556654D01*
X111065032Y-57521660D01*
X110837241Y-57127115D01*
X110754924Y-57174640D01*
X110597424Y-56901842D01*
X110472621Y-56756521D01*
X110289819Y-56662414D01*
X110281058Y-56661749D01*
X110324590Y-56618293D01*
X110351547Y-56553374D01*
X110411343Y-56586861D01*
G36*
X104719995Y-41959263D02*
X105271294Y-41678362D01*
X105137403Y-41917442D01*
X105091175Y-42308018D01*
X105197933Y-42686553D01*
X105441424Y-42995420D01*
X105784579Y-43187596D01*
X106175155Y-43233824D01*
X106514222Y-43138197D01*
X106237560Y-43356300D01*
X106045384Y-43699455D01*
X105999156Y-44090031D01*
X106105914Y-44468566D01*
X106349405Y-44777433D01*
X106692560Y-44969609D01*
X107083136Y-45015837D01*
X107422203Y-44920210D01*
X107145541Y-45138313D01*
X106953365Y-45481468D01*
X106907137Y-45872044D01*
X107013895Y-46250579D01*
X107257386Y-46559446D01*
X107600541Y-46751622D01*
X107991117Y-46797850D01*
X108330186Y-46702222D01*
X108053522Y-46920327D01*
X107861346Y-47263482D01*
X107815118Y-47654058D01*
X107921876Y-48032593D01*
X108165367Y-48341460D01*
X108508522Y-48533636D01*
X108899098Y-48579864D01*
X109238165Y-48484237D01*
X108961503Y-48702340D01*
X108769327Y-49045495D01*
X108723099Y-49436071D01*
X108829857Y-49814606D01*
X109073348Y-50123473D01*
X109416503Y-50315649D01*
X109807079Y-50361877D01*
X110146146Y-50266250D01*
X109869484Y-50484353D01*
X109677308Y-50827508D01*
X109631080Y-51218084D01*
X109737112Y-51594046D01*
X108909388Y-51487243D01*
X108830616Y-51492610D01*
X108752050Y-51484813D01*
X108695951Y-51501785D01*
X108637478Y-51505769D01*
X108566758Y-51540871D01*
X108491187Y-51563734D01*
X102531187Y-54743734D01*
X102520171Y-54752761D01*
X102506713Y-54757430D01*
X102415141Y-54838826D01*
X102320382Y-54916475D01*
X102313658Y-54929032D01*
X102303012Y-54938495D01*
X101743012Y-55678495D01*
X101710133Y-55746305D01*
X101665807Y-55807252D01*
X101651252Y-55867744D01*
X101624107Y-55923730D01*
X101619681Y-55998961D01*
X101602052Y-56072231D01*
X101611755Y-56133690D01*
X101608101Y-56195801D01*
X101632802Y-56267000D01*
X101644554Y-56341438D01*
X101831324Y-56848476D01*
X101692416Y-57096515D01*
X101646188Y-57487091D01*
X101741816Y-57826160D01*
X101523711Y-57549496D01*
X101180556Y-57357320D01*
X100789980Y-57311092D01*
X100411445Y-57417850D01*
X100102578Y-57661341D01*
X99910402Y-58004496D01*
X99864174Y-58395072D01*
X99959801Y-58734139D01*
X99741698Y-58457477D01*
X99398543Y-58265301D01*
X99007967Y-58219073D01*
X98629432Y-58325831D01*
X98320565Y-58569322D01*
X98182620Y-58815641D01*
X96026167Y-54488002D01*
X95029394Y-52480333D01*
X100136508Y-52480333D01*
X100419383Y-52737784D01*
X101479105Y-52789802D01*
X101740617Y-52737784D01*
X102023492Y-52480333D01*
X101080000Y-51536841D01*
X100136508Y-52480333D01*
X95029394Y-52480333D01*
X94640565Y-51697168D01*
X94052136Y-50499105D01*
X98390198Y-50499105D01*
X98442216Y-50760617D01*
X98699667Y-51043492D01*
X99643159Y-50100000D01*
X102516841Y-50100000D01*
X103460333Y-51043492D01*
X103717784Y-50760617D01*
X103769802Y-49700895D01*
X103717784Y-49439383D01*
X103460333Y-49156508D01*
X102516841Y-50100000D01*
X99643159Y-50100000D01*
X98699667Y-49156508D01*
X98442216Y-49439383D01*
X98390198Y-50499105D01*
X94052136Y-50499105D01*
X93438863Y-49250462D01*
X92744992Y-47812916D01*
X92845993Y-47824870D01*
X93219010Y-47719667D01*
X100136508Y-47719667D01*
X101080000Y-48663159D01*
X102023492Y-47719667D01*
X101740617Y-47462216D01*
X100680895Y-47410198D01*
X100419383Y-47462216D01*
X100136508Y-47719667D01*
X93219010Y-47719667D01*
X93224528Y-47718111D01*
X93533395Y-47474621D01*
X93725571Y-47131466D01*
X93771799Y-46740890D01*
X93676171Y-46401821D01*
X93894275Y-46678485D01*
X94237429Y-46870661D01*
X94628006Y-46916889D01*
X95006541Y-46810130D01*
X95315408Y-46566640D01*
X95507584Y-46223485D01*
X95553812Y-45832909D01*
X95458183Y-45493838D01*
X95676289Y-45770504D01*
X96019443Y-45962680D01*
X96410020Y-46008908D01*
X96788555Y-45902149D01*
X97097422Y-45658659D01*
X97289598Y-45315504D01*
X97335826Y-44924928D01*
X97240198Y-44585859D01*
X97458302Y-44862523D01*
X97801456Y-45054699D01*
X98192033Y-45100927D01*
X98570568Y-44994168D01*
X98879435Y-44750678D01*
X99071611Y-44407523D01*
X99117839Y-44016947D01*
X99022211Y-43677878D01*
X99240315Y-43954542D01*
X99583469Y-44146718D01*
X99974046Y-44192946D01*
X100352581Y-44086187D01*
X100661448Y-43842697D01*
X100853624Y-43499542D01*
X100899852Y-43108966D01*
X100804224Y-42769897D01*
X101022328Y-43046561D01*
X101365482Y-43238737D01*
X101756059Y-43284965D01*
X102134594Y-43178206D01*
X102443461Y-42934716D01*
X102635637Y-42591561D01*
X102681865Y-42200985D01*
X102586237Y-41861916D01*
X102804341Y-42138580D01*
X102820532Y-42147647D01*
X102831620Y-42180745D01*
X102822140Y-42203574D01*
X102821860Y-42525016D01*
X102944611Y-42822097D01*
X103171707Y-43049590D01*
X103468574Y-43172860D01*
X103790016Y-43173140D01*
X104087097Y-43050389D01*
X104314590Y-42823293D01*
X104437860Y-42526426D01*
X104438140Y-42204984D01*
X104315389Y-41907903D01*
X104300421Y-41892908D01*
X104417650Y-41683580D01*
X104448165Y-41425765D01*
X104719995Y-41959263D01*
X104719995Y-41959263D01*
G37*
X104719995Y-41959263D02*
X105271294Y-41678362D01*
X105137403Y-41917442D01*
X105091175Y-42308018D01*
X105197933Y-42686553D01*
X105441424Y-42995420D01*
X105784579Y-43187596D01*
X106175155Y-43233824D01*
X106514222Y-43138197D01*
X106237560Y-43356300D01*
X106045384Y-43699455D01*
X105999156Y-44090031D01*
X106105914Y-44468566D01*
X106349405Y-44777433D01*
X106692560Y-44969609D01*
X107083136Y-45015837D01*
X107422203Y-44920210D01*
X107145541Y-45138313D01*
X106953365Y-45481468D01*
X106907137Y-45872044D01*
X107013895Y-46250579D01*
X107257386Y-46559446D01*
X107600541Y-46751622D01*
X107991117Y-46797850D01*
X108330186Y-46702222D01*
X108053522Y-46920327D01*
X107861346Y-47263482D01*
X107815118Y-47654058D01*
X107921876Y-48032593D01*
X108165367Y-48341460D01*
X108508522Y-48533636D01*
X108899098Y-48579864D01*
X109238165Y-48484237D01*
X108961503Y-48702340D01*
X108769327Y-49045495D01*
X108723099Y-49436071D01*
X108829857Y-49814606D01*
X109073348Y-50123473D01*
X109416503Y-50315649D01*
X109807079Y-50361877D01*
X110146146Y-50266250D01*
X109869484Y-50484353D01*
X109677308Y-50827508D01*
X109631080Y-51218084D01*
X109737112Y-51594046D01*
X108909388Y-51487243D01*
X108830616Y-51492610D01*
X108752050Y-51484813D01*
X108695951Y-51501785D01*
X108637478Y-51505769D01*
X108566758Y-51540871D01*
X108491187Y-51563734D01*
X102531187Y-54743734D01*
X102520171Y-54752761D01*
X102506713Y-54757430D01*
X102415141Y-54838826D01*
X102320382Y-54916475D01*
X102313658Y-54929032D01*
X102303012Y-54938495D01*
X101743012Y-55678495D01*
X101710133Y-55746305D01*
X101665807Y-55807252D01*
X101651252Y-55867744D01*
X101624107Y-55923730D01*
X101619681Y-55998961D01*
X101602052Y-56072231D01*
X101611755Y-56133690D01*
X101608101Y-56195801D01*
X101632802Y-56267000D01*
X101644554Y-56341438D01*
X101831324Y-56848476D01*
X101692416Y-57096515D01*
X101646188Y-57487091D01*
X101741816Y-57826160D01*
X101523711Y-57549496D01*
X101180556Y-57357320D01*
X100789980Y-57311092D01*
X100411445Y-57417850D01*
X100102578Y-57661341D01*
X99910402Y-58004496D01*
X99864174Y-58395072D01*
X99959801Y-58734139D01*
X99741698Y-58457477D01*
X99398543Y-58265301D01*
X99007967Y-58219073D01*
X98629432Y-58325831D01*
X98320565Y-58569322D01*
X98182620Y-58815641D01*
X96026167Y-54488002D01*
X95029394Y-52480333D01*
X100136508Y-52480333D01*
X100419383Y-52737784D01*
X101479105Y-52789802D01*
X101740617Y-52737784D01*
X102023492Y-52480333D01*
X101080000Y-51536841D01*
X100136508Y-52480333D01*
X95029394Y-52480333D01*
X94640565Y-51697168D01*
X94052136Y-50499105D01*
X98390198Y-50499105D01*
X98442216Y-50760617D01*
X98699667Y-51043492D01*
X99643159Y-50100000D01*
X102516841Y-50100000D01*
X103460333Y-51043492D01*
X103717784Y-50760617D01*
X103769802Y-49700895D01*
X103717784Y-49439383D01*
X103460333Y-49156508D01*
X102516841Y-50100000D01*
X99643159Y-50100000D01*
X98699667Y-49156508D01*
X98442216Y-49439383D01*
X98390198Y-50499105D01*
X94052136Y-50499105D01*
X93438863Y-49250462D01*
X92744992Y-47812916D01*
X92845993Y-47824870D01*
X93219010Y-47719667D01*
X100136508Y-47719667D01*
X101080000Y-48663159D01*
X102023492Y-47719667D01*
X101740617Y-47462216D01*
X100680895Y-47410198D01*
X100419383Y-47462216D01*
X100136508Y-47719667D01*
X93219010Y-47719667D01*
X93224528Y-47718111D01*
X93533395Y-47474621D01*
X93725571Y-47131466D01*
X93771799Y-46740890D01*
X93676171Y-46401821D01*
X93894275Y-46678485D01*
X94237429Y-46870661D01*
X94628006Y-46916889D01*
X95006541Y-46810130D01*
X95315408Y-46566640D01*
X95507584Y-46223485D01*
X95553812Y-45832909D01*
X95458183Y-45493838D01*
X95676289Y-45770504D01*
X96019443Y-45962680D01*
X96410020Y-46008908D01*
X96788555Y-45902149D01*
X97097422Y-45658659D01*
X97289598Y-45315504D01*
X97335826Y-44924928D01*
X97240198Y-44585859D01*
X97458302Y-44862523D01*
X97801456Y-45054699D01*
X98192033Y-45100927D01*
X98570568Y-44994168D01*
X98879435Y-44750678D01*
X99071611Y-44407523D01*
X99117839Y-44016947D01*
X99022211Y-43677878D01*
X99240315Y-43954542D01*
X99583469Y-44146718D01*
X99974046Y-44192946D01*
X100352581Y-44086187D01*
X100661448Y-43842697D01*
X100853624Y-43499542D01*
X100899852Y-43108966D01*
X100804224Y-42769897D01*
X101022328Y-43046561D01*
X101365482Y-43238737D01*
X101756059Y-43284965D01*
X102134594Y-43178206D01*
X102443461Y-42934716D01*
X102635637Y-42591561D01*
X102681865Y-42200985D01*
X102586237Y-41861916D01*
X102804341Y-42138580D01*
X102820532Y-42147647D01*
X102831620Y-42180745D01*
X102822140Y-42203574D01*
X102821860Y-42525016D01*
X102944611Y-42822097D01*
X103171707Y-43049590D01*
X103468574Y-43172860D01*
X103790016Y-43173140D01*
X104087097Y-43050389D01*
X104314590Y-42823293D01*
X104437860Y-42526426D01*
X104438140Y-42204984D01*
X104315389Y-41907903D01*
X104300421Y-41892908D01*
X104417650Y-41683580D01*
X104448165Y-41425765D01*
X104719995Y-41959263D01*
G36*
X104651407Y-38756299D02*
X105043452Y-38556543D01*
X105081324Y-38562083D01*
X105174378Y-38587008D01*
X107913164Y-38766275D01*
X113174263Y-39281426D01*
X113223177Y-39411171D01*
X113362768Y-39562124D01*
X113550091Y-39646875D01*
X113755628Y-39652070D01*
X114294353Y-39557078D01*
X114491867Y-39688878D01*
X113784122Y-39813673D01*
X113604880Y-39881247D01*
X113453927Y-40020838D01*
X113369176Y-40208161D01*
X113363981Y-40413698D01*
X113485535Y-41103063D01*
X113553109Y-41282305D01*
X113615701Y-41349992D01*
X111966121Y-40853470D01*
X111833293Y-40720410D01*
X111536426Y-40597140D01*
X111214984Y-40596860D01*
X110917903Y-40719611D01*
X110690410Y-40946707D01*
X110567140Y-41243574D01*
X110566860Y-41565016D01*
X110689611Y-41862097D01*
X110916707Y-42089590D01*
X111213574Y-42212860D01*
X111535016Y-42213140D01*
X111577748Y-42195483D01*
X114634850Y-43115667D01*
X123766755Y-47229305D01*
X123632903Y-47284611D01*
X123405410Y-47511707D01*
X123282140Y-47808574D01*
X123282033Y-47930970D01*
X122865861Y-47572661D01*
X122785389Y-47377903D01*
X122558293Y-47150410D01*
X122261426Y-47027140D01*
X121939984Y-47026860D01*
X121642903Y-47149611D01*
X121415410Y-47376707D01*
X121292140Y-47673574D01*
X121291860Y-47995016D01*
X121414611Y-48292097D01*
X121641707Y-48519590D01*
X121938574Y-48642860D01*
X121967786Y-48642885D01*
X122867613Y-49417603D01*
X122261991Y-49090440D01*
X122183376Y-49066212D01*
X122109530Y-49029966D01*
X121092042Y-48759357D01*
X120978293Y-48645410D01*
X120681426Y-48522140D01*
X120359984Y-48521860D01*
X120062903Y-48644611D01*
X120032505Y-48674956D01*
X119870000Y-48642048D01*
X118570000Y-48642048D01*
X118381747Y-48677470D01*
X118208847Y-48788728D01*
X118092855Y-48958488D01*
X118052048Y-49160000D01*
X118052048Y-49860000D01*
X118087470Y-50048253D01*
X118198728Y-50221153D01*
X118368488Y-50337145D01*
X118570000Y-50377952D01*
X118758645Y-50377952D01*
X119229488Y-51890358D01*
X119068847Y-51993728D01*
X118952855Y-52163488D01*
X118912048Y-52365000D01*
X118912048Y-52934926D01*
X118891673Y-52955301D01*
X118795000Y-53188690D01*
X118795000Y-53318750D01*
X118953750Y-53477500D01*
X119207054Y-53477500D01*
X119228488Y-53492145D01*
X119430000Y-53532952D01*
X120986500Y-53532952D01*
X120986500Y-53668322D01*
X120969005Y-53747048D01*
X119430000Y-53747048D01*
X119241747Y-53782470D01*
X119210619Y-53802500D01*
X118953750Y-53802500D01*
X118795000Y-53961250D01*
X118795000Y-54091310D01*
X118891673Y-54324699D01*
X118912048Y-54345074D01*
X118912048Y-54675155D01*
X118807952Y-54606787D01*
X118807952Y-54265000D01*
X118772530Y-54076747D01*
X118661272Y-53903847D01*
X118491512Y-53787855D01*
X118290000Y-53747048D01*
X116730000Y-53747048D01*
X116658697Y-53760465D01*
X113281716Y-53269768D01*
X113943261Y-52365000D01*
X116212048Y-52365000D01*
X116212048Y-53015000D01*
X116247470Y-53203253D01*
X116358728Y-53376153D01*
X116528488Y-53492145D01*
X116730000Y-53532952D01*
X118290000Y-53532952D01*
X118478253Y-53497530D01*
X118651153Y-53386272D01*
X118767145Y-53216512D01*
X118807952Y-53015000D01*
X118807952Y-52365000D01*
X118772530Y-52176747D01*
X118661272Y-52003847D01*
X118491512Y-51887855D01*
X118290000Y-51847048D01*
X116730000Y-51847048D01*
X116541747Y-51882470D01*
X116368847Y-51993728D01*
X116252855Y-52163488D01*
X116212048Y-52365000D01*
X113943261Y-52365000D01*
X114193853Y-52022276D01*
X114240397Y-51922114D01*
X114294350Y-51825735D01*
X114297477Y-51799278D01*
X114308704Y-51775117D01*
X114313374Y-51664759D01*
X114326337Y-51555077D01*
X114046337Y-48005078D01*
X114029030Y-47943750D01*
X117935000Y-47943750D01*
X117935000Y-48086309D01*
X118031673Y-48319698D01*
X118210301Y-48498327D01*
X118443690Y-48595000D01*
X118736250Y-48595000D01*
X118895000Y-48436250D01*
X118895000Y-47785000D01*
X119545000Y-47785000D01*
X119545000Y-48436250D01*
X119703750Y-48595000D01*
X119996310Y-48595000D01*
X120229699Y-48498327D01*
X120408327Y-48319698D01*
X120505000Y-48086309D01*
X120505000Y-47943750D01*
X120346250Y-47785000D01*
X119545000Y-47785000D01*
X118895000Y-47785000D01*
X118093750Y-47785000D01*
X117935000Y-47943750D01*
X114029030Y-47943750D01*
X114018503Y-47906450D01*
X114000510Y-47805563D01*
X113737718Y-47133691D01*
X117935000Y-47133691D01*
X117935000Y-47276250D01*
X118093750Y-47435000D01*
X118895000Y-47435000D01*
X118895000Y-46783750D01*
X119545000Y-46783750D01*
X119545000Y-47435000D01*
X120346250Y-47435000D01*
X120505000Y-47276250D01*
X120505000Y-47133691D01*
X120408327Y-46900302D01*
X120229699Y-46721673D01*
X119996310Y-46625000D01*
X119703750Y-46625000D01*
X119545000Y-46783750D01*
X118895000Y-46783750D01*
X118736250Y-46625000D01*
X118443690Y-46625000D01*
X118210301Y-46721673D01*
X118031673Y-46900302D01*
X117935000Y-47133691D01*
X113737718Y-47133691D01*
X113611320Y-46810535D01*
X113902097Y-46690389D01*
X114129590Y-46463293D01*
X114252860Y-46166426D01*
X114253140Y-45844984D01*
X114130389Y-45547903D01*
X113903293Y-45320410D01*
X113606426Y-45197140D01*
X113520141Y-45197065D01*
X113481477Y-45081857D01*
X113131477Y-44475639D01*
X113006673Y-44330318D01*
X112823872Y-44236212D01*
X112618860Y-44220639D01*
X112423941Y-44286055D01*
X111298107Y-44936055D01*
X111274583Y-44895311D01*
X111383970Y-44832157D01*
X111418560Y-44812186D01*
X111476667Y-44595329D01*
X111151042Y-44031330D01*
X110869583Y-44193830D01*
X110694583Y-43890722D01*
X110976042Y-43728222D01*
X110963403Y-43706330D01*
X111713958Y-43706330D01*
X112039583Y-44270329D01*
X112256440Y-44328436D01*
X112291030Y-44308466D01*
X112509804Y-44182156D01*
X112663588Y-43981740D01*
X112728970Y-43737729D01*
X112695997Y-43487272D01*
X112624718Y-43363812D01*
X112407861Y-43305705D01*
X111713958Y-43706330D01*
X110963403Y-43706330D01*
X110650417Y-43164223D01*
X110433560Y-43106116D01*
X110398970Y-43126086D01*
X110289583Y-43189241D01*
X110210582Y-43052407D01*
X109827259Y-43273718D01*
X109861058Y-42988157D01*
X109819054Y-42839223D01*
X111213333Y-42839223D01*
X111538958Y-43403222D01*
X112232861Y-43002597D01*
X112290968Y-42785740D01*
X112219688Y-42662280D01*
X112019272Y-42508496D01*
X111775261Y-42443113D01*
X111524804Y-42476086D01*
X111306030Y-42602395D01*
X111271440Y-42622366D01*
X111213333Y-42839223D01*
X109819054Y-42839223D01*
X109754299Y-42609622D01*
X109510809Y-42300755D01*
X109167654Y-42108579D01*
X108777078Y-42062351D01*
X108438009Y-42157979D01*
X108714673Y-41939875D01*
X108906849Y-41596721D01*
X108953077Y-41206144D01*
X108846318Y-40827609D01*
X108602828Y-40518742D01*
X108259673Y-40326566D01*
X107869097Y-40280338D01*
X107490561Y-40387097D01*
X106691919Y-40794025D01*
X106450528Y-40320268D01*
X106453779Y-40275139D01*
X106301200Y-39815909D01*
X106050562Y-39726883D01*
X105332393Y-40092809D01*
X105519891Y-40460795D01*
X105074387Y-40687791D01*
X104886889Y-40319805D01*
X104664138Y-40433302D01*
X103983152Y-39096792D01*
X104205903Y-38983295D01*
X104018405Y-38615309D01*
X104463909Y-38388313D01*
X104651407Y-38756299D01*
X104651407Y-38756299D01*
G37*
X104651407Y-38756299D02*
X105043452Y-38556543D01*
X105081324Y-38562083D01*
X105174378Y-38587008D01*
X107913164Y-38766275D01*
X113174263Y-39281426D01*
X113223177Y-39411171D01*
X113362768Y-39562124D01*
X113550091Y-39646875D01*
X113755628Y-39652070D01*
X114294353Y-39557078D01*
X114491867Y-39688878D01*
X113784122Y-39813673D01*
X113604880Y-39881247D01*
X113453927Y-40020838D01*
X113369176Y-40208161D01*
X113363981Y-40413698D01*
X113485535Y-41103063D01*
X113553109Y-41282305D01*
X113615701Y-41349992D01*
X111966121Y-40853470D01*
X111833293Y-40720410D01*
X111536426Y-40597140D01*
X111214984Y-40596860D01*
X110917903Y-40719611D01*
X110690410Y-40946707D01*
X110567140Y-41243574D01*
X110566860Y-41565016D01*
X110689611Y-41862097D01*
X110916707Y-42089590D01*
X111213574Y-42212860D01*
X111535016Y-42213140D01*
X111577748Y-42195483D01*
X114634850Y-43115667D01*
X123766755Y-47229305D01*
X123632903Y-47284611D01*
X123405410Y-47511707D01*
X123282140Y-47808574D01*
X123282033Y-47930970D01*
X122865861Y-47572661D01*
X122785389Y-47377903D01*
X122558293Y-47150410D01*
X122261426Y-47027140D01*
X121939984Y-47026860D01*
X121642903Y-47149611D01*
X121415410Y-47376707D01*
X121292140Y-47673574D01*
X121291860Y-47995016D01*
X121414611Y-48292097D01*
X121641707Y-48519590D01*
X121938574Y-48642860D01*
X121967786Y-48642885D01*
X122867613Y-49417603D01*
X122261991Y-49090440D01*
X122183376Y-49066212D01*
X122109530Y-49029966D01*
X121092042Y-48759357D01*
X120978293Y-48645410D01*
X120681426Y-48522140D01*
X120359984Y-48521860D01*
X120062903Y-48644611D01*
X120032505Y-48674956D01*
X119870000Y-48642048D01*
X118570000Y-48642048D01*
X118381747Y-48677470D01*
X118208847Y-48788728D01*
X118092855Y-48958488D01*
X118052048Y-49160000D01*
X118052048Y-49860000D01*
X118087470Y-50048253D01*
X118198728Y-50221153D01*
X118368488Y-50337145D01*
X118570000Y-50377952D01*
X118758645Y-50377952D01*
X119229488Y-51890358D01*
X119068847Y-51993728D01*
X118952855Y-52163488D01*
X118912048Y-52365000D01*
X118912048Y-52934926D01*
X118891673Y-52955301D01*
X118795000Y-53188690D01*
X118795000Y-53318750D01*
X118953750Y-53477500D01*
X119207054Y-53477500D01*
X119228488Y-53492145D01*
X119430000Y-53532952D01*
X120986500Y-53532952D01*
X120986500Y-53668322D01*
X120969005Y-53747048D01*
X119430000Y-53747048D01*
X119241747Y-53782470D01*
X119210619Y-53802500D01*
X118953750Y-53802500D01*
X118795000Y-53961250D01*
X118795000Y-54091310D01*
X118891673Y-54324699D01*
X118912048Y-54345074D01*
X118912048Y-54675155D01*
X118807952Y-54606787D01*
X118807952Y-54265000D01*
X118772530Y-54076747D01*
X118661272Y-53903847D01*
X118491512Y-53787855D01*
X118290000Y-53747048D01*
X116730000Y-53747048D01*
X116658697Y-53760465D01*
X113281716Y-53269768D01*
X113943261Y-52365000D01*
X116212048Y-52365000D01*
X116212048Y-53015000D01*
X116247470Y-53203253D01*
X116358728Y-53376153D01*
X116528488Y-53492145D01*
X116730000Y-53532952D01*
X118290000Y-53532952D01*
X118478253Y-53497530D01*
X118651153Y-53386272D01*
X118767145Y-53216512D01*
X118807952Y-53015000D01*
X118807952Y-52365000D01*
X118772530Y-52176747D01*
X118661272Y-52003847D01*
X118491512Y-51887855D01*
X118290000Y-51847048D01*
X116730000Y-51847048D01*
X116541747Y-51882470D01*
X116368847Y-51993728D01*
X116252855Y-52163488D01*
X116212048Y-52365000D01*
X113943261Y-52365000D01*
X114193853Y-52022276D01*
X114240397Y-51922114D01*
X114294350Y-51825735D01*
X114297477Y-51799278D01*
X114308704Y-51775117D01*
X114313374Y-51664759D01*
X114326337Y-51555077D01*
X114046337Y-48005078D01*
X114029030Y-47943750D01*
X117935000Y-47943750D01*
X117935000Y-48086309D01*
X118031673Y-48319698D01*
X118210301Y-48498327D01*
X118443690Y-48595000D01*
X118736250Y-48595000D01*
X118895000Y-48436250D01*
X118895000Y-47785000D01*
X119545000Y-47785000D01*
X119545000Y-48436250D01*
X119703750Y-48595000D01*
X119996310Y-48595000D01*
X120229699Y-48498327D01*
X120408327Y-48319698D01*
X120505000Y-48086309D01*
X120505000Y-47943750D01*
X120346250Y-47785000D01*
X119545000Y-47785000D01*
X118895000Y-47785000D01*
X118093750Y-47785000D01*
X117935000Y-47943750D01*
X114029030Y-47943750D01*
X114018503Y-47906450D01*
X114000510Y-47805563D01*
X113737718Y-47133691D01*
X117935000Y-47133691D01*
X117935000Y-47276250D01*
X118093750Y-47435000D01*
X118895000Y-47435000D01*
X118895000Y-46783750D01*
X119545000Y-46783750D01*
X119545000Y-47435000D01*
X120346250Y-47435000D01*
X120505000Y-47276250D01*
X120505000Y-47133691D01*
X120408327Y-46900302D01*
X120229699Y-46721673D01*
X119996310Y-46625000D01*
X119703750Y-46625000D01*
X119545000Y-46783750D01*
X118895000Y-46783750D01*
X118736250Y-46625000D01*
X118443690Y-46625000D01*
X118210301Y-46721673D01*
X118031673Y-46900302D01*
X117935000Y-47133691D01*
X113737718Y-47133691D01*
X113611320Y-46810535D01*
X113902097Y-46690389D01*
X114129590Y-46463293D01*
X114252860Y-46166426D01*
X114253140Y-45844984D01*
X114130389Y-45547903D01*
X113903293Y-45320410D01*
X113606426Y-45197140D01*
X113520141Y-45197065D01*
X113481477Y-45081857D01*
X113131477Y-44475639D01*
X113006673Y-44330318D01*
X112823872Y-44236212D01*
X112618860Y-44220639D01*
X112423941Y-44286055D01*
X111298107Y-44936055D01*
X111274583Y-44895311D01*
X111383970Y-44832157D01*
X111418560Y-44812186D01*
X111476667Y-44595329D01*
X111151042Y-44031330D01*
X110869583Y-44193830D01*
X110694583Y-43890722D01*
X110976042Y-43728222D01*
X110963403Y-43706330D01*
X111713958Y-43706330D01*
X112039583Y-44270329D01*
X112256440Y-44328436D01*
X112291030Y-44308466D01*
X112509804Y-44182156D01*
X112663588Y-43981740D01*
X112728970Y-43737729D01*
X112695997Y-43487272D01*
X112624718Y-43363812D01*
X112407861Y-43305705D01*
X111713958Y-43706330D01*
X110963403Y-43706330D01*
X110650417Y-43164223D01*
X110433560Y-43106116D01*
X110398970Y-43126086D01*
X110289583Y-43189241D01*
X110210582Y-43052407D01*
X109827259Y-43273718D01*
X109861058Y-42988157D01*
X109819054Y-42839223D01*
X111213333Y-42839223D01*
X111538958Y-43403222D01*
X112232861Y-43002597D01*
X112290968Y-42785740D01*
X112219688Y-42662280D01*
X112019272Y-42508496D01*
X111775261Y-42443113D01*
X111524804Y-42476086D01*
X111306030Y-42602395D01*
X111271440Y-42622366D01*
X111213333Y-42839223D01*
X109819054Y-42839223D01*
X109754299Y-42609622D01*
X109510809Y-42300755D01*
X109167654Y-42108579D01*
X108777078Y-42062351D01*
X108438009Y-42157979D01*
X108714673Y-41939875D01*
X108906849Y-41596721D01*
X108953077Y-41206144D01*
X108846318Y-40827609D01*
X108602828Y-40518742D01*
X108259673Y-40326566D01*
X107869097Y-40280338D01*
X107490561Y-40387097D01*
X106691919Y-40794025D01*
X106450528Y-40320268D01*
X106453779Y-40275139D01*
X106301200Y-39815909D01*
X106050562Y-39726883D01*
X105332393Y-40092809D01*
X105519891Y-40460795D01*
X105074387Y-40687791D01*
X104886889Y-40319805D01*
X104664138Y-40433302D01*
X103983152Y-39096792D01*
X104205903Y-38983295D01*
X104018405Y-38615309D01*
X104463909Y-38388313D01*
X104651407Y-38756299D01*
G36*
X116924750Y-34137405D02*
X116842020Y-34267264D01*
X116804241Y-34481519D01*
X116933013Y-34665424D01*
X117771330Y-34813242D01*
X117814742Y-34567040D01*
X118553348Y-34697276D01*
X118509936Y-34943478D01*
X119348254Y-35091296D01*
X119530232Y-34963874D01*
X119531197Y-34967973D01*
X120005103Y-36980131D01*
X120053477Y-37086264D01*
X120095702Y-37195008D01*
X120226972Y-37401289D01*
X120226860Y-37530016D01*
X120349611Y-37827097D01*
X120576707Y-38054590D01*
X120873574Y-38177860D01*
X121195016Y-38178140D01*
X121352764Y-38112960D01*
X121391167Y-38204493D01*
X121538206Y-38348202D01*
X121729571Y-38423381D01*
X123206783Y-38683853D01*
X123398327Y-38681659D01*
X123539226Y-38622544D01*
X123549870Y-41379132D01*
X123442140Y-41638574D01*
X123441897Y-41917517D01*
X116172610Y-37300143D01*
X116552851Y-37323209D01*
X116565609Y-37353617D01*
X116712648Y-37497326D01*
X116904013Y-37572505D01*
X118381225Y-37832977D01*
X118572769Y-37830783D01*
X118762361Y-37751239D01*
X118906070Y-37604200D01*
X118981249Y-37412835D01*
X119154897Y-36428027D01*
X119152740Y-36239694D01*
X119216690Y-36194916D01*
X119352422Y-35981860D01*
X119390201Y-35767605D01*
X119261429Y-35583700D01*
X118423112Y-35435882D01*
X118379700Y-35682084D01*
X117641094Y-35551848D01*
X117684506Y-35305646D01*
X116846188Y-35157828D01*
X116662284Y-35286599D01*
X116624505Y-35500854D01*
X116679181Y-35747485D01*
X116725751Y-35813992D01*
X116679652Y-35931334D01*
X115731689Y-35873829D01*
X115718293Y-35860410D01*
X115421426Y-35737140D01*
X115099984Y-35736860D01*
X114802903Y-35859611D01*
X114575410Y-36086707D01*
X114452140Y-36383574D01*
X114451860Y-36705016D01*
X114558328Y-36962688D01*
X113516570Y-36946824D01*
X112170346Y-36864778D01*
X112220431Y-36821605D01*
X112311668Y-36637355D01*
X112324033Y-36432124D01*
X112184860Y-35441856D01*
X112123583Y-35260364D01*
X112056363Y-35182381D01*
X112095949Y-35102439D01*
X112108314Y-34897208D01*
X111969141Y-33906940D01*
X111916311Y-33750467D01*
X116924750Y-34137405D01*
X116924750Y-34137405D01*
G37*
X116924750Y-34137405D02*
X116842020Y-34267264D01*
X116804241Y-34481519D01*
X116933013Y-34665424D01*
X117771330Y-34813242D01*
X117814742Y-34567040D01*
X118553348Y-34697276D01*
X118509936Y-34943478D01*
X119348254Y-35091296D01*
X119530232Y-34963874D01*
X119531197Y-34967973D01*
X120005103Y-36980131D01*
X120053477Y-37086264D01*
X120095702Y-37195008D01*
X120226972Y-37401289D01*
X120226860Y-37530016D01*
X120349611Y-37827097D01*
X120576707Y-38054590D01*
X120873574Y-38177860D01*
X121195016Y-38178140D01*
X121352764Y-38112960D01*
X121391167Y-38204493D01*
X121538206Y-38348202D01*
X121729571Y-38423381D01*
X123206783Y-38683853D01*
X123398327Y-38681659D01*
X123539226Y-38622544D01*
X123549870Y-41379132D01*
X123442140Y-41638574D01*
X123441897Y-41917517D01*
X116172610Y-37300143D01*
X116552851Y-37323209D01*
X116565609Y-37353617D01*
X116712648Y-37497326D01*
X116904013Y-37572505D01*
X118381225Y-37832977D01*
X118572769Y-37830783D01*
X118762361Y-37751239D01*
X118906070Y-37604200D01*
X118981249Y-37412835D01*
X119154897Y-36428027D01*
X119152740Y-36239694D01*
X119216690Y-36194916D01*
X119352422Y-35981860D01*
X119390201Y-35767605D01*
X119261429Y-35583700D01*
X118423112Y-35435882D01*
X118379700Y-35682084D01*
X117641094Y-35551848D01*
X117684506Y-35305646D01*
X116846188Y-35157828D01*
X116662284Y-35286599D01*
X116624505Y-35500854D01*
X116679181Y-35747485D01*
X116725751Y-35813992D01*
X116679652Y-35931334D01*
X115731689Y-35873829D01*
X115718293Y-35860410D01*
X115421426Y-35737140D01*
X115099984Y-35736860D01*
X114802903Y-35859611D01*
X114575410Y-36086707D01*
X114452140Y-36383574D01*
X114451860Y-36705016D01*
X114558328Y-36962688D01*
X113516570Y-36946824D01*
X112170346Y-36864778D01*
X112220431Y-36821605D01*
X112311668Y-36637355D01*
X112324033Y-36432124D01*
X112184860Y-35441856D01*
X112123583Y-35260364D01*
X112056363Y-35182381D01*
X112095949Y-35102439D01*
X112108314Y-34897208D01*
X111969141Y-33906940D01*
X111916311Y-33750467D01*
X116924750Y-34137405D01*
M02*
