G04 #@! TF.FileFunction,Copper,L2,Bot,Signal*
%FSLAX46Y46*%
G04 Gerber Fmt 4.6, Leading zero omitted, Abs format (unit mm)*
G04 Created by KiCad (PCBNEW 4.0.7-e2-6376~58~ubuntu16.04.1) date Fri Apr 20 01:19:44 2018*
%MOMM*%
%LPD*%
G01*
G04 APERTURE LIST*
%ADD10C,0.100000*%
%ADD11C,2.000000*%
%ADD12R,1.600000X1.600000*%
%ADD13C,1.600000*%
%ADD14C,4.500000*%
%ADD15O,1.500000X1.200000*%
%ADD16O,1.700000X1.700000*%
%ADD17C,13.000000*%
%ADD18R,2.600000X2.000000*%
%ADD19O,2.600000X2.000000*%
%ADD20C,3.000000*%
%ADD21C,0.600000*%
%ADD22C,0.381000*%
%ADD23C,1.143000*%
%ADD24C,0.254000*%
G04 APERTURE END LIST*
D10*
G36*
X176179268Y-48655828D02*
X178589946Y-49629805D01*
X177840732Y-51484172D01*
X175430054Y-50510195D01*
X176179268Y-48655828D01*
X176179268Y-48655828D01*
G37*
D11*
X176336654Y-52537429D02*
X175780344Y-52312665D01*
X175385154Y-54892476D02*
X174828844Y-54667712D01*
X174433653Y-57247523D02*
X173877343Y-57022759D01*
D12*
X115900000Y-79680000D03*
D13*
X115900000Y-77180000D03*
D12*
X114300000Y-80350937D03*
D13*
X117500000Y-76509063D03*
D14*
X167330000Y-69340000D03*
X161330000Y-69340000D03*
D15*
X170290000Y-81120000D03*
X170290000Y-76080000D03*
D16*
X173290000Y-82050000D03*
X173290000Y-75150000D03*
D17*
X174680000Y-40850000D03*
D18*
X135128000Y-46228000D03*
D19*
X135128000Y-48768000D03*
X135128000Y-51308000D03*
X135128000Y-53848000D03*
X135128000Y-56388000D03*
D20*
X99420515Y-73880000D03*
X111285064Y-67030000D03*
X111720000Y-72783332D03*
D21*
X139110000Y-66360000D03*
X111200000Y-58060000D03*
X117480000Y-60280000D03*
X112760000Y-40580000D03*
X126340000Y-71970000D03*
X105670000Y-74990000D03*
X145080000Y-60990000D03*
X149620000Y-89170000D03*
X102320000Y-49840000D03*
X117350000Y-65210000D03*
X119080000Y-53785000D03*
X164900000Y-61525000D03*
X163475000Y-44730000D03*
X156060000Y-37570000D03*
X150285000Y-37350000D03*
X139210000Y-37185000D03*
X147220000Y-37675000D03*
X128750000Y-36350000D03*
X119480000Y-35785000D03*
X125365000Y-36460000D03*
X116350000Y-35560000D03*
X109515000Y-39245000D03*
X107690000Y-35800000D03*
X135480000Y-36575000D03*
X109600000Y-62060000D03*
X107440000Y-63080000D03*
X121090000Y-58085000D03*
X118530000Y-67140000D03*
X120005000Y-64315000D03*
X122935000Y-53765000D03*
X151770000Y-74825000D03*
X166340000Y-48960000D03*
X162280000Y-37170000D03*
X152400000Y-36580000D03*
X141110000Y-36530000D03*
X130830000Y-35620000D03*
X121550000Y-35620000D03*
X109210000Y-34310000D03*
X102920000Y-34750000D03*
X124250000Y-41800000D03*
X124090000Y-47970000D03*
X119580000Y-87820000D03*
X118190000Y-83260000D03*
X128190000Y-88510000D03*
X130048000Y-61976000D03*
X123430000Y-55320000D03*
X134700000Y-82840000D03*
X138330000Y-76975000D03*
X113445000Y-46005000D03*
X114970000Y-41230000D03*
X104880000Y-59080000D03*
X102570000Y-61500000D03*
X105380000Y-55380000D03*
X100570000Y-62775000D03*
X116800000Y-55820000D03*
X111420000Y-55260000D03*
X140515000Y-83170000D03*
X136370000Y-78840000D03*
X122100000Y-47835000D03*
X124905000Y-50250000D03*
X123495000Y-58225000D03*
X103630000Y-42365000D03*
X127600000Y-46910000D03*
X130480000Y-58395000D03*
X143610000Y-76585000D03*
X160430000Y-86110000D03*
X98005000Y-40050000D03*
X123425000Y-52650000D03*
X107420000Y-37130000D03*
X93840000Y-36050000D03*
X171095000Y-48790000D03*
X168960000Y-46025000D03*
X108800000Y-35410000D03*
X115260000Y-36545000D03*
X121035000Y-37370000D03*
X125425000Y-37780000D03*
X111375000Y-41405000D03*
X91630000Y-43930000D03*
X109640000Y-56160000D03*
X117220000Y-57180000D03*
X120520000Y-49330000D03*
X94975000Y-41960000D03*
X129640000Y-56010000D03*
X127630000Y-53890000D03*
X127000000Y-56896000D03*
X126492000Y-54356000D03*
X96255000Y-41910000D03*
X120585000Y-50370000D03*
X115760000Y-58240000D03*
X117420000Y-58250000D03*
X105140000Y-63040000D03*
X112640000Y-59280000D03*
D22*
X96324000Y-68300000D02*
X96324000Y-67284000D01*
X96324000Y-67284000D02*
X96832000Y-67792000D01*
X96832000Y-67792000D02*
X95816000Y-67792000D01*
X95816000Y-67792000D02*
X95308000Y-68300000D01*
X95308000Y-68300000D02*
X95308000Y-68808000D01*
X95308000Y-68808000D02*
X95816000Y-68808000D01*
X95816000Y-68808000D02*
X96324000Y-68300000D01*
X135730848Y-62799367D02*
X139110000Y-66360000D01*
X178170000Y-53530000D02*
X178650000Y-51610000D01*
X178650000Y-51610000D02*
X178470000Y-50640000D01*
X178470000Y-50640000D02*
X177010000Y-50070000D01*
X177890000Y-53450000D02*
X178330000Y-51550000D01*
X178330000Y-51550000D02*
X178190000Y-50860000D01*
X178190000Y-50860000D02*
X177010000Y-50070000D01*
X105670000Y-74990000D02*
X110540000Y-75780000D01*
X110540000Y-75780000D02*
X121760000Y-74200000D01*
X121760000Y-74200000D02*
X126340000Y-71970000D01*
X117869235Y-60342358D02*
X123600000Y-64760000D01*
X123600000Y-64760000D02*
X126340000Y-71970000D01*
X99420515Y-73880000D02*
X105670000Y-74990000D01*
X117480000Y-60280000D02*
X113740000Y-58100000D01*
X113740000Y-58100000D02*
X111200000Y-58060000D01*
X117480000Y-60280000D02*
X117869235Y-60342358D01*
X117869235Y-60342358D02*
X117922116Y-60350830D01*
X117922116Y-60350830D02*
X117980000Y-60200000D01*
X117980000Y-60200000D02*
X117980000Y-59859200D01*
X166700000Y-68700000D02*
X156380000Y-52450000D01*
X156380000Y-52450000D02*
X140550000Y-41960000D01*
X140550000Y-41960000D02*
X134510000Y-40010000D01*
X134510000Y-40010000D02*
X120640000Y-39060000D01*
X120640000Y-39060000D02*
X112650000Y-40400000D01*
X112650000Y-40400000D02*
X112760000Y-40580000D01*
X172740000Y-75870000D02*
X174230000Y-62470000D01*
X174230000Y-62470000D02*
X175660000Y-59680000D01*
X175660000Y-59680000D02*
X178170000Y-53530000D01*
X135128000Y-46228000D02*
X125200000Y-40770000D01*
X125200000Y-40770000D02*
X120890000Y-39890000D01*
X120890000Y-39890000D02*
X113920000Y-39660000D01*
X113920000Y-39660000D02*
X109515000Y-39245000D01*
X166700000Y-68700000D02*
X148020000Y-50140000D01*
X148020000Y-50140000D02*
X135128000Y-41433051D01*
X166700000Y-68700000D02*
X173000000Y-62610000D01*
X173000000Y-62610000D02*
X175740000Y-59010000D01*
X175740000Y-59010000D02*
X177890000Y-53450000D01*
X169740000Y-76180000D02*
X166700000Y-68700000D01*
X172740000Y-75870000D02*
X166700000Y-68700000D01*
X145080000Y-60990000D02*
X142230000Y-76390000D01*
X142230000Y-76390000D02*
X143520000Y-78600000D01*
X143520000Y-78600000D02*
X160660000Y-88070000D01*
X160660000Y-88070000D02*
X166690000Y-85050000D01*
X166690000Y-85050000D02*
X169740000Y-81020000D01*
X126340000Y-71970000D02*
X134280000Y-67670000D01*
X134280000Y-67670000D02*
X133940000Y-68120000D01*
X133940000Y-68120000D02*
X134124212Y-67782278D01*
X134124212Y-67782278D02*
X134124212Y-67782277D01*
X145080000Y-60990000D02*
X135730848Y-62799367D01*
X135730848Y-62799367D02*
X131052312Y-63704817D01*
X116036773Y-53068680D02*
X118460728Y-56979306D01*
X118460728Y-56979306D02*
X120980000Y-60180000D01*
X120980000Y-60180000D02*
X131052312Y-63704817D01*
X131052312Y-63704817D02*
X131210000Y-63760000D01*
X131210000Y-63760000D02*
X134124212Y-67782277D01*
X134124212Y-67782277D02*
X149620000Y-89170000D01*
X102320000Y-49840000D02*
X116036773Y-53068680D01*
X116036773Y-53068680D02*
X119080000Y-53785000D01*
X135128000Y-46228000D02*
X135128000Y-41433051D01*
X135128000Y-41433051D02*
X135128000Y-41267000D01*
X135128000Y-41267000D02*
X139210000Y-37185000D01*
X117350000Y-65210000D02*
X117980000Y-59859200D01*
X117980000Y-59859200D02*
X118100000Y-58840000D01*
X118100000Y-58840000D02*
X119080000Y-53785000D01*
X164900000Y-61525000D02*
X166700000Y-68700000D01*
X156060000Y-37570000D02*
X161435000Y-37970000D01*
X161435000Y-37970000D02*
X163475000Y-44730000D01*
X156060000Y-37570000D02*
X151935000Y-37655000D01*
X151935000Y-37655000D02*
X151955000Y-37655000D01*
X151955000Y-37655000D02*
X150285000Y-37350000D01*
X139210000Y-37185000D02*
X142140000Y-37675000D01*
X142140000Y-37675000D02*
X147220000Y-37675000D01*
X128750000Y-36350000D02*
X131695000Y-36760000D01*
X119480000Y-35785000D02*
X121925000Y-36735000D01*
X121925000Y-36735000D02*
X125365000Y-36460000D01*
X116350000Y-35560000D02*
X116435000Y-37430000D01*
X116435000Y-37430000D02*
X109515000Y-39245000D01*
X107690000Y-35800000D02*
X109515000Y-39245000D01*
X131695000Y-36760000D02*
X135480000Y-36575000D01*
X109600000Y-62060000D02*
X107440000Y-63080000D01*
X144905000Y-57605000D02*
X160700000Y-68700000D01*
X121090000Y-58085000D02*
X122935000Y-53765000D01*
X118530000Y-67140000D02*
X120005000Y-64315000D01*
X122935000Y-53765000D02*
X124135000Y-53400000D01*
X124135000Y-53400000D02*
X124440000Y-52200000D01*
D23*
X151770000Y-74825000D02*
X160700000Y-68700000D01*
D22*
X162280000Y-37170000D02*
X166340000Y-48960000D01*
X152400000Y-36580000D02*
X162280000Y-37170000D01*
X141110000Y-36530000D02*
X152400000Y-36580000D01*
X130830000Y-35620000D02*
X135030000Y-35540000D01*
X135030000Y-35540000D02*
X141110000Y-36530000D01*
X121550000Y-35620000D02*
X129000000Y-35460000D01*
X129000000Y-35460000D02*
X130830000Y-35620000D01*
X109210000Y-34310000D02*
X115860000Y-33930000D01*
X120230000Y-34970000D02*
X121550000Y-35620000D01*
X115860000Y-33930000D02*
X120230000Y-34970000D01*
X102920000Y-34750000D02*
X109210000Y-34310000D01*
X124440000Y-52200000D02*
X123119007Y-47734379D01*
X124090000Y-47970000D02*
X123119007Y-47734378D01*
X123119007Y-47734378D02*
X123119007Y-47734379D01*
X123119007Y-47734379D02*
X122850000Y-46825000D01*
X122850000Y-46825000D02*
X124250000Y-41800000D01*
X134615000Y-53890000D02*
X144905000Y-57605000D01*
X119580000Y-87820000D02*
X120926894Y-84696869D01*
X118190000Y-83260000D02*
X120926894Y-84696869D01*
X120926894Y-84696869D02*
X128190000Y-88510000D01*
X122826145Y-58979005D02*
X130048000Y-61976000D01*
X123430000Y-55320000D02*
X122360000Y-57975000D01*
X122360000Y-57975000D02*
X122826145Y-58979005D01*
X122826145Y-58979005D02*
X122880000Y-59095000D01*
X134700000Y-82840000D02*
X135340000Y-78430000D01*
X135340000Y-78430000D02*
X138330000Y-76975000D01*
X113445000Y-46005000D02*
X114970000Y-41230000D01*
X102570000Y-61500000D02*
X104880000Y-59080000D01*
X103009851Y-57367493D02*
X104220000Y-56180000D01*
X104220000Y-56180000D02*
X105380000Y-55380000D01*
X100570000Y-62775000D02*
X103009851Y-57367493D01*
X103009851Y-57367493D02*
X103020000Y-57345000D01*
X103020000Y-57345000D02*
X103020000Y-57365000D01*
X116800000Y-55820000D02*
X111420000Y-55260000D01*
X140515000Y-83170000D02*
X136370000Y-78840000D01*
X120813602Y-47172178D02*
X122100000Y-47835000D01*
X124905000Y-50250000D02*
X125620000Y-53035000D01*
X125620000Y-53035000D02*
X123495000Y-58225000D01*
X103630000Y-42365000D02*
X110985000Y-45455000D01*
X110985000Y-45455000D02*
X113310000Y-46975000D01*
X113310000Y-46975000D02*
X114415000Y-47245000D01*
X114415000Y-47245000D02*
X120813602Y-47172178D01*
X120813602Y-47172178D02*
X121005000Y-47170000D01*
X127600000Y-46910000D02*
X130370000Y-55375000D01*
X130370000Y-55375000D02*
X130480000Y-58395000D01*
X143610000Y-76585000D02*
X160430000Y-86110000D01*
X98005000Y-40050000D02*
X99915000Y-41630000D01*
X99915000Y-41630000D02*
X113965000Y-48000000D01*
X113965000Y-48000000D02*
X120925000Y-48445000D01*
X120925000Y-48445000D02*
X122245000Y-48910000D01*
X122245000Y-48910000D02*
X123425000Y-52650000D01*
X106650000Y-37035000D02*
X107420000Y-37130000D01*
X93840000Y-36050000D02*
X106650000Y-37035000D01*
X171095000Y-48790000D02*
X168960000Y-46025000D01*
X108800000Y-35410000D02*
X115260000Y-36545000D01*
X121035000Y-37370000D02*
X125425000Y-37780000D01*
X100305000Y-40095000D02*
X96140000Y-38530000D01*
X100305000Y-40095000D02*
X111375000Y-41405000D01*
X96140000Y-38530000D02*
X92035000Y-40455000D01*
X92035000Y-40455000D02*
X91645000Y-41920000D01*
X91630000Y-43930000D02*
X91645000Y-41920000D01*
X109640000Y-56160000D02*
X113860000Y-56700000D01*
X113860000Y-56700000D02*
X117220000Y-57180000D01*
X120520000Y-49330000D02*
X114830000Y-49115000D01*
X114830000Y-49115000D02*
X97270000Y-41370000D01*
X97270000Y-41370000D02*
X95950000Y-40845000D01*
X95950000Y-40845000D02*
X95100000Y-41455000D01*
X95100000Y-41455000D02*
X94975000Y-41960000D01*
X129640000Y-56010000D02*
X127630000Y-53890000D01*
X127000000Y-56896000D02*
X126492000Y-54356000D01*
X96255000Y-41910000D02*
X114605000Y-50025000D01*
X114605000Y-50025000D02*
X120585000Y-50370000D01*
X115760000Y-58240000D02*
X117420000Y-58250000D01*
X105140000Y-63040000D02*
X112640000Y-59280000D01*
D24*
G36*
X112526395Y-28668434D02*
X114357763Y-28887373D01*
X116251276Y-29277192D01*
X116258728Y-29277242D01*
X116265663Y-29279974D01*
X119904937Y-29938194D01*
X119936782Y-29937639D01*
X119967467Y-29946183D01*
X123716972Y-30228689D01*
X123747617Y-30224958D01*
X123778033Y-30230212D01*
X127548736Y-30134790D01*
X127579421Y-30127875D01*
X127610805Y-30130032D01*
X131313669Y-29654468D01*
X131327487Y-29649826D01*
X131341830Y-29650169D01*
X132601217Y-29430811D01*
X133568978Y-29303718D01*
X134376178Y-29267327D01*
X135168897Y-29320683D01*
X136095529Y-29471452D01*
X137288034Y-29729024D01*
X137740728Y-29833726D01*
X137743602Y-29833815D01*
X137746233Y-29834972D01*
X138968989Y-30105847D01*
X138974443Y-30105965D01*
X138979472Y-30108072D01*
X140257393Y-30367627D01*
X140262821Y-30367649D01*
X140267863Y-30369658D01*
X141438363Y-30586091D01*
X141445907Y-30585989D01*
X141452982Y-30588610D01*
X142254069Y-30716609D01*
X142272542Y-30715908D01*
X142290231Y-30721280D01*
X143750577Y-30865536D01*
X143767147Y-30863909D01*
X143783318Y-30867880D01*
X145546655Y-30946342D01*
X145557925Y-30944617D01*
X145569091Y-30946926D01*
X147520555Y-30961663D01*
X147529880Y-30959881D01*
X147539231Y-30961517D01*
X149563953Y-30914601D01*
X149573149Y-30912549D01*
X149582474Y-30913889D01*
X151565592Y-30807387D01*
X151576335Y-30804644D01*
X151587361Y-30805826D01*
X153414006Y-30641811D01*
X153425841Y-30638332D01*
X153438145Y-30639156D01*
X154493513Y-30501723D01*
X154496220Y-30500808D01*
X154499071Y-30500973D01*
X156152653Y-30270106D01*
X157466098Y-30137594D01*
X158534381Y-30101420D01*
X159455267Y-30158695D01*
X160336454Y-30309769D01*
X161290851Y-30562663D01*
X161300485Y-30565554D01*
X161307915Y-30566263D01*
X161314589Y-30569601D01*
X162888147Y-31000653D01*
X162905479Y-31001886D01*
X162921435Y-31008771D01*
X164496652Y-31346185D01*
X164514414Y-31346446D01*
X164531102Y-31352532D01*
X166213302Y-31612608D01*
X166228317Y-31611963D01*
X166242671Y-31616419D01*
X168137177Y-31815457D01*
X168147933Y-31814468D01*
X168158353Y-31817308D01*
X170353374Y-31970579D01*
X173299927Y-32214441D01*
X175831634Y-32588167D01*
X177966444Y-33097322D01*
X179712366Y-33743245D01*
X181081773Y-34523120D01*
X182098700Y-35434301D01*
X182800050Y-36488026D01*
X183217212Y-37717573D01*
X183358763Y-39159979D01*
X183219357Y-40849616D01*
X183147259Y-41269174D01*
X182875094Y-42540097D01*
X182534235Y-43763448D01*
X182089899Y-45037685D01*
X181506642Y-46457464D01*
X180749449Y-48114585D01*
X180293194Y-49063930D01*
X180292079Y-49068266D01*
X180289444Y-49071881D01*
X179831309Y-50061539D01*
X179829673Y-50068307D01*
X179825698Y-50074026D01*
X179256682Y-51379531D01*
X179255783Y-51383656D01*
X179253422Y-51387153D01*
X178607312Y-52926506D01*
X178606674Y-52929635D01*
X178604914Y-52932302D01*
X177915500Y-54623504D01*
X177914956Y-54626321D01*
X177913398Y-54628730D01*
X177214468Y-56389783D01*
X177213929Y-56392721D01*
X177212331Y-56395244D01*
X176537673Y-58144148D01*
X176537321Y-58146175D01*
X176536231Y-58147922D01*
X176391215Y-58531414D01*
X176391129Y-58531932D01*
X176390852Y-58532377D01*
X175730043Y-60288851D01*
X175729921Y-60289588D01*
X175729528Y-60290224D01*
X175206268Y-61691331D01*
X175205942Y-61693337D01*
X175204885Y-61695072D01*
X174807243Y-62781505D01*
X174806546Y-62785982D01*
X174804247Y-62789882D01*
X174520291Y-63602341D01*
X174518936Y-63611964D01*
X174514268Y-63620486D01*
X174332066Y-64199665D01*
X174329725Y-64221168D01*
X174320693Y-64240816D01*
X174228317Y-64627411D01*
X174226300Y-64680191D01*
X174212823Y-64731267D01*
X174198340Y-64965976D01*
X174200981Y-64985459D01*
X174197187Y-65004751D01*
X174216827Y-65102374D01*
X174230203Y-65201057D01*
X174240099Y-65218048D01*
X174243977Y-65237321D01*
X174295456Y-65360837D01*
X174349072Y-65440700D01*
X174396544Y-65524372D01*
X174414791Y-65538593D01*
X174427685Y-65557799D01*
X174507784Y-65611067D01*
X174583660Y-65670200D01*
X174689170Y-65723222D01*
X174776675Y-65747376D01*
X174861549Y-65779576D01*
X174967909Y-65797425D01*
X174973667Y-65797252D01*
X174973667Y-67378333D01*
X174950590Y-67383006D01*
X174908965Y-67411447D01*
X174881685Y-67453841D01*
X174873000Y-67500000D01*
X174873000Y-77373000D01*
X167599158Y-77373000D01*
X167396838Y-76563716D01*
X169003671Y-76563716D01*
X169036625Y-76603534D01*
X169320962Y-76985926D01*
X169729990Y-77230399D01*
X169915000Y-77121625D01*
X169915000Y-76380000D01*
X170665000Y-76380000D01*
X170665000Y-77121625D01*
X170850010Y-77230399D01*
X171259038Y-76985926D01*
X171543375Y-76603534D01*
X171576329Y-76563716D01*
X171473593Y-76380000D01*
X170665000Y-76380000D01*
X169915000Y-76380000D01*
X169106407Y-76380000D01*
X169003671Y-76563716D01*
X167396838Y-76563716D01*
X167203998Y-75792356D01*
X171951119Y-75792356D01*
X172184155Y-76141175D01*
X172647639Y-76488915D01*
X172865000Y-76414168D01*
X172865000Y-75575000D01*
X173715000Y-75575000D01*
X173715000Y-76414168D01*
X173932361Y-76488915D01*
X174395845Y-76141175D01*
X174628881Y-75792356D01*
X174546310Y-75575000D01*
X173715000Y-75575000D01*
X172865000Y-75575000D01*
X172033690Y-75575000D01*
X171951119Y-75792356D01*
X167203998Y-75792356D01*
X167154980Y-75596284D01*
X169003671Y-75596284D01*
X169106407Y-75780000D01*
X169915000Y-75780000D01*
X169915000Y-75038375D01*
X170665000Y-75038375D01*
X170665000Y-75780000D01*
X171473593Y-75780000D01*
X171576329Y-75596284D01*
X171543375Y-75556466D01*
X171259038Y-75174074D01*
X170850010Y-74929601D01*
X170665000Y-75038375D01*
X169915000Y-75038375D01*
X169729990Y-74929601D01*
X169320962Y-75174074D01*
X169036625Y-75556466D01*
X169003671Y-75596284D01*
X167154980Y-75596284D01*
X166882820Y-74507644D01*
X171951119Y-74507644D01*
X172033690Y-74725000D01*
X172865000Y-74725000D01*
X172865000Y-73885832D01*
X173715000Y-73885832D01*
X173715000Y-74725000D01*
X174546310Y-74725000D01*
X174628881Y-74507644D01*
X174395845Y-74158825D01*
X173932361Y-73811085D01*
X173715000Y-73885832D01*
X172865000Y-73885832D01*
X172647639Y-73811085D01*
X172184155Y-74158825D01*
X171951119Y-74507644D01*
X166882820Y-74507644D01*
X166262017Y-72024432D01*
X166339615Y-71946834D01*
X166642609Y-72200077D01*
X167789438Y-72245419D01*
X168017391Y-72200077D01*
X168334253Y-71935243D01*
X167330000Y-70930990D01*
X167303130Y-70957861D01*
X165712140Y-69366871D01*
X165739010Y-69340000D01*
X168920990Y-69340000D01*
X169925243Y-70344253D01*
X170190077Y-70027391D01*
X170235419Y-68880562D01*
X170190077Y-68652609D01*
X169925243Y-68335747D01*
X168920990Y-69340000D01*
X165739010Y-69340000D01*
X165541541Y-69142531D01*
X165123208Y-67469198D01*
X165101517Y-67423690D01*
X165063830Y-67390206D01*
X165000000Y-67373000D01*
X163263431Y-67373000D01*
X162894321Y-67003245D01*
X162271814Y-66744757D01*
X166325747Y-66744757D01*
X167330000Y-67749010D01*
X168334253Y-66744757D01*
X168017391Y-66479923D01*
X166870562Y-66434581D01*
X166642609Y-66479923D01*
X166325747Y-66744757D01*
X162271814Y-66744757D01*
X161881007Y-66582480D01*
X160783807Y-66581523D01*
X159769760Y-67000518D01*
X159656605Y-67113475D01*
X145306498Y-57033422D01*
X145282116Y-57022650D01*
X172336559Y-57022650D01*
X172456380Y-57598712D01*
X172787529Y-58085071D01*
X173279594Y-58407683D01*
X173901588Y-58658985D01*
X174479655Y-58768734D01*
X175055717Y-58648913D01*
X175542076Y-58317763D01*
X175864688Y-57825699D01*
X175974437Y-57247632D01*
X175854616Y-56671570D01*
X175648280Y-56368525D01*
X176007218Y-56293866D01*
X176493577Y-55962716D01*
X176816189Y-55470652D01*
X176925938Y-54892585D01*
X176806117Y-54316523D01*
X176599781Y-54013478D01*
X176958718Y-53938819D01*
X177445077Y-53607669D01*
X177767689Y-53115605D01*
X177877438Y-52537538D01*
X177790514Y-52119635D01*
X177972579Y-52118046D01*
X178205115Y-52019339D01*
X178382178Y-51839159D01*
X178557329Y-51405646D01*
X178469607Y-51198987D01*
X177425366Y-50777086D01*
X177238063Y-51240678D01*
X176032724Y-50753690D01*
X176220027Y-50290098D01*
X175175786Y-49868197D01*
X174969127Y-49955919D01*
X174793976Y-50389432D01*
X174796181Y-50642041D01*
X174894886Y-50874578D01*
X175024749Y-51002193D01*
X174671921Y-51242424D01*
X174349309Y-51734489D01*
X174239560Y-52312556D01*
X174359381Y-52888618D01*
X174565716Y-53191663D01*
X174206780Y-53266322D01*
X173720421Y-53597471D01*
X173397809Y-54089536D01*
X173288060Y-54667603D01*
X173407881Y-55243665D01*
X173614216Y-55546710D01*
X173255279Y-55621369D01*
X172768920Y-55952518D01*
X172446308Y-56444583D01*
X172336559Y-57022650D01*
X145282116Y-57022650D01*
X145221637Y-56995931D01*
X145142195Y-56948006D01*
X136943563Y-53988053D01*
X136971421Y-53848000D01*
X136856631Y-53270913D01*
X136529738Y-52781683D01*
X136224905Y-52578000D01*
X136529738Y-52374317D01*
X136856631Y-51885087D01*
X136971421Y-51308000D01*
X136856631Y-50730913D01*
X136529738Y-50241683D01*
X136224905Y-50038000D01*
X136506413Y-49849902D01*
X177799973Y-49849902D01*
X178844214Y-50271803D01*
X179050873Y-50184081D01*
X179226024Y-49750568D01*
X179223819Y-49497959D01*
X179125114Y-49265422D01*
X178944933Y-49088360D01*
X178710709Y-48993727D01*
X178372342Y-48857017D01*
X178165682Y-48944739D01*
X177799973Y-49849902D01*
X136506413Y-49849902D01*
X136529738Y-49834317D01*
X136856631Y-49345087D01*
X136971421Y-48768000D01*
X136856631Y-48190913D01*
X136619487Y-47836003D01*
X136787699Y-47766327D01*
X136966327Y-47587698D01*
X137063000Y-47354309D01*
X137063000Y-46886750D01*
X136904250Y-46728000D01*
X135778000Y-46728000D01*
X135778000Y-47228000D01*
X134478000Y-47228000D01*
X134478000Y-46728000D01*
X133351750Y-46728000D01*
X133193000Y-46886750D01*
X133193000Y-47354309D01*
X133289673Y-47587698D01*
X133468301Y-47766327D01*
X133636513Y-47836003D01*
X133399369Y-48190913D01*
X133284579Y-48768000D01*
X133399369Y-49345087D01*
X133726262Y-49834317D01*
X134031095Y-50038000D01*
X133726262Y-50241683D01*
X133399369Y-50730913D01*
X133284579Y-51308000D01*
X133399369Y-51885087D01*
X133726262Y-52374317D01*
X134031095Y-52578000D01*
X133726262Y-52781683D01*
X133399369Y-53270913D01*
X133284579Y-53848000D01*
X133399369Y-54425087D01*
X133726262Y-54914317D01*
X134031095Y-55118000D01*
X133726262Y-55321683D01*
X133399369Y-55810913D01*
X133284579Y-56388000D01*
X133399369Y-56965087D01*
X133726262Y-57454317D01*
X134215492Y-57781210D01*
X134792579Y-57896000D01*
X135463421Y-57896000D01*
X136040508Y-57781210D01*
X136529738Y-57454317D01*
X136856631Y-56965087D01*
X136971421Y-56388000D01*
X136856631Y-55810913D01*
X136531696Y-55324613D01*
X144579942Y-58230273D01*
X157595659Y-67373000D01*
X123364086Y-67373000D01*
X123314676Y-67383006D01*
X123273051Y-67411447D01*
X123245771Y-67453841D01*
X123238819Y-67479091D01*
X121644035Y-77033365D01*
X116872651Y-80080000D01*
X116300000Y-80080000D01*
X116300000Y-80445651D01*
X116246205Y-80480000D01*
X115500000Y-80480000D01*
X115500000Y-80080000D01*
X114623750Y-80080000D01*
X114465000Y-80238750D01*
X114465000Y-80606309D01*
X114561673Y-80839698D01*
X114700000Y-80978026D01*
X114700000Y-81150937D01*
X113900000Y-81150937D01*
X113900000Y-80750937D01*
X113023750Y-80750937D01*
X112865000Y-80909687D01*
X112865000Y-81104352D01*
X109717153Y-79424628D01*
X112865000Y-79424628D01*
X112865000Y-79792187D01*
X113023750Y-79950937D01*
X113900000Y-79950937D01*
X113900000Y-79074687D01*
X113741250Y-78915937D01*
X113373690Y-78915937D01*
X113140301Y-79012610D01*
X112961673Y-79191239D01*
X112865000Y-79424628D01*
X109717153Y-79424628D01*
X108459800Y-78753691D01*
X114465000Y-78753691D01*
X114465000Y-79121250D01*
X114623750Y-79280000D01*
X114700000Y-79280000D01*
X114700000Y-79950937D01*
X115576250Y-79950937D01*
X115735000Y-79792187D01*
X115735000Y-79424628D01*
X115638327Y-79191239D01*
X115500000Y-79052911D01*
X115500000Y-78880000D01*
X116300000Y-78880000D01*
X116300000Y-79280000D01*
X117176250Y-79280000D01*
X117335000Y-79121250D01*
X117335000Y-78753691D01*
X117238327Y-78520302D01*
X117059699Y-78341673D01*
X117043002Y-78334757D01*
X117043002Y-78245000D01*
X116684547Y-78245000D01*
X117008222Y-77921890D01*
X117079321Y-77750663D01*
X117238681Y-77816835D01*
X117759036Y-77817289D01*
X118239954Y-77618578D01*
X118608222Y-77250953D01*
X118807772Y-76770382D01*
X118808226Y-76250027D01*
X118609515Y-75769109D01*
X118241890Y-75400841D01*
X117761319Y-75201291D01*
X117240964Y-75200837D01*
X116760046Y-75399548D01*
X116391778Y-75767173D01*
X116320679Y-75938400D01*
X116161319Y-75872228D01*
X115640964Y-75871774D01*
X115160046Y-76070485D01*
X114791778Y-76438110D01*
X114592228Y-76918681D01*
X114591774Y-77439036D01*
X114790485Y-77919954D01*
X115114963Y-78245000D01*
X114756998Y-78245000D01*
X114756998Y-78334757D01*
X114740301Y-78341673D01*
X114561673Y-78520302D01*
X114465000Y-78753691D01*
X108459800Y-78753691D01*
X101392818Y-74982676D01*
X101766229Y-74609265D01*
X101051105Y-73894141D01*
X100460216Y-74485030D01*
X99888362Y-74179882D01*
X100073682Y-72888436D01*
X100380460Y-73195214D01*
X100339074Y-73349670D01*
X100606599Y-73421353D01*
X101051105Y-73865859D01*
X101307741Y-73609223D01*
X101424325Y-73640462D01*
X101509401Y-73407563D01*
X101735968Y-73180996D01*
X109711652Y-73180996D01*
X110016708Y-73919287D01*
X110581074Y-74484639D01*
X111318832Y-74790983D01*
X112117664Y-74791680D01*
X112855955Y-74486624D01*
X113421307Y-73922258D01*
X113727651Y-73184500D01*
X113728348Y-72385668D01*
X113423292Y-71647377D01*
X112858926Y-71082025D01*
X112121168Y-70775681D01*
X111322336Y-70774984D01*
X110584045Y-71080040D01*
X110018693Y-71644406D01*
X109712349Y-72382164D01*
X109711652Y-73180996D01*
X101735968Y-73180996D01*
X101766229Y-73150735D01*
X100959555Y-72344061D01*
X100936859Y-72318181D01*
X100932999Y-72317505D01*
X100253164Y-71637670D01*
X100831488Y-67607477D01*
X100855908Y-67571976D01*
X100875667Y-67525597D01*
X100875825Y-67475184D01*
X100856357Y-67428682D01*
X100855318Y-67427664D01*
X109276716Y-67427664D01*
X109581772Y-68165955D01*
X110146138Y-68731307D01*
X110883896Y-69037651D01*
X111682728Y-69038348D01*
X112421019Y-68733292D01*
X112986371Y-68168926D01*
X113292715Y-67431168D01*
X113292829Y-67300016D01*
X117721860Y-67300016D01*
X117844611Y-67597097D01*
X118071707Y-67824590D01*
X118368574Y-67947860D01*
X118690016Y-67948140D01*
X118987097Y-67825389D01*
X119214590Y-67598293D01*
X119337860Y-67301426D01*
X119338034Y-67101590D01*
X120427701Y-65014601D01*
X120462097Y-65000389D01*
X120689590Y-64773293D01*
X120812860Y-64476426D01*
X120813140Y-64154984D01*
X120690389Y-63857903D01*
X120463293Y-63630410D01*
X120166426Y-63507140D01*
X119844984Y-63506860D01*
X119547903Y-63629611D01*
X119320410Y-63856707D01*
X119197140Y-64153574D01*
X119196966Y-64353411D01*
X118107299Y-66440399D01*
X118072903Y-66454611D01*
X117845410Y-66681707D01*
X117722140Y-66978574D01*
X117721860Y-67300016D01*
X113292829Y-67300016D01*
X113293412Y-66632336D01*
X112988356Y-65894045D01*
X112423990Y-65328693D01*
X111686232Y-65022349D01*
X110887400Y-65021652D01*
X110149109Y-65326708D01*
X109583757Y-65891074D01*
X109277413Y-66628832D01*
X109276716Y-67427664D01*
X100855318Y-67427664D01*
X100820331Y-67393417D01*
X100751273Y-67373000D01*
X97375970Y-67373000D01*
X97325914Y-67298086D01*
X96817914Y-66790086D01*
X96591305Y-66638670D01*
X96324000Y-66585500D01*
X96056695Y-66638670D01*
X95830086Y-66790086D01*
X95678670Y-67016695D01*
X95657106Y-67125106D01*
X95548696Y-67146670D01*
X95396580Y-67248311D01*
X95322086Y-67298086D01*
X95247172Y-67373000D01*
X93587558Y-67373000D01*
X93537429Y-67274662D01*
X93512365Y-66811622D01*
X93739725Y-66404704D01*
X93887475Y-66275237D01*
X94069954Y-66159769D01*
X94298274Y-66073013D01*
X94687514Y-65997343D01*
X95323115Y-65935606D01*
X96265478Y-65885500D01*
X97405232Y-65844316D01*
X100669857Y-65738515D01*
X100681043Y-65735911D01*
X100692438Y-65737363D01*
X100796189Y-65709103D01*
X100900908Y-65684722D01*
X100910247Y-65678035D01*
X100921329Y-65675016D01*
X101006370Y-65609201D01*
X101093785Y-65546604D01*
X101099853Y-65536854D01*
X101108937Y-65529823D01*
X101162322Y-65436467D01*
X101219124Y-65345189D01*
X101220998Y-65333859D01*
X101226701Y-65323887D01*
X101240299Y-65217195D01*
X101257844Y-65111140D01*
X101255241Y-65099958D01*
X101256693Y-65088561D01*
X101228429Y-64984796D01*
X101204051Y-64880089D01*
X101197364Y-64870752D01*
X101194346Y-64859670D01*
X100558179Y-63582990D01*
X100730016Y-63583140D01*
X101027097Y-63460389D01*
X101254590Y-63233293D01*
X101268407Y-63200016D01*
X104331860Y-63200016D01*
X104454611Y-63497097D01*
X104681707Y-63724590D01*
X104978574Y-63847860D01*
X105300016Y-63848140D01*
X105597097Y-63725389D01*
X105824590Y-63498293D01*
X105835150Y-63472862D01*
X106632005Y-63073372D01*
X106631860Y-63240016D01*
X106754611Y-63537097D01*
X106981707Y-63764590D01*
X107278574Y-63887860D01*
X107600016Y-63888140D01*
X107897097Y-63765389D01*
X108124590Y-63538293D01*
X108129294Y-63526965D01*
X109524885Y-62867935D01*
X109760016Y-62868140D01*
X110057097Y-62745389D01*
X110284590Y-62518293D01*
X110407860Y-62221426D01*
X110408140Y-61899984D01*
X110285389Y-61602903D01*
X110058293Y-61375410D01*
X110036745Y-61366462D01*
X112586960Y-60087954D01*
X112800016Y-60088140D01*
X113097097Y-59965389D01*
X113324590Y-59738293D01*
X113447860Y-59441426D01*
X113448140Y-59119984D01*
X113325389Y-58822903D01*
X113098293Y-58595410D01*
X112801426Y-58472140D01*
X112479984Y-58471860D01*
X112182903Y-58594611D01*
X111955410Y-58821707D01*
X111944850Y-58847138D01*
X105193040Y-62232046D01*
X104979984Y-62231860D01*
X104682903Y-62354611D01*
X104455410Y-62581707D01*
X104332140Y-62878574D01*
X104331860Y-63200016D01*
X101268407Y-63200016D01*
X101377860Y-62936426D01*
X101378081Y-62682418D01*
X101798919Y-61749705D01*
X101884611Y-61957097D01*
X102111707Y-62184590D01*
X102408574Y-62307860D01*
X102730016Y-62308140D01*
X103027097Y-62185389D01*
X103254590Y-61958293D01*
X103375019Y-61668268D01*
X105096518Y-59864794D01*
X105337097Y-59765389D01*
X105564590Y-59538293D01*
X105687860Y-59241426D01*
X105688140Y-58919984D01*
X105565389Y-58622903D01*
X105338293Y-58395410D01*
X105041426Y-58272140D01*
X104719984Y-58271860D01*
X104422903Y-58394611D01*
X104195410Y-58621707D01*
X104074981Y-58911732D01*
X102353484Y-60715205D01*
X102245562Y-60759798D01*
X103592634Y-57774245D01*
X104666194Y-56720784D01*
X105247308Y-56320016D01*
X108831860Y-56320016D01*
X108954611Y-56617097D01*
X109181707Y-56844590D01*
X109478574Y-56967860D01*
X109800016Y-56968140D01*
X109954257Y-56904409D01*
X113766287Y-57392204D01*
X115252856Y-57604571D01*
X115075410Y-57781707D01*
X114952140Y-58078574D01*
X114951860Y-58400016D01*
X115074611Y-58697097D01*
X115301707Y-58924590D01*
X115598574Y-59047860D01*
X115920016Y-59048140D01*
X116179224Y-58941038D01*
X116988983Y-58945916D01*
X117258574Y-59057860D01*
X117580016Y-59058140D01*
X117877097Y-58935389D01*
X118104590Y-58708293D01*
X118227860Y-58411426D01*
X118228140Y-58089984D01*
X118105389Y-57792903D01*
X117918238Y-57605425D01*
X118027860Y-57341426D01*
X118028140Y-57019984D01*
X117905389Y-56722903D01*
X117678293Y-56495410D01*
X117387890Y-56374824D01*
X117484590Y-56278293D01*
X117607860Y-55981426D01*
X117608140Y-55659984D01*
X117485389Y-55362903D01*
X117258293Y-55135410D01*
X116961426Y-55012140D01*
X116639984Y-55011860D01*
X116467524Y-55083119D01*
X111911734Y-54608910D01*
X111878293Y-54575410D01*
X111581426Y-54452140D01*
X111259984Y-54451860D01*
X110962903Y-54574611D01*
X110735410Y-54801707D01*
X110612140Y-55098574D01*
X110611860Y-55420016D01*
X110681726Y-55589105D01*
X110142970Y-55520165D01*
X110098293Y-55475410D01*
X109801426Y-55352140D01*
X109479984Y-55351860D01*
X109182903Y-55474611D01*
X108955410Y-55701707D01*
X108832140Y-55998574D01*
X108831860Y-56320016D01*
X105247308Y-56320016D01*
X105438656Y-56188052D01*
X105540016Y-56188140D01*
X105837097Y-56065389D01*
X106064590Y-55838293D01*
X106187860Y-55541426D01*
X106188140Y-55219984D01*
X106065389Y-54922903D01*
X105838293Y-54695410D01*
X105541426Y-54572140D01*
X105219984Y-54571860D01*
X104922903Y-54694611D01*
X104695410Y-54921707D01*
X104647744Y-55036499D01*
X103823439Y-55604986D01*
X103781340Y-55648341D01*
X103730775Y-55681441D01*
X102576151Y-56814449D01*
X102541712Y-56835939D01*
X102535283Y-56844941D01*
X102526086Y-56851086D01*
X102456312Y-56955510D01*
X102383311Y-57057721D01*
X102373162Y-57080214D01*
X102373161Y-57080217D01*
X102373160Y-57080219D01*
X100112945Y-62089594D01*
X100112903Y-62089611D01*
X99913313Y-62288852D01*
X96026167Y-54488002D01*
X94640565Y-51697168D01*
X93438863Y-49250462D01*
X92408823Y-47116448D01*
X91538073Y-45263497D01*
X91262064Y-44652109D01*
X91468574Y-44737860D01*
X91790016Y-44738140D01*
X92087097Y-44615389D01*
X92314590Y-44388293D01*
X92437860Y-44091426D01*
X92438140Y-43769984D01*
X92331638Y-43512228D01*
X92342819Y-42013944D01*
X92626260Y-40949223D01*
X96169960Y-39287439D01*
X97274428Y-39702444D01*
X97197140Y-39888574D01*
X97196860Y-40210016D01*
X97319611Y-40507097D01*
X97540496Y-40728368D01*
X97539116Y-40728060D01*
X97528144Y-40720952D01*
X96208144Y-40195952D01*
X96133937Y-40182280D01*
X96063301Y-40155751D01*
X96001213Y-40157827D01*
X95940115Y-40146570D01*
X95866324Y-40162337D01*
X95790912Y-40164858D01*
X95734343Y-40190537D01*
X95673589Y-40203518D01*
X95611450Y-40246322D01*
X95542743Y-40277511D01*
X94692743Y-40887511D01*
X94618317Y-40967085D01*
X94537801Y-41040471D01*
X94525825Y-41065977D01*
X94506575Y-41086558D01*
X94468269Y-41188552D01*
X94421962Y-41287169D01*
X94394604Y-41397695D01*
X94290410Y-41501707D01*
X94167140Y-41798574D01*
X94166860Y-42120016D01*
X94289611Y-42417097D01*
X94516707Y-42644590D01*
X94813574Y-42767860D01*
X95135016Y-42768140D01*
X95432097Y-42645389D01*
X95640120Y-42437729D01*
X95796707Y-42594590D01*
X96093574Y-42717860D01*
X96355248Y-42718088D01*
X114322492Y-50663820D01*
X114444126Y-50691023D01*
X114564769Y-50722340D01*
X120114664Y-51042526D01*
X120126707Y-51054590D01*
X120423574Y-51177860D01*
X120745016Y-51178140D01*
X121042097Y-51055389D01*
X121269590Y-50828293D01*
X121392860Y-50531426D01*
X121393140Y-50209984D01*
X121270389Y-49912903D01*
X121175242Y-49817590D01*
X121204590Y-49788293D01*
X121327860Y-49491426D01*
X121328003Y-49327540D01*
X121683846Y-49452894D01*
X122631055Y-52455063D01*
X122617140Y-52488574D01*
X122616860Y-52810016D01*
X122691746Y-52991253D01*
X122477903Y-53079611D01*
X122250410Y-53306707D01*
X122127140Y-53603574D01*
X122126900Y-53878707D01*
X120615957Y-57416527D01*
X120405410Y-57626707D01*
X120282140Y-57923574D01*
X120281860Y-58245016D01*
X120404611Y-58542097D01*
X120631707Y-58769590D01*
X120928574Y-58892860D01*
X121250016Y-58893140D01*
X121547097Y-58770389D01*
X121774590Y-58543293D01*
X121811956Y-58453305D01*
X122192599Y-59273151D01*
X122192600Y-59273152D01*
X122246454Y-59389147D01*
X122407245Y-59609203D01*
X122640009Y-59750977D01*
X122909309Y-59792884D01*
X122944431Y-59784352D01*
X129387720Y-62458249D01*
X129589707Y-62660590D01*
X129886574Y-62783860D01*
X130208016Y-62784140D01*
X130505097Y-62661389D01*
X130732590Y-62434293D01*
X130855860Y-62137426D01*
X130856140Y-61815984D01*
X130733389Y-61518903D01*
X130506293Y-61291410D01*
X130209426Y-61168140D01*
X129923056Y-61167891D01*
X124108039Y-58754719D01*
X124179590Y-58683293D01*
X124302860Y-58386426D01*
X124303114Y-58094743D01*
X125726319Y-54618774D01*
X125806611Y-54813097D01*
X125887240Y-54893867D01*
X126234823Y-56631782D01*
X126192140Y-56734574D01*
X126191860Y-57056016D01*
X126314611Y-57353097D01*
X126541707Y-57580590D01*
X126838574Y-57703860D01*
X127160016Y-57704140D01*
X127457097Y-57581389D01*
X127684590Y-57354293D01*
X127807860Y-57057426D01*
X127808140Y-56735984D01*
X127685389Y-56438903D01*
X127604760Y-56358133D01*
X127257177Y-54620218D01*
X127260767Y-54611571D01*
X127410562Y-54673771D01*
X128833937Y-56175042D01*
X128954611Y-56467097D01*
X129181707Y-56694590D01*
X129478574Y-56817860D01*
X129723599Y-56818073D01*
X129766849Y-58005489D01*
X129672140Y-58233574D01*
X129671860Y-58555016D01*
X129794611Y-58852097D01*
X130021707Y-59079590D01*
X130318574Y-59202860D01*
X130640016Y-59203140D01*
X130937097Y-59080389D01*
X131164590Y-58853293D01*
X131287860Y-58556426D01*
X131288140Y-58234984D01*
X131165389Y-57937903D01*
X131162197Y-57934706D01*
X131068037Y-55349575D01*
X131045532Y-55254636D01*
X131033861Y-55157765D01*
X128396624Y-47098484D01*
X128407860Y-47071426D01*
X128408140Y-46749984D01*
X128285389Y-46452903D01*
X128058293Y-46225410D01*
X127761426Y-46102140D01*
X127439984Y-46101860D01*
X127142903Y-46224611D01*
X126915410Y-46451707D01*
X126792140Y-46748574D01*
X126791860Y-47070016D01*
X126914611Y-47367097D01*
X127063403Y-47516150D01*
X129442454Y-54786425D01*
X128436063Y-53724958D01*
X128315389Y-53432903D01*
X128088293Y-53205410D01*
X127791426Y-53082140D01*
X127469984Y-53081860D01*
X127172903Y-53204611D01*
X126945410Y-53431707D01*
X126861233Y-53634429D01*
X126653426Y-53548140D01*
X126331984Y-53547860D01*
X126130751Y-53631007D01*
X126266415Y-53299669D01*
X126282916Y-53214905D01*
X126311529Y-53133434D01*
X126308719Y-53082360D01*
X126318494Y-53032150D01*
X126301302Y-52947526D01*
X126296559Y-52861305D01*
X125684889Y-50478787D01*
X125712860Y-50411426D01*
X125713140Y-50089984D01*
X125590389Y-49792903D01*
X125363293Y-49565410D01*
X125066426Y-49442140D01*
X124744984Y-49441860D01*
X124447903Y-49564611D01*
X124402301Y-49610133D01*
X124156162Y-48778058D01*
X124250016Y-48778140D01*
X124547097Y-48655389D01*
X124774590Y-48428293D01*
X124897860Y-48131426D01*
X124898140Y-47809984D01*
X124775389Y-47512903D01*
X124548293Y-47285410D01*
X124251426Y-47162140D01*
X123929984Y-47161860D01*
X123852926Y-47193700D01*
X123674693Y-47150450D01*
X123576712Y-46819224D01*
X124055228Y-45101691D01*
X133193000Y-45101691D01*
X133193000Y-45569250D01*
X133351750Y-45728000D01*
X134478000Y-45728000D01*
X134478000Y-44751750D01*
X135778000Y-44751750D01*
X135778000Y-45728000D01*
X136904250Y-45728000D01*
X137063000Y-45569250D01*
X137063000Y-45101691D01*
X136966327Y-44868302D01*
X136787699Y-44689673D01*
X136554310Y-44593000D01*
X135936750Y-44593000D01*
X135778000Y-44751750D01*
X134478000Y-44751750D01*
X134319250Y-44593000D01*
X133701690Y-44593000D01*
X133468301Y-44689673D01*
X133289673Y-44868302D01*
X133193000Y-45101691D01*
X124055228Y-45101691D01*
X124813835Y-42378838D01*
X124934590Y-42258293D01*
X125057860Y-41961426D01*
X125058140Y-41639984D01*
X124935389Y-41342903D01*
X124708293Y-41115410D01*
X124411426Y-40992140D01*
X124089984Y-40991860D01*
X123792903Y-41114611D01*
X123565410Y-41341707D01*
X123442140Y-41638574D01*
X123441860Y-41960016D01*
X123464829Y-42015604D01*
X122177127Y-46637533D01*
X122172722Y-46695867D01*
X122155353Y-46751732D01*
X122162559Y-46830466D01*
X122156606Y-46909300D01*
X122174860Y-46964880D01*
X122180192Y-47023139D01*
X122181355Y-47027070D01*
X122056782Y-47026962D01*
X121563210Y-46772647D01*
X121493262Y-46670498D01*
X121264943Y-46521670D01*
X120997052Y-46471545D01*
X120805654Y-46473723D01*
X114495179Y-46545542D01*
X114132259Y-46456865D01*
X114252860Y-46166426D01*
X114253140Y-45844984D01*
X114239729Y-45812527D01*
X115511167Y-41831466D01*
X115654590Y-41688293D01*
X115777860Y-41391426D01*
X115778140Y-41069984D01*
X115655389Y-40772903D01*
X115428293Y-40545410D01*
X115131426Y-40422140D01*
X114809984Y-40421860D01*
X114512903Y-40544611D01*
X114285410Y-40771707D01*
X114162140Y-41068574D01*
X114161860Y-41390016D01*
X114175271Y-41422473D01*
X112903832Y-45403535D01*
X112760410Y-45546707D01*
X112683838Y-45731112D01*
X111367220Y-44870355D01*
X111308237Y-44846614D01*
X111255549Y-44811024D01*
X104293733Y-41886210D01*
X104088293Y-41680410D01*
X103791426Y-41557140D01*
X103469984Y-41556860D01*
X103172903Y-41679611D01*
X102945410Y-41906707D01*
X102829992Y-42184664D01*
X100288366Y-41032340D01*
X99851115Y-40670635D01*
X100059310Y-40748864D01*
X100142615Y-40762571D01*
X100222914Y-40788660D01*
X110876579Y-42049392D01*
X110916707Y-42089590D01*
X111213574Y-42212860D01*
X111535016Y-42213140D01*
X111832097Y-42090389D01*
X112059590Y-41863293D01*
X112182860Y-41566426D01*
X112183140Y-41244984D01*
X112060389Y-40947903D01*
X111833293Y-40720410D01*
X111536426Y-40597140D01*
X111214984Y-40596860D01*
X111053506Y-40663581D01*
X100471306Y-39411306D01*
X96385690Y-37876136D01*
X96381296Y-37875413D01*
X96377482Y-37873110D01*
X96246952Y-37853308D01*
X96116765Y-37831887D01*
X96112430Y-37832900D01*
X96108024Y-37832232D01*
X95979853Y-37863889D01*
X95851377Y-37893919D01*
X95847759Y-37896515D01*
X95843434Y-37897583D01*
X91738434Y-39822583D01*
X91713766Y-39840752D01*
X91684769Y-39850648D01*
X91604777Y-39921030D01*
X91518994Y-39984214D01*
X91503156Y-40010441D01*
X91480154Y-40030680D01*
X91433188Y-40126308D01*
X91378110Y-40217517D01*
X91373514Y-40247811D01*
X91360009Y-40275309D01*
X90970008Y-41740309D01*
X90964380Y-41828371D01*
X90946519Y-41914787D01*
X90934708Y-43497481D01*
X90841810Y-43721204D01*
X90814348Y-43660373D01*
X90225313Y-42275969D01*
X89758535Y-41079485D01*
X89401129Y-40039819D01*
X89139639Y-39125218D01*
X88959984Y-38302174D01*
X88848054Y-37534759D01*
X88790694Y-36785100D01*
X88779433Y-36210016D01*
X93031860Y-36210016D01*
X93154611Y-36507097D01*
X93381707Y-36734590D01*
X93678574Y-36857860D01*
X94000016Y-36858140D01*
X94194420Y-36777814D01*
X106580414Y-37730211D01*
X106919201Y-37772009D01*
X106961707Y-37814590D01*
X107258574Y-37937860D01*
X107580016Y-37938140D01*
X107877097Y-37815389D01*
X108104590Y-37588293D01*
X108128788Y-37530016D01*
X120226860Y-37530016D01*
X120349611Y-37827097D01*
X120576707Y-38054590D01*
X120873574Y-38177860D01*
X121195016Y-38178140D01*
X121375946Y-38103382D01*
X124938246Y-38436079D01*
X124966707Y-38464590D01*
X125263574Y-38587860D01*
X125585016Y-38588140D01*
X125882097Y-38465389D01*
X126109590Y-38238293D01*
X126232860Y-37941426D01*
X126233140Y-37619984D01*
X126110389Y-37322903D01*
X125883293Y-37095410D01*
X125586426Y-36972140D01*
X125264984Y-36971860D01*
X125084054Y-37046618D01*
X121521754Y-36713921D01*
X121493293Y-36685410D01*
X121196426Y-36562140D01*
X120874984Y-36561860D01*
X120577903Y-36684611D01*
X120350410Y-36911707D01*
X120227140Y-37208574D01*
X120226860Y-37530016D01*
X108128788Y-37530016D01*
X108227860Y-37291426D01*
X108228140Y-36969984D01*
X108105389Y-36672903D01*
X107878293Y-36445410D01*
X107581426Y-36322140D01*
X107259984Y-36321860D01*
X107102312Y-36387008D01*
X106735530Y-36341756D01*
X106719260Y-36342956D01*
X106703552Y-36338556D01*
X94319126Y-35386280D01*
X94298293Y-35365410D01*
X94001426Y-35242140D01*
X93679984Y-35241860D01*
X93382903Y-35364611D01*
X93155410Y-35591707D01*
X93032140Y-35888574D01*
X93031860Y-36210016D01*
X88779433Y-36210016D01*
X88776381Y-36054184D01*
X88853268Y-34910016D01*
X102111860Y-34910016D01*
X102234611Y-35207097D01*
X102461707Y-35434590D01*
X102758574Y-35557860D01*
X103080016Y-35558140D01*
X103377097Y-35435389D01*
X103395579Y-35416939D01*
X108057647Y-35090816D01*
X107992140Y-35248574D01*
X107991860Y-35570016D01*
X108114611Y-35867097D01*
X108341707Y-36094590D01*
X108638574Y-36217860D01*
X108960016Y-36218140D01*
X109080288Y-36168445D01*
X114734022Y-37161786D01*
X114801707Y-37229590D01*
X115098574Y-37352860D01*
X115420016Y-37353140D01*
X115717097Y-37230389D01*
X115944590Y-37003293D01*
X116067860Y-36706426D01*
X116068140Y-36384984D01*
X115945389Y-36087903D01*
X115718293Y-35860410D01*
X115421426Y-35737140D01*
X115099984Y-35736860D01*
X114979712Y-35786555D01*
X110227020Y-34951524D01*
X115797758Y-34633196D01*
X119991881Y-35631339D01*
X120856309Y-36057005D01*
X120864611Y-36077097D01*
X121091707Y-36304590D01*
X121388574Y-36427860D01*
X121710016Y-36428140D01*
X121998276Y-36309034D01*
X128977016Y-36159155D01*
X130346010Y-36278848D01*
X130371707Y-36304590D01*
X130668574Y-36427860D01*
X130990016Y-36428140D01*
X131275602Y-36310139D01*
X134980117Y-36239577D01*
X140590301Y-37153077D01*
X140651707Y-37214590D01*
X140948574Y-37337860D01*
X141270016Y-37338140D01*
X141530839Y-37230370D01*
X151970643Y-37276605D01*
X152238574Y-37387860D01*
X152560016Y-37388140D01*
X152769021Y-37301781D01*
X161771757Y-37839394D01*
X165539529Y-48780780D01*
X165532140Y-48798574D01*
X165531860Y-49120016D01*
X165654611Y-49417097D01*
X165881707Y-49644590D01*
X166178574Y-49767860D01*
X166500016Y-49768140D01*
X166797097Y-49645389D01*
X167024590Y-49418293D01*
X167147860Y-49121426D01*
X167148140Y-48799984D01*
X167025389Y-48502903D01*
X166866559Y-48343795D01*
X164763923Y-42237862D01*
X167670786Y-42237862D01*
X168735442Y-44814527D01*
X169148629Y-45228436D01*
X169121426Y-45217140D01*
X168799984Y-45216860D01*
X168502903Y-45339611D01*
X168275410Y-45566707D01*
X168152140Y-45863574D01*
X168151860Y-46185016D01*
X168274611Y-46482097D01*
X168501707Y-46709590D01*
X168655385Y-46773403D01*
X170286915Y-48886368D01*
X170286860Y-48950016D01*
X170409611Y-49247097D01*
X170636707Y-49474590D01*
X170933574Y-49597860D01*
X171255016Y-49598140D01*
X171552097Y-49475389D01*
X171779590Y-49248293D01*
X171902860Y-48951426D01*
X171903049Y-48734354D01*
X175462671Y-48734354D01*
X175550393Y-48941013D01*
X176594634Y-49362914D01*
X176960343Y-48457751D01*
X176872622Y-48251091D01*
X176534254Y-48114382D01*
X176300030Y-48019749D01*
X176047421Y-48021954D01*
X175814885Y-48120661D01*
X175637822Y-48300841D01*
X175462671Y-48734354D01*
X171903049Y-48734354D01*
X171903140Y-48629984D01*
X171780389Y-48332903D01*
X171553293Y-48105410D01*
X171399616Y-48041598D01*
X169768085Y-45928632D01*
X169768140Y-45864984D01*
X169756891Y-45837760D01*
X170705104Y-46787629D01*
X173279907Y-47856781D01*
X176067862Y-47859214D01*
X178644527Y-46794558D01*
X180617629Y-44824896D01*
X181686781Y-42250093D01*
X181689214Y-39462138D01*
X180624558Y-36885473D01*
X178654896Y-34912371D01*
X176080093Y-33843219D01*
X173292138Y-33840786D01*
X170715473Y-34905442D01*
X168742371Y-36875104D01*
X167673219Y-39449907D01*
X167670786Y-42237862D01*
X164763923Y-42237862D01*
X163080471Y-37349220D01*
X163087860Y-37331426D01*
X163088140Y-37009984D01*
X162965389Y-36712903D01*
X162738293Y-36485410D01*
X162441426Y-36362140D01*
X162119984Y-36361860D01*
X161910979Y-36448219D01*
X152871258Y-35908397D01*
X152858293Y-35895410D01*
X152561426Y-35772140D01*
X152239984Y-35771860D01*
X151979161Y-35879630D01*
X141539357Y-35833395D01*
X141271426Y-35722140D01*
X140949984Y-35721860D01*
X140820846Y-35775219D01*
X135142258Y-34850580D01*
X135079001Y-34852791D01*
X135016698Y-34841627D01*
X131235872Y-34913643D01*
X130991426Y-34812140D01*
X130669984Y-34811860D01*
X130484245Y-34888606D01*
X129060839Y-34764155D01*
X129022744Y-34768329D01*
X128985002Y-34761661D01*
X121953535Y-34912672D01*
X121711426Y-34812140D01*
X121490178Y-34811947D01*
X120538575Y-34343355D01*
X120462910Y-34323128D01*
X120391717Y-34290478D01*
X116021717Y-33250478D01*
X115920475Y-33246701D01*
X115820150Y-33232638D01*
X109580996Y-33589161D01*
X109371426Y-33502140D01*
X109049984Y-33501860D01*
X108752903Y-33624611D01*
X108734420Y-33643061D01*
X103280032Y-34024608D01*
X103081426Y-33942140D01*
X102759984Y-33941860D01*
X102462903Y-34064611D01*
X102235410Y-34291707D01*
X102112140Y-34588574D01*
X102111860Y-34910016D01*
X88853268Y-34910016D01*
X88857880Y-34841395D01*
X89106104Y-33914649D01*
X89552652Y-33159361D01*
X90276187Y-32459138D01*
X91369361Y-31742249D01*
X92213705Y-31292538D01*
X93188997Y-30841381D01*
X94153715Y-30487628D01*
X95191553Y-30212128D01*
X96386045Y-29999500D01*
X97815720Y-29837353D01*
X99554778Y-29713642D01*
X100997491Y-29642994D01*
X102745629Y-29565487D01*
X102747588Y-29565006D01*
X102749586Y-29565299D01*
X104153685Y-29493875D01*
X104157559Y-29492897D01*
X104161522Y-29493426D01*
X105297881Y-29420904D01*
X105304313Y-29419193D01*
X105310923Y-29419930D01*
X106257231Y-29339066D01*
X106266106Y-29336499D01*
X106275315Y-29337248D01*
X107109260Y-29240801D01*
X107118964Y-29237677D01*
X107129146Y-29238168D01*
X107928420Y-29118894D01*
X107936378Y-29116039D01*
X107944831Y-29116215D01*
X108787123Y-28966870D01*
X108791086Y-28965325D01*
X108795342Y-28965355D01*
X109301446Y-28868424D01*
X110883398Y-28664160D01*
X112526395Y-28668434D01*
X112526395Y-28668434D01*
G37*
X112526395Y-28668434D02*
X114357763Y-28887373D01*
X116251276Y-29277192D01*
X116258728Y-29277242D01*
X116265663Y-29279974D01*
X119904937Y-29938194D01*
X119936782Y-29937639D01*
X119967467Y-29946183D01*
X123716972Y-30228689D01*
X123747617Y-30224958D01*
X123778033Y-30230212D01*
X127548736Y-30134790D01*
X127579421Y-30127875D01*
X127610805Y-30130032D01*
X131313669Y-29654468D01*
X131327487Y-29649826D01*
X131341830Y-29650169D01*
X132601217Y-29430811D01*
X133568978Y-29303718D01*
X134376178Y-29267327D01*
X135168897Y-29320683D01*
X136095529Y-29471452D01*
X137288034Y-29729024D01*
X137740728Y-29833726D01*
X137743602Y-29833815D01*
X137746233Y-29834972D01*
X138968989Y-30105847D01*
X138974443Y-30105965D01*
X138979472Y-30108072D01*
X140257393Y-30367627D01*
X140262821Y-30367649D01*
X140267863Y-30369658D01*
X141438363Y-30586091D01*
X141445907Y-30585989D01*
X141452982Y-30588610D01*
X142254069Y-30716609D01*
X142272542Y-30715908D01*
X142290231Y-30721280D01*
X143750577Y-30865536D01*
X143767147Y-30863909D01*
X143783318Y-30867880D01*
X145546655Y-30946342D01*
X145557925Y-30944617D01*
X145569091Y-30946926D01*
X147520555Y-30961663D01*
X147529880Y-30959881D01*
X147539231Y-30961517D01*
X149563953Y-30914601D01*
X149573149Y-30912549D01*
X149582474Y-30913889D01*
X151565592Y-30807387D01*
X151576335Y-30804644D01*
X151587361Y-30805826D01*
X153414006Y-30641811D01*
X153425841Y-30638332D01*
X153438145Y-30639156D01*
X154493513Y-30501723D01*
X154496220Y-30500808D01*
X154499071Y-30500973D01*
X156152653Y-30270106D01*
X157466098Y-30137594D01*
X158534381Y-30101420D01*
X159455267Y-30158695D01*
X160336454Y-30309769D01*
X161290851Y-30562663D01*
X161300485Y-30565554D01*
X161307915Y-30566263D01*
X161314589Y-30569601D01*
X162888147Y-31000653D01*
X162905479Y-31001886D01*
X162921435Y-31008771D01*
X164496652Y-31346185D01*
X164514414Y-31346446D01*
X164531102Y-31352532D01*
X166213302Y-31612608D01*
X166228317Y-31611963D01*
X166242671Y-31616419D01*
X168137177Y-31815457D01*
X168147933Y-31814468D01*
X168158353Y-31817308D01*
X170353374Y-31970579D01*
X173299927Y-32214441D01*
X175831634Y-32588167D01*
X177966444Y-33097322D01*
X179712366Y-33743245D01*
X181081773Y-34523120D01*
X182098700Y-35434301D01*
X182800050Y-36488026D01*
X183217212Y-37717573D01*
X183358763Y-39159979D01*
X183219357Y-40849616D01*
X183147259Y-41269174D01*
X182875094Y-42540097D01*
X182534235Y-43763448D01*
X182089899Y-45037685D01*
X181506642Y-46457464D01*
X180749449Y-48114585D01*
X180293194Y-49063930D01*
X180292079Y-49068266D01*
X180289444Y-49071881D01*
X179831309Y-50061539D01*
X179829673Y-50068307D01*
X179825698Y-50074026D01*
X179256682Y-51379531D01*
X179255783Y-51383656D01*
X179253422Y-51387153D01*
X178607312Y-52926506D01*
X178606674Y-52929635D01*
X178604914Y-52932302D01*
X177915500Y-54623504D01*
X177914956Y-54626321D01*
X177913398Y-54628730D01*
X177214468Y-56389783D01*
X177213929Y-56392721D01*
X177212331Y-56395244D01*
X176537673Y-58144148D01*
X176537321Y-58146175D01*
X176536231Y-58147922D01*
X176391215Y-58531414D01*
X176391129Y-58531932D01*
X176390852Y-58532377D01*
X175730043Y-60288851D01*
X175729921Y-60289588D01*
X175729528Y-60290224D01*
X175206268Y-61691331D01*
X175205942Y-61693337D01*
X175204885Y-61695072D01*
X174807243Y-62781505D01*
X174806546Y-62785982D01*
X174804247Y-62789882D01*
X174520291Y-63602341D01*
X174518936Y-63611964D01*
X174514268Y-63620486D01*
X174332066Y-64199665D01*
X174329725Y-64221168D01*
X174320693Y-64240816D01*
X174228317Y-64627411D01*
X174226300Y-64680191D01*
X174212823Y-64731267D01*
X174198340Y-64965976D01*
X174200981Y-64985459D01*
X174197187Y-65004751D01*
X174216827Y-65102374D01*
X174230203Y-65201057D01*
X174240099Y-65218048D01*
X174243977Y-65237321D01*
X174295456Y-65360837D01*
X174349072Y-65440700D01*
X174396544Y-65524372D01*
X174414791Y-65538593D01*
X174427685Y-65557799D01*
X174507784Y-65611067D01*
X174583660Y-65670200D01*
X174689170Y-65723222D01*
X174776675Y-65747376D01*
X174861549Y-65779576D01*
X174967909Y-65797425D01*
X174973667Y-65797252D01*
X174973667Y-67378333D01*
X174950590Y-67383006D01*
X174908965Y-67411447D01*
X174881685Y-67453841D01*
X174873000Y-67500000D01*
X174873000Y-77373000D01*
X167599158Y-77373000D01*
X167396838Y-76563716D01*
X169003671Y-76563716D01*
X169036625Y-76603534D01*
X169320962Y-76985926D01*
X169729990Y-77230399D01*
X169915000Y-77121625D01*
X169915000Y-76380000D01*
X170665000Y-76380000D01*
X170665000Y-77121625D01*
X170850010Y-77230399D01*
X171259038Y-76985926D01*
X171543375Y-76603534D01*
X171576329Y-76563716D01*
X171473593Y-76380000D01*
X170665000Y-76380000D01*
X169915000Y-76380000D01*
X169106407Y-76380000D01*
X169003671Y-76563716D01*
X167396838Y-76563716D01*
X167203998Y-75792356D01*
X171951119Y-75792356D01*
X172184155Y-76141175D01*
X172647639Y-76488915D01*
X172865000Y-76414168D01*
X172865000Y-75575000D01*
X173715000Y-75575000D01*
X173715000Y-76414168D01*
X173932361Y-76488915D01*
X174395845Y-76141175D01*
X174628881Y-75792356D01*
X174546310Y-75575000D01*
X173715000Y-75575000D01*
X172865000Y-75575000D01*
X172033690Y-75575000D01*
X171951119Y-75792356D01*
X167203998Y-75792356D01*
X167154980Y-75596284D01*
X169003671Y-75596284D01*
X169106407Y-75780000D01*
X169915000Y-75780000D01*
X169915000Y-75038375D01*
X170665000Y-75038375D01*
X170665000Y-75780000D01*
X171473593Y-75780000D01*
X171576329Y-75596284D01*
X171543375Y-75556466D01*
X171259038Y-75174074D01*
X170850010Y-74929601D01*
X170665000Y-75038375D01*
X169915000Y-75038375D01*
X169729990Y-74929601D01*
X169320962Y-75174074D01*
X169036625Y-75556466D01*
X169003671Y-75596284D01*
X167154980Y-75596284D01*
X166882820Y-74507644D01*
X171951119Y-74507644D01*
X172033690Y-74725000D01*
X172865000Y-74725000D01*
X172865000Y-73885832D01*
X173715000Y-73885832D01*
X173715000Y-74725000D01*
X174546310Y-74725000D01*
X174628881Y-74507644D01*
X174395845Y-74158825D01*
X173932361Y-73811085D01*
X173715000Y-73885832D01*
X172865000Y-73885832D01*
X172647639Y-73811085D01*
X172184155Y-74158825D01*
X171951119Y-74507644D01*
X166882820Y-74507644D01*
X166262017Y-72024432D01*
X166339615Y-71946834D01*
X166642609Y-72200077D01*
X167789438Y-72245419D01*
X168017391Y-72200077D01*
X168334253Y-71935243D01*
X167330000Y-70930990D01*
X167303130Y-70957861D01*
X165712140Y-69366871D01*
X165739010Y-69340000D01*
X168920990Y-69340000D01*
X169925243Y-70344253D01*
X170190077Y-70027391D01*
X170235419Y-68880562D01*
X170190077Y-68652609D01*
X169925243Y-68335747D01*
X168920990Y-69340000D01*
X165739010Y-69340000D01*
X165541541Y-69142531D01*
X165123208Y-67469198D01*
X165101517Y-67423690D01*
X165063830Y-67390206D01*
X165000000Y-67373000D01*
X163263431Y-67373000D01*
X162894321Y-67003245D01*
X162271814Y-66744757D01*
X166325747Y-66744757D01*
X167330000Y-67749010D01*
X168334253Y-66744757D01*
X168017391Y-66479923D01*
X166870562Y-66434581D01*
X166642609Y-66479923D01*
X166325747Y-66744757D01*
X162271814Y-66744757D01*
X161881007Y-66582480D01*
X160783807Y-66581523D01*
X159769760Y-67000518D01*
X159656605Y-67113475D01*
X145306498Y-57033422D01*
X145282116Y-57022650D01*
X172336559Y-57022650D01*
X172456380Y-57598712D01*
X172787529Y-58085071D01*
X173279594Y-58407683D01*
X173901588Y-58658985D01*
X174479655Y-58768734D01*
X175055717Y-58648913D01*
X175542076Y-58317763D01*
X175864688Y-57825699D01*
X175974437Y-57247632D01*
X175854616Y-56671570D01*
X175648280Y-56368525D01*
X176007218Y-56293866D01*
X176493577Y-55962716D01*
X176816189Y-55470652D01*
X176925938Y-54892585D01*
X176806117Y-54316523D01*
X176599781Y-54013478D01*
X176958718Y-53938819D01*
X177445077Y-53607669D01*
X177767689Y-53115605D01*
X177877438Y-52537538D01*
X177790514Y-52119635D01*
X177972579Y-52118046D01*
X178205115Y-52019339D01*
X178382178Y-51839159D01*
X178557329Y-51405646D01*
X178469607Y-51198987D01*
X177425366Y-50777086D01*
X177238063Y-51240678D01*
X176032724Y-50753690D01*
X176220027Y-50290098D01*
X175175786Y-49868197D01*
X174969127Y-49955919D01*
X174793976Y-50389432D01*
X174796181Y-50642041D01*
X174894886Y-50874578D01*
X175024749Y-51002193D01*
X174671921Y-51242424D01*
X174349309Y-51734489D01*
X174239560Y-52312556D01*
X174359381Y-52888618D01*
X174565716Y-53191663D01*
X174206780Y-53266322D01*
X173720421Y-53597471D01*
X173397809Y-54089536D01*
X173288060Y-54667603D01*
X173407881Y-55243665D01*
X173614216Y-55546710D01*
X173255279Y-55621369D01*
X172768920Y-55952518D01*
X172446308Y-56444583D01*
X172336559Y-57022650D01*
X145282116Y-57022650D01*
X145221637Y-56995931D01*
X145142195Y-56948006D01*
X136943563Y-53988053D01*
X136971421Y-53848000D01*
X136856631Y-53270913D01*
X136529738Y-52781683D01*
X136224905Y-52578000D01*
X136529738Y-52374317D01*
X136856631Y-51885087D01*
X136971421Y-51308000D01*
X136856631Y-50730913D01*
X136529738Y-50241683D01*
X136224905Y-50038000D01*
X136506413Y-49849902D01*
X177799973Y-49849902D01*
X178844214Y-50271803D01*
X179050873Y-50184081D01*
X179226024Y-49750568D01*
X179223819Y-49497959D01*
X179125114Y-49265422D01*
X178944933Y-49088360D01*
X178710709Y-48993727D01*
X178372342Y-48857017D01*
X178165682Y-48944739D01*
X177799973Y-49849902D01*
X136506413Y-49849902D01*
X136529738Y-49834317D01*
X136856631Y-49345087D01*
X136971421Y-48768000D01*
X136856631Y-48190913D01*
X136619487Y-47836003D01*
X136787699Y-47766327D01*
X136966327Y-47587698D01*
X137063000Y-47354309D01*
X137063000Y-46886750D01*
X136904250Y-46728000D01*
X135778000Y-46728000D01*
X135778000Y-47228000D01*
X134478000Y-47228000D01*
X134478000Y-46728000D01*
X133351750Y-46728000D01*
X133193000Y-46886750D01*
X133193000Y-47354309D01*
X133289673Y-47587698D01*
X133468301Y-47766327D01*
X133636513Y-47836003D01*
X133399369Y-48190913D01*
X133284579Y-48768000D01*
X133399369Y-49345087D01*
X133726262Y-49834317D01*
X134031095Y-50038000D01*
X133726262Y-50241683D01*
X133399369Y-50730913D01*
X133284579Y-51308000D01*
X133399369Y-51885087D01*
X133726262Y-52374317D01*
X134031095Y-52578000D01*
X133726262Y-52781683D01*
X133399369Y-53270913D01*
X133284579Y-53848000D01*
X133399369Y-54425087D01*
X133726262Y-54914317D01*
X134031095Y-55118000D01*
X133726262Y-55321683D01*
X133399369Y-55810913D01*
X133284579Y-56388000D01*
X133399369Y-56965087D01*
X133726262Y-57454317D01*
X134215492Y-57781210D01*
X134792579Y-57896000D01*
X135463421Y-57896000D01*
X136040508Y-57781210D01*
X136529738Y-57454317D01*
X136856631Y-56965087D01*
X136971421Y-56388000D01*
X136856631Y-55810913D01*
X136531696Y-55324613D01*
X144579942Y-58230273D01*
X157595659Y-67373000D01*
X123364086Y-67373000D01*
X123314676Y-67383006D01*
X123273051Y-67411447D01*
X123245771Y-67453841D01*
X123238819Y-67479091D01*
X121644035Y-77033365D01*
X116872651Y-80080000D01*
X116300000Y-80080000D01*
X116300000Y-80445651D01*
X116246205Y-80480000D01*
X115500000Y-80480000D01*
X115500000Y-80080000D01*
X114623750Y-80080000D01*
X114465000Y-80238750D01*
X114465000Y-80606309D01*
X114561673Y-80839698D01*
X114700000Y-80978026D01*
X114700000Y-81150937D01*
X113900000Y-81150937D01*
X113900000Y-80750937D01*
X113023750Y-80750937D01*
X112865000Y-80909687D01*
X112865000Y-81104352D01*
X109717153Y-79424628D01*
X112865000Y-79424628D01*
X112865000Y-79792187D01*
X113023750Y-79950937D01*
X113900000Y-79950937D01*
X113900000Y-79074687D01*
X113741250Y-78915937D01*
X113373690Y-78915937D01*
X113140301Y-79012610D01*
X112961673Y-79191239D01*
X112865000Y-79424628D01*
X109717153Y-79424628D01*
X108459800Y-78753691D01*
X114465000Y-78753691D01*
X114465000Y-79121250D01*
X114623750Y-79280000D01*
X114700000Y-79280000D01*
X114700000Y-79950937D01*
X115576250Y-79950937D01*
X115735000Y-79792187D01*
X115735000Y-79424628D01*
X115638327Y-79191239D01*
X115500000Y-79052911D01*
X115500000Y-78880000D01*
X116300000Y-78880000D01*
X116300000Y-79280000D01*
X117176250Y-79280000D01*
X117335000Y-79121250D01*
X117335000Y-78753691D01*
X117238327Y-78520302D01*
X117059699Y-78341673D01*
X117043002Y-78334757D01*
X117043002Y-78245000D01*
X116684547Y-78245000D01*
X117008222Y-77921890D01*
X117079321Y-77750663D01*
X117238681Y-77816835D01*
X117759036Y-77817289D01*
X118239954Y-77618578D01*
X118608222Y-77250953D01*
X118807772Y-76770382D01*
X118808226Y-76250027D01*
X118609515Y-75769109D01*
X118241890Y-75400841D01*
X117761319Y-75201291D01*
X117240964Y-75200837D01*
X116760046Y-75399548D01*
X116391778Y-75767173D01*
X116320679Y-75938400D01*
X116161319Y-75872228D01*
X115640964Y-75871774D01*
X115160046Y-76070485D01*
X114791778Y-76438110D01*
X114592228Y-76918681D01*
X114591774Y-77439036D01*
X114790485Y-77919954D01*
X115114963Y-78245000D01*
X114756998Y-78245000D01*
X114756998Y-78334757D01*
X114740301Y-78341673D01*
X114561673Y-78520302D01*
X114465000Y-78753691D01*
X108459800Y-78753691D01*
X101392818Y-74982676D01*
X101766229Y-74609265D01*
X101051105Y-73894141D01*
X100460216Y-74485030D01*
X99888362Y-74179882D01*
X100073682Y-72888436D01*
X100380460Y-73195214D01*
X100339074Y-73349670D01*
X100606599Y-73421353D01*
X101051105Y-73865859D01*
X101307741Y-73609223D01*
X101424325Y-73640462D01*
X101509401Y-73407563D01*
X101735968Y-73180996D01*
X109711652Y-73180996D01*
X110016708Y-73919287D01*
X110581074Y-74484639D01*
X111318832Y-74790983D01*
X112117664Y-74791680D01*
X112855955Y-74486624D01*
X113421307Y-73922258D01*
X113727651Y-73184500D01*
X113728348Y-72385668D01*
X113423292Y-71647377D01*
X112858926Y-71082025D01*
X112121168Y-70775681D01*
X111322336Y-70774984D01*
X110584045Y-71080040D01*
X110018693Y-71644406D01*
X109712349Y-72382164D01*
X109711652Y-73180996D01*
X101735968Y-73180996D01*
X101766229Y-73150735D01*
X100959555Y-72344061D01*
X100936859Y-72318181D01*
X100932999Y-72317505D01*
X100253164Y-71637670D01*
X100831488Y-67607477D01*
X100855908Y-67571976D01*
X100875667Y-67525597D01*
X100875825Y-67475184D01*
X100856357Y-67428682D01*
X100855318Y-67427664D01*
X109276716Y-67427664D01*
X109581772Y-68165955D01*
X110146138Y-68731307D01*
X110883896Y-69037651D01*
X111682728Y-69038348D01*
X112421019Y-68733292D01*
X112986371Y-68168926D01*
X113292715Y-67431168D01*
X113292829Y-67300016D01*
X117721860Y-67300016D01*
X117844611Y-67597097D01*
X118071707Y-67824590D01*
X118368574Y-67947860D01*
X118690016Y-67948140D01*
X118987097Y-67825389D01*
X119214590Y-67598293D01*
X119337860Y-67301426D01*
X119338034Y-67101590D01*
X120427701Y-65014601D01*
X120462097Y-65000389D01*
X120689590Y-64773293D01*
X120812860Y-64476426D01*
X120813140Y-64154984D01*
X120690389Y-63857903D01*
X120463293Y-63630410D01*
X120166426Y-63507140D01*
X119844984Y-63506860D01*
X119547903Y-63629611D01*
X119320410Y-63856707D01*
X119197140Y-64153574D01*
X119196966Y-64353411D01*
X118107299Y-66440399D01*
X118072903Y-66454611D01*
X117845410Y-66681707D01*
X117722140Y-66978574D01*
X117721860Y-67300016D01*
X113292829Y-67300016D01*
X113293412Y-66632336D01*
X112988356Y-65894045D01*
X112423990Y-65328693D01*
X111686232Y-65022349D01*
X110887400Y-65021652D01*
X110149109Y-65326708D01*
X109583757Y-65891074D01*
X109277413Y-66628832D01*
X109276716Y-67427664D01*
X100855318Y-67427664D01*
X100820331Y-67393417D01*
X100751273Y-67373000D01*
X97375970Y-67373000D01*
X97325914Y-67298086D01*
X96817914Y-66790086D01*
X96591305Y-66638670D01*
X96324000Y-66585500D01*
X96056695Y-66638670D01*
X95830086Y-66790086D01*
X95678670Y-67016695D01*
X95657106Y-67125106D01*
X95548696Y-67146670D01*
X95396580Y-67248311D01*
X95322086Y-67298086D01*
X95247172Y-67373000D01*
X93587558Y-67373000D01*
X93537429Y-67274662D01*
X93512365Y-66811622D01*
X93739725Y-66404704D01*
X93887475Y-66275237D01*
X94069954Y-66159769D01*
X94298274Y-66073013D01*
X94687514Y-65997343D01*
X95323115Y-65935606D01*
X96265478Y-65885500D01*
X97405232Y-65844316D01*
X100669857Y-65738515D01*
X100681043Y-65735911D01*
X100692438Y-65737363D01*
X100796189Y-65709103D01*
X100900908Y-65684722D01*
X100910247Y-65678035D01*
X100921329Y-65675016D01*
X101006370Y-65609201D01*
X101093785Y-65546604D01*
X101099853Y-65536854D01*
X101108937Y-65529823D01*
X101162322Y-65436467D01*
X101219124Y-65345189D01*
X101220998Y-65333859D01*
X101226701Y-65323887D01*
X101240299Y-65217195D01*
X101257844Y-65111140D01*
X101255241Y-65099958D01*
X101256693Y-65088561D01*
X101228429Y-64984796D01*
X101204051Y-64880089D01*
X101197364Y-64870752D01*
X101194346Y-64859670D01*
X100558179Y-63582990D01*
X100730016Y-63583140D01*
X101027097Y-63460389D01*
X101254590Y-63233293D01*
X101268407Y-63200016D01*
X104331860Y-63200016D01*
X104454611Y-63497097D01*
X104681707Y-63724590D01*
X104978574Y-63847860D01*
X105300016Y-63848140D01*
X105597097Y-63725389D01*
X105824590Y-63498293D01*
X105835150Y-63472862D01*
X106632005Y-63073372D01*
X106631860Y-63240016D01*
X106754611Y-63537097D01*
X106981707Y-63764590D01*
X107278574Y-63887860D01*
X107600016Y-63888140D01*
X107897097Y-63765389D01*
X108124590Y-63538293D01*
X108129294Y-63526965D01*
X109524885Y-62867935D01*
X109760016Y-62868140D01*
X110057097Y-62745389D01*
X110284590Y-62518293D01*
X110407860Y-62221426D01*
X110408140Y-61899984D01*
X110285389Y-61602903D01*
X110058293Y-61375410D01*
X110036745Y-61366462D01*
X112586960Y-60087954D01*
X112800016Y-60088140D01*
X113097097Y-59965389D01*
X113324590Y-59738293D01*
X113447860Y-59441426D01*
X113448140Y-59119984D01*
X113325389Y-58822903D01*
X113098293Y-58595410D01*
X112801426Y-58472140D01*
X112479984Y-58471860D01*
X112182903Y-58594611D01*
X111955410Y-58821707D01*
X111944850Y-58847138D01*
X105193040Y-62232046D01*
X104979984Y-62231860D01*
X104682903Y-62354611D01*
X104455410Y-62581707D01*
X104332140Y-62878574D01*
X104331860Y-63200016D01*
X101268407Y-63200016D01*
X101377860Y-62936426D01*
X101378081Y-62682418D01*
X101798919Y-61749705D01*
X101884611Y-61957097D01*
X102111707Y-62184590D01*
X102408574Y-62307860D01*
X102730016Y-62308140D01*
X103027097Y-62185389D01*
X103254590Y-61958293D01*
X103375019Y-61668268D01*
X105096518Y-59864794D01*
X105337097Y-59765389D01*
X105564590Y-59538293D01*
X105687860Y-59241426D01*
X105688140Y-58919984D01*
X105565389Y-58622903D01*
X105338293Y-58395410D01*
X105041426Y-58272140D01*
X104719984Y-58271860D01*
X104422903Y-58394611D01*
X104195410Y-58621707D01*
X104074981Y-58911732D01*
X102353484Y-60715205D01*
X102245562Y-60759798D01*
X103592634Y-57774245D01*
X104666194Y-56720784D01*
X105247308Y-56320016D01*
X108831860Y-56320016D01*
X108954611Y-56617097D01*
X109181707Y-56844590D01*
X109478574Y-56967860D01*
X109800016Y-56968140D01*
X109954257Y-56904409D01*
X113766287Y-57392204D01*
X115252856Y-57604571D01*
X115075410Y-57781707D01*
X114952140Y-58078574D01*
X114951860Y-58400016D01*
X115074611Y-58697097D01*
X115301707Y-58924590D01*
X115598574Y-59047860D01*
X115920016Y-59048140D01*
X116179224Y-58941038D01*
X116988983Y-58945916D01*
X117258574Y-59057860D01*
X117580016Y-59058140D01*
X117877097Y-58935389D01*
X118104590Y-58708293D01*
X118227860Y-58411426D01*
X118228140Y-58089984D01*
X118105389Y-57792903D01*
X117918238Y-57605425D01*
X118027860Y-57341426D01*
X118028140Y-57019984D01*
X117905389Y-56722903D01*
X117678293Y-56495410D01*
X117387890Y-56374824D01*
X117484590Y-56278293D01*
X117607860Y-55981426D01*
X117608140Y-55659984D01*
X117485389Y-55362903D01*
X117258293Y-55135410D01*
X116961426Y-55012140D01*
X116639984Y-55011860D01*
X116467524Y-55083119D01*
X111911734Y-54608910D01*
X111878293Y-54575410D01*
X111581426Y-54452140D01*
X111259984Y-54451860D01*
X110962903Y-54574611D01*
X110735410Y-54801707D01*
X110612140Y-55098574D01*
X110611860Y-55420016D01*
X110681726Y-55589105D01*
X110142970Y-55520165D01*
X110098293Y-55475410D01*
X109801426Y-55352140D01*
X109479984Y-55351860D01*
X109182903Y-55474611D01*
X108955410Y-55701707D01*
X108832140Y-55998574D01*
X108831860Y-56320016D01*
X105247308Y-56320016D01*
X105438656Y-56188052D01*
X105540016Y-56188140D01*
X105837097Y-56065389D01*
X106064590Y-55838293D01*
X106187860Y-55541426D01*
X106188140Y-55219984D01*
X106065389Y-54922903D01*
X105838293Y-54695410D01*
X105541426Y-54572140D01*
X105219984Y-54571860D01*
X104922903Y-54694611D01*
X104695410Y-54921707D01*
X104647744Y-55036499D01*
X103823439Y-55604986D01*
X103781340Y-55648341D01*
X103730775Y-55681441D01*
X102576151Y-56814449D01*
X102541712Y-56835939D01*
X102535283Y-56844941D01*
X102526086Y-56851086D01*
X102456312Y-56955510D01*
X102383311Y-57057721D01*
X102373162Y-57080214D01*
X102373161Y-57080217D01*
X102373160Y-57080219D01*
X100112945Y-62089594D01*
X100112903Y-62089611D01*
X99913313Y-62288852D01*
X96026167Y-54488002D01*
X94640565Y-51697168D01*
X93438863Y-49250462D01*
X92408823Y-47116448D01*
X91538073Y-45263497D01*
X91262064Y-44652109D01*
X91468574Y-44737860D01*
X91790016Y-44738140D01*
X92087097Y-44615389D01*
X92314590Y-44388293D01*
X92437860Y-44091426D01*
X92438140Y-43769984D01*
X92331638Y-43512228D01*
X92342819Y-42013944D01*
X92626260Y-40949223D01*
X96169960Y-39287439D01*
X97274428Y-39702444D01*
X97197140Y-39888574D01*
X97196860Y-40210016D01*
X97319611Y-40507097D01*
X97540496Y-40728368D01*
X97539116Y-40728060D01*
X97528144Y-40720952D01*
X96208144Y-40195952D01*
X96133937Y-40182280D01*
X96063301Y-40155751D01*
X96001213Y-40157827D01*
X95940115Y-40146570D01*
X95866324Y-40162337D01*
X95790912Y-40164858D01*
X95734343Y-40190537D01*
X95673589Y-40203518D01*
X95611450Y-40246322D01*
X95542743Y-40277511D01*
X94692743Y-40887511D01*
X94618317Y-40967085D01*
X94537801Y-41040471D01*
X94525825Y-41065977D01*
X94506575Y-41086558D01*
X94468269Y-41188552D01*
X94421962Y-41287169D01*
X94394604Y-41397695D01*
X94290410Y-41501707D01*
X94167140Y-41798574D01*
X94166860Y-42120016D01*
X94289611Y-42417097D01*
X94516707Y-42644590D01*
X94813574Y-42767860D01*
X95135016Y-42768140D01*
X95432097Y-42645389D01*
X95640120Y-42437729D01*
X95796707Y-42594590D01*
X96093574Y-42717860D01*
X96355248Y-42718088D01*
X114322492Y-50663820D01*
X114444126Y-50691023D01*
X114564769Y-50722340D01*
X120114664Y-51042526D01*
X120126707Y-51054590D01*
X120423574Y-51177860D01*
X120745016Y-51178140D01*
X121042097Y-51055389D01*
X121269590Y-50828293D01*
X121392860Y-50531426D01*
X121393140Y-50209984D01*
X121270389Y-49912903D01*
X121175242Y-49817590D01*
X121204590Y-49788293D01*
X121327860Y-49491426D01*
X121328003Y-49327540D01*
X121683846Y-49452894D01*
X122631055Y-52455063D01*
X122617140Y-52488574D01*
X122616860Y-52810016D01*
X122691746Y-52991253D01*
X122477903Y-53079611D01*
X122250410Y-53306707D01*
X122127140Y-53603574D01*
X122126900Y-53878707D01*
X120615957Y-57416527D01*
X120405410Y-57626707D01*
X120282140Y-57923574D01*
X120281860Y-58245016D01*
X120404611Y-58542097D01*
X120631707Y-58769590D01*
X120928574Y-58892860D01*
X121250016Y-58893140D01*
X121547097Y-58770389D01*
X121774590Y-58543293D01*
X121811956Y-58453305D01*
X122192599Y-59273151D01*
X122192600Y-59273152D01*
X122246454Y-59389147D01*
X122407245Y-59609203D01*
X122640009Y-59750977D01*
X122909309Y-59792884D01*
X122944431Y-59784352D01*
X129387720Y-62458249D01*
X129589707Y-62660590D01*
X129886574Y-62783860D01*
X130208016Y-62784140D01*
X130505097Y-62661389D01*
X130732590Y-62434293D01*
X130855860Y-62137426D01*
X130856140Y-61815984D01*
X130733389Y-61518903D01*
X130506293Y-61291410D01*
X130209426Y-61168140D01*
X129923056Y-61167891D01*
X124108039Y-58754719D01*
X124179590Y-58683293D01*
X124302860Y-58386426D01*
X124303114Y-58094743D01*
X125726319Y-54618774D01*
X125806611Y-54813097D01*
X125887240Y-54893867D01*
X126234823Y-56631782D01*
X126192140Y-56734574D01*
X126191860Y-57056016D01*
X126314611Y-57353097D01*
X126541707Y-57580590D01*
X126838574Y-57703860D01*
X127160016Y-57704140D01*
X127457097Y-57581389D01*
X127684590Y-57354293D01*
X127807860Y-57057426D01*
X127808140Y-56735984D01*
X127685389Y-56438903D01*
X127604760Y-56358133D01*
X127257177Y-54620218D01*
X127260767Y-54611571D01*
X127410562Y-54673771D01*
X128833937Y-56175042D01*
X128954611Y-56467097D01*
X129181707Y-56694590D01*
X129478574Y-56817860D01*
X129723599Y-56818073D01*
X129766849Y-58005489D01*
X129672140Y-58233574D01*
X129671860Y-58555016D01*
X129794611Y-58852097D01*
X130021707Y-59079590D01*
X130318574Y-59202860D01*
X130640016Y-59203140D01*
X130937097Y-59080389D01*
X131164590Y-58853293D01*
X131287860Y-58556426D01*
X131288140Y-58234984D01*
X131165389Y-57937903D01*
X131162197Y-57934706D01*
X131068037Y-55349575D01*
X131045532Y-55254636D01*
X131033861Y-55157765D01*
X128396624Y-47098484D01*
X128407860Y-47071426D01*
X128408140Y-46749984D01*
X128285389Y-46452903D01*
X128058293Y-46225410D01*
X127761426Y-46102140D01*
X127439984Y-46101860D01*
X127142903Y-46224611D01*
X126915410Y-46451707D01*
X126792140Y-46748574D01*
X126791860Y-47070016D01*
X126914611Y-47367097D01*
X127063403Y-47516150D01*
X129442454Y-54786425D01*
X128436063Y-53724958D01*
X128315389Y-53432903D01*
X128088293Y-53205410D01*
X127791426Y-53082140D01*
X127469984Y-53081860D01*
X127172903Y-53204611D01*
X126945410Y-53431707D01*
X126861233Y-53634429D01*
X126653426Y-53548140D01*
X126331984Y-53547860D01*
X126130751Y-53631007D01*
X126266415Y-53299669D01*
X126282916Y-53214905D01*
X126311529Y-53133434D01*
X126308719Y-53082360D01*
X126318494Y-53032150D01*
X126301302Y-52947526D01*
X126296559Y-52861305D01*
X125684889Y-50478787D01*
X125712860Y-50411426D01*
X125713140Y-50089984D01*
X125590389Y-49792903D01*
X125363293Y-49565410D01*
X125066426Y-49442140D01*
X124744984Y-49441860D01*
X124447903Y-49564611D01*
X124402301Y-49610133D01*
X124156162Y-48778058D01*
X124250016Y-48778140D01*
X124547097Y-48655389D01*
X124774590Y-48428293D01*
X124897860Y-48131426D01*
X124898140Y-47809984D01*
X124775389Y-47512903D01*
X124548293Y-47285410D01*
X124251426Y-47162140D01*
X123929984Y-47161860D01*
X123852926Y-47193700D01*
X123674693Y-47150450D01*
X123576712Y-46819224D01*
X124055228Y-45101691D01*
X133193000Y-45101691D01*
X133193000Y-45569250D01*
X133351750Y-45728000D01*
X134478000Y-45728000D01*
X134478000Y-44751750D01*
X135778000Y-44751750D01*
X135778000Y-45728000D01*
X136904250Y-45728000D01*
X137063000Y-45569250D01*
X137063000Y-45101691D01*
X136966327Y-44868302D01*
X136787699Y-44689673D01*
X136554310Y-44593000D01*
X135936750Y-44593000D01*
X135778000Y-44751750D01*
X134478000Y-44751750D01*
X134319250Y-44593000D01*
X133701690Y-44593000D01*
X133468301Y-44689673D01*
X133289673Y-44868302D01*
X133193000Y-45101691D01*
X124055228Y-45101691D01*
X124813835Y-42378838D01*
X124934590Y-42258293D01*
X125057860Y-41961426D01*
X125058140Y-41639984D01*
X124935389Y-41342903D01*
X124708293Y-41115410D01*
X124411426Y-40992140D01*
X124089984Y-40991860D01*
X123792903Y-41114611D01*
X123565410Y-41341707D01*
X123442140Y-41638574D01*
X123441860Y-41960016D01*
X123464829Y-42015604D01*
X122177127Y-46637533D01*
X122172722Y-46695867D01*
X122155353Y-46751732D01*
X122162559Y-46830466D01*
X122156606Y-46909300D01*
X122174860Y-46964880D01*
X122180192Y-47023139D01*
X122181355Y-47027070D01*
X122056782Y-47026962D01*
X121563210Y-46772647D01*
X121493262Y-46670498D01*
X121264943Y-46521670D01*
X120997052Y-46471545D01*
X120805654Y-46473723D01*
X114495179Y-46545542D01*
X114132259Y-46456865D01*
X114252860Y-46166426D01*
X114253140Y-45844984D01*
X114239729Y-45812527D01*
X115511167Y-41831466D01*
X115654590Y-41688293D01*
X115777860Y-41391426D01*
X115778140Y-41069984D01*
X115655389Y-40772903D01*
X115428293Y-40545410D01*
X115131426Y-40422140D01*
X114809984Y-40421860D01*
X114512903Y-40544611D01*
X114285410Y-40771707D01*
X114162140Y-41068574D01*
X114161860Y-41390016D01*
X114175271Y-41422473D01*
X112903832Y-45403535D01*
X112760410Y-45546707D01*
X112683838Y-45731112D01*
X111367220Y-44870355D01*
X111308237Y-44846614D01*
X111255549Y-44811024D01*
X104293733Y-41886210D01*
X104088293Y-41680410D01*
X103791426Y-41557140D01*
X103469984Y-41556860D01*
X103172903Y-41679611D01*
X102945410Y-41906707D01*
X102829992Y-42184664D01*
X100288366Y-41032340D01*
X99851115Y-40670635D01*
X100059310Y-40748864D01*
X100142615Y-40762571D01*
X100222914Y-40788660D01*
X110876579Y-42049392D01*
X110916707Y-42089590D01*
X111213574Y-42212860D01*
X111535016Y-42213140D01*
X111832097Y-42090389D01*
X112059590Y-41863293D01*
X112182860Y-41566426D01*
X112183140Y-41244984D01*
X112060389Y-40947903D01*
X111833293Y-40720410D01*
X111536426Y-40597140D01*
X111214984Y-40596860D01*
X111053506Y-40663581D01*
X100471306Y-39411306D01*
X96385690Y-37876136D01*
X96381296Y-37875413D01*
X96377482Y-37873110D01*
X96246952Y-37853308D01*
X96116765Y-37831887D01*
X96112430Y-37832900D01*
X96108024Y-37832232D01*
X95979853Y-37863889D01*
X95851377Y-37893919D01*
X95847759Y-37896515D01*
X95843434Y-37897583D01*
X91738434Y-39822583D01*
X91713766Y-39840752D01*
X91684769Y-39850648D01*
X91604777Y-39921030D01*
X91518994Y-39984214D01*
X91503156Y-40010441D01*
X91480154Y-40030680D01*
X91433188Y-40126308D01*
X91378110Y-40217517D01*
X91373514Y-40247811D01*
X91360009Y-40275309D01*
X90970008Y-41740309D01*
X90964380Y-41828371D01*
X90946519Y-41914787D01*
X90934708Y-43497481D01*
X90841810Y-43721204D01*
X90814348Y-43660373D01*
X90225313Y-42275969D01*
X89758535Y-41079485D01*
X89401129Y-40039819D01*
X89139639Y-39125218D01*
X88959984Y-38302174D01*
X88848054Y-37534759D01*
X88790694Y-36785100D01*
X88779433Y-36210016D01*
X93031860Y-36210016D01*
X93154611Y-36507097D01*
X93381707Y-36734590D01*
X93678574Y-36857860D01*
X94000016Y-36858140D01*
X94194420Y-36777814D01*
X106580414Y-37730211D01*
X106919201Y-37772009D01*
X106961707Y-37814590D01*
X107258574Y-37937860D01*
X107580016Y-37938140D01*
X107877097Y-37815389D01*
X108104590Y-37588293D01*
X108128788Y-37530016D01*
X120226860Y-37530016D01*
X120349611Y-37827097D01*
X120576707Y-38054590D01*
X120873574Y-38177860D01*
X121195016Y-38178140D01*
X121375946Y-38103382D01*
X124938246Y-38436079D01*
X124966707Y-38464590D01*
X125263574Y-38587860D01*
X125585016Y-38588140D01*
X125882097Y-38465389D01*
X126109590Y-38238293D01*
X126232860Y-37941426D01*
X126233140Y-37619984D01*
X126110389Y-37322903D01*
X125883293Y-37095410D01*
X125586426Y-36972140D01*
X125264984Y-36971860D01*
X125084054Y-37046618D01*
X121521754Y-36713921D01*
X121493293Y-36685410D01*
X121196426Y-36562140D01*
X120874984Y-36561860D01*
X120577903Y-36684611D01*
X120350410Y-36911707D01*
X120227140Y-37208574D01*
X120226860Y-37530016D01*
X108128788Y-37530016D01*
X108227860Y-37291426D01*
X108228140Y-36969984D01*
X108105389Y-36672903D01*
X107878293Y-36445410D01*
X107581426Y-36322140D01*
X107259984Y-36321860D01*
X107102312Y-36387008D01*
X106735530Y-36341756D01*
X106719260Y-36342956D01*
X106703552Y-36338556D01*
X94319126Y-35386280D01*
X94298293Y-35365410D01*
X94001426Y-35242140D01*
X93679984Y-35241860D01*
X93382903Y-35364611D01*
X93155410Y-35591707D01*
X93032140Y-35888574D01*
X93031860Y-36210016D01*
X88779433Y-36210016D01*
X88776381Y-36054184D01*
X88853268Y-34910016D01*
X102111860Y-34910016D01*
X102234611Y-35207097D01*
X102461707Y-35434590D01*
X102758574Y-35557860D01*
X103080016Y-35558140D01*
X103377097Y-35435389D01*
X103395579Y-35416939D01*
X108057647Y-35090816D01*
X107992140Y-35248574D01*
X107991860Y-35570016D01*
X108114611Y-35867097D01*
X108341707Y-36094590D01*
X108638574Y-36217860D01*
X108960016Y-36218140D01*
X109080288Y-36168445D01*
X114734022Y-37161786D01*
X114801707Y-37229590D01*
X115098574Y-37352860D01*
X115420016Y-37353140D01*
X115717097Y-37230389D01*
X115944590Y-37003293D01*
X116067860Y-36706426D01*
X116068140Y-36384984D01*
X115945389Y-36087903D01*
X115718293Y-35860410D01*
X115421426Y-35737140D01*
X115099984Y-35736860D01*
X114979712Y-35786555D01*
X110227020Y-34951524D01*
X115797758Y-34633196D01*
X119991881Y-35631339D01*
X120856309Y-36057005D01*
X120864611Y-36077097D01*
X121091707Y-36304590D01*
X121388574Y-36427860D01*
X121710016Y-36428140D01*
X121998276Y-36309034D01*
X128977016Y-36159155D01*
X130346010Y-36278848D01*
X130371707Y-36304590D01*
X130668574Y-36427860D01*
X130990016Y-36428140D01*
X131275602Y-36310139D01*
X134980117Y-36239577D01*
X140590301Y-37153077D01*
X140651707Y-37214590D01*
X140948574Y-37337860D01*
X141270016Y-37338140D01*
X141530839Y-37230370D01*
X151970643Y-37276605D01*
X152238574Y-37387860D01*
X152560016Y-37388140D01*
X152769021Y-37301781D01*
X161771757Y-37839394D01*
X165539529Y-48780780D01*
X165532140Y-48798574D01*
X165531860Y-49120016D01*
X165654611Y-49417097D01*
X165881707Y-49644590D01*
X166178574Y-49767860D01*
X166500016Y-49768140D01*
X166797097Y-49645389D01*
X167024590Y-49418293D01*
X167147860Y-49121426D01*
X167148140Y-48799984D01*
X167025389Y-48502903D01*
X166866559Y-48343795D01*
X164763923Y-42237862D01*
X167670786Y-42237862D01*
X168735442Y-44814527D01*
X169148629Y-45228436D01*
X169121426Y-45217140D01*
X168799984Y-45216860D01*
X168502903Y-45339611D01*
X168275410Y-45566707D01*
X168152140Y-45863574D01*
X168151860Y-46185016D01*
X168274611Y-46482097D01*
X168501707Y-46709590D01*
X168655385Y-46773403D01*
X170286915Y-48886368D01*
X170286860Y-48950016D01*
X170409611Y-49247097D01*
X170636707Y-49474590D01*
X170933574Y-49597860D01*
X171255016Y-49598140D01*
X171552097Y-49475389D01*
X171779590Y-49248293D01*
X171902860Y-48951426D01*
X171903049Y-48734354D01*
X175462671Y-48734354D01*
X175550393Y-48941013D01*
X176594634Y-49362914D01*
X176960343Y-48457751D01*
X176872622Y-48251091D01*
X176534254Y-48114382D01*
X176300030Y-48019749D01*
X176047421Y-48021954D01*
X175814885Y-48120661D01*
X175637822Y-48300841D01*
X175462671Y-48734354D01*
X171903049Y-48734354D01*
X171903140Y-48629984D01*
X171780389Y-48332903D01*
X171553293Y-48105410D01*
X171399616Y-48041598D01*
X169768085Y-45928632D01*
X169768140Y-45864984D01*
X169756891Y-45837760D01*
X170705104Y-46787629D01*
X173279907Y-47856781D01*
X176067862Y-47859214D01*
X178644527Y-46794558D01*
X180617629Y-44824896D01*
X181686781Y-42250093D01*
X181689214Y-39462138D01*
X180624558Y-36885473D01*
X178654896Y-34912371D01*
X176080093Y-33843219D01*
X173292138Y-33840786D01*
X170715473Y-34905442D01*
X168742371Y-36875104D01*
X167673219Y-39449907D01*
X167670786Y-42237862D01*
X164763923Y-42237862D01*
X163080471Y-37349220D01*
X163087860Y-37331426D01*
X163088140Y-37009984D01*
X162965389Y-36712903D01*
X162738293Y-36485410D01*
X162441426Y-36362140D01*
X162119984Y-36361860D01*
X161910979Y-36448219D01*
X152871258Y-35908397D01*
X152858293Y-35895410D01*
X152561426Y-35772140D01*
X152239984Y-35771860D01*
X151979161Y-35879630D01*
X141539357Y-35833395D01*
X141271426Y-35722140D01*
X140949984Y-35721860D01*
X140820846Y-35775219D01*
X135142258Y-34850580D01*
X135079001Y-34852791D01*
X135016698Y-34841627D01*
X131235872Y-34913643D01*
X130991426Y-34812140D01*
X130669984Y-34811860D01*
X130484245Y-34888606D01*
X129060839Y-34764155D01*
X129022744Y-34768329D01*
X128985002Y-34761661D01*
X121953535Y-34912672D01*
X121711426Y-34812140D01*
X121490178Y-34811947D01*
X120538575Y-34343355D01*
X120462910Y-34323128D01*
X120391717Y-34290478D01*
X116021717Y-33250478D01*
X115920475Y-33246701D01*
X115820150Y-33232638D01*
X109580996Y-33589161D01*
X109371426Y-33502140D01*
X109049984Y-33501860D01*
X108752903Y-33624611D01*
X108734420Y-33643061D01*
X103280032Y-34024608D01*
X103081426Y-33942140D01*
X102759984Y-33941860D01*
X102462903Y-34064611D01*
X102235410Y-34291707D01*
X102112140Y-34588574D01*
X102111860Y-34910016D01*
X88853268Y-34910016D01*
X88857880Y-34841395D01*
X89106104Y-33914649D01*
X89552652Y-33159361D01*
X90276187Y-32459138D01*
X91369361Y-31742249D01*
X92213705Y-31292538D01*
X93188997Y-30841381D01*
X94153715Y-30487628D01*
X95191553Y-30212128D01*
X96386045Y-29999500D01*
X97815720Y-29837353D01*
X99554778Y-29713642D01*
X100997491Y-29642994D01*
X102745629Y-29565487D01*
X102747588Y-29565006D01*
X102749586Y-29565299D01*
X104153685Y-29493875D01*
X104157559Y-29492897D01*
X104161522Y-29493426D01*
X105297881Y-29420904D01*
X105304313Y-29419193D01*
X105310923Y-29419930D01*
X106257231Y-29339066D01*
X106266106Y-29336499D01*
X106275315Y-29337248D01*
X107109260Y-29240801D01*
X107118964Y-29237677D01*
X107129146Y-29238168D01*
X107928420Y-29118894D01*
X107936378Y-29116039D01*
X107944831Y-29116215D01*
X108787123Y-28966870D01*
X108791086Y-28965325D01*
X108795342Y-28965355D01*
X109301446Y-28868424D01*
X110883398Y-28664160D01*
X112526395Y-28668434D01*
M02*
