M48
;DRILL file {KiCad 4.0.7-e2-6376~58~ubuntu16.04.1} date Wed Apr 11 02:03:15 2018
;FORMAT={-:-/ absolute / inch / decimal}
FMAT,2
INCH,TZ
T1C0.016
T2C0.031
T3C0.039
T4C0.047
T5C0.079
T6C0.122
T7C0.472
%
G90
G05
M72
T1
X3.6075Y-1.7295
X3.6945Y-1.4193
X3.7392Y-1.652
X3.7896Y-1.65
X3.8585Y-1.5768
X3.9594Y-2.4715
X4.0283Y-1.9622
X4.0382Y-2.4213
X4.052Y-1.3681
X4.0799Y-1.6679
X4.1602Y-2.9524
X4.1906Y-2.2992
X4.2291Y-1.4618
X4.2398Y-1.4094
X4.2559Y-2.2961
X4.2835Y-1.3941
X4.2996Y-1.3508
X4.3116Y-1.5451
X4.3663Y-2.2504
X4.3848Y-1.6301
X4.4112Y-2.2232
X4.4394Y-1.5976
X4.4663Y-1.8112
X4.5264Y-1.6232
X4.5287Y-2.2201
X4.5378Y-1.4388
X4.551Y-2.2665
X4.5807Y-1.4
X4.6201Y-2.5673
X4.6531Y-3.278
X4.6665Y-2.6433
X4.6882Y-2.1175
X4.7039Y-1.4089
X4.7079Y-3.4575
X4.7246Y-2.5321
X4.7449Y-1.9421
X4.7474Y-1.9831
X4.7652Y-1.4713
X4.7673Y-2.2868
X4.7854Y-1.4024
X4.8071Y-1.8833
X4.84Y-2.1167
X4.8593Y-2.0728
X4.8594Y-2.178
X4.862Y-2.2923
X4.8854Y-1.8886
X4.8917Y-1.6457
X4.9175Y-1.9783
X4.9356Y-1.4354
X4.938Y-1.4874
X4.974Y-2.8335
X4.98Y-2.14
X5.Y-2.24
X5.0236Y-1.8469
X5.0248Y-2.1217
X5.0469Y-3.4846
X5.0689Y-1.4311
X5.1039Y-2.2051
X5.12Y-2.44
X5.137Y-2.299
X5.1508Y-1.4024
X5.3031Y-3.2614
X5.3339Y-1.44
X5.3689Y-3.1039
X5.4461Y-3.0305
X5.4807Y-1.464
X5.5321Y-3.2744
X5.5555Y-1.4382
X5.6539Y-3.0152
X5.7118Y-2.4012
X5.7961Y-1.4833
X5.8906Y-3.5106
X5.9167Y-1.4705
X5.9752Y-2.9459
X6.Y-1.4402
X6.1441Y-1.4791
X6.3161Y-3.3902
X6.389Y-1.4634
X6.436Y-1.761
X6.4921Y-2.4222
X6.5488Y-1.9276
X6.652Y-1.812
X6.736Y-1.9209
T2
X4.5Y-3.1634
X4.563Y-3.0386
X4.563Y-3.137
X4.626Y-3.0122
T4
X5.32Y-1.82
X5.32Y-1.92
X5.32Y-2.02
X5.32Y-2.12
X5.32Y-2.22
X6.8231Y-2.301
X6.8605Y-2.2083
X6.898Y-2.1156
X6.9354Y-2.0228
T5
X3.8945Y-2.8276
X4.3616Y-2.5579
X4.3787Y-2.7844
T6
X6.3268Y-2.7047
X6.563Y-2.7047
T7
X6.8772Y-1.6083
T3
X6.6837Y-2.9992G85X6.6817Y-2.9992
G05
X6.6837Y-3.1898G85X6.6817Y-3.1898
G05
T4
X6.8008Y-2.987G85X6.8008Y-2.987
G05
X6.8008Y-3.202G85X6.8008Y-3.202
G05
T0
M30
