G04 #@! TF.FileFunction,Legend,Top*
%FSLAX46Y46*%
G04 Gerber Fmt 4.6, Leading zero omitted, Abs format (unit mm)*
G04 Created by KiCad (PCBNEW 4.0.7-e2-6376~58~ubuntu16.04.1) date Wed Apr 11 02:03:13 2018*
%MOMM*%
%LPD*%
G01*
G04 APERTURE LIST*
%ADD10C,0.100000*%
%ADD11C,0.200000*%
%ADD12C,0.010000*%
%ADD13C,0.120000*%
%ADD14C,0.150000*%
%ADD15C,0.250000*%
%ADD16R,1.100000X1.700000*%
%ADD17R,1.700000X1.100000*%
%ADD18C,1.400000*%
%ADD19C,2.400000*%
%ADD20R,2.000000X2.000000*%
%ADD21C,2.000000*%
%ADD22R,1.960000X1.050000*%
%ADD23R,3.500000X1.400000*%
%ADD24C,4.900000*%
%ADD25R,2.050000X0.800000*%
%ADD26O,1.900000X1.600000*%
%ADD27O,2.100000X2.100000*%
%ADD28R,2.900000X1.830000*%
%ADD29C,13.400000*%
%ADD30R,3.000000X2.400000*%
%ADD31O,3.000000X2.400000*%
%ADD32C,3.400000*%
G04 APERTURE END LIST*
D10*
D11*
X144820000Y-75730000D02*
X146870000Y-73700000D01*
X154120000Y-83680000D02*
X154930000Y-82930000D01*
X154120000Y-82810000D02*
X154960000Y-83740000D01*
X105156000Y-71628000D02*
X104648000Y-71628000D01*
X105664000Y-71120000D02*
X105156000Y-71628000D01*
X105664000Y-70612000D02*
X105664000Y-71120000D01*
X106172000Y-70612000D02*
X105664000Y-70612000D01*
X105664000Y-70104000D02*
X106172000Y-70612000D01*
X105664000Y-70612000D02*
X105664000Y-70104000D01*
X105156000Y-70612000D02*
X105664000Y-70612000D01*
X104648000Y-71120000D02*
X105156000Y-70612000D01*
X104648000Y-71628000D02*
X104648000Y-71120000D01*
D12*
G36*
X118005156Y-70658163D02*
X118980238Y-70716108D01*
X119794348Y-70830896D01*
X120578252Y-71017736D01*
X120971667Y-71134216D01*
X123445093Y-72103498D01*
X125643659Y-73394667D01*
X127565913Y-75006481D01*
X129210404Y-76937696D01*
X130575682Y-79187070D01*
X130727937Y-79493224D01*
X131435278Y-81157086D01*
X131890702Y-82774641D01*
X132120676Y-84482845D01*
X132151669Y-86418658D01*
X132138546Y-86792506D01*
X131916450Y-89082060D01*
X131431942Y-91130844D01*
X130653336Y-93053017D01*
X130131666Y-94023300D01*
X129440163Y-95032751D01*
X128500022Y-96157241D01*
X127414753Y-97292067D01*
X126287869Y-98332528D01*
X125222882Y-99173919D01*
X124706926Y-99510429D01*
X122447214Y-100598286D01*
X120016317Y-101315669D01*
X117467589Y-101650981D01*
X115045000Y-101610356D01*
X112623274Y-101195948D01*
X110353462Y-100410640D01*
X108264666Y-99288662D01*
X106385990Y-97864241D01*
X104746537Y-96171608D01*
X103375411Y-94244989D01*
X102301715Y-92118616D01*
X101554553Y-89826715D01*
X101163027Y-87403515D01*
X101132559Y-85247822D01*
X101197362Y-84710000D01*
X104626220Y-84710000D01*
X111772298Y-84710000D01*
X111768232Y-86085571D01*
X111764167Y-87461141D01*
X108218750Y-87461404D01*
X106856098Y-87468695D01*
X105868732Y-87492796D01*
X105208810Y-87537393D01*
X104828487Y-87606176D01*
X104679920Y-87702831D01*
X104673334Y-87734696D01*
X104757311Y-88336218D01*
X104979146Y-89180952D01*
X105293694Y-90130377D01*
X105655809Y-91045970D01*
X105958409Y-91677759D01*
X106370793Y-92453795D01*
X106688747Y-92997252D01*
X106972396Y-93300383D01*
X107281866Y-93355443D01*
X107677285Y-93154685D01*
X108218779Y-92690363D01*
X108966472Y-91954732D01*
X109726819Y-91192279D01*
X112232564Y-88693062D01*
X114165254Y-90530834D01*
X111622195Y-93093536D01*
X109079137Y-95656238D01*
X110209985Y-96356651D01*
X111110434Y-96849597D01*
X112137624Y-97311813D01*
X113165842Y-97695884D01*
X114069374Y-97954395D01*
X114674584Y-98040536D01*
X115256667Y-98045000D01*
X115256667Y-91096122D01*
X116632944Y-91025144D01*
X118009222Y-90954167D01*
X118008778Y-94499584D01*
X118008334Y-98045000D01*
X118590417Y-98040536D01*
X119267346Y-97938183D01*
X120181543Y-97671338D01*
X121204401Y-97288458D01*
X122207316Y-96838002D01*
X123061681Y-96368428D01*
X123110773Y-96337268D01*
X124180478Y-95650839D01*
X121649868Y-93090836D01*
X119119258Y-90530834D01*
X120089608Y-89625673D01*
X121059959Y-88720513D01*
X123564053Y-91213173D01*
X126068146Y-93705834D01*
X126483670Y-93176667D01*
X127026079Y-92342872D01*
X127571740Y-91264636D01*
X128040607Y-90112577D01*
X128284166Y-89338946D01*
X128468664Y-88662270D01*
X128573709Y-88170627D01*
X128548632Y-87834640D01*
X128342762Y-87624935D01*
X127905429Y-87512136D01*
X127185963Y-87466867D01*
X126133694Y-87459754D01*
X125046250Y-87461796D01*
X121500834Y-87461925D01*
X121530802Y-86138879D01*
X121560770Y-84815834D01*
X125076218Y-84757799D01*
X126423531Y-84737181D01*
X127397664Y-84705995D01*
X128048285Y-84633459D01*
X128425065Y-84488791D01*
X128577674Y-84241207D01*
X128555780Y-83859925D01*
X128409054Y-83314161D01*
X128250561Y-82790501D01*
X127806535Y-81544707D01*
X127252892Y-80365066D01*
X126665016Y-79406789D01*
X126508970Y-79204647D01*
X126075154Y-78677500D01*
X121077500Y-83634014D01*
X119129738Y-81782976D01*
X121629857Y-79289370D01*
X122579524Y-78329758D01*
X123251052Y-77617664D01*
X123676978Y-77113047D01*
X123889841Y-76775866D01*
X123922181Y-76566080D01*
X123890613Y-76507350D01*
X123357280Y-76057572D01*
X122516739Y-75568851D01*
X121476201Y-75088651D01*
X120342878Y-74664439D01*
X119223983Y-74343678D01*
X118802084Y-74254529D01*
X118008334Y-74107484D01*
X118008308Y-77662492D01*
X118008283Y-81217500D01*
X116632475Y-81232903D01*
X115256667Y-81248305D01*
X115256667Y-74107484D01*
X114462917Y-74250806D01*
X113326195Y-74544392D01*
X112062750Y-75008509D01*
X110864682Y-75564934D01*
X110043957Y-76050158D01*
X109068964Y-76720971D01*
X114118646Y-81770653D01*
X112215774Y-83673525D01*
X109737530Y-81201737D01*
X108899461Y-80386392D01*
X108155391Y-79701101D01*
X107559370Y-79192605D01*
X107165452Y-78907648D01*
X107037618Y-78866948D01*
X106682711Y-79244722D01*
X106261470Y-79932998D01*
X105817868Y-80833569D01*
X105395877Y-81848228D01*
X105039470Y-82878767D01*
X104792620Y-83826979D01*
X104773945Y-83922560D01*
X104626220Y-84710000D01*
X101197362Y-84710000D01*
X101422082Y-82844978D01*
X102036840Y-80654645D01*
X103002255Y-78621581D01*
X104343745Y-76690548D01*
X105815683Y-75071243D01*
X106791211Y-74136886D01*
X107615808Y-73439783D01*
X108408155Y-72890818D01*
X109286934Y-72400871D01*
X109541667Y-72273410D01*
X111029136Y-71594189D01*
X112355997Y-71124523D01*
X113668189Y-70831324D01*
X115111654Y-70681506D01*
X116738334Y-70641852D01*
X118005156Y-70658163D01*
X118005156Y-70658163D01*
G37*
X118005156Y-70658163D02*
X118980238Y-70716108D01*
X119794348Y-70830896D01*
X120578252Y-71017736D01*
X120971667Y-71134216D01*
X123445093Y-72103498D01*
X125643659Y-73394667D01*
X127565913Y-75006481D01*
X129210404Y-76937696D01*
X130575682Y-79187070D01*
X130727937Y-79493224D01*
X131435278Y-81157086D01*
X131890702Y-82774641D01*
X132120676Y-84482845D01*
X132151669Y-86418658D01*
X132138546Y-86792506D01*
X131916450Y-89082060D01*
X131431942Y-91130844D01*
X130653336Y-93053017D01*
X130131666Y-94023300D01*
X129440163Y-95032751D01*
X128500022Y-96157241D01*
X127414753Y-97292067D01*
X126287869Y-98332528D01*
X125222882Y-99173919D01*
X124706926Y-99510429D01*
X122447214Y-100598286D01*
X120016317Y-101315669D01*
X117467589Y-101650981D01*
X115045000Y-101610356D01*
X112623274Y-101195948D01*
X110353462Y-100410640D01*
X108264666Y-99288662D01*
X106385990Y-97864241D01*
X104746537Y-96171608D01*
X103375411Y-94244989D01*
X102301715Y-92118616D01*
X101554553Y-89826715D01*
X101163027Y-87403515D01*
X101132559Y-85247822D01*
X101197362Y-84710000D01*
X104626220Y-84710000D01*
X111772298Y-84710000D01*
X111768232Y-86085571D01*
X111764167Y-87461141D01*
X108218750Y-87461404D01*
X106856098Y-87468695D01*
X105868732Y-87492796D01*
X105208810Y-87537393D01*
X104828487Y-87606176D01*
X104679920Y-87702831D01*
X104673334Y-87734696D01*
X104757311Y-88336218D01*
X104979146Y-89180952D01*
X105293694Y-90130377D01*
X105655809Y-91045970D01*
X105958409Y-91677759D01*
X106370793Y-92453795D01*
X106688747Y-92997252D01*
X106972396Y-93300383D01*
X107281866Y-93355443D01*
X107677285Y-93154685D01*
X108218779Y-92690363D01*
X108966472Y-91954732D01*
X109726819Y-91192279D01*
X112232564Y-88693062D01*
X114165254Y-90530834D01*
X111622195Y-93093536D01*
X109079137Y-95656238D01*
X110209985Y-96356651D01*
X111110434Y-96849597D01*
X112137624Y-97311813D01*
X113165842Y-97695884D01*
X114069374Y-97954395D01*
X114674584Y-98040536D01*
X115256667Y-98045000D01*
X115256667Y-91096122D01*
X116632944Y-91025144D01*
X118009222Y-90954167D01*
X118008778Y-94499584D01*
X118008334Y-98045000D01*
X118590417Y-98040536D01*
X119267346Y-97938183D01*
X120181543Y-97671338D01*
X121204401Y-97288458D01*
X122207316Y-96838002D01*
X123061681Y-96368428D01*
X123110773Y-96337268D01*
X124180478Y-95650839D01*
X121649868Y-93090836D01*
X119119258Y-90530834D01*
X120089608Y-89625673D01*
X121059959Y-88720513D01*
X123564053Y-91213173D01*
X126068146Y-93705834D01*
X126483670Y-93176667D01*
X127026079Y-92342872D01*
X127571740Y-91264636D01*
X128040607Y-90112577D01*
X128284166Y-89338946D01*
X128468664Y-88662270D01*
X128573709Y-88170627D01*
X128548632Y-87834640D01*
X128342762Y-87624935D01*
X127905429Y-87512136D01*
X127185963Y-87466867D01*
X126133694Y-87459754D01*
X125046250Y-87461796D01*
X121500834Y-87461925D01*
X121530802Y-86138879D01*
X121560770Y-84815834D01*
X125076218Y-84757799D01*
X126423531Y-84737181D01*
X127397664Y-84705995D01*
X128048285Y-84633459D01*
X128425065Y-84488791D01*
X128577674Y-84241207D01*
X128555780Y-83859925D01*
X128409054Y-83314161D01*
X128250561Y-82790501D01*
X127806535Y-81544707D01*
X127252892Y-80365066D01*
X126665016Y-79406789D01*
X126508970Y-79204647D01*
X126075154Y-78677500D01*
X121077500Y-83634014D01*
X119129738Y-81782976D01*
X121629857Y-79289370D01*
X122579524Y-78329758D01*
X123251052Y-77617664D01*
X123676978Y-77113047D01*
X123889841Y-76775866D01*
X123922181Y-76566080D01*
X123890613Y-76507350D01*
X123357280Y-76057572D01*
X122516739Y-75568851D01*
X121476201Y-75088651D01*
X120342878Y-74664439D01*
X119223983Y-74343678D01*
X118802084Y-74254529D01*
X118008334Y-74107484D01*
X118008308Y-77662492D01*
X118008283Y-81217500D01*
X116632475Y-81232903D01*
X115256667Y-81248305D01*
X115256667Y-74107484D01*
X114462917Y-74250806D01*
X113326195Y-74544392D01*
X112062750Y-75008509D01*
X110864682Y-75564934D01*
X110043957Y-76050158D01*
X109068964Y-76720971D01*
X114118646Y-81770653D01*
X112215774Y-83673525D01*
X109737530Y-81201737D01*
X108899461Y-80386392D01*
X108155391Y-79701101D01*
X107559370Y-79192605D01*
X107165452Y-78907648D01*
X107037618Y-78866948D01*
X106682711Y-79244722D01*
X106261470Y-79932998D01*
X105817868Y-80833569D01*
X105395877Y-81848228D01*
X105039470Y-82878767D01*
X104792620Y-83826979D01*
X104773945Y-83922560D01*
X104626220Y-84710000D01*
X101197362Y-84710000D01*
X101422082Y-82844978D01*
X102036840Y-80654645D01*
X103002255Y-78621581D01*
X104343745Y-76690548D01*
X105815683Y-75071243D01*
X106791211Y-74136886D01*
X107615808Y-73439783D01*
X108408155Y-72890818D01*
X109286934Y-72400871D01*
X109541667Y-72273410D01*
X111029136Y-71594189D01*
X112355997Y-71124523D01*
X113668189Y-70831324D01*
X115111654Y-70681506D01*
X116738334Y-70641852D01*
X118005156Y-70658163D01*
G36*
X160098211Y-70826065D02*
X162388995Y-71444272D01*
X164557972Y-72408150D01*
X166566035Y-73703461D01*
X168374076Y-75315967D01*
X169942986Y-77231429D01*
X171233657Y-79435609D01*
X171353319Y-79687244D01*
X172205203Y-82006962D01*
X172665951Y-84421112D01*
X172740133Y-86873692D01*
X172432316Y-89308703D01*
X171747070Y-91670144D01*
X170688963Y-93902015D01*
X170119646Y-94809165D01*
X168516325Y-96805115D01*
X166634612Y-98502440D01*
X164516642Y-99871368D01*
X162204547Y-100882131D01*
X161026105Y-101234424D01*
X159475100Y-101511204D01*
X157702145Y-101634002D01*
X155876134Y-101603196D01*
X154165964Y-101419168D01*
X153193580Y-101216805D01*
X150856057Y-100390443D01*
X148689234Y-99199525D01*
X146735692Y-97682978D01*
X145038012Y-95879727D01*
X143638777Y-93828698D01*
X142580567Y-91568815D01*
X142550695Y-91487691D01*
X141873171Y-89045565D01*
X141695859Y-87461667D01*
X145093601Y-87461667D01*
X145224694Y-88043750D01*
X145700577Y-89827588D01*
X146271835Y-91310684D01*
X146987748Y-92613111D01*
X147274562Y-93038518D01*
X147699832Y-93641202D01*
X150207951Y-91139618D01*
X152716070Y-88638033D01*
X153674225Y-89578390D01*
X154632379Y-90518748D01*
X152158679Y-92998909D01*
X151220674Y-93951187D01*
X150558482Y-94655976D01*
X150138676Y-95154891D01*
X149927829Y-95489548D01*
X149892513Y-95701562D01*
X149929673Y-95773909D01*
X150419517Y-96180308D01*
X151206810Y-96637275D01*
X152177292Y-97096863D01*
X153216702Y-97511124D01*
X154210779Y-97832110D01*
X155045262Y-98011872D01*
X155314584Y-98033617D01*
X155896667Y-98045000D01*
X155896667Y-91097601D01*
X157167053Y-91025884D01*
X158437438Y-90954167D01*
X158437053Y-94499584D01*
X158436667Y-98045000D01*
X158927416Y-98045000D01*
X159744332Y-97935061D01*
X160779358Y-97640406D01*
X161900143Y-97213778D01*
X162974333Y-96707920D01*
X163869577Y-96175575D01*
X164153687Y-95962303D01*
X164680834Y-95528488D01*
X162151298Y-92983918D01*
X161326210Y-92145053D01*
X160625465Y-91415554D01*
X160095578Y-90845262D01*
X159783064Y-90484017D01*
X159720381Y-90379258D01*
X159916768Y-90213162D01*
X160323033Y-89845468D01*
X160718703Y-89479169D01*
X161618406Y-88639172D01*
X166633502Y-93641202D01*
X167058772Y-93038518D01*
X167835454Y-91770319D01*
X168450632Y-90362510D01*
X168953583Y-88695017D01*
X169108640Y-88043750D01*
X169239732Y-87461667D01*
X162035000Y-87461667D01*
X162035000Y-84710000D01*
X169239732Y-84710000D01*
X169111182Y-84127917D01*
X168667062Y-82548013D01*
X168064788Y-81016151D01*
X167399340Y-79755196D01*
X166633259Y-78530454D01*
X164069546Y-81059673D01*
X161505834Y-83588891D01*
X160583851Y-82640499D01*
X159661869Y-81692106D01*
X162171351Y-79168283D01*
X163128298Y-78209442D01*
X163806642Y-77503737D01*
X164213900Y-76992297D01*
X164357585Y-76616252D01*
X164245214Y-76316730D01*
X163884300Y-76034862D01*
X163282361Y-75711776D01*
X162653075Y-75394670D01*
X161910397Y-75062685D01*
X161010477Y-74727441D01*
X160086816Y-74431445D01*
X159272918Y-74217203D01*
X158702282Y-74127224D01*
X158670697Y-74126667D01*
X158573788Y-74301233D01*
X158503556Y-74837050D01*
X158458803Y-75752295D01*
X158438330Y-77065145D01*
X158436667Y-77675611D01*
X158436667Y-81224556D01*
X155896667Y-81224556D01*
X155896667Y-77675611D01*
X155885155Y-76206030D01*
X155849822Y-75140999D01*
X155789467Y-74462342D01*
X155702893Y-74151882D01*
X155662636Y-74126667D01*
X155117608Y-74204693D01*
X154318479Y-74410432D01*
X153398750Y-74701377D01*
X152491924Y-75035020D01*
X151731502Y-75368854D01*
X151680259Y-75394670D01*
X150896234Y-75790422D01*
X150347396Y-76099215D01*
X150041260Y-76379919D01*
X149985343Y-76691407D01*
X150187157Y-77092547D01*
X150654220Y-77642210D01*
X151394046Y-78399268D01*
X152161982Y-79168283D01*
X154671464Y-81692106D01*
X153749482Y-82640499D01*
X152827500Y-83588891D01*
X147707494Y-78537855D01*
X147021756Y-79606486D01*
X146215503Y-81098365D01*
X145598611Y-82711906D01*
X145327250Y-83795066D01*
X145156321Y-84710000D01*
X152298334Y-84710000D01*
X152298334Y-87461667D01*
X145093601Y-87461667D01*
X141695859Y-87461667D01*
X141598719Y-86593942D01*
X141710723Y-84173368D01*
X142192563Y-81824388D01*
X143027622Y-79587546D01*
X144199282Y-77503388D01*
X145690925Y-75612459D01*
X147485933Y-73955304D01*
X149567688Y-72572469D01*
X150499167Y-72094716D01*
X152886098Y-71187855D01*
X155307655Y-70683619D01*
X157724728Y-70567768D01*
X160098211Y-70826065D01*
X160098211Y-70826065D01*
G37*
X160098211Y-70826065D02*
X162388995Y-71444272D01*
X164557972Y-72408150D01*
X166566035Y-73703461D01*
X168374076Y-75315967D01*
X169942986Y-77231429D01*
X171233657Y-79435609D01*
X171353319Y-79687244D01*
X172205203Y-82006962D01*
X172665951Y-84421112D01*
X172740133Y-86873692D01*
X172432316Y-89308703D01*
X171747070Y-91670144D01*
X170688963Y-93902015D01*
X170119646Y-94809165D01*
X168516325Y-96805115D01*
X166634612Y-98502440D01*
X164516642Y-99871368D01*
X162204547Y-100882131D01*
X161026105Y-101234424D01*
X159475100Y-101511204D01*
X157702145Y-101634002D01*
X155876134Y-101603196D01*
X154165964Y-101419168D01*
X153193580Y-101216805D01*
X150856057Y-100390443D01*
X148689234Y-99199525D01*
X146735692Y-97682978D01*
X145038012Y-95879727D01*
X143638777Y-93828698D01*
X142580567Y-91568815D01*
X142550695Y-91487691D01*
X141873171Y-89045565D01*
X141695859Y-87461667D01*
X145093601Y-87461667D01*
X145224694Y-88043750D01*
X145700577Y-89827588D01*
X146271835Y-91310684D01*
X146987748Y-92613111D01*
X147274562Y-93038518D01*
X147699832Y-93641202D01*
X150207951Y-91139618D01*
X152716070Y-88638033D01*
X153674225Y-89578390D01*
X154632379Y-90518748D01*
X152158679Y-92998909D01*
X151220674Y-93951187D01*
X150558482Y-94655976D01*
X150138676Y-95154891D01*
X149927829Y-95489548D01*
X149892513Y-95701562D01*
X149929673Y-95773909D01*
X150419517Y-96180308D01*
X151206810Y-96637275D01*
X152177292Y-97096863D01*
X153216702Y-97511124D01*
X154210779Y-97832110D01*
X155045262Y-98011872D01*
X155314584Y-98033617D01*
X155896667Y-98045000D01*
X155896667Y-91097601D01*
X157167053Y-91025884D01*
X158437438Y-90954167D01*
X158437053Y-94499584D01*
X158436667Y-98045000D01*
X158927416Y-98045000D01*
X159744332Y-97935061D01*
X160779358Y-97640406D01*
X161900143Y-97213778D01*
X162974333Y-96707920D01*
X163869577Y-96175575D01*
X164153687Y-95962303D01*
X164680834Y-95528488D01*
X162151298Y-92983918D01*
X161326210Y-92145053D01*
X160625465Y-91415554D01*
X160095578Y-90845262D01*
X159783064Y-90484017D01*
X159720381Y-90379258D01*
X159916768Y-90213162D01*
X160323033Y-89845468D01*
X160718703Y-89479169D01*
X161618406Y-88639172D01*
X166633502Y-93641202D01*
X167058772Y-93038518D01*
X167835454Y-91770319D01*
X168450632Y-90362510D01*
X168953583Y-88695017D01*
X169108640Y-88043750D01*
X169239732Y-87461667D01*
X162035000Y-87461667D01*
X162035000Y-84710000D01*
X169239732Y-84710000D01*
X169111182Y-84127917D01*
X168667062Y-82548013D01*
X168064788Y-81016151D01*
X167399340Y-79755196D01*
X166633259Y-78530454D01*
X164069546Y-81059673D01*
X161505834Y-83588891D01*
X160583851Y-82640499D01*
X159661869Y-81692106D01*
X162171351Y-79168283D01*
X163128298Y-78209442D01*
X163806642Y-77503737D01*
X164213900Y-76992297D01*
X164357585Y-76616252D01*
X164245214Y-76316730D01*
X163884300Y-76034862D01*
X163282361Y-75711776D01*
X162653075Y-75394670D01*
X161910397Y-75062685D01*
X161010477Y-74727441D01*
X160086816Y-74431445D01*
X159272918Y-74217203D01*
X158702282Y-74127224D01*
X158670697Y-74126667D01*
X158573788Y-74301233D01*
X158503556Y-74837050D01*
X158458803Y-75752295D01*
X158438330Y-77065145D01*
X158436667Y-77675611D01*
X158436667Y-81224556D01*
X155896667Y-81224556D01*
X155896667Y-77675611D01*
X155885155Y-76206030D01*
X155849822Y-75140999D01*
X155789467Y-74462342D01*
X155702893Y-74151882D01*
X155662636Y-74126667D01*
X155117608Y-74204693D01*
X154318479Y-74410432D01*
X153398750Y-74701377D01*
X152491924Y-75035020D01*
X151731502Y-75368854D01*
X151680259Y-75394670D01*
X150896234Y-75790422D01*
X150347396Y-76099215D01*
X150041260Y-76379919D01*
X149985343Y-76691407D01*
X150187157Y-77092547D01*
X150654220Y-77642210D01*
X151394046Y-78399268D01*
X152161982Y-79168283D01*
X154671464Y-81692106D01*
X153749482Y-82640499D01*
X152827500Y-83588891D01*
X147707494Y-78537855D01*
X147021756Y-79606486D01*
X146215503Y-81098365D01*
X145598611Y-82711906D01*
X145327250Y-83795066D01*
X145156321Y-84710000D01*
X152298334Y-84710000D01*
X152298334Y-87461667D01*
X145093601Y-87461667D01*
X141695859Y-87461667D01*
X141598719Y-86593942D01*
X141710723Y-84173368D01*
X142192563Y-81824388D01*
X143027622Y-79587546D01*
X144199282Y-77503388D01*
X145690925Y-75612459D01*
X147485933Y-73955304D01*
X149567688Y-72572469D01*
X150499167Y-72094716D01*
X152886098Y-71187855D01*
X155307655Y-70683619D01*
X157724728Y-70567768D01*
X160098211Y-70826065D01*
G36*
X111771804Y-33106248D02*
X111825208Y-33323685D01*
X111948770Y-33918235D01*
X112135097Y-34850842D01*
X112376798Y-36082448D01*
X112666481Y-37573998D01*
X112996755Y-39286435D01*
X113360227Y-41180701D01*
X113749506Y-43217742D01*
X114157201Y-45358499D01*
X114575919Y-47563916D01*
X114998268Y-49794937D01*
X115416857Y-52012505D01*
X115824295Y-54177563D01*
X116213189Y-56251055D01*
X116576147Y-58193925D01*
X116905779Y-59967115D01*
X117194692Y-61531569D01*
X117435494Y-62848230D01*
X117620793Y-63878043D01*
X117743199Y-64581949D01*
X117795319Y-64920893D01*
X117796667Y-64940490D01*
X117736204Y-65030203D01*
X117526223Y-65100435D01*
X117123831Y-65153382D01*
X116486138Y-65191239D01*
X115570254Y-65216205D01*
X114333286Y-65230475D01*
X112732345Y-65236245D01*
X112013491Y-65236667D01*
X106230315Y-65236667D01*
X99645533Y-51848750D01*
X98547130Y-49608223D01*
X97502499Y-47463226D01*
X96527086Y-45446370D01*
X95636340Y-43590263D01*
X94845707Y-41927515D01*
X94170635Y-40490736D01*
X93626571Y-39312535D01*
X93228963Y-38425523D01*
X92993257Y-37862308D01*
X92932876Y-37678234D01*
X92969208Y-36665010D01*
X93367310Y-35688950D01*
X93909979Y-35028422D01*
X94579227Y-34600255D01*
X95579380Y-34252598D01*
X96928759Y-33982475D01*
X98645684Y-33786912D01*
X100748474Y-33662934D01*
X102614887Y-33614770D01*
X104134751Y-33580648D01*
X105679867Y-33524628D01*
X107139253Y-33452247D01*
X108401923Y-33369043D01*
X109356894Y-33280553D01*
X109388540Y-33276812D01*
X110323371Y-33174929D01*
X111092588Y-33109784D01*
X111605790Y-33087845D01*
X111771804Y-33106248D01*
X111771804Y-33106248D01*
G37*
X111771804Y-33106248D02*
X111825208Y-33323685D01*
X111948770Y-33918235D01*
X112135097Y-34850842D01*
X112376798Y-36082448D01*
X112666481Y-37573998D01*
X112996755Y-39286435D01*
X113360227Y-41180701D01*
X113749506Y-43217742D01*
X114157201Y-45358499D01*
X114575919Y-47563916D01*
X114998268Y-49794937D01*
X115416857Y-52012505D01*
X115824295Y-54177563D01*
X116213189Y-56251055D01*
X116576147Y-58193925D01*
X116905779Y-59967115D01*
X117194692Y-61531569D01*
X117435494Y-62848230D01*
X117620793Y-63878043D01*
X117743199Y-64581949D01*
X117795319Y-64920893D01*
X117796667Y-64940490D01*
X117736204Y-65030203D01*
X117526223Y-65100435D01*
X117123831Y-65153382D01*
X116486138Y-65191239D01*
X115570254Y-65216205D01*
X114333286Y-65230475D01*
X112732345Y-65236245D01*
X112013491Y-65236667D01*
X106230315Y-65236667D01*
X99645533Y-51848750D01*
X98547130Y-49608223D01*
X97502499Y-47463226D01*
X96527086Y-45446370D01*
X95636340Y-43590263D01*
X94845707Y-41927515D01*
X94170635Y-40490736D01*
X93626571Y-39312535D01*
X93228963Y-38425523D01*
X92993257Y-37862308D01*
X92932876Y-37678234D01*
X92969208Y-36665010D01*
X93367310Y-35688950D01*
X93909979Y-35028422D01*
X94579227Y-34600255D01*
X95579380Y-34252598D01*
X96928759Y-33982475D01*
X98645684Y-33786912D01*
X100748474Y-33662934D01*
X102614887Y-33614770D01*
X104134751Y-33580648D01*
X105679867Y-33524628D01*
X107139253Y-33452247D01*
X108401923Y-33369043D01*
X109356894Y-33280553D01*
X109388540Y-33276812D01*
X110323371Y-33174929D01*
X111092588Y-33109784D01*
X111605790Y-33087845D01*
X111771804Y-33106248D01*
G36*
X114886766Y-33173876D02*
X115424683Y-33260867D01*
X116186104Y-33404442D01*
X116632500Y-33494776D01*
X119473220Y-33986123D01*
X122294646Y-34269698D01*
X125189710Y-34347255D01*
X128251342Y-34220552D01*
X131572473Y-33891343D01*
X132348750Y-33791706D01*
X133460000Y-33643795D01*
X133460000Y-65236667D01*
X120641240Y-65236667D01*
X117624402Y-49227607D01*
X117146379Y-46686167D01*
X116693216Y-44267592D01*
X116270781Y-42003773D01*
X115884944Y-39926600D01*
X115541573Y-38067964D01*
X115246536Y-36459754D01*
X115005702Y-35133860D01*
X114824939Y-34122173D01*
X114710117Y-33456584D01*
X114667102Y-33168981D01*
X114667532Y-33159700D01*
X114886766Y-33173876D01*
X114886766Y-33173876D01*
G37*
X114886766Y-33173876D02*
X115424683Y-33260867D01*
X116186104Y-33404442D01*
X116632500Y-33494776D01*
X119473220Y-33986123D01*
X122294646Y-34269698D01*
X125189710Y-34347255D01*
X128251342Y-34220552D01*
X131572473Y-33891343D01*
X132348750Y-33791706D01*
X133460000Y-33643795D01*
X133460000Y-65236667D01*
X120641240Y-65236667D01*
X117624402Y-49227607D01*
X117146379Y-46686167D01*
X116693216Y-44267592D01*
X116270781Y-42003773D01*
X115884944Y-39926600D01*
X115541573Y-38067964D01*
X115246536Y-36459754D01*
X115005702Y-35133860D01*
X114824939Y-34122173D01*
X114710117Y-33456584D01*
X114667102Y-33168981D01*
X114667532Y-33159700D01*
X114886766Y-33173876D01*
G36*
X136815524Y-33915078D02*
X137645482Y-34094106D01*
X138708833Y-34294058D01*
X139912257Y-34499032D01*
X141162432Y-34693124D01*
X142366037Y-34860433D01*
X143420173Y-34984081D01*
X145058741Y-35093311D01*
X146985172Y-35126757D01*
X149071493Y-35087965D01*
X151189734Y-34980480D01*
X153211922Y-34807849D01*
X154256250Y-34683833D01*
X155200046Y-34562643D01*
X155801552Y-34505903D01*
X156137502Y-34517813D01*
X156284629Y-34602571D01*
X156319668Y-34764378D01*
X156320000Y-34796759D01*
X156284065Y-35049485D01*
X156180716Y-35680862D01*
X156016640Y-36652746D01*
X155798521Y-37926991D01*
X155533046Y-39465452D01*
X155226899Y-41229983D01*
X154886767Y-43182438D01*
X154519335Y-45284672D01*
X154131289Y-47498539D01*
X153729314Y-49785893D01*
X153320096Y-52108590D01*
X152910320Y-54428482D01*
X152506673Y-56707426D01*
X152115839Y-58907275D01*
X151744504Y-60989883D01*
X151399354Y-62917106D01*
X151105517Y-64548750D01*
X150981220Y-65236667D01*
X136000000Y-65236667D01*
X136000000Y-49444854D01*
X136000779Y-46455123D01*
X136003476Y-43861731D01*
X136008627Y-41637688D01*
X136016772Y-39756002D01*
X136028446Y-38189683D01*
X136044190Y-36911738D01*
X136064539Y-35895176D01*
X136090033Y-35113007D01*
X136121209Y-34538239D01*
X136158604Y-34143880D01*
X136202757Y-33902940D01*
X136254206Y-33788428D01*
X136312282Y-33772875D01*
X136815524Y-33915078D01*
X136815524Y-33915078D01*
G37*
X136815524Y-33915078D02*
X137645482Y-34094106D01*
X138708833Y-34294058D01*
X139912257Y-34499032D01*
X141162432Y-34693124D01*
X142366037Y-34860433D01*
X143420173Y-34984081D01*
X145058741Y-35093311D01*
X146985172Y-35126757D01*
X149071493Y-35087965D01*
X151189734Y-34980480D01*
X153211922Y-34807849D01*
X154256250Y-34683833D01*
X155200046Y-34562643D01*
X155801552Y-34505903D01*
X156137502Y-34517813D01*
X156284629Y-34602571D01*
X156319668Y-34764378D01*
X156320000Y-34796759D01*
X156284065Y-35049485D01*
X156180716Y-35680862D01*
X156016640Y-36652746D01*
X155798521Y-37926991D01*
X155533046Y-39465452D01*
X155226899Y-41229983D01*
X154886767Y-43182438D01*
X154519335Y-45284672D01*
X154131289Y-47498539D01*
X153729314Y-49785893D01*
X153320096Y-52108590D01*
X152910320Y-54428482D01*
X152506673Y-56707426D01*
X152115839Y-58907275D01*
X151744504Y-60989883D01*
X151399354Y-62917106D01*
X151105517Y-64548750D01*
X150981220Y-65236667D01*
X136000000Y-65236667D01*
X136000000Y-49444854D01*
X136000779Y-46455123D01*
X136003476Y-43861731D01*
X136008627Y-41637688D01*
X136016772Y-39756002D01*
X136028446Y-38189683D01*
X136044190Y-36911738D01*
X136064539Y-35895176D01*
X136090033Y-35113007D01*
X136121209Y-34538239D01*
X136158604Y-34143880D01*
X136202757Y-33902940D01*
X136254206Y-33788428D01*
X136312282Y-33772875D01*
X136815524Y-33915078D01*
G36*
X159395804Y-34606157D02*
X159919094Y-34712766D01*
X160651329Y-34885928D01*
X160899238Y-34948336D01*
X162516167Y-35334793D01*
X164015893Y-35629137D01*
X165504337Y-35843570D01*
X167087425Y-35990294D01*
X168871079Y-36081512D01*
X170961222Y-36129427D01*
X171175103Y-36132116D01*
X172703609Y-36153061D01*
X173873422Y-36178919D01*
X174749180Y-36215766D01*
X175395521Y-36269677D01*
X175877085Y-36346729D01*
X176258509Y-36452994D01*
X176604431Y-36594550D01*
X176730529Y-36654258D01*
X177402356Y-37050150D01*
X177974308Y-37505401D01*
X178141321Y-37685567D01*
X178325040Y-37944290D01*
X178462297Y-38222872D01*
X178544689Y-38551251D01*
X178563816Y-38959366D01*
X178511278Y-39477152D01*
X178378672Y-40134549D01*
X178157599Y-40961494D01*
X177839658Y-41987924D01*
X177416447Y-43243778D01*
X176879565Y-44758994D01*
X176220613Y-46563508D01*
X175431188Y-48687258D01*
X174502890Y-51160183D01*
X173944224Y-52642500D01*
X173137183Y-54781887D01*
X172372235Y-56809384D01*
X171662862Y-58689275D01*
X171022549Y-60385844D01*
X170464776Y-61863375D01*
X170003028Y-63086152D01*
X169650788Y-64018458D01*
X169421537Y-64624577D01*
X169329748Y-64866250D01*
X169267416Y-64963145D01*
X169135778Y-65041584D01*
X168893898Y-65103499D01*
X168500839Y-65150823D01*
X167915665Y-65185488D01*
X167097437Y-65209427D01*
X166005220Y-65224573D01*
X164598077Y-65232857D01*
X162835071Y-65236213D01*
X161483188Y-65236667D01*
X159724506Y-65232466D01*
X158106680Y-65220507D01*
X156676719Y-65201760D01*
X155481633Y-65177193D01*
X154568429Y-65147773D01*
X153984118Y-65114470D01*
X153775707Y-65078250D01*
X153775681Y-65077917D01*
X153810671Y-64843168D01*
X153912771Y-64233673D01*
X154074897Y-63289386D01*
X154289966Y-62050263D01*
X154550893Y-60556260D01*
X154850594Y-58847333D01*
X155181986Y-56963438D01*
X155537985Y-54944529D01*
X155911505Y-52830563D01*
X156295465Y-50661496D01*
X156682778Y-48477283D01*
X157066362Y-46317880D01*
X157439133Y-44223243D01*
X157794007Y-42233327D01*
X158123898Y-40388089D01*
X158421725Y-38727483D01*
X158680402Y-37291466D01*
X158892846Y-36119993D01*
X159051972Y-35253020D01*
X159150698Y-34730503D01*
X159181563Y-34587152D01*
X159395804Y-34606157D01*
X159395804Y-34606157D01*
G37*
X159395804Y-34606157D02*
X159919094Y-34712766D01*
X160651329Y-34885928D01*
X160899238Y-34948336D01*
X162516167Y-35334793D01*
X164015893Y-35629137D01*
X165504337Y-35843570D01*
X167087425Y-35990294D01*
X168871079Y-36081512D01*
X170961222Y-36129427D01*
X171175103Y-36132116D01*
X172703609Y-36153061D01*
X173873422Y-36178919D01*
X174749180Y-36215766D01*
X175395521Y-36269677D01*
X175877085Y-36346729D01*
X176258509Y-36452994D01*
X176604431Y-36594550D01*
X176730529Y-36654258D01*
X177402356Y-37050150D01*
X177974308Y-37505401D01*
X178141321Y-37685567D01*
X178325040Y-37944290D01*
X178462297Y-38222872D01*
X178544689Y-38551251D01*
X178563816Y-38959366D01*
X178511278Y-39477152D01*
X178378672Y-40134549D01*
X178157599Y-40961494D01*
X177839658Y-41987924D01*
X177416447Y-43243778D01*
X176879565Y-44758994D01*
X176220613Y-46563508D01*
X175431188Y-48687258D01*
X174502890Y-51160183D01*
X173944224Y-52642500D01*
X173137183Y-54781887D01*
X172372235Y-56809384D01*
X171662862Y-58689275D01*
X171022549Y-60385844D01*
X170464776Y-61863375D01*
X170003028Y-63086152D01*
X169650788Y-64018458D01*
X169421537Y-64624577D01*
X169329748Y-64866250D01*
X169267416Y-64963145D01*
X169135778Y-65041584D01*
X168893898Y-65103499D01*
X168500839Y-65150823D01*
X167915665Y-65185488D01*
X167097437Y-65209427D01*
X166005220Y-65224573D01*
X164598077Y-65232857D01*
X162835071Y-65236213D01*
X161483188Y-65236667D01*
X159724506Y-65232466D01*
X158106680Y-65220507D01*
X156676719Y-65201760D01*
X155481633Y-65177193D01*
X154568429Y-65147773D01*
X153984118Y-65114470D01*
X153775707Y-65078250D01*
X153775681Y-65077917D01*
X153810671Y-64843168D01*
X153912771Y-64233673D01*
X154074897Y-63289386D01*
X154289966Y-62050263D01*
X154550893Y-60556260D01*
X154850594Y-58847333D01*
X155181986Y-56963438D01*
X155537985Y-54944529D01*
X155911505Y-52830563D01*
X156295465Y-50661496D01*
X156682778Y-48477283D01*
X157066362Y-46317880D01*
X157439133Y-44223243D01*
X157794007Y-42233327D01*
X158123898Y-40388089D01*
X158421725Y-38727483D01*
X158680402Y-37291466D01*
X158892846Y-36119993D01*
X159051972Y-35253020D01*
X159150698Y-34730503D01*
X159181563Y-34587152D01*
X159395804Y-34606157D01*
G36*
X117541926Y-83945734D02*
X118230745Y-84402794D01*
X118802819Y-85181260D01*
X119014870Y-86001131D01*
X118916951Y-86798701D01*
X118559118Y-87510266D01*
X117991423Y-88072119D01*
X117263921Y-88420555D01*
X116426664Y-88491868D01*
X115529708Y-88222354D01*
X115321113Y-88105998D01*
X114663643Y-87476958D01*
X114312553Y-86647696D01*
X114305467Y-85745071D01*
X114471765Y-85242188D01*
X115048818Y-84441589D01*
X115815577Y-83944642D01*
X116677971Y-83772355D01*
X117541926Y-83945734D01*
X117541926Y-83945734D01*
G37*
X117541926Y-83945734D02*
X118230745Y-84402794D01*
X118802819Y-85181260D01*
X119014870Y-86001131D01*
X118916951Y-86798701D01*
X118559118Y-87510266D01*
X117991423Y-88072119D01*
X117263921Y-88420555D01*
X116426664Y-88491868D01*
X115529708Y-88222354D01*
X115321113Y-88105998D01*
X114663643Y-87476958D01*
X114312553Y-86647696D01*
X114305467Y-85745071D01*
X114471765Y-85242188D01*
X115048818Y-84441589D01*
X115815577Y-83944642D01*
X116677971Y-83772355D01*
X117541926Y-83945734D01*
G36*
X158258801Y-83977950D02*
X158944699Y-84531546D01*
X159378865Y-85342146D01*
X159495000Y-86135545D01*
X159438139Y-86804714D01*
X159206355Y-87311160D01*
X158775334Y-87800334D01*
X158222695Y-88272468D01*
X157697236Y-88481250D01*
X157166667Y-88520000D01*
X156518272Y-88454830D01*
X156004007Y-88198473D01*
X155558000Y-87800334D01*
X155091756Y-87259415D01*
X154882614Y-86745876D01*
X154838334Y-86135545D01*
X155011063Y-85130954D01*
X155522924Y-84376044D01*
X156364425Y-83884381D01*
X156429143Y-83862241D01*
X157395504Y-83736476D01*
X158258801Y-83977950D01*
X158258801Y-83977950D01*
G37*
X158258801Y-83977950D02*
X158944699Y-84531546D01*
X159378865Y-85342146D01*
X159495000Y-86135545D01*
X159438139Y-86804714D01*
X159206355Y-87311160D01*
X158775334Y-87800334D01*
X158222695Y-88272468D01*
X157697236Y-88481250D01*
X157166667Y-88520000D01*
X156518272Y-88454830D01*
X156004007Y-88198473D01*
X155558000Y-87800334D01*
X155091756Y-87259415D01*
X154882614Y-86745876D01*
X154838334Y-86135545D01*
X155011063Y-85130954D01*
X155522924Y-84376044D01*
X156364425Y-83884381D01*
X156429143Y-83862241D01*
X157395504Y-83736476D01*
X158258801Y-83977950D01*
D13*
X118140000Y-63290000D02*
X116940000Y-63290000D01*
X116940000Y-61530000D02*
X118140000Y-61530000D01*
X114442010Y-60786518D02*
X113593482Y-59937990D01*
X114837990Y-58693482D02*
X115686518Y-59542010D01*
X120570000Y-70880000D02*
X119370000Y-70880000D01*
X119370000Y-69120000D02*
X120570000Y-69120000D01*
X120290000Y-65950000D02*
X120290000Y-64750000D01*
X122050000Y-64750000D02*
X122050000Y-65950000D01*
X112282102Y-43580385D02*
X112882102Y-44619615D01*
X111357898Y-45499615D02*
X110757898Y-44460385D01*
X120100000Y-47960000D02*
X120100000Y-49160000D01*
X118340000Y-49160000D02*
X118340000Y-47960000D01*
D14*
X97708993Y-52113990D02*
X99053990Y-52551007D01*
X97708993Y-52113990D02*
X98146010Y-50768993D01*
X97708993Y-52113990D02*
X101273020Y-50298029D01*
X112924002Y-53340166D02*
X98667898Y-60604014D01*
X98667898Y-60604014D02*
X91404050Y-46347910D01*
X91404050Y-46347910D02*
X105660154Y-39084062D01*
X112924002Y-53340166D02*
X105660154Y-39084062D01*
D13*
X179473306Y-51241070D02*
X173910203Y-48993430D01*
X173910203Y-48993430D02*
X170029279Y-58599055D01*
X170029279Y-58599055D02*
X175592382Y-60846695D01*
X175592382Y-60846695D02*
X179473306Y-51241070D01*
X173396992Y-50263672D02*
X174324176Y-50638279D01*
X174324176Y-50638279D02*
X171469674Y-57703420D01*
X171469674Y-57703420D02*
X170542490Y-57328813D01*
X174324176Y-50638279D02*
X174629213Y-51031156D01*
X174629213Y-51031156D02*
X171962014Y-57632705D01*
X171962014Y-57632705D02*
X171469674Y-57703420D01*
X173303340Y-50495468D02*
X174230524Y-50870075D01*
X170636142Y-57097017D02*
X171563325Y-57471624D01*
X179259781Y-51769565D02*
X178684927Y-51537309D01*
X178684927Y-51537309D02*
X178085556Y-53020803D01*
X178085556Y-53020803D02*
X178660410Y-53253059D01*
X178308280Y-54124612D02*
X177733426Y-53892356D01*
X177733426Y-53892356D02*
X177134055Y-55375850D01*
X177134055Y-55375850D02*
X177708909Y-55608106D01*
X177356779Y-56479659D02*
X176781925Y-56247403D01*
X176781925Y-56247403D02*
X176182554Y-57730897D01*
X176182554Y-57730897D02*
X176757408Y-57963153D01*
X176405278Y-58834706D02*
X175830424Y-58602450D01*
X175830424Y-58602450D02*
X175231054Y-60085944D01*
X175231054Y-60085944D02*
X175805908Y-60318200D01*
X120990000Y-78430000D02*
G75*
G03X120990000Y-78430000I-5090000J0D01*
G01*
X110850000Y-78430000D02*
X120950000Y-78430000D01*
X110850000Y-78390000D02*
X120950000Y-78390000D01*
X110850000Y-78350000D02*
X120950000Y-78350000D01*
X110851000Y-78310000D02*
X120949000Y-78310000D01*
X110852000Y-78270000D02*
X120948000Y-78270000D01*
X110853000Y-78230000D02*
X120947000Y-78230000D01*
X110855000Y-78190000D02*
X120945000Y-78190000D01*
X110857000Y-78150000D02*
X114920000Y-78150000D01*
X116880000Y-78150000D02*
X120943000Y-78150000D01*
X110860000Y-78110000D02*
X114920000Y-78110000D01*
X116880000Y-78110000D02*
X120940000Y-78110000D01*
X110862000Y-78070000D02*
X114920000Y-78070000D01*
X116880000Y-78070000D02*
X120938000Y-78070000D01*
X110865000Y-78030000D02*
X114920000Y-78030000D01*
X116880000Y-78030000D02*
X120935000Y-78030000D01*
X110869000Y-77990000D02*
X114920000Y-77990000D01*
X116880000Y-77990000D02*
X120931000Y-77990000D01*
X110872000Y-77950000D02*
X114920000Y-77950000D01*
X116880000Y-77950000D02*
X120928000Y-77950000D01*
X110876000Y-77910000D02*
X114920000Y-77910000D01*
X116880000Y-77910000D02*
X120924000Y-77910000D01*
X110880000Y-77870000D02*
X114920000Y-77870000D01*
X116880000Y-77870000D02*
X120920000Y-77870000D01*
X110885000Y-77830000D02*
X114920000Y-77830000D01*
X116880000Y-77830000D02*
X120915000Y-77830000D01*
X110890000Y-77790000D02*
X114920000Y-77790000D01*
X116880000Y-77790000D02*
X120910000Y-77790000D01*
X110895000Y-77750000D02*
X114920000Y-77750000D01*
X116880000Y-77750000D02*
X120905000Y-77750000D01*
X110901000Y-77709000D02*
X114920000Y-77709000D01*
X116880000Y-77709000D02*
X120899000Y-77709000D01*
X110907000Y-77669000D02*
X114920000Y-77669000D01*
X116880000Y-77669000D02*
X120893000Y-77669000D01*
X110913000Y-77629000D02*
X114920000Y-77629000D01*
X116880000Y-77629000D02*
X120887000Y-77629000D01*
X110919000Y-77589000D02*
X114920000Y-77589000D01*
X116880000Y-77589000D02*
X120881000Y-77589000D01*
X110926000Y-77549000D02*
X114920000Y-77549000D01*
X116880000Y-77549000D02*
X120874000Y-77549000D01*
X110933000Y-77509000D02*
X114920000Y-77509000D01*
X116880000Y-77509000D02*
X120867000Y-77509000D01*
X110941000Y-77469000D02*
X114920000Y-77469000D01*
X118480000Y-77469000D02*
X120859000Y-77469000D01*
X110949000Y-77429000D02*
X114920000Y-77429000D01*
X118480000Y-77429000D02*
X120851000Y-77429000D01*
X110957000Y-77389000D02*
X114920000Y-77389000D01*
X118480000Y-77389000D02*
X120843000Y-77389000D01*
X110965000Y-77349000D02*
X114920000Y-77349000D01*
X118480000Y-77349000D02*
X120835000Y-77349000D01*
X110974000Y-77309000D02*
X114920000Y-77309000D01*
X118480000Y-77309000D02*
X120826000Y-77309000D01*
X110983000Y-77269000D02*
X114920000Y-77269000D01*
X118480000Y-77269000D02*
X120817000Y-77269000D01*
X110993000Y-77229000D02*
X114920000Y-77229000D01*
X118480000Y-77229000D02*
X120807000Y-77229000D01*
X111003000Y-77189000D02*
X114920000Y-77189000D01*
X118480000Y-77189000D02*
X120797000Y-77189000D01*
X111013000Y-77149000D02*
X114920000Y-77149000D01*
X118480000Y-77149000D02*
X120787000Y-77149000D01*
X111024000Y-77109000D02*
X114920000Y-77109000D01*
X118480000Y-77109000D02*
X120776000Y-77109000D01*
X111035000Y-77069000D02*
X114920000Y-77069000D01*
X118480000Y-77069000D02*
X120765000Y-77069000D01*
X111046000Y-77029000D02*
X114920000Y-77029000D01*
X118480000Y-77029000D02*
X120754000Y-77029000D01*
X111057000Y-76989000D02*
X114920000Y-76989000D01*
X118480000Y-76989000D02*
X120743000Y-76989000D01*
X111069000Y-76949000D02*
X114920000Y-76949000D01*
X118480000Y-76949000D02*
X120731000Y-76949000D01*
X111082000Y-76909000D02*
X114920000Y-76909000D01*
X118480000Y-76909000D02*
X120718000Y-76909000D01*
X111094000Y-76869000D02*
X114920000Y-76869000D01*
X118480000Y-76869000D02*
X120706000Y-76869000D01*
X111108000Y-76829000D02*
X114920000Y-76829000D01*
X118480000Y-76829000D02*
X120692000Y-76829000D01*
X111121000Y-76789000D02*
X114920000Y-76789000D01*
X118480000Y-76789000D02*
X120679000Y-76789000D01*
X111135000Y-76749000D02*
X114920000Y-76749000D01*
X118480000Y-76749000D02*
X120665000Y-76749000D01*
X111149000Y-76709000D02*
X114920000Y-76709000D01*
X118480000Y-76709000D02*
X120651000Y-76709000D01*
X111163000Y-76669000D02*
X114920000Y-76669000D01*
X118480000Y-76669000D02*
X120637000Y-76669000D01*
X111178000Y-76629000D02*
X114920000Y-76629000D01*
X118480000Y-76629000D02*
X120622000Y-76629000D01*
X111194000Y-76589000D02*
X114920000Y-76589000D01*
X118480000Y-76589000D02*
X120606000Y-76589000D01*
X111209000Y-76549000D02*
X114920000Y-76549000D01*
X118480000Y-76549000D02*
X120591000Y-76549000D01*
X111226000Y-76509000D02*
X114920000Y-76509000D01*
X118480000Y-76509000D02*
X120574000Y-76509000D01*
X111242000Y-76469000D02*
X114920000Y-76469000D01*
X118480000Y-76469000D02*
X120558000Y-76469000D01*
X111259000Y-76429000D02*
X114920000Y-76429000D01*
X118480000Y-76429000D02*
X120541000Y-76429000D01*
X111276000Y-76389000D02*
X114920000Y-76389000D01*
X118480000Y-76389000D02*
X120524000Y-76389000D01*
X111294000Y-76349000D02*
X114920000Y-76349000D01*
X118480000Y-76349000D02*
X120506000Y-76349000D01*
X111312000Y-76309000D02*
X114920000Y-76309000D01*
X118480000Y-76309000D02*
X120488000Y-76309000D01*
X111331000Y-76269000D02*
X114920000Y-76269000D01*
X118480000Y-76269000D02*
X120469000Y-76269000D01*
X111350000Y-76229000D02*
X114920000Y-76229000D01*
X118480000Y-76229000D02*
X120450000Y-76229000D01*
X111369000Y-76189000D02*
X116521000Y-76189000D01*
X118480000Y-76189000D02*
X120431000Y-76189000D01*
X111389000Y-76149000D02*
X116521000Y-76149000D01*
X118480000Y-76149000D02*
X120411000Y-76149000D01*
X111409000Y-76109000D02*
X116521000Y-76109000D01*
X118480000Y-76109000D02*
X120391000Y-76109000D01*
X111430000Y-76069000D02*
X116521000Y-76069000D01*
X118480000Y-76069000D02*
X120370000Y-76069000D01*
X111451000Y-76029000D02*
X116521000Y-76029000D01*
X118480000Y-76029000D02*
X120349000Y-76029000D01*
X111472000Y-75989000D02*
X116521000Y-75989000D01*
X118480000Y-75989000D02*
X120328000Y-75989000D01*
X111495000Y-75949000D02*
X116521000Y-75949000D01*
X118480000Y-75949000D02*
X120305000Y-75949000D01*
X111517000Y-75909000D02*
X116521000Y-75909000D01*
X118480000Y-75909000D02*
X120283000Y-75909000D01*
X111540000Y-75869000D02*
X116521000Y-75869000D01*
X118480000Y-75869000D02*
X120260000Y-75869000D01*
X111564000Y-75829000D02*
X116521000Y-75829000D01*
X118480000Y-75829000D02*
X120236000Y-75829000D01*
X111588000Y-75789000D02*
X116521000Y-75789000D01*
X118480000Y-75789000D02*
X120212000Y-75789000D01*
X111612000Y-75749000D02*
X116521000Y-75749000D01*
X118480000Y-75749000D02*
X120188000Y-75749000D01*
X111637000Y-75709000D02*
X116521000Y-75709000D01*
X118480000Y-75709000D02*
X120163000Y-75709000D01*
X111663000Y-75669000D02*
X116521000Y-75669000D01*
X118480000Y-75669000D02*
X120137000Y-75669000D01*
X111689000Y-75629000D02*
X116521000Y-75629000D01*
X118480000Y-75629000D02*
X120111000Y-75629000D01*
X111715000Y-75589000D02*
X116521000Y-75589000D01*
X118480000Y-75589000D02*
X120085000Y-75589000D01*
X111743000Y-75549000D02*
X116521000Y-75549000D01*
X118480000Y-75549000D02*
X120057000Y-75549000D01*
X111770000Y-75509000D02*
X120030000Y-75509000D01*
X111799000Y-75469000D02*
X120001000Y-75469000D01*
X111828000Y-75429000D02*
X119972000Y-75429000D01*
X111857000Y-75389000D02*
X119943000Y-75389000D01*
X111887000Y-75349000D02*
X119913000Y-75349000D01*
X111918000Y-75309000D02*
X119882000Y-75309000D01*
X111949000Y-75269000D02*
X119851000Y-75269000D01*
X111981000Y-75229000D02*
X119819000Y-75229000D01*
X112014000Y-75189000D02*
X119786000Y-75189000D01*
X112047000Y-75149000D02*
X119753000Y-75149000D01*
X112081000Y-75109000D02*
X119719000Y-75109000D01*
X112116000Y-75069000D02*
X119684000Y-75069000D01*
X112152000Y-75029000D02*
X119648000Y-75029000D01*
X112188000Y-74989000D02*
X119612000Y-74989000D01*
X112225000Y-74949000D02*
X119575000Y-74949000D01*
X112263000Y-74909000D02*
X119537000Y-74909000D01*
X112302000Y-74869000D02*
X119498000Y-74869000D01*
X112341000Y-74829000D02*
X119459000Y-74829000D01*
X112382000Y-74789000D02*
X119418000Y-74789000D01*
X112423000Y-74749000D02*
X119377000Y-74749000D01*
X112465000Y-74709000D02*
X119335000Y-74709000D01*
X112509000Y-74669000D02*
X119291000Y-74669000D01*
X112553000Y-74629000D02*
X119247000Y-74629000D01*
X112598000Y-74589000D02*
X119202000Y-74589000D01*
X112645000Y-74549000D02*
X119155000Y-74549000D01*
X112693000Y-74509000D02*
X119107000Y-74509000D01*
X112742000Y-74469000D02*
X119058000Y-74469000D01*
X112792000Y-74429000D02*
X119008000Y-74429000D01*
X112843000Y-74389000D02*
X118957000Y-74389000D01*
X112896000Y-74349000D02*
X118904000Y-74349000D01*
X112951000Y-74309000D02*
X118849000Y-74309000D01*
X113006000Y-74269000D02*
X118794000Y-74269000D01*
X113064000Y-74229000D02*
X118736000Y-74229000D01*
X113123000Y-74189000D02*
X118677000Y-74189000D01*
X113185000Y-74149000D02*
X118615000Y-74149000D01*
X113248000Y-74109000D02*
X118552000Y-74109000D01*
X113313000Y-74069000D02*
X118487000Y-74069000D01*
X113381000Y-74029000D02*
X118419000Y-74029000D01*
X113451000Y-73989000D02*
X118349000Y-73989000D01*
X113523000Y-73949000D02*
X118277000Y-73949000D01*
X113599000Y-73909000D02*
X118201000Y-73909000D01*
X113678000Y-73869000D02*
X118122000Y-73869000D01*
X113760000Y-73829000D02*
X118040000Y-73829000D01*
X113847000Y-73789000D02*
X117953000Y-73789000D01*
X113938000Y-73749000D02*
X117862000Y-73749000D01*
X114034000Y-73709000D02*
X117766000Y-73709000D01*
X114137000Y-73669000D02*
X117663000Y-73669000D01*
X114246000Y-73629000D02*
X117554000Y-73629000D01*
X114364000Y-73589000D02*
X117436000Y-73589000D01*
X114493000Y-73549000D02*
X117307000Y-73549000D01*
X114635000Y-73509000D02*
X117165000Y-73509000D01*
X114796000Y-73469000D02*
X117004000Y-73469000D01*
X114987000Y-73429000D02*
X116813000Y-73429000D01*
X115228000Y-73389000D02*
X116572000Y-73389000D01*
X115621000Y-73349000D02*
X116179000Y-73349000D01*
X115900000Y-81880000D02*
X115900000Y-80680000D01*
X115250000Y-81280000D02*
X116550000Y-81280000D01*
X113252102Y-60420385D02*
X113852102Y-61459615D01*
X112327898Y-62339615D02*
X111727898Y-61300385D01*
X115172442Y-38876305D02*
X115380820Y-40058074D01*
X113647558Y-40363695D02*
X113439180Y-39181926D01*
X137870000Y-83480000D02*
X136670000Y-83480000D01*
X136670000Y-81720000D02*
X137870000Y-81720000D01*
X116080000Y-71390000D02*
X116080000Y-70190000D01*
X117840000Y-70190000D02*
X117840000Y-71390000D01*
X128900000Y-75600000D02*
X128900000Y-76800000D01*
X127140000Y-76800000D02*
X127140000Y-75600000D01*
X118270000Y-63760000D02*
X116470000Y-63760000D01*
X116470000Y-66980000D02*
X118920000Y-66980000D01*
X119760000Y-52030000D02*
X117960000Y-52030000D01*
X117960000Y-55250000D02*
X120410000Y-55250000D01*
D15*
X98807666Y-37026396D02*
X99019798Y-37238528D01*
X99019798Y-37238528D02*
X99868326Y-36390000D01*
X99868326Y-36390000D02*
X99019798Y-35541472D01*
X99019798Y-35541472D02*
X98807666Y-35753604D01*
X98595534Y-35965736D02*
X98807666Y-35753604D01*
X98807666Y-35753604D02*
X99444062Y-36390000D01*
X99444062Y-36390000D02*
X98878377Y-36955685D01*
X98878377Y-36955685D02*
X98807666Y-37026396D01*
X98807666Y-37026396D02*
X98595534Y-36814264D01*
X91524466Y-36814264D02*
X91100202Y-36390000D01*
X91100202Y-36390000D02*
X95060000Y-32430202D01*
X95060000Y-32430202D02*
X95484264Y-32854466D01*
X98595534Y-35965736D02*
X99019798Y-36390000D01*
X99019798Y-36390000D02*
X95060000Y-40349798D01*
X95060000Y-40349798D02*
X94635736Y-39925534D01*
X110960026Y-37633650D02*
X111001778Y-37930731D01*
X111001778Y-37930731D02*
X112190100Y-37763723D01*
X112190100Y-37763723D02*
X112023092Y-36575401D01*
X112023092Y-36575401D02*
X111726012Y-36617153D01*
X111428931Y-36658905D02*
X111726012Y-36617153D01*
X111726012Y-36617153D02*
X111851268Y-37508394D01*
X111851268Y-37508394D02*
X111059053Y-37619733D01*
X111059053Y-37619733D02*
X110960026Y-37633650D01*
X110960026Y-37633650D02*
X110918274Y-37336570D01*
X105271069Y-33081095D02*
X105187565Y-32486934D01*
X105187565Y-32486934D02*
X110733066Y-31707565D01*
X110733066Y-31707565D02*
X110816570Y-32301726D01*
X111428931Y-36658905D02*
X111512435Y-37253066D01*
X111512435Y-37253066D02*
X105966934Y-38032435D01*
X105966934Y-38032435D02*
X105883430Y-37438274D01*
X122138268Y-38984930D02*
X122086173Y-39280372D01*
X122086173Y-39280372D02*
X123267943Y-39488750D01*
X123267943Y-39488750D02*
X123476320Y-38306981D01*
X123476320Y-38306981D02*
X123180878Y-38254886D01*
X122885436Y-38202792D02*
X123180878Y-38254886D01*
X123180878Y-38254886D02*
X123024595Y-39141213D01*
X123024595Y-39141213D02*
X122236748Y-39002295D01*
X122236748Y-39002295D02*
X122138268Y-38984930D01*
X122138268Y-38984930D02*
X122190362Y-38689488D01*
X118134564Y-32897208D02*
X118238753Y-32306323D01*
X118238753Y-32306323D02*
X123753677Y-33278753D01*
X123753677Y-33278753D02*
X123649488Y-33869638D01*
X122885436Y-38202792D02*
X122781247Y-38793677D01*
X122781247Y-38793677D02*
X117266323Y-37821247D01*
X117266323Y-37821247D02*
X117370512Y-37230362D01*
X132131986Y-38703055D02*
X132163345Y-39001412D01*
X132163345Y-39001412D02*
X133356771Y-38875978D01*
X133356771Y-38875978D02*
X133231337Y-37682551D01*
X133231337Y-37682551D02*
X132932980Y-37713910D01*
X132634624Y-37745268D02*
X132932980Y-37713910D01*
X132932980Y-37713910D02*
X133027056Y-38608980D01*
X133027056Y-38608980D02*
X132231439Y-38692602D01*
X132231439Y-38692602D02*
X132131986Y-38703055D01*
X132131986Y-38703055D02*
X132100628Y-38404699D01*
X126605376Y-33954732D02*
X126542659Y-33358018D01*
X126542659Y-33358018D02*
X132111982Y-32772659D01*
X132111982Y-32772659D02*
X132174699Y-33369372D01*
X132634624Y-37745268D02*
X132697341Y-38341982D01*
X132697341Y-38341982D02*
X127128018Y-38927341D01*
X127128018Y-38927341D02*
X127065301Y-38330628D01*
X141908268Y-40044930D02*
X141856173Y-40340372D01*
X141856173Y-40340372D02*
X143037943Y-40548750D01*
X143037943Y-40548750D02*
X143246320Y-39366981D01*
X143246320Y-39366981D02*
X142950878Y-39314886D01*
X142655436Y-39262792D02*
X142950878Y-39314886D01*
X142950878Y-39314886D02*
X142794595Y-40201213D01*
X142794595Y-40201213D02*
X142006748Y-40062295D01*
X142006748Y-40062295D02*
X141908268Y-40044930D01*
X141908268Y-40044930D02*
X141960362Y-39749488D01*
X137904564Y-33957208D02*
X138008753Y-33366323D01*
X138008753Y-33366323D02*
X143523677Y-34338753D01*
X143523677Y-34338753D02*
X143419488Y-34929638D01*
X142655436Y-39262792D02*
X142551247Y-39853677D01*
X142551247Y-39853677D02*
X137036323Y-38881247D01*
X137036323Y-38881247D02*
X137140512Y-38290362D01*
X153780886Y-39858984D02*
X153801813Y-40158254D01*
X153801813Y-40158254D02*
X154998890Y-40074546D01*
X154998890Y-40074546D02*
X154915182Y-38877469D01*
X154915182Y-38877469D02*
X154615913Y-38898396D01*
X154316644Y-38919323D02*
X154615913Y-38898396D01*
X154615913Y-38898396D02*
X154678694Y-39796203D01*
X154678694Y-39796203D02*
X153880642Y-39852009D01*
X153880642Y-39852009D02*
X153780886Y-39858984D01*
X153780886Y-39858984D02*
X153759959Y-39559715D01*
X148423356Y-34920677D02*
X148381503Y-34322139D01*
X148381503Y-34322139D02*
X153967861Y-33931503D01*
X153967861Y-33931503D02*
X154009715Y-34530041D01*
X154316644Y-38919323D02*
X154358497Y-39517861D01*
X154358497Y-39517861D02*
X148772139Y-39908497D01*
X148772139Y-39908497D02*
X148730285Y-39309959D01*
X162567398Y-40394663D02*
X162505025Y-40688108D01*
X162505025Y-40688108D02*
X163678802Y-40937602D01*
X163678802Y-40937602D02*
X163928296Y-39763824D01*
X163928296Y-39763824D02*
X163634852Y-39701451D01*
X163341408Y-39639077D02*
X163634852Y-39701451D01*
X163634852Y-39701451D02*
X163447731Y-40581784D01*
X163447731Y-40581784D02*
X162665213Y-40415454D01*
X162665213Y-40415454D02*
X162567398Y-40394663D01*
X162567398Y-40394663D02*
X162629772Y-40101219D01*
X158778592Y-34170923D02*
X158903339Y-33584034D01*
X158903339Y-33584034D02*
X164380966Y-34748339D01*
X164380966Y-34748339D02*
X164256219Y-35335228D01*
X163341408Y-39639077D02*
X163216661Y-40225966D01*
X163216661Y-40225966D02*
X157739034Y-39061661D01*
X157739034Y-39061661D02*
X157863781Y-38474772D01*
X164983604Y-51907666D02*
X164771472Y-52119798D01*
X164771472Y-52119798D02*
X165620000Y-52968326D01*
X165620000Y-52968326D02*
X166468528Y-52119798D01*
X166468528Y-52119798D02*
X166256396Y-51907666D01*
X166044264Y-51695534D02*
X166256396Y-51907666D01*
X166256396Y-51907666D02*
X165620000Y-52544062D01*
X165620000Y-52544062D02*
X165054315Y-51978377D01*
X165054315Y-51978377D02*
X164983604Y-51907666D01*
X164983604Y-51907666D02*
X165195736Y-51695534D01*
X165195736Y-44624466D02*
X165620000Y-44200202D01*
X165620000Y-44200202D02*
X169579798Y-48160000D01*
X169579798Y-48160000D02*
X169155534Y-48584264D01*
X166044264Y-51695534D02*
X165620000Y-52119798D01*
X165620000Y-52119798D02*
X161660202Y-48160000D01*
X161660202Y-48160000D02*
X162084466Y-47735736D01*
D14*
X109810000Y-84740000D02*
X109810000Y-85140000D01*
X103210000Y-86940000D02*
X103210000Y-89140000D01*
X109810000Y-89140000D02*
X109810000Y-86940000D01*
X103210000Y-90940000D02*
X103210000Y-91340000D01*
X103210000Y-91340000D02*
X109810000Y-91340000D01*
X109810000Y-91340000D02*
X109810000Y-90940000D01*
X103210000Y-84740000D02*
X103210000Y-85140000D01*
X103210000Y-84740000D02*
X109810000Y-84740000D01*
X120030000Y-94630000D02*
X120030000Y-95030000D01*
X113430000Y-96830000D02*
X113430000Y-99030000D01*
X120030000Y-99030000D02*
X120030000Y-96830000D01*
X113430000Y-100830000D02*
X113430000Y-101230000D01*
X113430000Y-101230000D02*
X120030000Y-101230000D01*
X120030000Y-101230000D02*
X120030000Y-100830000D01*
X113430000Y-94630000D02*
X113430000Y-95030000D01*
X113430000Y-94630000D02*
X120030000Y-94630000D01*
X130090000Y-84570000D02*
X130090000Y-84970000D01*
X123490000Y-86770000D02*
X123490000Y-88970000D01*
X130090000Y-88970000D02*
X130090000Y-86770000D01*
X123490000Y-90770000D02*
X123490000Y-91170000D01*
X123490000Y-91170000D02*
X130090000Y-91170000D01*
X130090000Y-91170000D02*
X130090000Y-90770000D01*
X123490000Y-84570000D02*
X123490000Y-84970000D01*
X123490000Y-84570000D02*
X130090000Y-84570000D01*
X150290000Y-84630000D02*
X150290000Y-85030000D01*
X143690000Y-86830000D02*
X143690000Y-89030000D01*
X150290000Y-89030000D02*
X150290000Y-86830000D01*
X143690000Y-90830000D02*
X143690000Y-91230000D01*
X143690000Y-91230000D02*
X150290000Y-91230000D01*
X150290000Y-91230000D02*
X150290000Y-90830000D01*
X143690000Y-84630000D02*
X143690000Y-85030000D01*
X143690000Y-84630000D02*
X150290000Y-84630000D01*
X170710000Y-84560000D02*
X170710000Y-84960000D01*
X164110000Y-86760000D02*
X164110000Y-88960000D01*
X170710000Y-88960000D02*
X170710000Y-86760000D01*
X164110000Y-90760000D02*
X164110000Y-91160000D01*
X164110000Y-91160000D02*
X170710000Y-91160000D01*
X170710000Y-91160000D02*
X170710000Y-90760000D01*
X164110000Y-84560000D02*
X164110000Y-84960000D01*
X164110000Y-84560000D02*
X170710000Y-84560000D01*
X160270000Y-94540000D02*
X160270000Y-94940000D01*
X153670000Y-96740000D02*
X153670000Y-98940000D01*
X160270000Y-98940000D02*
X160270000Y-96740000D01*
X153670000Y-100740000D02*
X153670000Y-101140000D01*
X153670000Y-101140000D02*
X160270000Y-101140000D01*
X160270000Y-101140000D02*
X160270000Y-100740000D01*
X153670000Y-94540000D02*
X153670000Y-94940000D01*
X153670000Y-94540000D02*
X160270000Y-94540000D01*
D15*
X174400000Y-64200000D02*
X174400000Y-73200000D01*
X174400000Y-73200000D02*
X159900000Y-73200000D01*
X159900000Y-73200000D02*
X159900000Y-64200000D01*
X159900000Y-64200000D02*
X174400000Y-64200000D01*
D13*
X175560000Y-82600000D02*
X175560000Y-74600000D01*
X168240000Y-82600000D02*
X168240000Y-74600000D01*
X168240000Y-74600000D02*
X175560000Y-74600000D01*
X174940000Y-74600000D02*
X174940000Y-82600000D01*
X175560000Y-82600000D02*
X168240000Y-82600000D01*
D14*
X150192132Y-83447615D02*
X144323146Y-77578629D01*
X148848629Y-73053146D02*
X154717615Y-78922132D01*
D13*
X149462010Y-70956518D02*
X148613482Y-70107990D01*
X149857990Y-68863482D02*
X150706518Y-69712010D01*
X138148000Y-44858000D02*
X132148000Y-44858000D01*
X132148000Y-44858000D02*
X132148000Y-57758000D01*
X132148000Y-57758000D02*
X138148000Y-57758000D01*
X138148000Y-57758000D02*
X138148000Y-44858000D01*
X132148000Y-46228000D02*
X133148000Y-46228000D01*
X133148000Y-46228000D02*
X133148000Y-56388000D01*
X133148000Y-56388000D02*
X132148000Y-56388000D01*
X133148000Y-46228000D02*
X133578000Y-46478000D01*
X133578000Y-46478000D02*
X133578000Y-56138000D01*
X133578000Y-56138000D02*
X133148000Y-56388000D01*
X132148000Y-46478000D02*
X133148000Y-46478000D01*
X132148000Y-56138000D02*
X133148000Y-56138000D01*
X138148000Y-45428000D02*
X137528000Y-45428000D01*
X137528000Y-45428000D02*
X137528000Y-47028000D01*
X137528000Y-47028000D02*
X138148000Y-47028000D01*
X138148000Y-47968000D02*
X137528000Y-47968000D01*
X137528000Y-47968000D02*
X137528000Y-49568000D01*
X137528000Y-49568000D02*
X138148000Y-49568000D01*
X138148000Y-50508000D02*
X137528000Y-50508000D01*
X137528000Y-50508000D02*
X137528000Y-52108000D01*
X137528000Y-52108000D02*
X138148000Y-52108000D01*
X138148000Y-53048000D02*
X137528000Y-53048000D01*
X137528000Y-53048000D02*
X137528000Y-54648000D01*
X137528000Y-54648000D02*
X138148000Y-54648000D01*
X138148000Y-55588000D02*
X137528000Y-55588000D01*
X137528000Y-55588000D02*
X137528000Y-57188000D01*
X137528000Y-57188000D02*
X138148000Y-57188000D01*
D15*
X109387949Y-71550127D02*
X99428657Y-77300127D01*
X111785064Y-66702051D02*
X113285064Y-69300127D01*
X113285064Y-69300127D02*
X112852051Y-69550127D01*
X99428657Y-77300127D02*
X97678657Y-74269038D01*
X97678657Y-74269038D02*
X95946606Y-75269038D01*
X95946606Y-75269038D02*
X94446606Y-72670962D01*
X94446606Y-72670962D02*
X96178657Y-71670962D01*
X96178657Y-71670962D02*
X94428657Y-68639873D01*
X94428657Y-68639873D02*
X108285064Y-60639873D01*
X108285064Y-60639873D02*
X109785064Y-63237949D01*
D13*
X108670000Y-83020000D02*
X107470000Y-83020000D01*
X107470000Y-81260000D02*
X108670000Y-81260000D01*
X117110000Y-90720000D02*
X115910000Y-90720000D01*
X115910000Y-88960000D02*
X117110000Y-88960000D01*
X140627990Y-78583482D02*
X141476518Y-79432010D01*
X140232010Y-80676518D02*
X139383482Y-79827990D01*
D14*
X118663334Y-61277143D02*
X118615715Y-61324762D01*
X118472858Y-61372381D01*
X118377620Y-61372381D01*
X118234762Y-61324762D01*
X118139524Y-61229524D01*
X118091905Y-61134286D01*
X118044286Y-60943810D01*
X118044286Y-60800952D01*
X118091905Y-60610476D01*
X118139524Y-60515238D01*
X118234762Y-60420000D01*
X118377620Y-60372381D01*
X118472858Y-60372381D01*
X118615715Y-60420000D01*
X118663334Y-60467619D01*
X119615715Y-61372381D02*
X119044286Y-61372381D01*
X119330000Y-61372381D02*
X119330000Y-60372381D01*
X119234762Y-60515238D01*
X119139524Y-60610476D01*
X119044286Y-60658095D01*
X116729611Y-57944688D02*
X116662268Y-57944688D01*
X116527581Y-57877344D01*
X116460237Y-57810001D01*
X116392893Y-57675313D01*
X116392893Y-57540626D01*
X116426565Y-57439611D01*
X116527580Y-57271253D01*
X116628596Y-57170237D01*
X116796955Y-57069222D01*
X116897970Y-57035550D01*
X117032657Y-57035550D01*
X117167344Y-57102894D01*
X117234688Y-57170237D01*
X117302031Y-57304924D01*
X117302031Y-57372268D01*
X117571405Y-57641641D02*
X117638748Y-57641641D01*
X117739763Y-57675313D01*
X117908123Y-57843672D01*
X117941794Y-57944688D01*
X117941794Y-58012031D01*
X117908123Y-58113046D01*
X117840779Y-58180390D01*
X117706092Y-58247733D01*
X116897970Y-58247733D01*
X117335703Y-58685466D01*
X119803334Y-68707143D02*
X119755715Y-68754762D01*
X119612858Y-68802381D01*
X119517620Y-68802381D01*
X119374762Y-68754762D01*
X119279524Y-68659524D01*
X119231905Y-68564286D01*
X119184286Y-68373810D01*
X119184286Y-68230952D01*
X119231905Y-68040476D01*
X119279524Y-67945238D01*
X119374762Y-67850000D01*
X119517620Y-67802381D01*
X119612858Y-67802381D01*
X119755715Y-67850000D01*
X119803334Y-67897619D01*
X120136667Y-67802381D02*
X120755715Y-67802381D01*
X120422381Y-68183333D01*
X120565239Y-68183333D01*
X120660477Y-68230952D01*
X120708096Y-68278571D01*
X120755715Y-68373810D01*
X120755715Y-68611905D01*
X120708096Y-68707143D01*
X120660477Y-68754762D01*
X120565239Y-68802381D01*
X120279524Y-68802381D01*
X120184286Y-68754762D01*
X120136667Y-68707143D01*
X123263334Y-66577143D02*
X123215715Y-66624762D01*
X123072858Y-66672381D01*
X122977620Y-66672381D01*
X122834762Y-66624762D01*
X122739524Y-66529524D01*
X122691905Y-66434286D01*
X122644286Y-66243810D01*
X122644286Y-66100952D01*
X122691905Y-65910476D01*
X122739524Y-65815238D01*
X122834762Y-65720000D01*
X122977620Y-65672381D01*
X123072858Y-65672381D01*
X123215715Y-65720000D01*
X123263334Y-65767619D01*
X124120477Y-66005714D02*
X124120477Y-66672381D01*
X123882381Y-65624762D02*
X123644286Y-66339048D01*
X124263334Y-66339048D01*
X114247372Y-43704235D02*
X114182323Y-43686805D01*
X114069656Y-43586896D01*
X114022037Y-43504418D01*
X113991847Y-43356890D01*
X114026706Y-43226792D01*
X114085375Y-43137934D01*
X114226523Y-43001457D01*
X114350242Y-42930028D01*
X114539008Y-42876029D01*
X114645296Y-42869649D01*
X114775394Y-42904509D01*
X114888062Y-43004418D01*
X114935681Y-43086896D01*
X114965870Y-43234424D01*
X114948440Y-43299473D01*
X115483300Y-44035400D02*
X115245204Y-43623007D01*
X114809002Y-43819863D01*
X114874051Y-43837292D01*
X114962909Y-43895961D01*
X115081957Y-44102159D01*
X115088337Y-44208447D01*
X115070907Y-44273495D01*
X115012237Y-44362354D01*
X114806041Y-44481402D01*
X114699753Y-44487781D01*
X114634704Y-44470352D01*
X114545846Y-44411683D01*
X114426798Y-44205485D01*
X114420418Y-44099197D01*
X114437848Y-44034149D01*
X119147143Y-45676666D02*
X119194762Y-45724285D01*
X119242381Y-45867142D01*
X119242381Y-45962380D01*
X119194762Y-46105238D01*
X119099524Y-46200476D01*
X119004286Y-46248095D01*
X118813810Y-46295714D01*
X118670952Y-46295714D01*
X118480476Y-46248095D01*
X118385238Y-46200476D01*
X118290000Y-46105238D01*
X118242381Y-45962380D01*
X118242381Y-45867142D01*
X118290000Y-45724285D01*
X118337619Y-45676666D01*
X118242381Y-44819523D02*
X118242381Y-45010000D01*
X118290000Y-45105238D01*
X118337619Y-45152857D01*
X118480476Y-45248095D01*
X118670952Y-45295714D01*
X119051905Y-45295714D01*
X119147143Y-45248095D01*
X119194762Y-45200476D01*
X119242381Y-45105238D01*
X119242381Y-44914761D01*
X119194762Y-44819523D01*
X119147143Y-44771904D01*
X119051905Y-44724285D01*
X118813810Y-44724285D01*
X118718571Y-44771904D01*
X118670952Y-44819523D01*
X118623333Y-44914761D01*
X118623333Y-45105238D01*
X118670952Y-45200476D01*
X118718571Y-45248095D01*
X118813810Y-45295714D01*
X96595945Y-54177552D02*
X96747275Y-54474555D01*
X96345413Y-54839646D02*
X96129227Y-54415357D01*
X97020233Y-53961366D01*
X97236419Y-54385655D01*
X96560790Y-55157458D02*
X96583217Y-55306363D01*
X96691310Y-55518508D01*
X96776976Y-55581747D01*
X96841024Y-55602557D01*
X96947500Y-55601749D01*
X97032358Y-55558512D01*
X97095597Y-55472846D01*
X97116407Y-55408799D01*
X97115600Y-55302322D01*
X97071554Y-55110987D01*
X97070745Y-55004511D01*
X97091556Y-54940463D01*
X97154795Y-54854797D01*
X97239653Y-54811560D01*
X97346129Y-54810752D01*
X97410176Y-54831562D01*
X97495842Y-54894801D01*
X97603936Y-55106946D01*
X97626362Y-55255852D01*
X96972352Y-56070083D02*
X97863358Y-55616093D01*
X98036307Y-55955524D01*
X98037116Y-56062000D01*
X98016305Y-56126048D01*
X97953066Y-56211714D01*
X97825780Y-56276570D01*
X97719304Y-56277378D01*
X97655256Y-56256568D01*
X97569590Y-56193328D01*
X97396641Y-55853897D01*
X97664147Y-57427808D02*
X97404724Y-56918661D01*
X97534435Y-57173234D02*
X98425442Y-56719243D01*
X98254918Y-56699241D01*
X98126823Y-56657621D01*
X98041157Y-56594382D01*
X92996448Y-47113143D02*
X93147779Y-47410146D01*
X92745916Y-47775237D02*
X92529730Y-47350948D01*
X93420737Y-46896957D01*
X93636923Y-47321246D01*
X92961294Y-48093049D02*
X92983721Y-48241954D01*
X93091814Y-48454099D01*
X93177480Y-48517338D01*
X93241527Y-48538149D01*
X93348004Y-48537340D01*
X93432861Y-48494103D01*
X93496100Y-48408437D01*
X93516911Y-48344390D01*
X93516103Y-48237913D01*
X93472057Y-48046578D01*
X93471249Y-47940102D01*
X93492059Y-47876055D01*
X93555298Y-47790389D01*
X93640156Y-47747151D01*
X93746632Y-47746343D01*
X93810680Y-47767153D01*
X93896346Y-47830393D01*
X94004439Y-48042538D01*
X94026866Y-48191443D01*
X93372855Y-49005674D02*
X94263862Y-48551684D01*
X94436811Y-48891115D01*
X94437619Y-48997592D01*
X94416809Y-49061639D01*
X94353570Y-49147305D01*
X94226283Y-49212161D01*
X94119807Y-49212969D01*
X94055760Y-49192159D01*
X93970094Y-49128920D01*
X93797145Y-48789488D01*
X94064651Y-50363399D02*
X93805227Y-49854252D01*
X93934939Y-50108825D02*
X94825945Y-49654834D01*
X94655422Y-49634832D01*
X94527327Y-49593212D01*
X94441661Y-49529973D01*
X95043748Y-50292076D02*
X95107796Y-50312886D01*
X95193462Y-50376126D01*
X95301555Y-50588271D01*
X95302363Y-50694747D01*
X95281553Y-50758794D01*
X95218314Y-50844460D01*
X95133456Y-50887697D01*
X94984551Y-50910124D01*
X94215981Y-50660401D01*
X94497023Y-51211977D01*
X95158308Y-51356031D02*
X95309638Y-51653034D01*
X94907776Y-52018125D02*
X94691590Y-51593836D01*
X95582596Y-51139846D01*
X95798783Y-51564135D01*
X178997388Y-49753919D02*
X179659662Y-50021496D01*
X179774278Y-50119163D01*
X179826905Y-50243143D01*
X179817541Y-50393436D01*
X179781864Y-50481739D01*
X179140095Y-49400707D02*
X179371994Y-48826735D01*
X179600338Y-49278504D01*
X179653853Y-49146049D01*
X179733682Y-49075584D01*
X179795672Y-49049271D01*
X179901814Y-49040797D01*
X180122572Y-49129988D01*
X180193037Y-49209817D01*
X180219350Y-49271807D01*
X180227825Y-49377948D01*
X180120794Y-49642859D01*
X180040966Y-49713323D01*
X179978976Y-49739637D01*
X119312381Y-81409524D02*
X118312381Y-81409524D01*
X119026667Y-81076190D01*
X118312381Y-80742857D01*
X119312381Y-80742857D01*
X119312381Y-80266667D02*
X118312381Y-80266667D01*
X119312381Y-79695238D02*
X118740952Y-80123810D01*
X118312381Y-79695238D02*
X118883810Y-80266667D01*
X119312381Y-78742857D02*
X119312381Y-79314286D01*
X119312381Y-79028572D02*
X118312381Y-79028572D01*
X118455238Y-79123810D01*
X118550476Y-79219048D01*
X118598095Y-79314286D01*
X112744894Y-66511854D02*
X112990620Y-65985082D01*
X112459179Y-66016981D02*
X113325204Y-65516981D01*
X113515681Y-65846896D01*
X113522061Y-65953184D01*
X113504631Y-66018233D01*
X113445962Y-66107092D01*
X113322244Y-66178520D01*
X113215956Y-66184900D01*
X113150907Y-66167470D01*
X113062049Y-66108801D01*
X112871573Y-65778886D01*
X113221084Y-67336640D02*
X112935370Y-66841768D01*
X113078227Y-67089203D02*
X113944252Y-66589203D01*
X113772915Y-66578153D01*
X113642818Y-66543294D01*
X113553959Y-66484625D01*
X113465550Y-36734421D02*
X113876624Y-36323462D01*
X113366323Y-36171673D02*
X114351131Y-35998025D01*
X114417282Y-36373191D01*
X114386925Y-36475251D01*
X114348298Y-36530415D01*
X114262776Y-36593849D01*
X114122089Y-36618656D01*
X114020029Y-36588298D01*
X113964865Y-36549671D01*
X113901431Y-36464149D01*
X113835279Y-36088984D01*
X114422719Y-36952475D02*
X114477883Y-36991102D01*
X114541317Y-37076624D01*
X114582662Y-37311103D01*
X114552304Y-37413163D01*
X114513677Y-37468328D01*
X114428155Y-37531761D01*
X114334364Y-37548299D01*
X114185408Y-37526210D01*
X113523433Y-37062690D01*
X113630930Y-37672333D01*
X137103334Y-81402381D02*
X136770000Y-80926190D01*
X136531905Y-81402381D02*
X136531905Y-80402381D01*
X136912858Y-80402381D01*
X137008096Y-80450000D01*
X137055715Y-80497619D01*
X137103334Y-80592857D01*
X137103334Y-80735714D01*
X137055715Y-80830952D01*
X137008096Y-80878571D01*
X136912858Y-80926190D01*
X136531905Y-80926190D01*
X137436667Y-80402381D02*
X138055715Y-80402381D01*
X137722381Y-80783333D01*
X137865239Y-80783333D01*
X137960477Y-80830952D01*
X138008096Y-80878571D01*
X138055715Y-80973810D01*
X138055715Y-81211905D01*
X138008096Y-81307143D01*
X137960477Y-81354762D01*
X137865239Y-81402381D01*
X137579524Y-81402381D01*
X137484286Y-81354762D01*
X137436667Y-81307143D01*
X114743334Y-70202381D02*
X114410000Y-69726190D01*
X114171905Y-70202381D02*
X114171905Y-69202381D01*
X114552858Y-69202381D01*
X114648096Y-69250000D01*
X114695715Y-69297619D01*
X114743334Y-69392857D01*
X114743334Y-69535714D01*
X114695715Y-69630952D01*
X114648096Y-69678571D01*
X114552858Y-69726190D01*
X114171905Y-69726190D01*
X115600477Y-69535714D02*
X115600477Y-70202381D01*
X115362381Y-69154762D02*
X115124286Y-69869048D01*
X115743334Y-69869048D01*
X128752381Y-73476666D02*
X128276190Y-73810000D01*
X128752381Y-74048095D02*
X127752381Y-74048095D01*
X127752381Y-73667142D01*
X127800000Y-73571904D01*
X127847619Y-73524285D01*
X127942857Y-73476666D01*
X128085714Y-73476666D01*
X128180952Y-73524285D01*
X128228571Y-73571904D01*
X128276190Y-73667142D01*
X128276190Y-74048095D01*
X127752381Y-72571904D02*
X127752381Y-73048095D01*
X128228571Y-73095714D01*
X128180952Y-73048095D01*
X128133333Y-72952857D01*
X128133333Y-72714761D01*
X128180952Y-72619523D01*
X128228571Y-72571904D01*
X128323810Y-72524285D01*
X128561905Y-72524285D01*
X128657143Y-72571904D01*
X128704762Y-72619523D01*
X128752381Y-72714761D01*
X128752381Y-72952857D01*
X128704762Y-73048095D01*
X128657143Y-73095714D01*
X116608095Y-67722381D02*
X116608095Y-68531905D01*
X116655714Y-68627143D01*
X116703333Y-68674762D01*
X116798571Y-68722381D01*
X116989048Y-68722381D01*
X117084286Y-68674762D01*
X117131905Y-68627143D01*
X117179524Y-68531905D01*
X117179524Y-67722381D01*
X118179524Y-68722381D02*
X117608095Y-68722381D01*
X117893809Y-68722381D02*
X117893809Y-67722381D01*
X117798571Y-67865238D01*
X117703333Y-67960476D01*
X117608095Y-68008095D01*
X115978095Y-50982381D02*
X115978095Y-51791905D01*
X116025714Y-51887143D01*
X116073333Y-51934762D01*
X116168571Y-51982381D01*
X116359048Y-51982381D01*
X116454286Y-51934762D01*
X116501905Y-51887143D01*
X116549524Y-51791905D01*
X116549524Y-50982381D01*
X116978095Y-51077619D02*
X117025714Y-51030000D01*
X117120952Y-50982381D01*
X117359048Y-50982381D01*
X117454286Y-51030000D01*
X117501905Y-51077619D01*
X117549524Y-51172857D01*
X117549524Y-51268095D01*
X117501905Y-51410952D01*
X116930476Y-51982381D01*
X117549524Y-51982381D01*
X92241675Y-34615499D02*
X91534568Y-33908392D01*
X91702927Y-33740033D01*
X91837614Y-33672689D01*
X91972301Y-33672689D01*
X92073316Y-33706361D01*
X92241675Y-33807376D01*
X92342691Y-33908392D01*
X92443706Y-34076750D01*
X92477377Y-34177766D01*
X92477377Y-34312452D01*
X92410033Y-34447140D01*
X92241675Y-34615499D01*
X93319171Y-33538002D02*
X92915110Y-33942064D01*
X93117140Y-33740033D02*
X92410033Y-33032927D01*
X92443705Y-33201285D01*
X92443705Y-33335972D01*
X92410033Y-33436987D01*
X107167107Y-31756709D02*
X107027934Y-30766441D01*
X107263712Y-30733305D01*
X107411807Y-30760579D01*
X107519373Y-30841635D01*
X107579783Y-30929319D01*
X107653448Y-31111314D01*
X107673330Y-31252782D01*
X107652683Y-31448031D01*
X107618782Y-31548970D01*
X107537726Y-31656535D01*
X107402885Y-31723573D01*
X107167107Y-31756709D01*
X107984301Y-30728207D02*
X108024830Y-30674424D01*
X108112513Y-30614014D01*
X108348292Y-30580877D01*
X108449231Y-30614778D01*
X108503014Y-30655306D01*
X108563424Y-30742990D01*
X108576678Y-30837301D01*
X108549405Y-30985395D01*
X108063064Y-31630791D01*
X108676088Y-31544636D01*
X120347061Y-32223550D02*
X120520709Y-31238743D01*
X120755187Y-31280087D01*
X120887606Y-31351790D01*
X120964859Y-31462119D01*
X120995217Y-31564179D01*
X121009036Y-31760030D01*
X120984229Y-31900718D01*
X120904258Y-32080031D01*
X120840825Y-32165553D01*
X120730496Y-32242807D01*
X120581539Y-32264895D01*
X120347061Y-32223550D01*
X121411726Y-31395853D02*
X122021369Y-31503350D01*
X121626948Y-31820631D01*
X121767635Y-31845438D01*
X121853158Y-31908872D01*
X121891784Y-31964036D01*
X121922142Y-32066097D01*
X121880797Y-32300575D01*
X121817363Y-32386097D01*
X121762199Y-32424724D01*
X121660139Y-32455081D01*
X121378764Y-32405468D01*
X121293242Y-32342034D01*
X121254616Y-32286870D01*
X128546480Y-32697324D02*
X128441952Y-31702802D01*
X128678742Y-31677914D01*
X128825795Y-31710340D01*
X128930467Y-31795101D01*
X128987780Y-31884839D01*
X129055048Y-32069294D01*
X129069981Y-32211370D01*
X129042533Y-32405780D01*
X129005130Y-32505474D01*
X128920369Y-32610145D01*
X128783271Y-32672436D01*
X128546480Y-32697324D01*
X129897541Y-31884982D02*
X129967226Y-32547997D01*
X129620928Y-31531005D02*
X129458801Y-32266266D01*
X130074458Y-32201558D01*
X140117061Y-33283550D02*
X140290709Y-32298743D01*
X140525187Y-32340087D01*
X140657606Y-32411790D01*
X140734859Y-32522119D01*
X140765217Y-32624179D01*
X140779036Y-32820030D01*
X140754229Y-32960718D01*
X140674258Y-33140031D01*
X140610825Y-33225553D01*
X140500496Y-33302807D01*
X140351539Y-33324895D01*
X140117061Y-33283550D01*
X141697578Y-32546812D02*
X141509995Y-32513736D01*
X141407935Y-32544093D01*
X141352770Y-32582720D01*
X141234172Y-32706869D01*
X141154201Y-32886182D01*
X141088049Y-33261347D01*
X141118407Y-33363408D01*
X141157033Y-33418572D01*
X141242556Y-33482005D01*
X141430139Y-33515081D01*
X141532199Y-33484724D01*
X141587363Y-33446097D01*
X141650797Y-33360575D01*
X141692142Y-33126097D01*
X141661784Y-33024036D01*
X141623158Y-32968872D01*
X141537635Y-32905438D01*
X141350052Y-32872362D01*
X141247992Y-32902720D01*
X141192828Y-32941346D01*
X141129394Y-33026870D01*
X150407160Y-33731779D02*
X150337404Y-32734215D01*
X150574919Y-32717606D01*
X150720751Y-32755144D01*
X150822400Y-32843506D01*
X150876547Y-32935191D01*
X150937337Y-33121881D01*
X150947302Y-33264391D01*
X150913086Y-33457725D01*
X150872226Y-33556053D01*
X150783864Y-33657702D01*
X150644675Y-33715170D01*
X150407160Y-33731779D01*
X151239962Y-32671102D02*
X151905005Y-32624598D01*
X151547234Y-33652057D01*
X161013252Y-33574891D02*
X161221164Y-32596743D01*
X161454056Y-32646246D01*
X161583891Y-32722526D01*
X161657247Y-32835484D01*
X161684024Y-32938541D01*
X161691001Y-33134756D01*
X161661299Y-33274492D01*
X161575118Y-33450905D01*
X161508739Y-33534161D01*
X161395781Y-33607517D01*
X161246144Y-33624394D01*
X161013252Y-33574891D01*
X162249941Y-33253562D02*
X162166685Y-33187183D01*
X162130007Y-33130704D01*
X162103230Y-33027646D01*
X162113131Y-32981068D01*
X162179510Y-32897812D01*
X162235989Y-32861134D01*
X162339046Y-32834357D01*
X162525361Y-32873959D01*
X162608617Y-32940338D01*
X162645295Y-32996817D01*
X162672072Y-33099875D01*
X162662172Y-33146453D01*
X162595792Y-33229709D01*
X162539313Y-33266387D01*
X162436256Y-33293165D01*
X162249941Y-33253562D01*
X162146884Y-33280340D01*
X162090405Y-33317017D01*
X162024025Y-33400275D01*
X161984423Y-33586588D01*
X162011201Y-33689646D01*
X162047878Y-33746125D01*
X162131135Y-33812504D01*
X162317449Y-33852107D01*
X162420507Y-33825329D01*
X162476986Y-33788651D01*
X162543365Y-33705395D01*
X162582967Y-33519081D01*
X162556190Y-33416023D01*
X162519512Y-33359544D01*
X162436256Y-33293165D01*
X167394501Y-45341675D02*
X168101608Y-44634568D01*
X168269967Y-44802927D01*
X168337311Y-44937614D01*
X168337311Y-45072301D01*
X168303639Y-45173316D01*
X168202624Y-45341675D01*
X168101608Y-45442691D01*
X167933250Y-45543706D01*
X167832234Y-45577377D01*
X167697548Y-45577377D01*
X167562860Y-45510033D01*
X167394501Y-45341675D01*
X168135280Y-46082453D02*
X168269967Y-46217140D01*
X168370983Y-46250812D01*
X168438326Y-46250812D01*
X168606685Y-46217141D01*
X168775043Y-46116126D01*
X169044418Y-45846751D01*
X169078089Y-45745736D01*
X169078089Y-45678393D01*
X169044418Y-45577377D01*
X168909730Y-45442690D01*
X168808715Y-45409018D01*
X168741371Y-45409018D01*
X168640356Y-45442690D01*
X168471998Y-45611048D01*
X168438326Y-45712064D01*
X168438325Y-45779408D01*
X168471997Y-45880423D01*
X168606685Y-46015110D01*
X168707700Y-46048782D01*
X168775044Y-46048781D01*
X168876059Y-46015110D01*
X105494001Y-84248429D02*
X105602858Y-84284714D01*
X105784287Y-84284714D01*
X105856858Y-84248429D01*
X105893144Y-84212143D01*
X105929429Y-84139571D01*
X105929429Y-84067000D01*
X105893144Y-83994429D01*
X105856858Y-83958143D01*
X105784287Y-83921857D01*
X105639144Y-83885571D01*
X105566572Y-83849286D01*
X105530287Y-83813000D01*
X105494001Y-83740429D01*
X105494001Y-83667857D01*
X105530287Y-83595286D01*
X105566572Y-83559000D01*
X105639144Y-83522714D01*
X105820572Y-83522714D01*
X105929429Y-83559000D01*
X106183429Y-83522714D02*
X106364858Y-84284714D01*
X106510001Y-83740429D01*
X106655143Y-84284714D01*
X106836572Y-83522714D01*
X107526000Y-84284714D02*
X107090572Y-84284714D01*
X107308286Y-84284714D02*
X107308286Y-83522714D01*
X107235715Y-83631571D01*
X107163143Y-83704143D01*
X107090572Y-83740429D01*
X104459857Y-91722714D02*
X104895286Y-91722714D01*
X104677572Y-92484714D02*
X104677572Y-91722714D01*
X105113000Y-92267000D02*
X105475857Y-92267000D01*
X105040428Y-92484714D02*
X105294428Y-91722714D01*
X105548428Y-92484714D01*
X106237857Y-92412143D02*
X106201571Y-92448429D01*
X106092714Y-92484714D01*
X106020143Y-92484714D01*
X105911286Y-92448429D01*
X105838714Y-92375857D01*
X105802429Y-92303286D01*
X105766143Y-92158143D01*
X105766143Y-92049286D01*
X105802429Y-91904143D01*
X105838714Y-91831571D01*
X105911286Y-91759000D01*
X106020143Y-91722714D01*
X106092714Y-91722714D01*
X106201571Y-91759000D01*
X106237857Y-91795286D01*
X106455571Y-91722714D02*
X106891000Y-91722714D01*
X106673286Y-92484714D02*
X106673286Y-91722714D01*
X107145000Y-92484714D02*
X107145000Y-91722714D01*
X107870714Y-92484714D02*
X107507857Y-92484714D01*
X107507857Y-91722714D01*
X108124714Y-92085571D02*
X108378714Y-92085571D01*
X108487571Y-92484714D02*
X108124714Y-92484714D01*
X108124714Y-91722714D01*
X108487571Y-91722714D01*
X111534001Y-94278429D02*
X111642858Y-94314714D01*
X111824287Y-94314714D01*
X111896858Y-94278429D01*
X111933144Y-94242143D01*
X111969429Y-94169571D01*
X111969429Y-94097000D01*
X111933144Y-94024429D01*
X111896858Y-93988143D01*
X111824287Y-93951857D01*
X111679144Y-93915571D01*
X111606572Y-93879286D01*
X111570287Y-93843000D01*
X111534001Y-93770429D01*
X111534001Y-93697857D01*
X111570287Y-93625286D01*
X111606572Y-93589000D01*
X111679144Y-93552714D01*
X111860572Y-93552714D01*
X111969429Y-93589000D01*
X112223429Y-93552714D02*
X112404858Y-94314714D01*
X112550001Y-93770429D01*
X112695143Y-94314714D01*
X112876572Y-93552714D01*
X113130572Y-93625286D02*
X113166858Y-93589000D01*
X113239429Y-93552714D01*
X113420858Y-93552714D01*
X113493429Y-93589000D01*
X113529715Y-93625286D01*
X113566000Y-93697857D01*
X113566000Y-93770429D01*
X113529715Y-93879286D01*
X113094286Y-94314714D01*
X113566000Y-94314714D01*
X114679857Y-101612714D02*
X115115286Y-101612714D01*
X114897572Y-102374714D02*
X114897572Y-101612714D01*
X115333000Y-102157000D02*
X115695857Y-102157000D01*
X115260428Y-102374714D02*
X115514428Y-101612714D01*
X115768428Y-102374714D01*
X116457857Y-102302143D02*
X116421571Y-102338429D01*
X116312714Y-102374714D01*
X116240143Y-102374714D01*
X116131286Y-102338429D01*
X116058714Y-102265857D01*
X116022429Y-102193286D01*
X115986143Y-102048143D01*
X115986143Y-101939286D01*
X116022429Y-101794143D01*
X116058714Y-101721571D01*
X116131286Y-101649000D01*
X116240143Y-101612714D01*
X116312714Y-101612714D01*
X116421571Y-101649000D01*
X116457857Y-101685286D01*
X116675571Y-101612714D02*
X117111000Y-101612714D01*
X116893286Y-102374714D02*
X116893286Y-101612714D01*
X117365000Y-102374714D02*
X117365000Y-101612714D01*
X118090714Y-102374714D02*
X117727857Y-102374714D01*
X117727857Y-101612714D01*
X118344714Y-101975571D02*
X118598714Y-101975571D01*
X118707571Y-102374714D02*
X118344714Y-102374714D01*
X118344714Y-101612714D01*
X118707571Y-101612714D01*
X125774001Y-84078429D02*
X125882858Y-84114714D01*
X126064287Y-84114714D01*
X126136858Y-84078429D01*
X126173144Y-84042143D01*
X126209429Y-83969571D01*
X126209429Y-83897000D01*
X126173144Y-83824429D01*
X126136858Y-83788143D01*
X126064287Y-83751857D01*
X125919144Y-83715571D01*
X125846572Y-83679286D01*
X125810287Y-83643000D01*
X125774001Y-83570429D01*
X125774001Y-83497857D01*
X125810287Y-83425286D01*
X125846572Y-83389000D01*
X125919144Y-83352714D01*
X126100572Y-83352714D01*
X126209429Y-83389000D01*
X126463429Y-83352714D02*
X126644858Y-84114714D01*
X126790001Y-83570429D01*
X126935143Y-84114714D01*
X127116572Y-83352714D01*
X127334286Y-83352714D02*
X127806000Y-83352714D01*
X127552000Y-83643000D01*
X127660858Y-83643000D01*
X127733429Y-83679286D01*
X127769715Y-83715571D01*
X127806000Y-83788143D01*
X127806000Y-83969571D01*
X127769715Y-84042143D01*
X127733429Y-84078429D01*
X127660858Y-84114714D01*
X127443143Y-84114714D01*
X127370572Y-84078429D01*
X127334286Y-84042143D01*
X124739857Y-91552714D02*
X125175286Y-91552714D01*
X124957572Y-92314714D02*
X124957572Y-91552714D01*
X125393000Y-92097000D02*
X125755857Y-92097000D01*
X125320428Y-92314714D02*
X125574428Y-91552714D01*
X125828428Y-92314714D01*
X126517857Y-92242143D02*
X126481571Y-92278429D01*
X126372714Y-92314714D01*
X126300143Y-92314714D01*
X126191286Y-92278429D01*
X126118714Y-92205857D01*
X126082429Y-92133286D01*
X126046143Y-91988143D01*
X126046143Y-91879286D01*
X126082429Y-91734143D01*
X126118714Y-91661571D01*
X126191286Y-91589000D01*
X126300143Y-91552714D01*
X126372714Y-91552714D01*
X126481571Y-91589000D01*
X126517857Y-91625286D01*
X126735571Y-91552714D02*
X127171000Y-91552714D01*
X126953286Y-92314714D02*
X126953286Y-91552714D01*
X127425000Y-92314714D02*
X127425000Y-91552714D01*
X128150714Y-92314714D02*
X127787857Y-92314714D01*
X127787857Y-91552714D01*
X128404714Y-91915571D02*
X128658714Y-91915571D01*
X128767571Y-92314714D02*
X128404714Y-92314714D01*
X128404714Y-91552714D01*
X128767571Y-91552714D01*
X145974001Y-84138429D02*
X146082858Y-84174714D01*
X146264287Y-84174714D01*
X146336858Y-84138429D01*
X146373144Y-84102143D01*
X146409429Y-84029571D01*
X146409429Y-83957000D01*
X146373144Y-83884429D01*
X146336858Y-83848143D01*
X146264287Y-83811857D01*
X146119144Y-83775571D01*
X146046572Y-83739286D01*
X146010287Y-83703000D01*
X145974001Y-83630429D01*
X145974001Y-83557857D01*
X146010287Y-83485286D01*
X146046572Y-83449000D01*
X146119144Y-83412714D01*
X146300572Y-83412714D01*
X146409429Y-83449000D01*
X146663429Y-83412714D02*
X146844858Y-84174714D01*
X146990001Y-83630429D01*
X147135143Y-84174714D01*
X147316572Y-83412714D01*
X147933429Y-83666714D02*
X147933429Y-84174714D01*
X147752000Y-83376429D02*
X147570572Y-83920714D01*
X148042286Y-83920714D01*
X144939857Y-91612714D02*
X145375286Y-91612714D01*
X145157572Y-92374714D02*
X145157572Y-91612714D01*
X145593000Y-92157000D02*
X145955857Y-92157000D01*
X145520428Y-92374714D02*
X145774428Y-91612714D01*
X146028428Y-92374714D01*
X146717857Y-92302143D02*
X146681571Y-92338429D01*
X146572714Y-92374714D01*
X146500143Y-92374714D01*
X146391286Y-92338429D01*
X146318714Y-92265857D01*
X146282429Y-92193286D01*
X146246143Y-92048143D01*
X146246143Y-91939286D01*
X146282429Y-91794143D01*
X146318714Y-91721571D01*
X146391286Y-91649000D01*
X146500143Y-91612714D01*
X146572714Y-91612714D01*
X146681571Y-91649000D01*
X146717857Y-91685286D01*
X146935571Y-91612714D02*
X147371000Y-91612714D01*
X147153286Y-92374714D02*
X147153286Y-91612714D01*
X147625000Y-92374714D02*
X147625000Y-91612714D01*
X148350714Y-92374714D02*
X147987857Y-92374714D01*
X147987857Y-91612714D01*
X148604714Y-91975571D02*
X148858714Y-91975571D01*
X148967571Y-92374714D02*
X148604714Y-92374714D01*
X148604714Y-91612714D01*
X148967571Y-91612714D01*
X166394001Y-84068429D02*
X166502858Y-84104714D01*
X166684287Y-84104714D01*
X166756858Y-84068429D01*
X166793144Y-84032143D01*
X166829429Y-83959571D01*
X166829429Y-83887000D01*
X166793144Y-83814429D01*
X166756858Y-83778143D01*
X166684287Y-83741857D01*
X166539144Y-83705571D01*
X166466572Y-83669286D01*
X166430287Y-83633000D01*
X166394001Y-83560429D01*
X166394001Y-83487857D01*
X166430287Y-83415286D01*
X166466572Y-83379000D01*
X166539144Y-83342714D01*
X166720572Y-83342714D01*
X166829429Y-83379000D01*
X167083429Y-83342714D02*
X167264858Y-84104714D01*
X167410001Y-83560429D01*
X167555143Y-84104714D01*
X167736572Y-83342714D01*
X168389715Y-83342714D02*
X168026858Y-83342714D01*
X167990572Y-83705571D01*
X168026858Y-83669286D01*
X168099429Y-83633000D01*
X168280858Y-83633000D01*
X168353429Y-83669286D01*
X168389715Y-83705571D01*
X168426000Y-83778143D01*
X168426000Y-83959571D01*
X168389715Y-84032143D01*
X168353429Y-84068429D01*
X168280858Y-84104714D01*
X168099429Y-84104714D01*
X168026858Y-84068429D01*
X167990572Y-84032143D01*
X165359857Y-91542714D02*
X165795286Y-91542714D01*
X165577572Y-92304714D02*
X165577572Y-91542714D01*
X166013000Y-92087000D02*
X166375857Y-92087000D01*
X165940428Y-92304714D02*
X166194428Y-91542714D01*
X166448428Y-92304714D01*
X167137857Y-92232143D02*
X167101571Y-92268429D01*
X166992714Y-92304714D01*
X166920143Y-92304714D01*
X166811286Y-92268429D01*
X166738714Y-92195857D01*
X166702429Y-92123286D01*
X166666143Y-91978143D01*
X166666143Y-91869286D01*
X166702429Y-91724143D01*
X166738714Y-91651571D01*
X166811286Y-91579000D01*
X166920143Y-91542714D01*
X166992714Y-91542714D01*
X167101571Y-91579000D01*
X167137857Y-91615286D01*
X167355571Y-91542714D02*
X167791000Y-91542714D01*
X167573286Y-92304714D02*
X167573286Y-91542714D01*
X168045000Y-92304714D02*
X168045000Y-91542714D01*
X168770714Y-92304714D02*
X168407857Y-92304714D01*
X168407857Y-91542714D01*
X169024714Y-91905571D02*
X169278714Y-91905571D01*
X169387571Y-92304714D02*
X169024714Y-92304714D01*
X169024714Y-91542714D01*
X169387571Y-91542714D01*
X153224001Y-93738429D02*
X153332858Y-93774714D01*
X153514287Y-93774714D01*
X153586858Y-93738429D01*
X153623144Y-93702143D01*
X153659429Y-93629571D01*
X153659429Y-93557000D01*
X153623144Y-93484429D01*
X153586858Y-93448143D01*
X153514287Y-93411857D01*
X153369144Y-93375571D01*
X153296572Y-93339286D01*
X153260287Y-93303000D01*
X153224001Y-93230429D01*
X153224001Y-93157857D01*
X153260287Y-93085286D01*
X153296572Y-93049000D01*
X153369144Y-93012714D01*
X153550572Y-93012714D01*
X153659429Y-93049000D01*
X153913429Y-93012714D02*
X154094858Y-93774714D01*
X154240001Y-93230429D01*
X154385143Y-93774714D01*
X154566572Y-93012714D01*
X155183429Y-93012714D02*
X155038286Y-93012714D01*
X154965715Y-93049000D01*
X154929429Y-93085286D01*
X154856858Y-93194143D01*
X154820572Y-93339286D01*
X154820572Y-93629571D01*
X154856858Y-93702143D01*
X154893143Y-93738429D01*
X154965715Y-93774714D01*
X155110858Y-93774714D01*
X155183429Y-93738429D01*
X155219715Y-93702143D01*
X155256000Y-93629571D01*
X155256000Y-93448143D01*
X155219715Y-93375571D01*
X155183429Y-93339286D01*
X155110858Y-93303000D01*
X154965715Y-93303000D01*
X154893143Y-93339286D01*
X154856858Y-93375571D01*
X154820572Y-93448143D01*
X154919857Y-101522714D02*
X155355286Y-101522714D01*
X155137572Y-102284714D02*
X155137572Y-101522714D01*
X155573000Y-102067000D02*
X155935857Y-102067000D01*
X155500428Y-102284714D02*
X155754428Y-101522714D01*
X156008428Y-102284714D01*
X156697857Y-102212143D02*
X156661571Y-102248429D01*
X156552714Y-102284714D01*
X156480143Y-102284714D01*
X156371286Y-102248429D01*
X156298714Y-102175857D01*
X156262429Y-102103286D01*
X156226143Y-101958143D01*
X156226143Y-101849286D01*
X156262429Y-101704143D01*
X156298714Y-101631571D01*
X156371286Y-101559000D01*
X156480143Y-101522714D01*
X156552714Y-101522714D01*
X156661571Y-101559000D01*
X156697857Y-101595286D01*
X156915571Y-101522714D02*
X157351000Y-101522714D01*
X157133286Y-102284714D02*
X157133286Y-101522714D01*
X157605000Y-102284714D02*
X157605000Y-101522714D01*
X158330714Y-102284714D02*
X157967857Y-102284714D01*
X157967857Y-101522714D01*
X158584714Y-101885571D02*
X158838714Y-101885571D01*
X158947571Y-102284714D02*
X158584714Y-102284714D01*
X158584714Y-101522714D01*
X158947571Y-101522714D01*
X154796667Y-66392381D02*
X154796667Y-67106667D01*
X154749047Y-67249524D01*
X154653809Y-67344762D01*
X154510952Y-67392381D01*
X154415714Y-67392381D01*
X155225238Y-66487619D02*
X155272857Y-66440000D01*
X155368095Y-66392381D01*
X155606191Y-66392381D01*
X155701429Y-66440000D01*
X155749048Y-66487619D01*
X155796667Y-66582857D01*
X155796667Y-66678095D01*
X155749048Y-66820952D01*
X155177619Y-67392381D01*
X155796667Y-67392381D01*
X167192381Y-80838095D02*
X166192381Y-80838095D01*
X166192381Y-80457142D01*
X166240000Y-80361904D01*
X166287619Y-80314285D01*
X166382857Y-80266666D01*
X166525714Y-80266666D01*
X166620952Y-80314285D01*
X166668571Y-80361904D01*
X166716190Y-80457142D01*
X166716190Y-80838095D01*
X167192381Y-79314285D02*
X167192381Y-79885714D01*
X167192381Y-79600000D02*
X166192381Y-79600000D01*
X166335238Y-79695238D01*
X166430476Y-79790476D01*
X166478095Y-79885714D01*
X152108054Y-75538122D02*
X152815161Y-74831015D01*
X152983520Y-74999374D01*
X153050864Y-75134061D01*
X153050864Y-75268748D01*
X153017192Y-75369763D01*
X152916177Y-75538122D01*
X152815161Y-75639138D01*
X152646803Y-75740153D01*
X152545787Y-75773824D01*
X152411101Y-75773824D01*
X152276413Y-75706480D01*
X152108054Y-75538122D01*
X153858986Y-75874840D02*
X153522268Y-75538122D01*
X153151879Y-75841167D01*
X153219222Y-75841167D01*
X153320238Y-75874839D01*
X153488597Y-76043198D01*
X153522269Y-76144213D01*
X153522269Y-76211557D01*
X153488596Y-76312573D01*
X153320238Y-76480931D01*
X153219222Y-76514603D01*
X153151879Y-76514603D01*
X153050864Y-76480931D01*
X152882505Y-76312572D01*
X152848833Y-76211557D01*
X152848833Y-76144213D01*
X150388994Y-68945305D02*
X150490009Y-68372884D01*
X149984932Y-68541244D02*
X150692039Y-67834137D01*
X150961414Y-68103511D01*
X150995085Y-68204527D01*
X150995085Y-68271870D01*
X150961414Y-68372885D01*
X150860398Y-68473900D01*
X150759383Y-68507572D01*
X150692040Y-68507572D01*
X150591025Y-68473900D01*
X150321650Y-68204526D01*
X151702192Y-68844290D02*
X151567504Y-68709602D01*
X151466489Y-68675931D01*
X151399146Y-68675931D01*
X151230787Y-68709602D01*
X151062429Y-68810617D01*
X150793054Y-69079992D01*
X150759383Y-69181007D01*
X150759383Y-69248350D01*
X150793054Y-69349366D01*
X150927742Y-69484053D01*
X151028757Y-69517725D01*
X151096100Y-69517725D01*
X151197116Y-69484053D01*
X151365474Y-69315695D01*
X151399147Y-69214679D01*
X151399147Y-69147335D01*
X151365475Y-69046320D01*
X151230787Y-68911633D01*
X151129772Y-68877961D01*
X151062429Y-68877961D01*
X150961413Y-68911633D01*
X173346667Y-31902381D02*
X173013333Y-31426190D01*
X172775238Y-31902381D02*
X172775238Y-30902381D01*
X173156191Y-30902381D01*
X173251429Y-30950000D01*
X173299048Y-30997619D01*
X173346667Y-31092857D01*
X173346667Y-31235714D01*
X173299048Y-31330952D01*
X173251429Y-31378571D01*
X173156191Y-31426190D01*
X172775238Y-31426190D01*
X173775238Y-31378571D02*
X174108572Y-31378571D01*
X174251429Y-31902381D02*
X173775238Y-31902381D01*
X173775238Y-30902381D01*
X174251429Y-30902381D01*
X175013334Y-31378571D02*
X174680000Y-31378571D01*
X174680000Y-31902381D02*
X174680000Y-30902381D01*
X175156191Y-30902381D01*
X175680000Y-30902381D02*
X175680000Y-31140476D01*
X175441905Y-31045238D02*
X175680000Y-31140476D01*
X175918096Y-31045238D01*
X175537143Y-31330952D02*
X175680000Y-31140476D01*
X175822858Y-31330952D01*
X176441905Y-30902381D02*
X176441905Y-31140476D01*
X176203810Y-31045238D02*
X176441905Y-31140476D01*
X176680001Y-31045238D01*
X176299048Y-31330952D02*
X176441905Y-31140476D01*
X176584763Y-31330952D01*
X134312381Y-43363333D02*
X135026667Y-43363333D01*
X135169524Y-43410953D01*
X135264762Y-43506191D01*
X135312381Y-43649048D01*
X135312381Y-43744286D01*
X134645714Y-42458571D02*
X135312381Y-42458571D01*
X134264762Y-42696667D02*
X134979048Y-42934762D01*
X134979048Y-42315714D01*
X103696300Y-75358567D02*
X104053443Y-75977156D01*
X104083631Y-76124684D01*
X104048771Y-76254782D01*
X103948863Y-76367449D01*
X103866385Y-76415068D01*
X105062325Y-75724592D02*
X104567453Y-76010306D01*
X104814889Y-75867449D02*
X104314889Y-75001424D01*
X104303839Y-75172761D01*
X104268979Y-75302858D01*
X104210310Y-75391717D01*
X107013334Y-80972381D02*
X106680000Y-80496190D01*
X106441905Y-80972381D02*
X106441905Y-79972381D01*
X106822858Y-79972381D01*
X106918096Y-80020000D01*
X106965715Y-80067619D01*
X107013334Y-80162857D01*
X107013334Y-80305714D01*
X106965715Y-80400952D01*
X106918096Y-80448571D01*
X106822858Y-80496190D01*
X106441905Y-80496190D01*
X107346667Y-79972381D02*
X108013334Y-79972381D01*
X107584762Y-80972381D01*
X113943334Y-88962381D02*
X113610000Y-88486190D01*
X113371905Y-88962381D02*
X113371905Y-87962381D01*
X113752858Y-87962381D01*
X113848096Y-88010000D01*
X113895715Y-88057619D01*
X113943334Y-88152857D01*
X113943334Y-88295714D01*
X113895715Y-88390952D01*
X113848096Y-88438571D01*
X113752858Y-88486190D01*
X113371905Y-88486190D01*
X114514762Y-88390952D02*
X114419524Y-88343333D01*
X114371905Y-88295714D01*
X114324286Y-88200476D01*
X114324286Y-88152857D01*
X114371905Y-88057619D01*
X114419524Y-88010000D01*
X114514762Y-87962381D01*
X114705239Y-87962381D01*
X114800477Y-88010000D01*
X114848096Y-88057619D01*
X114895715Y-88152857D01*
X114895715Y-88200476D01*
X114848096Y-88295714D01*
X114800477Y-88343333D01*
X114705239Y-88390952D01*
X114514762Y-88390952D01*
X114419524Y-88438571D01*
X114371905Y-88486190D01*
X114324286Y-88581429D01*
X114324286Y-88771905D01*
X114371905Y-88867143D01*
X114419524Y-88914762D01*
X114514762Y-88962381D01*
X114705239Y-88962381D01*
X114800477Y-88914762D01*
X114848096Y-88867143D01*
X114895715Y-88771905D01*
X114895715Y-88581429D01*
X114848096Y-88486190D01*
X114800477Y-88438571D01*
X114705239Y-88390952D01*
X137472268Y-78262031D02*
X137573283Y-77689610D01*
X137068206Y-77857970D02*
X137775313Y-77150863D01*
X138044688Y-77420237D01*
X138078359Y-77521253D01*
X138078359Y-77588596D01*
X138044688Y-77689611D01*
X137943672Y-77790626D01*
X137842657Y-77824298D01*
X137775314Y-77824298D01*
X137674299Y-77790626D01*
X137404924Y-77521252D01*
X137808985Y-78598748D02*
X137943672Y-78733435D01*
X138044688Y-78767107D01*
X138112031Y-78767107D01*
X138280390Y-78733436D01*
X138448748Y-78632421D01*
X138718123Y-78363046D01*
X138751794Y-78262031D01*
X138751794Y-78194688D01*
X138718123Y-78093672D01*
X138583435Y-77958985D01*
X138482420Y-77925313D01*
X138415076Y-77925313D01*
X138314061Y-77958985D01*
X138145703Y-78127343D01*
X138112031Y-78228359D01*
X138112030Y-78295703D01*
X138145702Y-78396718D01*
X138280390Y-78531405D01*
X138381405Y-78565077D01*
X138448749Y-78565076D01*
X138549764Y-78531405D01*
%LPC*%
D16*
X116590000Y-62410000D03*
X118490000Y-62410000D03*
D10*
G36*
X112978300Y-59280381D02*
X114180381Y-58078300D01*
X114958198Y-58856117D01*
X113756117Y-60058198D01*
X112978300Y-59280381D01*
X112978300Y-59280381D01*
G37*
G36*
X114321802Y-60623883D02*
X115523883Y-59421802D01*
X116301700Y-60199619D01*
X115099619Y-61401700D01*
X114321802Y-60623883D01*
X114321802Y-60623883D01*
G37*
D16*
X119020000Y-70000000D03*
X120920000Y-70000000D03*
D17*
X121170000Y-64400000D03*
X121170000Y-66300000D03*
D10*
G36*
X113306122Y-45414038D02*
X111833878Y-46264038D01*
X111283878Y-45311410D01*
X112756122Y-44461410D01*
X113306122Y-45414038D01*
X113306122Y-45414038D01*
G37*
G36*
X112356122Y-43768590D02*
X110883878Y-44618590D01*
X110333878Y-43665962D01*
X111806122Y-42815962D01*
X112356122Y-43768590D01*
X112356122Y-43768590D01*
G37*
D17*
X119220000Y-49510000D03*
X119220000Y-47610000D03*
D18*
X100012894Y-61041031D02*
X99104914Y-59259017D01*
X101794907Y-60133050D02*
X100886927Y-58351036D01*
X103576921Y-59225069D02*
X102668941Y-57443055D01*
X105358934Y-58317088D02*
X104450954Y-56535074D01*
X107140947Y-57409107D02*
X106232967Y-55627093D01*
X108922960Y-56501126D02*
X108014980Y-54719112D01*
X110704973Y-55593145D02*
X109796993Y-53811131D01*
X112486986Y-54685164D02*
X111579006Y-52903150D01*
X112453038Y-50213157D02*
X110671024Y-51121137D01*
X111545057Y-48431144D02*
X109763043Y-49339124D01*
X110637076Y-46649131D02*
X108855062Y-47557111D01*
X109729095Y-44867117D02*
X107947081Y-45775097D01*
X108821114Y-43085104D02*
X107039100Y-43993084D01*
X107913133Y-41303091D02*
X106131119Y-42211071D01*
X104315158Y-38647045D02*
X105223138Y-40429059D01*
X102533145Y-39555026D02*
X103441125Y-41337040D01*
X100751132Y-40463007D02*
X101659112Y-42245021D01*
X98969119Y-41370988D02*
X99877099Y-43153002D01*
X97187106Y-42278969D02*
X98095086Y-44060983D01*
X95405093Y-43186950D02*
X96313073Y-44968964D01*
X93623079Y-44094931D02*
X94531059Y-45876945D01*
X91841066Y-45002912D02*
X92749046Y-46784926D01*
D10*
G36*
X175218752Y-49705469D02*
X178000304Y-50829289D01*
X177101248Y-53054531D01*
X174319696Y-51930711D01*
X175218752Y-49705469D01*
X175218752Y-49705469D01*
G37*
D19*
X175486654Y-53847429D02*
X174930344Y-53622665D01*
X174535154Y-56202476D02*
X173978844Y-55977712D01*
X173583653Y-58557523D02*
X173027343Y-58332759D01*
D20*
X115900000Y-79680000D03*
D21*
X115900000Y-77180000D03*
D20*
X114300000Y-80350937D03*
D21*
X117500000Y-76509063D03*
D10*
G36*
X114276122Y-62254038D02*
X112803878Y-63104038D01*
X112253878Y-62151410D01*
X113726122Y-61301410D01*
X114276122Y-62254038D01*
X114276122Y-62254038D01*
G37*
G36*
X113326122Y-60608590D02*
X111853878Y-61458590D01*
X111303878Y-60505962D01*
X112776122Y-59655962D01*
X113326122Y-60608590D01*
X113326122Y-60608590D01*
G37*
G36*
X115507559Y-40949610D02*
X113833386Y-41244812D01*
X113642373Y-40161524D01*
X115316546Y-39866322D01*
X115507559Y-40949610D01*
X115507559Y-40949610D01*
G37*
G36*
X115177627Y-39078476D02*
X113503454Y-39373678D01*
X113312441Y-38290390D01*
X114986614Y-37995188D01*
X115177627Y-39078476D01*
X115177627Y-39078476D01*
G37*
D16*
X136320000Y-82600000D03*
X138220000Y-82600000D03*
D17*
X116960000Y-69840000D03*
X116960000Y-71740000D03*
X128020000Y-77150000D03*
X128020000Y-75250000D03*
D22*
X118720000Y-66320000D03*
X118720000Y-65370000D03*
X118720000Y-64420000D03*
X116020000Y-64420000D03*
X116020000Y-66320000D03*
X120210000Y-54590000D03*
X120210000Y-53640000D03*
X120210000Y-52690000D03*
X117510000Y-52690000D03*
X117510000Y-54590000D03*
D10*
G36*
X98100559Y-34622233D02*
X99090508Y-35612182D01*
X97747005Y-36955685D01*
X96757056Y-35965736D01*
X98100559Y-34622233D01*
X98100559Y-34622233D01*
G37*
G36*
X97004544Y-33526218D02*
X97994493Y-34516167D01*
X96650990Y-35859670D01*
X95661041Y-34869721D01*
X97004544Y-33526218D01*
X97004544Y-33526218D01*
G37*
G36*
X95837818Y-32359492D02*
X96827767Y-33349441D01*
X95484264Y-34692944D01*
X94494315Y-33702995D01*
X95837818Y-32359492D01*
X95837818Y-32359492D01*
G37*
G36*
X92372995Y-35824315D02*
X93362944Y-36814264D01*
X92019441Y-38157767D01*
X91029492Y-37167818D01*
X92372995Y-35824315D01*
X92372995Y-35824315D01*
G37*
G36*
X93504365Y-36955686D02*
X94494314Y-37945635D01*
X93150811Y-39289138D01*
X92160862Y-38299189D01*
X93504365Y-36955686D01*
X93504365Y-36955686D01*
G37*
G36*
X94635736Y-38087056D02*
X95625685Y-39077005D01*
X94282182Y-40420508D01*
X93292233Y-39430559D01*
X94635736Y-38087056D01*
X94635736Y-38087056D01*
G37*
G36*
X111842167Y-35288053D02*
X112037010Y-36674428D01*
X110155501Y-36938857D01*
X109960658Y-35552482D01*
X111842167Y-35288053D01*
X111842167Y-35288053D01*
G37*
G36*
X111626448Y-33753137D02*
X111821291Y-35139512D01*
X109939782Y-35403941D01*
X109744939Y-34017566D01*
X111626448Y-33753137D01*
X111626448Y-33753137D01*
G37*
G36*
X111396813Y-32119195D02*
X111591656Y-33505570D01*
X109710147Y-33769999D01*
X109515304Y-32383624D01*
X111396813Y-32119195D01*
X111396813Y-32119195D01*
G37*
G36*
X106544499Y-32801143D02*
X106739342Y-34187518D01*
X104857833Y-34451947D01*
X104662990Y-33065572D01*
X106544499Y-32801143D01*
X106544499Y-32801143D01*
G37*
G36*
X106767176Y-34385572D02*
X106962019Y-35771947D01*
X105080510Y-36036376D01*
X104885667Y-34650001D01*
X106767176Y-34385572D01*
X106767176Y-34385572D01*
G37*
G36*
X106989853Y-35970001D02*
X107184696Y-37356376D01*
X105303187Y-37620805D01*
X105108344Y-36234430D01*
X106989853Y-35970001D01*
X106989853Y-35970001D01*
G37*
G36*
X123702063Y-37026730D02*
X123458956Y-38405461D01*
X121587821Y-38075530D01*
X121830928Y-36696799D01*
X123702063Y-37026730D01*
X123702063Y-37026730D01*
G37*
G36*
X123971218Y-35500278D02*
X123728111Y-36879009D01*
X121856976Y-36549078D01*
X122100083Y-35170347D01*
X123971218Y-35500278D01*
X123971218Y-35500278D01*
G37*
G36*
X124257737Y-33875346D02*
X124014630Y-35254077D01*
X122143495Y-34924146D01*
X122386602Y-33545415D01*
X124257737Y-33875346D01*
X124257737Y-33875346D01*
G37*
G36*
X119432179Y-33024470D02*
X119189072Y-34403201D01*
X117317937Y-34073270D01*
X117561044Y-32694539D01*
X119432179Y-33024470D01*
X119432179Y-33024470D01*
G37*
G36*
X119154342Y-34600162D02*
X118911235Y-35978893D01*
X117040100Y-35648962D01*
X117283207Y-34270231D01*
X119154342Y-34600162D01*
X119154342Y-34600162D01*
G37*
G36*
X118876505Y-36175854D02*
X118633398Y-37554585D01*
X116762263Y-37224654D01*
X117005370Y-35845923D01*
X118876505Y-36175854D01*
X118876505Y-36175854D01*
G37*
G36*
X133095450Y-36389673D02*
X133241790Y-37782003D01*
X131352198Y-37980607D01*
X131205858Y-36588277D01*
X133095450Y-36389673D01*
X133095450Y-36389673D01*
G37*
G36*
X132933431Y-34848164D02*
X133079771Y-36240494D01*
X131190179Y-36439098D01*
X131043839Y-35046768D01*
X132933431Y-34848164D01*
X132933431Y-34848164D01*
G37*
G36*
X132760959Y-33207203D02*
X132907299Y-34599533D01*
X131017707Y-34798137D01*
X130871367Y-33405807D01*
X132760959Y-33207203D01*
X132760959Y-33207203D01*
G37*
G36*
X127887802Y-33719393D02*
X128034142Y-35111723D01*
X126144550Y-35310327D01*
X125998210Y-33917997D01*
X127887802Y-33719393D01*
X127887802Y-33719393D01*
G37*
G36*
X128055047Y-35310628D02*
X128201387Y-36702958D01*
X126311795Y-36901562D01*
X126165455Y-35509232D01*
X128055047Y-35310628D01*
X128055047Y-35310628D01*
G37*
G36*
X128222293Y-36901863D02*
X128368633Y-38294193D01*
X126479041Y-38492797D01*
X126332701Y-37100467D01*
X128222293Y-36901863D01*
X128222293Y-36901863D01*
G37*
G36*
X143472063Y-38086730D02*
X143228956Y-39465461D01*
X141357821Y-39135530D01*
X141600928Y-37756799D01*
X143472063Y-38086730D01*
X143472063Y-38086730D01*
G37*
G36*
X143741218Y-36560278D02*
X143498111Y-37939009D01*
X141626976Y-37609078D01*
X141870083Y-36230347D01*
X143741218Y-36560278D01*
X143741218Y-36560278D01*
G37*
G36*
X144027737Y-34935346D02*
X143784630Y-36314077D01*
X141913495Y-35984146D01*
X142156602Y-34605415D01*
X144027737Y-34935346D01*
X144027737Y-34935346D01*
G37*
G36*
X139202179Y-34084470D02*
X138959072Y-35463201D01*
X137087937Y-35133270D01*
X137331044Y-33754539D01*
X139202179Y-34084470D01*
X139202179Y-34084470D01*
G37*
G36*
X138924342Y-35660162D02*
X138681235Y-37038893D01*
X136810100Y-36708962D01*
X137053207Y-35330231D01*
X138924342Y-35660162D01*
X138924342Y-35660162D01*
G37*
G36*
X138646505Y-37235854D02*
X138403398Y-38614585D01*
X136532263Y-38284654D01*
X136775370Y-36905923D01*
X138646505Y-37235854D01*
X138646505Y-37235854D01*
G37*
G36*
X154824498Y-37580636D02*
X154922157Y-38977225D01*
X153026786Y-39109762D01*
X152929127Y-37713173D01*
X154824498Y-37580636D01*
X154824498Y-37580636D01*
G37*
G36*
X154716376Y-36034412D02*
X154814035Y-37431001D01*
X152918664Y-37563538D01*
X152821005Y-36166949D01*
X154716376Y-36034412D01*
X154716376Y-36034412D01*
G37*
G36*
X154601278Y-34388431D02*
X154698937Y-35785020D01*
X152803566Y-35917557D01*
X152705907Y-34520968D01*
X154601278Y-34388431D01*
X154601278Y-34388431D01*
G37*
G36*
X149713214Y-34730238D02*
X149810873Y-36126827D01*
X147915502Y-36259364D01*
X147817843Y-34862775D01*
X149713214Y-34730238D01*
X149713214Y-34730238D01*
G37*
G36*
X149824824Y-36326340D02*
X149922483Y-37722929D01*
X148027112Y-37855466D01*
X147929453Y-36458877D01*
X149824824Y-36326340D01*
X149824824Y-36326340D01*
G37*
G36*
X149936434Y-37922443D02*
X150034093Y-39319032D01*
X148138722Y-39451569D01*
X148041063Y-38054980D01*
X149936434Y-37922443D01*
X149936434Y-37922443D01*
G37*
G36*
X164198581Y-38492233D02*
X163907505Y-39861639D01*
X162049025Y-39466607D01*
X162340101Y-38097201D01*
X164198581Y-38492233D01*
X164198581Y-38492233D01*
G37*
G36*
X164520844Y-36976104D02*
X164229768Y-38345510D01*
X162371288Y-37950478D01*
X162662364Y-36581072D01*
X164520844Y-36976104D01*
X164520844Y-36976104D01*
G37*
G36*
X164863898Y-35362160D02*
X164572822Y-36731566D01*
X162714342Y-36336534D01*
X163005418Y-34967128D01*
X164863898Y-35362160D01*
X164863898Y-35362160D01*
G37*
G36*
X160070975Y-34343393D02*
X159779899Y-35712799D01*
X157921419Y-35317767D01*
X158212495Y-33948361D01*
X160070975Y-34343393D01*
X160070975Y-34343393D01*
G37*
G36*
X159738316Y-35908429D02*
X159447240Y-37277835D01*
X157588760Y-36882803D01*
X157879836Y-35513397D01*
X159738316Y-35908429D01*
X159738316Y-35908429D01*
G37*
G36*
X159405658Y-37473466D02*
X159114582Y-38842872D01*
X157256102Y-38447840D01*
X157547178Y-37078434D01*
X159405658Y-37473466D01*
X159405658Y-37473466D01*
G37*
G36*
X167387767Y-51200559D02*
X166397818Y-52190508D01*
X165054315Y-50847005D01*
X166044264Y-49857056D01*
X167387767Y-51200559D01*
X167387767Y-51200559D01*
G37*
G36*
X168483782Y-50104544D02*
X167493833Y-51094493D01*
X166150330Y-49750990D01*
X167140279Y-48761041D01*
X168483782Y-50104544D01*
X168483782Y-50104544D01*
G37*
G36*
X169650508Y-48937818D02*
X168660559Y-49927767D01*
X167317056Y-48584264D01*
X168307005Y-47594315D01*
X169650508Y-48937818D01*
X169650508Y-48937818D01*
G37*
G36*
X166185685Y-45472995D02*
X165195736Y-46462944D01*
X163852233Y-45119441D01*
X164842182Y-44129492D01*
X166185685Y-45472995D01*
X166185685Y-45472995D01*
G37*
G36*
X165054314Y-46604365D02*
X164064365Y-47594314D01*
X162720862Y-46250811D01*
X163710811Y-45260862D01*
X165054314Y-46604365D01*
X165054314Y-46604365D01*
G37*
G36*
X163922944Y-47735736D02*
X162932995Y-48725685D01*
X161589492Y-47382182D01*
X162579441Y-46392233D01*
X163922944Y-47735736D01*
X163922944Y-47735736D01*
G37*
D23*
X102055000Y-86040000D03*
X102055000Y-90040000D03*
X110965000Y-90040000D03*
X110965000Y-86040000D03*
X112275000Y-95930000D03*
X112275000Y-99930000D03*
X121185000Y-99930000D03*
X121185000Y-95930000D03*
X122335000Y-85870000D03*
X122335000Y-89870000D03*
X131245000Y-89870000D03*
X131245000Y-85870000D03*
X142535000Y-85930000D03*
X142535000Y-89930000D03*
X151445000Y-89930000D03*
X151445000Y-85930000D03*
X162955000Y-85860000D03*
X162955000Y-89860000D03*
X171865000Y-89860000D03*
X171865000Y-85860000D03*
X152515000Y-95840000D03*
X152515000Y-99840000D03*
X161425000Y-99840000D03*
X161425000Y-95840000D03*
D24*
X166700000Y-68700000D03*
X160700000Y-68700000D03*
D25*
X169860000Y-79900000D03*
X169860000Y-79250000D03*
X169860000Y-78600000D03*
X169860000Y-77950000D03*
X169860000Y-77300000D03*
D26*
X169740000Y-81020000D03*
X169740000Y-76180000D03*
D27*
X172740000Y-81330000D03*
X172740000Y-75870000D03*
D28*
X172980000Y-79560000D03*
X172980000Y-77640000D03*
D10*
G36*
X150192132Y-81467716D02*
X152737716Y-78922132D01*
X154859036Y-81043452D01*
X152313452Y-83589036D01*
X150192132Y-81467716D01*
X150192132Y-81467716D01*
G37*
G36*
X145100964Y-76376548D02*
X147646548Y-73830964D01*
X149767868Y-75952284D01*
X147222284Y-78497868D01*
X145100964Y-76376548D01*
X145100964Y-76376548D01*
G37*
G36*
X147998300Y-69450381D02*
X149200381Y-68248300D01*
X149978198Y-69026117D01*
X148776117Y-70228198D01*
X147998300Y-69450381D01*
X147998300Y-69450381D01*
G37*
G36*
X149341802Y-70793883D02*
X150543883Y-69591802D01*
X151321700Y-70369619D01*
X150119619Y-71571700D01*
X149341802Y-70793883D01*
X149341802Y-70793883D01*
G37*
D29*
X174680000Y-40850000D03*
D30*
X135128000Y-46228000D03*
D31*
X135128000Y-48768000D03*
X135128000Y-51308000D03*
X135128000Y-53848000D03*
X135128000Y-56388000D03*
D32*
X98920515Y-71820000D03*
X110785064Y-64970000D03*
X111220000Y-70723332D03*
D16*
X107120000Y-82140000D03*
X109020000Y-82140000D03*
X115560000Y-89840000D03*
X117460000Y-89840000D03*
D10*
G36*
X142091700Y-80089619D02*
X140889619Y-81291700D01*
X140111802Y-80513883D01*
X141313883Y-79311802D01*
X142091700Y-80089619D01*
X142091700Y-80089619D01*
G37*
G36*
X140748198Y-78746117D02*
X139546117Y-79948198D01*
X138768300Y-79170381D01*
X139970381Y-77968300D01*
X140748198Y-78746117D01*
X140748198Y-78746117D01*
G37*
M02*
