G04 #@! TF.FileFunction,Copper,L2,Bot,Signal*
%FSLAX46Y46*%
G04 Gerber Fmt 4.6, Leading zero omitted, Abs format (unit mm)*
G04 Created by KiCad (PCBNEW 4.0.7-e2-6376~58~ubuntu16.04.1) date Wed Apr 11 02:03:13 2018*
%MOMM*%
%LPD*%
G01*
G04 APERTURE LIST*
%ADD10C,0.100000*%
%ADD11C,2.000000*%
%ADD12R,1.600000X1.600000*%
%ADD13C,1.600000*%
%ADD14C,4.500000*%
%ADD15O,1.500000X1.200000*%
%ADD16O,1.700000X1.700000*%
%ADD17C,13.000000*%
%ADD18R,2.600000X2.000000*%
%ADD19O,2.600000X2.000000*%
%ADD20C,3.000000*%
%ADD21C,0.600000*%
%ADD22C,0.381000*%
%ADD23C,1.143000*%
G04 APERTURE END LIST*
D10*
G36*
X175329268Y-49965828D02*
X177739946Y-50939805D01*
X176990732Y-52794172D01*
X174580054Y-51820195D01*
X175329268Y-49965828D01*
X175329268Y-49965828D01*
G37*
D11*
X175486654Y-53847429D02*
X174930344Y-53622665D01*
X174535154Y-56202476D02*
X173978844Y-55977712D01*
X173583653Y-58557523D02*
X173027343Y-58332759D01*
D12*
X115900000Y-79680000D03*
D13*
X115900000Y-77180000D03*
D12*
X114300000Y-80350937D03*
D13*
X117500000Y-76509063D03*
D14*
X166700000Y-68700000D03*
X160700000Y-68700000D03*
D15*
X169740000Y-81020000D03*
X169740000Y-76180000D03*
D16*
X172740000Y-81330000D03*
X172740000Y-75870000D03*
D17*
X174680000Y-40850000D03*
D18*
X135128000Y-46228000D03*
D19*
X135128000Y-48768000D03*
X135128000Y-51308000D03*
X135128000Y-53848000D03*
X135128000Y-56388000D03*
D20*
X98920515Y-71820000D03*
X110785064Y-64970000D03*
X111220000Y-70723332D03*
D21*
X112760000Y-40580000D03*
X126340000Y-71970000D03*
X105670000Y-74990000D03*
X145080000Y-60990000D03*
X149620000Y-89170000D03*
X102320000Y-49840000D03*
X117350000Y-65210000D03*
X119080000Y-53785000D03*
X164900000Y-61525000D03*
X163475000Y-44730000D03*
X156060000Y-37570000D03*
X150285000Y-37350000D03*
X139210000Y-37185000D03*
X147220000Y-37675000D03*
X128750000Y-36350000D03*
X119480000Y-35785000D03*
X125365000Y-36460000D03*
X116350000Y-35560000D03*
X109515000Y-39245000D03*
X107690000Y-35800000D03*
X135480000Y-36575000D03*
X121090000Y-58085000D03*
X118530000Y-67140000D03*
X120005000Y-64315000D03*
X122935000Y-53765000D03*
X151770000Y-74825000D03*
X166340000Y-48960000D03*
X162280000Y-37170000D03*
X152400000Y-36580000D03*
X141110000Y-36530000D03*
X130830000Y-35620000D03*
X121550000Y-35620000D03*
X109210000Y-34310000D03*
X102920000Y-34750000D03*
X124250000Y-41800000D03*
X124090000Y-47970000D03*
X119580000Y-87820000D03*
X118190000Y-83260000D03*
X128190000Y-88510000D03*
X130048000Y-61976000D03*
X123430000Y-55320000D03*
X134700000Y-82840000D03*
X138330000Y-76975000D03*
X113445000Y-46005000D03*
X114970000Y-41230000D03*
X106440000Y-58400000D03*
X102570000Y-61500000D03*
X108100000Y-58320000D03*
X100570000Y-62775000D03*
X115030000Y-56390000D03*
X112045000Y-56470000D03*
X140515000Y-83170000D03*
X136370000Y-78840000D03*
X122100000Y-47835000D03*
X124905000Y-50250000D03*
X123495000Y-58225000D03*
X103630000Y-42365000D03*
X127600000Y-46910000D03*
X130480000Y-58395000D03*
X143610000Y-76585000D03*
X160430000Y-86110000D03*
X98005000Y-40050000D03*
X123425000Y-52650000D03*
X107420000Y-37130000D03*
X93840000Y-36050000D03*
X171095000Y-48790000D03*
X168960000Y-46025000D03*
X108800000Y-35410000D03*
X115260000Y-36545000D03*
X121035000Y-37370000D03*
X125425000Y-37780000D03*
X111375000Y-41405000D03*
X91630000Y-43930000D03*
X110905000Y-57160000D03*
X115595000Y-57570000D03*
X120520000Y-49330000D03*
X94975000Y-41960000D03*
X129640000Y-56010000D03*
X127630000Y-53890000D03*
X127000000Y-56896000D03*
X126492000Y-54356000D03*
X96255000Y-41910000D03*
X120585000Y-50370000D03*
D22*
X105664000Y-71120000D02*
X105664000Y-70104000D01*
X105664000Y-70104000D02*
X106172000Y-70612000D01*
X106172000Y-70612000D02*
X105156000Y-70612000D01*
X105156000Y-70612000D02*
X104648000Y-71120000D01*
X104648000Y-71120000D02*
X104648000Y-71628000D01*
X104648000Y-71628000D02*
X105156000Y-71628000D01*
X105156000Y-71628000D02*
X105664000Y-71120000D01*
X166700000Y-68700000D02*
X156380000Y-52450000D01*
X156380000Y-52450000D02*
X140550000Y-41960000D01*
X140550000Y-41960000D02*
X134510000Y-40010000D01*
X134510000Y-40010000D02*
X120640000Y-39060000D01*
X120640000Y-39060000D02*
X112650000Y-40400000D01*
X112650000Y-40400000D02*
X112760000Y-40580000D01*
X172740000Y-75870000D02*
X174230000Y-62470000D01*
X174230000Y-62470000D02*
X175660000Y-59680000D01*
X175660000Y-59680000D02*
X178170000Y-53530000D01*
X178170000Y-53530000D02*
X177810000Y-52360000D01*
X177810000Y-52360000D02*
X176160000Y-51380000D01*
X135128000Y-46228000D02*
X125200000Y-40770000D01*
X125200000Y-40770000D02*
X120890000Y-39890000D01*
X120890000Y-39890000D02*
X113920000Y-39660000D01*
X113920000Y-39660000D02*
X109515000Y-39245000D01*
X166700000Y-68700000D02*
X148020000Y-50140000D01*
X148020000Y-50140000D02*
X135128000Y-41433051D01*
X166700000Y-68700000D02*
X173000000Y-62610000D01*
X173000000Y-62610000D02*
X175740000Y-59010000D01*
X175740000Y-59010000D02*
X177890000Y-53450000D01*
X177890000Y-53450000D02*
X176160000Y-51380000D01*
X169740000Y-76180000D02*
X166700000Y-68700000D01*
X172740000Y-75870000D02*
X166700000Y-68700000D01*
X145080000Y-60990000D02*
X142230000Y-76390000D01*
X142230000Y-76390000D02*
X143520000Y-78600000D01*
X143520000Y-78600000D02*
X160660000Y-88070000D01*
X160660000Y-88070000D02*
X166690000Y-85050000D01*
X166690000Y-85050000D02*
X169740000Y-81020000D01*
X126340000Y-71970000D02*
X134280000Y-67670000D01*
X134280000Y-67670000D02*
X133940000Y-68120000D01*
X133940000Y-68120000D02*
X134124212Y-67782278D01*
X134124212Y-67782278D02*
X134124212Y-67782277D01*
X105670000Y-74990000D02*
X98920515Y-71820000D01*
X117350000Y-65210000D02*
X112130000Y-67090000D01*
X112130000Y-67090000D02*
X104240000Y-68470000D01*
X104240000Y-68470000D02*
X98920515Y-71820000D01*
X145080000Y-60990000D02*
X131052312Y-63704817D01*
X116036773Y-53068680D02*
X118460728Y-56979306D01*
X118460728Y-56979306D02*
X120980000Y-60180000D01*
X120980000Y-60180000D02*
X131052312Y-63704817D01*
X131052312Y-63704817D02*
X131210000Y-63760000D01*
X131210000Y-63760000D02*
X134124212Y-67782277D01*
X134124212Y-67782277D02*
X149620000Y-89170000D01*
X102320000Y-49840000D02*
X116036773Y-53068680D01*
X116036773Y-53068680D02*
X119080000Y-53785000D01*
X135128000Y-46228000D02*
X135128000Y-41433051D01*
X135128000Y-41433051D02*
X135128000Y-41267000D01*
X135128000Y-41267000D02*
X139210000Y-37185000D01*
X117350000Y-65210000D02*
X118100000Y-58840000D01*
X118100000Y-58840000D02*
X119080000Y-53785000D01*
X164900000Y-61525000D02*
X166700000Y-68700000D01*
X156060000Y-37570000D02*
X161435000Y-37970000D01*
X161435000Y-37970000D02*
X163475000Y-44730000D01*
X156060000Y-37570000D02*
X151935000Y-37655000D01*
X151935000Y-37655000D02*
X151955000Y-37655000D01*
X151955000Y-37655000D02*
X150285000Y-37350000D01*
X139210000Y-37185000D02*
X142140000Y-37675000D01*
X142140000Y-37675000D02*
X147220000Y-37675000D01*
X128750000Y-36350000D02*
X131695000Y-36760000D01*
X119480000Y-35785000D02*
X121925000Y-36735000D01*
X121925000Y-36735000D02*
X125365000Y-36460000D01*
X116350000Y-35560000D02*
X116435000Y-37430000D01*
X116435000Y-37430000D02*
X109515000Y-39245000D01*
X107690000Y-35800000D02*
X109515000Y-39245000D01*
X131695000Y-36760000D02*
X135480000Y-36575000D01*
X144905000Y-57605000D02*
X160700000Y-68700000D01*
X121090000Y-58085000D02*
X122935000Y-53765000D01*
X118530000Y-67140000D02*
X120005000Y-64315000D01*
X122935000Y-53765000D02*
X124135000Y-53400000D01*
X124135000Y-53400000D02*
X124440000Y-52200000D01*
D23*
X151770000Y-74825000D02*
X160700000Y-68700000D01*
D22*
X166340000Y-48960000D02*
X173305498Y-58445141D01*
X162280000Y-37170000D02*
X166340000Y-48960000D01*
X152400000Y-36580000D02*
X162280000Y-37170000D01*
X141110000Y-36530000D02*
X152400000Y-36580000D01*
X130830000Y-35620000D02*
X135030000Y-35540000D01*
X135030000Y-35540000D02*
X141110000Y-36530000D01*
X121550000Y-35620000D02*
X129000000Y-35460000D01*
X129000000Y-35460000D02*
X130830000Y-35620000D01*
X109210000Y-34310000D02*
X115860000Y-33930000D01*
X120230000Y-34970000D02*
X121550000Y-35620000D01*
X115860000Y-33930000D02*
X120230000Y-34970000D01*
X102920000Y-34750000D02*
X109210000Y-34310000D01*
X124440000Y-52200000D02*
X123119007Y-47734379D01*
X124090000Y-47970000D02*
X123119007Y-47734378D01*
X123119007Y-47734378D02*
X123119007Y-47734379D01*
X123119007Y-47734379D02*
X122850000Y-46825000D01*
X122850000Y-46825000D02*
X124250000Y-41800000D01*
X134615000Y-53890000D02*
X144905000Y-57605000D01*
X119580000Y-87820000D02*
X120926894Y-84696869D01*
X118190000Y-83260000D02*
X120926894Y-84696869D01*
X120926894Y-84696869D02*
X128190000Y-88510000D01*
X122826145Y-58979005D02*
X130048000Y-61976000D01*
X123430000Y-55320000D02*
X122360000Y-57975000D01*
X122360000Y-57975000D02*
X122826145Y-58979005D01*
X122826145Y-58979005D02*
X122880000Y-59095000D01*
X134700000Y-82840000D02*
X135340000Y-78430000D01*
X135340000Y-78430000D02*
X138330000Y-76975000D01*
X113445000Y-46005000D02*
X114970000Y-41230000D01*
X102570000Y-61500000D02*
X106440000Y-58400000D01*
X103009851Y-57367493D02*
X106315000Y-56835000D01*
X106315000Y-56835000D02*
X108100000Y-58320000D01*
X100570000Y-62775000D02*
X103009851Y-57367493D01*
X103009851Y-57367493D02*
X103020000Y-57345000D01*
X103020000Y-57345000D02*
X103020000Y-57365000D01*
X115030000Y-56390000D02*
X112045000Y-56470000D01*
X140515000Y-83170000D02*
X136370000Y-78840000D01*
X120813602Y-47172178D02*
X122100000Y-47835000D01*
X124905000Y-50250000D02*
X125620000Y-53035000D01*
X125620000Y-53035000D02*
X123495000Y-58225000D01*
X103630000Y-42365000D02*
X110985000Y-45455000D01*
X110985000Y-45455000D02*
X113310000Y-46975000D01*
X113310000Y-46975000D02*
X114415000Y-47245000D01*
X114415000Y-47245000D02*
X120813602Y-47172178D01*
X120813602Y-47172178D02*
X121005000Y-47170000D01*
X127600000Y-46910000D02*
X130370000Y-55375000D01*
X130370000Y-55375000D02*
X130480000Y-58395000D01*
X143610000Y-76585000D02*
X160430000Y-86110000D01*
X98005000Y-40050000D02*
X99915000Y-41630000D01*
X99915000Y-41630000D02*
X113965000Y-48000000D01*
X113965000Y-48000000D02*
X120925000Y-48445000D01*
X120925000Y-48445000D02*
X122245000Y-48910000D01*
X122245000Y-48910000D02*
X123425000Y-52650000D01*
X106650000Y-37035000D02*
X107420000Y-37130000D01*
X93840000Y-36050000D02*
X106650000Y-37035000D01*
X171095000Y-48790000D02*
X168960000Y-46025000D01*
X108800000Y-35410000D02*
X115260000Y-36545000D01*
X121035000Y-37370000D02*
X125425000Y-37780000D01*
X100305000Y-40095000D02*
X96140000Y-38530000D01*
X100305000Y-40095000D02*
X111375000Y-41405000D01*
X96140000Y-38530000D02*
X92035000Y-40455000D01*
X92035000Y-40455000D02*
X91645000Y-41920000D01*
X91630000Y-43930000D02*
X91645000Y-41920000D01*
X110905000Y-57160000D02*
X114080000Y-57810000D01*
X114080000Y-57810000D02*
X115595000Y-57570000D01*
X120520000Y-49330000D02*
X114830000Y-49115000D01*
X114830000Y-49115000D02*
X97270000Y-41370000D01*
X97270000Y-41370000D02*
X95950000Y-40845000D01*
X95950000Y-40845000D02*
X95100000Y-41455000D01*
X95100000Y-41455000D02*
X94975000Y-41960000D01*
X129640000Y-56010000D02*
X127630000Y-53890000D01*
X127000000Y-56896000D02*
X126492000Y-54356000D01*
X96255000Y-41910000D02*
X114605000Y-50025000D01*
X114605000Y-50025000D02*
X120585000Y-50370000D01*
M02*
