G04 #@! TF.FileFunction,Legend,Bot*
%FSLAX46Y46*%
G04 Gerber Fmt 4.6, Leading zero omitted, Abs format (unit mm)*
G04 Created by KiCad (PCBNEW 4.0.7-e2-6376~58~ubuntu16.04.1) date Wed Apr 11 02:03:13 2018*
%MOMM*%
%LPD*%
G01*
G04 APERTURE LIST*
%ADD10C,0.100000*%
%ADD11C,0.300000*%
%ADD12C,0.200000*%
%ADD13C,0.010000*%
%ADD14C,2.400000*%
%ADD15R,2.000000X2.000000*%
%ADD16C,2.000000*%
%ADD17C,4.900000*%
%ADD18O,1.900000X1.600000*%
%ADD19O,2.100000X2.100000*%
%ADD20C,13.400000*%
%ADD21R,3.000000X2.400000*%
%ADD22O,3.000000X2.400000*%
%ADD23C,3.400000*%
G04 APERTURE END LIST*
D10*
D11*
X139611428Y-71668571D02*
X140111428Y-70954286D01*
X140468571Y-71668571D02*
X140468571Y-70168571D01*
X139897143Y-70168571D01*
X139754285Y-70240000D01*
X139682857Y-70311429D01*
X139611428Y-70454286D01*
X139611428Y-70668571D01*
X139682857Y-70811429D01*
X139754285Y-70882857D01*
X139897143Y-70954286D01*
X140468571Y-70954286D01*
X138397143Y-71597143D02*
X138540000Y-71668571D01*
X138825714Y-71668571D01*
X138968571Y-71597143D01*
X139040000Y-71454286D01*
X139040000Y-70882857D01*
X138968571Y-70740000D01*
X138825714Y-70668571D01*
X138540000Y-70668571D01*
X138397143Y-70740000D01*
X138325714Y-70882857D01*
X138325714Y-71025714D01*
X139040000Y-71168571D01*
X137825714Y-70668571D02*
X137468571Y-71668571D01*
X137111429Y-70668571D01*
X134897143Y-70882857D02*
X134682857Y-70954286D01*
X134611429Y-71025714D01*
X134540000Y-71168571D01*
X134540000Y-71382857D01*
X134611429Y-71525714D01*
X134682857Y-71597143D01*
X134825715Y-71668571D01*
X135397143Y-71668571D01*
X135397143Y-70168571D01*
X134897143Y-70168571D01*
X134754286Y-70240000D01*
X134682857Y-70311429D01*
X134611429Y-70454286D01*
X134611429Y-70597143D01*
X134682857Y-70740000D01*
X134754286Y-70811429D01*
X134897143Y-70882857D01*
X135397143Y-70882857D01*
X118291429Y-78193571D02*
X118291429Y-76693571D01*
X118791429Y-77765000D01*
X119291429Y-76693571D01*
X119291429Y-78193571D01*
X120005715Y-77622143D02*
X121148572Y-77622143D01*
X120577143Y-78193571D02*
X120577143Y-77050714D01*
X118291429Y-80743571D02*
X118291429Y-79243571D01*
X118791429Y-80315000D01*
X119291429Y-79243571D01*
X119291429Y-80743571D01*
X120005715Y-80172143D02*
X121148572Y-80172143D01*
X168105715Y-71268571D02*
X168248572Y-71268571D01*
X168391429Y-71340000D01*
X168462858Y-71411429D01*
X168534287Y-71554286D01*
X168605715Y-71840000D01*
X168605715Y-72197143D01*
X168534287Y-72482857D01*
X168462858Y-72625714D01*
X168391429Y-72697143D01*
X168248572Y-72768571D01*
X168105715Y-72768571D01*
X167962858Y-72697143D01*
X167891429Y-72625714D01*
X167820001Y-72482857D01*
X167748572Y-72197143D01*
X167748572Y-71840000D01*
X167820001Y-71554286D01*
X167891429Y-71411429D01*
X167962858Y-71340000D01*
X168105715Y-71268571D01*
X169034286Y-71268571D02*
X169534286Y-72768571D01*
X170034286Y-71268571D01*
X156574287Y-66348571D02*
X155860001Y-66348571D01*
X155788572Y-67062857D01*
X155860001Y-66991429D01*
X156002858Y-66920000D01*
X156360001Y-66920000D01*
X156502858Y-66991429D01*
X156574287Y-67062857D01*
X156645715Y-67205714D01*
X156645715Y-67562857D01*
X156574287Y-67705714D01*
X156502858Y-67777143D01*
X156360001Y-67848571D01*
X156002858Y-67848571D01*
X155860001Y-67777143D01*
X155788572Y-67705714D01*
X157074286Y-66348571D02*
X157574286Y-67848571D01*
X158074286Y-66348571D01*
X173004285Y-61223571D02*
X172861428Y-61223571D01*
X172718571Y-61295000D01*
X172647142Y-61366429D01*
X172575713Y-61509286D01*
X172504285Y-61795000D01*
X172504285Y-62152143D01*
X172575713Y-62437857D01*
X172647142Y-62580714D01*
X172718571Y-62652143D01*
X172861428Y-62723571D01*
X173004285Y-62723571D01*
X173147142Y-62652143D01*
X173218571Y-62580714D01*
X173289999Y-62437857D01*
X173361428Y-62152143D01*
X173361428Y-61795000D01*
X173289999Y-61509286D01*
X173218571Y-61366429D01*
X173147142Y-61295000D01*
X173004285Y-61223571D01*
X172075714Y-61223571D02*
X171575714Y-62723571D01*
X171075714Y-61223571D01*
X172540000Y-64487857D02*
X172325714Y-64559286D01*
X172254286Y-64630714D01*
X172182857Y-64773571D01*
X172182857Y-64987857D01*
X172254286Y-65130714D01*
X172325714Y-65202143D01*
X172468572Y-65273571D01*
X173040000Y-65273571D01*
X173040000Y-63773571D01*
X172540000Y-63773571D01*
X172397143Y-63845000D01*
X172325714Y-63916429D01*
X172254286Y-64059286D01*
X172254286Y-64202143D01*
X172325714Y-64345000D01*
X172397143Y-64416429D01*
X172540000Y-64487857D01*
X173040000Y-64487857D01*
X171540000Y-65273571D02*
X171540000Y-63773571D01*
X173040000Y-67823571D02*
X173040000Y-66323571D01*
X172682857Y-66323571D01*
X172468572Y-66395000D01*
X172325714Y-66537857D01*
X172254286Y-66680714D01*
X172182857Y-66966429D01*
X172182857Y-67180714D01*
X172254286Y-67466429D01*
X172325714Y-67609286D01*
X172468572Y-67752143D01*
X172682857Y-67823571D01*
X173040000Y-67823571D01*
X171540000Y-67823571D02*
X171540000Y-66323571D01*
X172575713Y-68873571D02*
X173289999Y-68873571D01*
X173361428Y-69587857D01*
X173289999Y-69516429D01*
X173147142Y-69445000D01*
X172789999Y-69445000D01*
X172647142Y-69516429D01*
X172575713Y-69587857D01*
X172504285Y-69730714D01*
X172504285Y-70087857D01*
X172575713Y-70230714D01*
X172647142Y-70302143D01*
X172789999Y-70373571D01*
X173147142Y-70373571D01*
X173289999Y-70302143D01*
X173361428Y-70230714D01*
X172075714Y-68873571D02*
X171575714Y-70373571D01*
X171075714Y-68873571D01*
X135444285Y-32528571D02*
X135301428Y-32528571D01*
X135158571Y-32600000D01*
X135087142Y-32671429D01*
X135015713Y-32814286D01*
X134944285Y-33100000D01*
X134944285Y-33457143D01*
X135015713Y-33742857D01*
X135087142Y-33885714D01*
X135158571Y-33957143D01*
X135301428Y-34028571D01*
X135444285Y-34028571D01*
X135587142Y-33957143D01*
X135658571Y-33885714D01*
X135729999Y-33742857D01*
X135801428Y-33457143D01*
X135801428Y-33100000D01*
X135729999Y-32814286D01*
X135658571Y-32671429D01*
X135587142Y-32600000D01*
X135444285Y-32528571D01*
X134515714Y-32528571D02*
X134015714Y-34028571D01*
X133515714Y-32528571D01*
X134979999Y-36578571D02*
X135479999Y-35864286D01*
X135837142Y-36578571D02*
X135837142Y-35078571D01*
X135265714Y-35078571D01*
X135122856Y-35150000D01*
X135051428Y-35221429D01*
X134979999Y-35364286D01*
X134979999Y-35578571D01*
X135051428Y-35721429D01*
X135122856Y-35792857D01*
X135265714Y-35864286D01*
X135837142Y-35864286D01*
X134479999Y-35078571D02*
X133479999Y-36578571D01*
X133479999Y-35078571D02*
X134479999Y-36578571D01*
X135872857Y-37628571D02*
X135015714Y-37628571D01*
X135444285Y-39128571D02*
X135444285Y-37628571D01*
X134658571Y-37628571D02*
X133658571Y-39128571D01*
X133658571Y-37628571D02*
X134658571Y-39128571D01*
X135015713Y-40178571D02*
X135729999Y-40178571D01*
X135801428Y-40892857D01*
X135729999Y-40821429D01*
X135587142Y-40750000D01*
X135229999Y-40750000D01*
X135087142Y-40821429D01*
X135015713Y-40892857D01*
X134944285Y-41035714D01*
X134944285Y-41392857D01*
X135015713Y-41535714D01*
X135087142Y-41607143D01*
X135229999Y-41678571D01*
X135587142Y-41678571D01*
X135729999Y-41607143D01*
X135801428Y-41535714D01*
X134515714Y-40178571D02*
X134015714Y-41678571D01*
X133515714Y-40178571D01*
X135051428Y-42800000D02*
X135194285Y-42728571D01*
X135408571Y-42728571D01*
X135622856Y-42800000D01*
X135765714Y-42942857D01*
X135837142Y-43085714D01*
X135908571Y-43371429D01*
X135908571Y-43585714D01*
X135837142Y-43871429D01*
X135765714Y-44014286D01*
X135622856Y-44157143D01*
X135408571Y-44228571D01*
X135265714Y-44228571D01*
X135051428Y-44157143D01*
X134979999Y-44085714D01*
X134979999Y-43585714D01*
X135265714Y-43585714D01*
X134051428Y-42728571D02*
X133908571Y-42728571D01*
X133765714Y-42800000D01*
X133694285Y-42871429D01*
X133622856Y-43014286D01*
X133551428Y-43300000D01*
X133551428Y-43657143D01*
X133622856Y-43942857D01*
X133694285Y-44085714D01*
X133765714Y-44157143D01*
X133908571Y-44228571D01*
X134051428Y-44228571D01*
X134194285Y-44157143D01*
X134265714Y-44085714D01*
X134337142Y-43942857D01*
X134408571Y-43657143D01*
X134408571Y-43300000D01*
X134337142Y-43014286D01*
X134265714Y-42871429D01*
X134194285Y-42800000D01*
X134051428Y-42728571D01*
D12*
X105156000Y-70612000D02*
X106172000Y-70612000D01*
X104648000Y-71120000D02*
X105156000Y-70612000D01*
X104648000Y-71628000D02*
X104648000Y-71120000D01*
X105156000Y-71628000D02*
X104648000Y-71628000D01*
X105664000Y-71120000D02*
X105156000Y-71628000D01*
X105664000Y-70104000D02*
X105664000Y-71120000D01*
X106172000Y-70612000D02*
X105664000Y-70104000D01*
D11*
X148646428Y-69188571D02*
X148646428Y-67688571D01*
X148289285Y-67688571D01*
X148075000Y-67760000D01*
X147932142Y-67902857D01*
X147860714Y-68045714D01*
X147789285Y-68331429D01*
X147789285Y-68545714D01*
X147860714Y-68831429D01*
X147932142Y-68974286D01*
X148075000Y-69117143D01*
X148289285Y-69188571D01*
X148646428Y-69188571D01*
X146932142Y-69188571D02*
X147075000Y-69117143D01*
X147146428Y-69045714D01*
X147217857Y-68902857D01*
X147217857Y-68474286D01*
X147146428Y-68331429D01*
X147075000Y-68260000D01*
X146932142Y-68188571D01*
X146717857Y-68188571D01*
X146575000Y-68260000D01*
X146503571Y-68331429D01*
X146432142Y-68474286D01*
X146432142Y-68902857D01*
X146503571Y-69045714D01*
X146575000Y-69117143D01*
X146717857Y-69188571D01*
X146932142Y-69188571D01*
X145789285Y-68188571D02*
X145789285Y-69188571D01*
X145789285Y-68331429D02*
X145717857Y-68260000D01*
X145574999Y-68188571D01*
X145360714Y-68188571D01*
X145217857Y-68260000D01*
X145146428Y-68402857D01*
X145146428Y-69188571D01*
X144360714Y-67688571D02*
X144503571Y-67974286D01*
X143932142Y-68188571D02*
X143360713Y-68188571D01*
X143717856Y-67688571D02*
X143717856Y-68974286D01*
X143646428Y-69117143D01*
X143503570Y-69188571D01*
X143360713Y-69188571D01*
X141074999Y-68188571D02*
X141074999Y-69402857D01*
X141146428Y-69545714D01*
X141217856Y-69617143D01*
X141360713Y-69688571D01*
X141574999Y-69688571D01*
X141717856Y-69617143D01*
X141074999Y-69117143D02*
X141217856Y-69188571D01*
X141503570Y-69188571D01*
X141646428Y-69117143D01*
X141717856Y-69045714D01*
X141789285Y-68902857D01*
X141789285Y-68474286D01*
X141717856Y-68331429D01*
X141646428Y-68260000D01*
X141503570Y-68188571D01*
X141217856Y-68188571D01*
X141074999Y-68260000D01*
X139789285Y-69117143D02*
X139932142Y-69188571D01*
X140217856Y-69188571D01*
X140360713Y-69117143D01*
X140432142Y-68974286D01*
X140432142Y-68402857D01*
X140360713Y-68260000D01*
X140217856Y-68188571D01*
X139932142Y-68188571D01*
X139789285Y-68260000D01*
X139717856Y-68402857D01*
X139717856Y-68545714D01*
X140432142Y-68688571D01*
X139289285Y-68188571D02*
X138717856Y-68188571D01*
X139074999Y-67688571D02*
X139074999Y-68974286D01*
X139003571Y-69117143D01*
X138860713Y-69188571D01*
X138717856Y-69188571D01*
X136432142Y-69188571D02*
X136432142Y-67688571D01*
X136432142Y-69117143D02*
X136574999Y-69188571D01*
X136860713Y-69188571D01*
X137003571Y-69117143D01*
X137074999Y-69045714D01*
X137146428Y-68902857D01*
X137146428Y-68474286D01*
X137074999Y-68331429D01*
X137003571Y-68260000D01*
X136860713Y-68188571D01*
X136574999Y-68188571D01*
X136432142Y-68260000D01*
X135860713Y-68188571D02*
X135503570Y-69188571D01*
X135146428Y-68188571D02*
X135503570Y-69188571D01*
X135646428Y-69545714D01*
X135717856Y-69617143D01*
X135860713Y-69688571D01*
X134646428Y-69117143D02*
X134503571Y-69188571D01*
X134217856Y-69188571D01*
X134074999Y-69117143D01*
X134003571Y-68974286D01*
X134003571Y-68902857D01*
X134074999Y-68760000D01*
X134217856Y-68688571D01*
X134432142Y-68688571D01*
X134574999Y-68617143D01*
X134646428Y-68474286D01*
X134646428Y-68402857D01*
X134574999Y-68260000D01*
X134432142Y-68188571D01*
X134217856Y-68188571D01*
X134074999Y-68260000D01*
X132789285Y-69117143D02*
X132932142Y-69188571D01*
X133217856Y-69188571D01*
X133360713Y-69117143D01*
X133432142Y-68974286D01*
X133432142Y-68402857D01*
X133360713Y-68260000D01*
X133217856Y-68188571D01*
X132932142Y-68188571D01*
X132789285Y-68260000D01*
X132717856Y-68402857D01*
X132717856Y-68545714D01*
X133432142Y-68688571D01*
X132074999Y-68188571D02*
X132074999Y-69188571D01*
X132074999Y-68331429D02*
X132003571Y-68260000D01*
X131860713Y-68188571D01*
X131646428Y-68188571D01*
X131503571Y-68260000D01*
X131432142Y-68402857D01*
X131432142Y-69188571D01*
X130932142Y-68188571D02*
X130360713Y-68188571D01*
X130717856Y-67688571D02*
X130717856Y-68974286D01*
X130646428Y-69117143D01*
X130503570Y-69188571D01*
X130360713Y-69188571D01*
X129289285Y-69117143D02*
X129432142Y-69188571D01*
X129717856Y-69188571D01*
X129860713Y-69117143D01*
X129932142Y-68974286D01*
X129932142Y-68402857D01*
X129860713Y-68260000D01*
X129717856Y-68188571D01*
X129432142Y-68188571D01*
X129289285Y-68260000D01*
X129217856Y-68402857D01*
X129217856Y-68545714D01*
X129932142Y-68688571D01*
X128574999Y-69188571D02*
X128574999Y-68188571D01*
X128574999Y-68474286D02*
X128503571Y-68331429D01*
X128432142Y-68260000D01*
X128289285Y-68188571D01*
X128146428Y-68188571D01*
X127789285Y-68188571D02*
X127432142Y-69188571D01*
X127075000Y-68188571D02*
X127432142Y-69188571D01*
X127575000Y-69545714D01*
X127646428Y-69617143D01*
X127789285Y-69688571D01*
X126503571Y-69045714D02*
X126432143Y-69117143D01*
X126503571Y-69188571D01*
X126575000Y-69117143D01*
X126503571Y-69045714D01*
X126503571Y-69188571D01*
D13*
G36*
X118005156Y-70658163D02*
X118980238Y-70716108D01*
X119794348Y-70830896D01*
X120578252Y-71017736D01*
X120971667Y-71134216D01*
X123445093Y-72103498D01*
X125643659Y-73394667D01*
X127565913Y-75006481D01*
X129210404Y-76937696D01*
X130575682Y-79187070D01*
X130727937Y-79493224D01*
X131435278Y-81157086D01*
X131890702Y-82774641D01*
X132120676Y-84482845D01*
X132151669Y-86418658D01*
X132138546Y-86792506D01*
X131916450Y-89082060D01*
X131431942Y-91130844D01*
X130653336Y-93053017D01*
X130131666Y-94023300D01*
X129440163Y-95032751D01*
X128500022Y-96157241D01*
X127414753Y-97292067D01*
X126287869Y-98332528D01*
X125222882Y-99173919D01*
X124706926Y-99510429D01*
X122447214Y-100598286D01*
X120016317Y-101315669D01*
X117467589Y-101650981D01*
X115045000Y-101610356D01*
X112623274Y-101195948D01*
X110353462Y-100410640D01*
X108264666Y-99288662D01*
X106385990Y-97864241D01*
X104746537Y-96171608D01*
X103375411Y-94244989D01*
X102301715Y-92118616D01*
X101554553Y-89826715D01*
X101163027Y-87403515D01*
X101132559Y-85247822D01*
X101197362Y-84710000D01*
X104626220Y-84710000D01*
X111772298Y-84710000D01*
X111768232Y-86085571D01*
X111764167Y-87461141D01*
X108218750Y-87461404D01*
X106856098Y-87468695D01*
X105868732Y-87492796D01*
X105208810Y-87537393D01*
X104828487Y-87606176D01*
X104679920Y-87702831D01*
X104673334Y-87734696D01*
X104757311Y-88336218D01*
X104979146Y-89180952D01*
X105293694Y-90130377D01*
X105655809Y-91045970D01*
X105958409Y-91677759D01*
X106370793Y-92453795D01*
X106688747Y-92997252D01*
X106972396Y-93300383D01*
X107281866Y-93355443D01*
X107677285Y-93154685D01*
X108218779Y-92690363D01*
X108966472Y-91954732D01*
X109726819Y-91192279D01*
X112232564Y-88693062D01*
X114165254Y-90530834D01*
X111622195Y-93093536D01*
X109079137Y-95656238D01*
X110209985Y-96356651D01*
X111110434Y-96849597D01*
X112137624Y-97311813D01*
X113165842Y-97695884D01*
X114069374Y-97954395D01*
X114674584Y-98040536D01*
X115256667Y-98045000D01*
X115256667Y-91096122D01*
X116632944Y-91025144D01*
X118009222Y-90954167D01*
X118008778Y-94499584D01*
X118008334Y-98045000D01*
X118590417Y-98040536D01*
X119267346Y-97938183D01*
X120181543Y-97671338D01*
X121204401Y-97288458D01*
X122207316Y-96838002D01*
X123061681Y-96368428D01*
X123110773Y-96337268D01*
X124180478Y-95650839D01*
X121649868Y-93090836D01*
X119119258Y-90530834D01*
X120089608Y-89625673D01*
X121059959Y-88720513D01*
X123564053Y-91213173D01*
X126068146Y-93705834D01*
X126483670Y-93176667D01*
X127026079Y-92342872D01*
X127571740Y-91264636D01*
X128040607Y-90112577D01*
X128284166Y-89338946D01*
X128468664Y-88662270D01*
X128573709Y-88170627D01*
X128548632Y-87834640D01*
X128342762Y-87624935D01*
X127905429Y-87512136D01*
X127185963Y-87466867D01*
X126133694Y-87459754D01*
X125046250Y-87461796D01*
X121500834Y-87461925D01*
X121530802Y-86138879D01*
X121560770Y-84815834D01*
X125076218Y-84757799D01*
X126423531Y-84737181D01*
X127397664Y-84705995D01*
X128048285Y-84633459D01*
X128425065Y-84488791D01*
X128577674Y-84241207D01*
X128555780Y-83859925D01*
X128409054Y-83314161D01*
X128250561Y-82790501D01*
X127806535Y-81544707D01*
X127252892Y-80365066D01*
X126665016Y-79406789D01*
X126508970Y-79204647D01*
X126075154Y-78677500D01*
X121077500Y-83634014D01*
X119129738Y-81782976D01*
X121629857Y-79289370D01*
X122579524Y-78329758D01*
X123251052Y-77617664D01*
X123676978Y-77113047D01*
X123889841Y-76775866D01*
X123922181Y-76566080D01*
X123890613Y-76507350D01*
X123357280Y-76057572D01*
X122516739Y-75568851D01*
X121476201Y-75088651D01*
X120342878Y-74664439D01*
X119223983Y-74343678D01*
X118802084Y-74254529D01*
X118008334Y-74107484D01*
X118008308Y-77662492D01*
X118008283Y-81217500D01*
X116632475Y-81232903D01*
X115256667Y-81248305D01*
X115256667Y-74107484D01*
X114462917Y-74250806D01*
X113326195Y-74544392D01*
X112062750Y-75008509D01*
X110864682Y-75564934D01*
X110043957Y-76050158D01*
X109068964Y-76720971D01*
X114118646Y-81770653D01*
X112215774Y-83673525D01*
X109737530Y-81201737D01*
X108899461Y-80386392D01*
X108155391Y-79701101D01*
X107559370Y-79192605D01*
X107165452Y-78907648D01*
X107037618Y-78866948D01*
X106682711Y-79244722D01*
X106261470Y-79932998D01*
X105817868Y-80833569D01*
X105395877Y-81848228D01*
X105039470Y-82878767D01*
X104792620Y-83826979D01*
X104773945Y-83922560D01*
X104626220Y-84710000D01*
X101197362Y-84710000D01*
X101422082Y-82844978D01*
X102036840Y-80654645D01*
X103002255Y-78621581D01*
X104343745Y-76690548D01*
X105815683Y-75071243D01*
X106791211Y-74136886D01*
X107615808Y-73439783D01*
X108408155Y-72890818D01*
X109286934Y-72400871D01*
X109541667Y-72273410D01*
X111029136Y-71594189D01*
X112355997Y-71124523D01*
X113668189Y-70831324D01*
X115111654Y-70681506D01*
X116738334Y-70641852D01*
X118005156Y-70658163D01*
X118005156Y-70658163D01*
G37*
X118005156Y-70658163D02*
X118980238Y-70716108D01*
X119794348Y-70830896D01*
X120578252Y-71017736D01*
X120971667Y-71134216D01*
X123445093Y-72103498D01*
X125643659Y-73394667D01*
X127565913Y-75006481D01*
X129210404Y-76937696D01*
X130575682Y-79187070D01*
X130727937Y-79493224D01*
X131435278Y-81157086D01*
X131890702Y-82774641D01*
X132120676Y-84482845D01*
X132151669Y-86418658D01*
X132138546Y-86792506D01*
X131916450Y-89082060D01*
X131431942Y-91130844D01*
X130653336Y-93053017D01*
X130131666Y-94023300D01*
X129440163Y-95032751D01*
X128500022Y-96157241D01*
X127414753Y-97292067D01*
X126287869Y-98332528D01*
X125222882Y-99173919D01*
X124706926Y-99510429D01*
X122447214Y-100598286D01*
X120016317Y-101315669D01*
X117467589Y-101650981D01*
X115045000Y-101610356D01*
X112623274Y-101195948D01*
X110353462Y-100410640D01*
X108264666Y-99288662D01*
X106385990Y-97864241D01*
X104746537Y-96171608D01*
X103375411Y-94244989D01*
X102301715Y-92118616D01*
X101554553Y-89826715D01*
X101163027Y-87403515D01*
X101132559Y-85247822D01*
X101197362Y-84710000D01*
X104626220Y-84710000D01*
X111772298Y-84710000D01*
X111768232Y-86085571D01*
X111764167Y-87461141D01*
X108218750Y-87461404D01*
X106856098Y-87468695D01*
X105868732Y-87492796D01*
X105208810Y-87537393D01*
X104828487Y-87606176D01*
X104679920Y-87702831D01*
X104673334Y-87734696D01*
X104757311Y-88336218D01*
X104979146Y-89180952D01*
X105293694Y-90130377D01*
X105655809Y-91045970D01*
X105958409Y-91677759D01*
X106370793Y-92453795D01*
X106688747Y-92997252D01*
X106972396Y-93300383D01*
X107281866Y-93355443D01*
X107677285Y-93154685D01*
X108218779Y-92690363D01*
X108966472Y-91954732D01*
X109726819Y-91192279D01*
X112232564Y-88693062D01*
X114165254Y-90530834D01*
X111622195Y-93093536D01*
X109079137Y-95656238D01*
X110209985Y-96356651D01*
X111110434Y-96849597D01*
X112137624Y-97311813D01*
X113165842Y-97695884D01*
X114069374Y-97954395D01*
X114674584Y-98040536D01*
X115256667Y-98045000D01*
X115256667Y-91096122D01*
X116632944Y-91025144D01*
X118009222Y-90954167D01*
X118008778Y-94499584D01*
X118008334Y-98045000D01*
X118590417Y-98040536D01*
X119267346Y-97938183D01*
X120181543Y-97671338D01*
X121204401Y-97288458D01*
X122207316Y-96838002D01*
X123061681Y-96368428D01*
X123110773Y-96337268D01*
X124180478Y-95650839D01*
X121649868Y-93090836D01*
X119119258Y-90530834D01*
X120089608Y-89625673D01*
X121059959Y-88720513D01*
X123564053Y-91213173D01*
X126068146Y-93705834D01*
X126483670Y-93176667D01*
X127026079Y-92342872D01*
X127571740Y-91264636D01*
X128040607Y-90112577D01*
X128284166Y-89338946D01*
X128468664Y-88662270D01*
X128573709Y-88170627D01*
X128548632Y-87834640D01*
X128342762Y-87624935D01*
X127905429Y-87512136D01*
X127185963Y-87466867D01*
X126133694Y-87459754D01*
X125046250Y-87461796D01*
X121500834Y-87461925D01*
X121530802Y-86138879D01*
X121560770Y-84815834D01*
X125076218Y-84757799D01*
X126423531Y-84737181D01*
X127397664Y-84705995D01*
X128048285Y-84633459D01*
X128425065Y-84488791D01*
X128577674Y-84241207D01*
X128555780Y-83859925D01*
X128409054Y-83314161D01*
X128250561Y-82790501D01*
X127806535Y-81544707D01*
X127252892Y-80365066D01*
X126665016Y-79406789D01*
X126508970Y-79204647D01*
X126075154Y-78677500D01*
X121077500Y-83634014D01*
X119129738Y-81782976D01*
X121629857Y-79289370D01*
X122579524Y-78329758D01*
X123251052Y-77617664D01*
X123676978Y-77113047D01*
X123889841Y-76775866D01*
X123922181Y-76566080D01*
X123890613Y-76507350D01*
X123357280Y-76057572D01*
X122516739Y-75568851D01*
X121476201Y-75088651D01*
X120342878Y-74664439D01*
X119223983Y-74343678D01*
X118802084Y-74254529D01*
X118008334Y-74107484D01*
X118008308Y-77662492D01*
X118008283Y-81217500D01*
X116632475Y-81232903D01*
X115256667Y-81248305D01*
X115256667Y-74107484D01*
X114462917Y-74250806D01*
X113326195Y-74544392D01*
X112062750Y-75008509D01*
X110864682Y-75564934D01*
X110043957Y-76050158D01*
X109068964Y-76720971D01*
X114118646Y-81770653D01*
X112215774Y-83673525D01*
X109737530Y-81201737D01*
X108899461Y-80386392D01*
X108155391Y-79701101D01*
X107559370Y-79192605D01*
X107165452Y-78907648D01*
X107037618Y-78866948D01*
X106682711Y-79244722D01*
X106261470Y-79932998D01*
X105817868Y-80833569D01*
X105395877Y-81848228D01*
X105039470Y-82878767D01*
X104792620Y-83826979D01*
X104773945Y-83922560D01*
X104626220Y-84710000D01*
X101197362Y-84710000D01*
X101422082Y-82844978D01*
X102036840Y-80654645D01*
X103002255Y-78621581D01*
X104343745Y-76690548D01*
X105815683Y-75071243D01*
X106791211Y-74136886D01*
X107615808Y-73439783D01*
X108408155Y-72890818D01*
X109286934Y-72400871D01*
X109541667Y-72273410D01*
X111029136Y-71594189D01*
X112355997Y-71124523D01*
X113668189Y-70831324D01*
X115111654Y-70681506D01*
X116738334Y-70641852D01*
X118005156Y-70658163D01*
G36*
X160098211Y-70826065D02*
X162388995Y-71444272D01*
X164557972Y-72408150D01*
X166566035Y-73703461D01*
X168374076Y-75315967D01*
X169942986Y-77231429D01*
X171233657Y-79435609D01*
X171353319Y-79687244D01*
X172205203Y-82006962D01*
X172665951Y-84421112D01*
X172740133Y-86873692D01*
X172432316Y-89308703D01*
X171747070Y-91670144D01*
X170688963Y-93902015D01*
X170119646Y-94809165D01*
X168516325Y-96805115D01*
X166634612Y-98502440D01*
X164516642Y-99871368D01*
X162204547Y-100882131D01*
X161026105Y-101234424D01*
X159475100Y-101511204D01*
X157702145Y-101634002D01*
X155876134Y-101603196D01*
X154165964Y-101419168D01*
X153193580Y-101216805D01*
X150856057Y-100390443D01*
X148689234Y-99199525D01*
X146735692Y-97682978D01*
X145038012Y-95879727D01*
X143638777Y-93828698D01*
X142580567Y-91568815D01*
X142550695Y-91487691D01*
X141873171Y-89045565D01*
X141695859Y-87461667D01*
X145093601Y-87461667D01*
X145224694Y-88043750D01*
X145700577Y-89827588D01*
X146271835Y-91310684D01*
X146987748Y-92613111D01*
X147274562Y-93038518D01*
X147699832Y-93641202D01*
X150207951Y-91139618D01*
X152716070Y-88638033D01*
X153674225Y-89578390D01*
X154632379Y-90518748D01*
X152158679Y-92998909D01*
X151220674Y-93951187D01*
X150558482Y-94655976D01*
X150138676Y-95154891D01*
X149927829Y-95489548D01*
X149892513Y-95701562D01*
X149929673Y-95773909D01*
X150419517Y-96180308D01*
X151206810Y-96637275D01*
X152177292Y-97096863D01*
X153216702Y-97511124D01*
X154210779Y-97832110D01*
X155045262Y-98011872D01*
X155314584Y-98033617D01*
X155896667Y-98045000D01*
X155896667Y-91097601D01*
X157167053Y-91025884D01*
X158437438Y-90954167D01*
X158437053Y-94499584D01*
X158436667Y-98045000D01*
X158927416Y-98045000D01*
X159744332Y-97935061D01*
X160779358Y-97640406D01*
X161900143Y-97213778D01*
X162974333Y-96707920D01*
X163869577Y-96175575D01*
X164153687Y-95962303D01*
X164680834Y-95528488D01*
X162151298Y-92983918D01*
X161326210Y-92145053D01*
X160625465Y-91415554D01*
X160095578Y-90845262D01*
X159783064Y-90484017D01*
X159720381Y-90379258D01*
X159916768Y-90213162D01*
X160323033Y-89845468D01*
X160718703Y-89479169D01*
X161618406Y-88639172D01*
X166633502Y-93641202D01*
X167058772Y-93038518D01*
X167835454Y-91770319D01*
X168450632Y-90362510D01*
X168953583Y-88695017D01*
X169108640Y-88043750D01*
X169239732Y-87461667D01*
X162035000Y-87461667D01*
X162035000Y-84710000D01*
X169239732Y-84710000D01*
X169111182Y-84127917D01*
X168667062Y-82548013D01*
X168064788Y-81016151D01*
X167399340Y-79755196D01*
X166633259Y-78530454D01*
X164069546Y-81059673D01*
X161505834Y-83588891D01*
X160583851Y-82640499D01*
X159661869Y-81692106D01*
X162171351Y-79168283D01*
X163128298Y-78209442D01*
X163806642Y-77503737D01*
X164213900Y-76992297D01*
X164357585Y-76616252D01*
X164245214Y-76316730D01*
X163884300Y-76034862D01*
X163282361Y-75711776D01*
X162653075Y-75394670D01*
X161910397Y-75062685D01*
X161010477Y-74727441D01*
X160086816Y-74431445D01*
X159272918Y-74217203D01*
X158702282Y-74127224D01*
X158670697Y-74126667D01*
X158573788Y-74301233D01*
X158503556Y-74837050D01*
X158458803Y-75752295D01*
X158438330Y-77065145D01*
X158436667Y-77675611D01*
X158436667Y-81224556D01*
X155896667Y-81224556D01*
X155896667Y-77675611D01*
X155885155Y-76206030D01*
X155849822Y-75140999D01*
X155789467Y-74462342D01*
X155702893Y-74151882D01*
X155662636Y-74126667D01*
X155117608Y-74204693D01*
X154318479Y-74410432D01*
X153398750Y-74701377D01*
X152491924Y-75035020D01*
X151731502Y-75368854D01*
X151680259Y-75394670D01*
X150896234Y-75790422D01*
X150347396Y-76099215D01*
X150041260Y-76379919D01*
X149985343Y-76691407D01*
X150187157Y-77092547D01*
X150654220Y-77642210D01*
X151394046Y-78399268D01*
X152161982Y-79168283D01*
X154671464Y-81692106D01*
X153749482Y-82640499D01*
X152827500Y-83588891D01*
X147707494Y-78537855D01*
X147021756Y-79606486D01*
X146215503Y-81098365D01*
X145598611Y-82711906D01*
X145327250Y-83795066D01*
X145156321Y-84710000D01*
X152298334Y-84710000D01*
X152298334Y-87461667D01*
X145093601Y-87461667D01*
X141695859Y-87461667D01*
X141598719Y-86593942D01*
X141710723Y-84173368D01*
X142192563Y-81824388D01*
X143027622Y-79587546D01*
X144199282Y-77503388D01*
X145690925Y-75612459D01*
X147485933Y-73955304D01*
X149567688Y-72572469D01*
X150499167Y-72094716D01*
X152886098Y-71187855D01*
X155307655Y-70683619D01*
X157724728Y-70567768D01*
X160098211Y-70826065D01*
X160098211Y-70826065D01*
G37*
X160098211Y-70826065D02*
X162388995Y-71444272D01*
X164557972Y-72408150D01*
X166566035Y-73703461D01*
X168374076Y-75315967D01*
X169942986Y-77231429D01*
X171233657Y-79435609D01*
X171353319Y-79687244D01*
X172205203Y-82006962D01*
X172665951Y-84421112D01*
X172740133Y-86873692D01*
X172432316Y-89308703D01*
X171747070Y-91670144D01*
X170688963Y-93902015D01*
X170119646Y-94809165D01*
X168516325Y-96805115D01*
X166634612Y-98502440D01*
X164516642Y-99871368D01*
X162204547Y-100882131D01*
X161026105Y-101234424D01*
X159475100Y-101511204D01*
X157702145Y-101634002D01*
X155876134Y-101603196D01*
X154165964Y-101419168D01*
X153193580Y-101216805D01*
X150856057Y-100390443D01*
X148689234Y-99199525D01*
X146735692Y-97682978D01*
X145038012Y-95879727D01*
X143638777Y-93828698D01*
X142580567Y-91568815D01*
X142550695Y-91487691D01*
X141873171Y-89045565D01*
X141695859Y-87461667D01*
X145093601Y-87461667D01*
X145224694Y-88043750D01*
X145700577Y-89827588D01*
X146271835Y-91310684D01*
X146987748Y-92613111D01*
X147274562Y-93038518D01*
X147699832Y-93641202D01*
X150207951Y-91139618D01*
X152716070Y-88638033D01*
X153674225Y-89578390D01*
X154632379Y-90518748D01*
X152158679Y-92998909D01*
X151220674Y-93951187D01*
X150558482Y-94655976D01*
X150138676Y-95154891D01*
X149927829Y-95489548D01*
X149892513Y-95701562D01*
X149929673Y-95773909D01*
X150419517Y-96180308D01*
X151206810Y-96637275D01*
X152177292Y-97096863D01*
X153216702Y-97511124D01*
X154210779Y-97832110D01*
X155045262Y-98011872D01*
X155314584Y-98033617D01*
X155896667Y-98045000D01*
X155896667Y-91097601D01*
X157167053Y-91025884D01*
X158437438Y-90954167D01*
X158437053Y-94499584D01*
X158436667Y-98045000D01*
X158927416Y-98045000D01*
X159744332Y-97935061D01*
X160779358Y-97640406D01*
X161900143Y-97213778D01*
X162974333Y-96707920D01*
X163869577Y-96175575D01*
X164153687Y-95962303D01*
X164680834Y-95528488D01*
X162151298Y-92983918D01*
X161326210Y-92145053D01*
X160625465Y-91415554D01*
X160095578Y-90845262D01*
X159783064Y-90484017D01*
X159720381Y-90379258D01*
X159916768Y-90213162D01*
X160323033Y-89845468D01*
X160718703Y-89479169D01*
X161618406Y-88639172D01*
X166633502Y-93641202D01*
X167058772Y-93038518D01*
X167835454Y-91770319D01*
X168450632Y-90362510D01*
X168953583Y-88695017D01*
X169108640Y-88043750D01*
X169239732Y-87461667D01*
X162035000Y-87461667D01*
X162035000Y-84710000D01*
X169239732Y-84710000D01*
X169111182Y-84127917D01*
X168667062Y-82548013D01*
X168064788Y-81016151D01*
X167399340Y-79755196D01*
X166633259Y-78530454D01*
X164069546Y-81059673D01*
X161505834Y-83588891D01*
X160583851Y-82640499D01*
X159661869Y-81692106D01*
X162171351Y-79168283D01*
X163128298Y-78209442D01*
X163806642Y-77503737D01*
X164213900Y-76992297D01*
X164357585Y-76616252D01*
X164245214Y-76316730D01*
X163884300Y-76034862D01*
X163282361Y-75711776D01*
X162653075Y-75394670D01*
X161910397Y-75062685D01*
X161010477Y-74727441D01*
X160086816Y-74431445D01*
X159272918Y-74217203D01*
X158702282Y-74127224D01*
X158670697Y-74126667D01*
X158573788Y-74301233D01*
X158503556Y-74837050D01*
X158458803Y-75752295D01*
X158438330Y-77065145D01*
X158436667Y-77675611D01*
X158436667Y-81224556D01*
X155896667Y-81224556D01*
X155896667Y-77675611D01*
X155885155Y-76206030D01*
X155849822Y-75140999D01*
X155789467Y-74462342D01*
X155702893Y-74151882D01*
X155662636Y-74126667D01*
X155117608Y-74204693D01*
X154318479Y-74410432D01*
X153398750Y-74701377D01*
X152491924Y-75035020D01*
X151731502Y-75368854D01*
X151680259Y-75394670D01*
X150896234Y-75790422D01*
X150347396Y-76099215D01*
X150041260Y-76379919D01*
X149985343Y-76691407D01*
X150187157Y-77092547D01*
X150654220Y-77642210D01*
X151394046Y-78399268D01*
X152161982Y-79168283D01*
X154671464Y-81692106D01*
X153749482Y-82640499D01*
X152827500Y-83588891D01*
X147707494Y-78537855D01*
X147021756Y-79606486D01*
X146215503Y-81098365D01*
X145598611Y-82711906D01*
X145327250Y-83795066D01*
X145156321Y-84710000D01*
X152298334Y-84710000D01*
X152298334Y-87461667D01*
X145093601Y-87461667D01*
X141695859Y-87461667D01*
X141598719Y-86593942D01*
X141710723Y-84173368D01*
X142192563Y-81824388D01*
X143027622Y-79587546D01*
X144199282Y-77503388D01*
X145690925Y-75612459D01*
X147485933Y-73955304D01*
X149567688Y-72572469D01*
X150499167Y-72094716D01*
X152886098Y-71187855D01*
X155307655Y-70683619D01*
X157724728Y-70567768D01*
X160098211Y-70826065D01*
G36*
X111771804Y-33106248D02*
X111825208Y-33323685D01*
X111948770Y-33918235D01*
X112135097Y-34850842D01*
X112376798Y-36082448D01*
X112666481Y-37573998D01*
X112996755Y-39286435D01*
X113360227Y-41180701D01*
X113749506Y-43217742D01*
X114157201Y-45358499D01*
X114575919Y-47563916D01*
X114998268Y-49794937D01*
X115416857Y-52012505D01*
X115824295Y-54177563D01*
X116213189Y-56251055D01*
X116576147Y-58193925D01*
X116905779Y-59967115D01*
X117194692Y-61531569D01*
X117435494Y-62848230D01*
X117620793Y-63878043D01*
X117743199Y-64581949D01*
X117795319Y-64920893D01*
X117796667Y-64940490D01*
X117736204Y-65030203D01*
X117526223Y-65100435D01*
X117123831Y-65153382D01*
X116486138Y-65191239D01*
X115570254Y-65216205D01*
X114333286Y-65230475D01*
X112732345Y-65236245D01*
X112013491Y-65236667D01*
X106230315Y-65236667D01*
X99645533Y-51848750D01*
X98547130Y-49608223D01*
X97502499Y-47463226D01*
X96527086Y-45446370D01*
X95636340Y-43590263D01*
X94845707Y-41927515D01*
X94170635Y-40490736D01*
X93626571Y-39312535D01*
X93228963Y-38425523D01*
X92993257Y-37862308D01*
X92932876Y-37678234D01*
X92969208Y-36665010D01*
X93367310Y-35688950D01*
X93909979Y-35028422D01*
X94579227Y-34600255D01*
X95579380Y-34252598D01*
X96928759Y-33982475D01*
X98645684Y-33786912D01*
X100748474Y-33662934D01*
X102614887Y-33614770D01*
X104134751Y-33580648D01*
X105679867Y-33524628D01*
X107139253Y-33452247D01*
X108401923Y-33369043D01*
X109356894Y-33280553D01*
X109388540Y-33276812D01*
X110323371Y-33174929D01*
X111092588Y-33109784D01*
X111605790Y-33087845D01*
X111771804Y-33106248D01*
X111771804Y-33106248D01*
G37*
X111771804Y-33106248D02*
X111825208Y-33323685D01*
X111948770Y-33918235D01*
X112135097Y-34850842D01*
X112376798Y-36082448D01*
X112666481Y-37573998D01*
X112996755Y-39286435D01*
X113360227Y-41180701D01*
X113749506Y-43217742D01*
X114157201Y-45358499D01*
X114575919Y-47563916D01*
X114998268Y-49794937D01*
X115416857Y-52012505D01*
X115824295Y-54177563D01*
X116213189Y-56251055D01*
X116576147Y-58193925D01*
X116905779Y-59967115D01*
X117194692Y-61531569D01*
X117435494Y-62848230D01*
X117620793Y-63878043D01*
X117743199Y-64581949D01*
X117795319Y-64920893D01*
X117796667Y-64940490D01*
X117736204Y-65030203D01*
X117526223Y-65100435D01*
X117123831Y-65153382D01*
X116486138Y-65191239D01*
X115570254Y-65216205D01*
X114333286Y-65230475D01*
X112732345Y-65236245D01*
X112013491Y-65236667D01*
X106230315Y-65236667D01*
X99645533Y-51848750D01*
X98547130Y-49608223D01*
X97502499Y-47463226D01*
X96527086Y-45446370D01*
X95636340Y-43590263D01*
X94845707Y-41927515D01*
X94170635Y-40490736D01*
X93626571Y-39312535D01*
X93228963Y-38425523D01*
X92993257Y-37862308D01*
X92932876Y-37678234D01*
X92969208Y-36665010D01*
X93367310Y-35688950D01*
X93909979Y-35028422D01*
X94579227Y-34600255D01*
X95579380Y-34252598D01*
X96928759Y-33982475D01*
X98645684Y-33786912D01*
X100748474Y-33662934D01*
X102614887Y-33614770D01*
X104134751Y-33580648D01*
X105679867Y-33524628D01*
X107139253Y-33452247D01*
X108401923Y-33369043D01*
X109356894Y-33280553D01*
X109388540Y-33276812D01*
X110323371Y-33174929D01*
X111092588Y-33109784D01*
X111605790Y-33087845D01*
X111771804Y-33106248D01*
G36*
X114886766Y-33173876D02*
X115424683Y-33260867D01*
X116186104Y-33404442D01*
X116632500Y-33494776D01*
X119473220Y-33986123D01*
X122294646Y-34269698D01*
X125189710Y-34347255D01*
X128251342Y-34220552D01*
X131572473Y-33891343D01*
X132348750Y-33791706D01*
X133460000Y-33643795D01*
X133460000Y-65236667D01*
X120641240Y-65236667D01*
X117624402Y-49227607D01*
X117146379Y-46686167D01*
X116693216Y-44267592D01*
X116270781Y-42003773D01*
X115884944Y-39926600D01*
X115541573Y-38067964D01*
X115246536Y-36459754D01*
X115005702Y-35133860D01*
X114824939Y-34122173D01*
X114710117Y-33456584D01*
X114667102Y-33168981D01*
X114667532Y-33159700D01*
X114886766Y-33173876D01*
X114886766Y-33173876D01*
G37*
X114886766Y-33173876D02*
X115424683Y-33260867D01*
X116186104Y-33404442D01*
X116632500Y-33494776D01*
X119473220Y-33986123D01*
X122294646Y-34269698D01*
X125189710Y-34347255D01*
X128251342Y-34220552D01*
X131572473Y-33891343D01*
X132348750Y-33791706D01*
X133460000Y-33643795D01*
X133460000Y-65236667D01*
X120641240Y-65236667D01*
X117624402Y-49227607D01*
X117146379Y-46686167D01*
X116693216Y-44267592D01*
X116270781Y-42003773D01*
X115884944Y-39926600D01*
X115541573Y-38067964D01*
X115246536Y-36459754D01*
X115005702Y-35133860D01*
X114824939Y-34122173D01*
X114710117Y-33456584D01*
X114667102Y-33168981D01*
X114667532Y-33159700D01*
X114886766Y-33173876D01*
G36*
X136815524Y-33915078D02*
X137645482Y-34094106D01*
X138708833Y-34294058D01*
X139912257Y-34499032D01*
X141162432Y-34693124D01*
X142366037Y-34860433D01*
X143420173Y-34984081D01*
X145058741Y-35093311D01*
X146985172Y-35126757D01*
X149071493Y-35087965D01*
X151189734Y-34980480D01*
X153211922Y-34807849D01*
X154256250Y-34683833D01*
X155200046Y-34562643D01*
X155801552Y-34505903D01*
X156137502Y-34517813D01*
X156284629Y-34602571D01*
X156319668Y-34764378D01*
X156320000Y-34796759D01*
X156284065Y-35049485D01*
X156180716Y-35680862D01*
X156016640Y-36652746D01*
X155798521Y-37926991D01*
X155533046Y-39465452D01*
X155226899Y-41229983D01*
X154886767Y-43182438D01*
X154519335Y-45284672D01*
X154131289Y-47498539D01*
X153729314Y-49785893D01*
X153320096Y-52108590D01*
X152910320Y-54428482D01*
X152506673Y-56707426D01*
X152115839Y-58907275D01*
X151744504Y-60989883D01*
X151399354Y-62917106D01*
X151105517Y-64548750D01*
X150981220Y-65236667D01*
X136000000Y-65236667D01*
X136000000Y-49444854D01*
X136000779Y-46455123D01*
X136003476Y-43861731D01*
X136008627Y-41637688D01*
X136016772Y-39756002D01*
X136028446Y-38189683D01*
X136044190Y-36911738D01*
X136064539Y-35895176D01*
X136090033Y-35113007D01*
X136121209Y-34538239D01*
X136158604Y-34143880D01*
X136202757Y-33902940D01*
X136254206Y-33788428D01*
X136312282Y-33772875D01*
X136815524Y-33915078D01*
X136815524Y-33915078D01*
G37*
X136815524Y-33915078D02*
X137645482Y-34094106D01*
X138708833Y-34294058D01*
X139912257Y-34499032D01*
X141162432Y-34693124D01*
X142366037Y-34860433D01*
X143420173Y-34984081D01*
X145058741Y-35093311D01*
X146985172Y-35126757D01*
X149071493Y-35087965D01*
X151189734Y-34980480D01*
X153211922Y-34807849D01*
X154256250Y-34683833D01*
X155200046Y-34562643D01*
X155801552Y-34505903D01*
X156137502Y-34517813D01*
X156284629Y-34602571D01*
X156319668Y-34764378D01*
X156320000Y-34796759D01*
X156284065Y-35049485D01*
X156180716Y-35680862D01*
X156016640Y-36652746D01*
X155798521Y-37926991D01*
X155533046Y-39465452D01*
X155226899Y-41229983D01*
X154886767Y-43182438D01*
X154519335Y-45284672D01*
X154131289Y-47498539D01*
X153729314Y-49785893D01*
X153320096Y-52108590D01*
X152910320Y-54428482D01*
X152506673Y-56707426D01*
X152115839Y-58907275D01*
X151744504Y-60989883D01*
X151399354Y-62917106D01*
X151105517Y-64548750D01*
X150981220Y-65236667D01*
X136000000Y-65236667D01*
X136000000Y-49444854D01*
X136000779Y-46455123D01*
X136003476Y-43861731D01*
X136008627Y-41637688D01*
X136016772Y-39756002D01*
X136028446Y-38189683D01*
X136044190Y-36911738D01*
X136064539Y-35895176D01*
X136090033Y-35113007D01*
X136121209Y-34538239D01*
X136158604Y-34143880D01*
X136202757Y-33902940D01*
X136254206Y-33788428D01*
X136312282Y-33772875D01*
X136815524Y-33915078D01*
G36*
X159395804Y-34606157D02*
X159919094Y-34712766D01*
X160651329Y-34885928D01*
X160899238Y-34948336D01*
X162516167Y-35334793D01*
X164015893Y-35629137D01*
X165504337Y-35843570D01*
X167087425Y-35990294D01*
X168871079Y-36081512D01*
X170961222Y-36129427D01*
X171175103Y-36132116D01*
X172703609Y-36153061D01*
X173873422Y-36178919D01*
X174749180Y-36215766D01*
X175395521Y-36269677D01*
X175877085Y-36346729D01*
X176258509Y-36452994D01*
X176604431Y-36594550D01*
X176730529Y-36654258D01*
X177402356Y-37050150D01*
X177974308Y-37505401D01*
X178141321Y-37685567D01*
X178325040Y-37944290D01*
X178462297Y-38222872D01*
X178544689Y-38551251D01*
X178563816Y-38959366D01*
X178511278Y-39477152D01*
X178378672Y-40134549D01*
X178157599Y-40961494D01*
X177839658Y-41987924D01*
X177416447Y-43243778D01*
X176879565Y-44758994D01*
X176220613Y-46563508D01*
X175431188Y-48687258D01*
X174502890Y-51160183D01*
X173944224Y-52642500D01*
X173137183Y-54781887D01*
X172372235Y-56809384D01*
X171662862Y-58689275D01*
X171022549Y-60385844D01*
X170464776Y-61863375D01*
X170003028Y-63086152D01*
X169650788Y-64018458D01*
X169421537Y-64624577D01*
X169329748Y-64866250D01*
X169267416Y-64963145D01*
X169135778Y-65041584D01*
X168893898Y-65103499D01*
X168500839Y-65150823D01*
X167915665Y-65185488D01*
X167097437Y-65209427D01*
X166005220Y-65224573D01*
X164598077Y-65232857D01*
X162835071Y-65236213D01*
X161483188Y-65236667D01*
X159724506Y-65232466D01*
X158106680Y-65220507D01*
X156676719Y-65201760D01*
X155481633Y-65177193D01*
X154568429Y-65147773D01*
X153984118Y-65114470D01*
X153775707Y-65078250D01*
X153775681Y-65077917D01*
X153810671Y-64843168D01*
X153912771Y-64233673D01*
X154074897Y-63289386D01*
X154289966Y-62050263D01*
X154550893Y-60556260D01*
X154850594Y-58847333D01*
X155181986Y-56963438D01*
X155537985Y-54944529D01*
X155911505Y-52830563D01*
X156295465Y-50661496D01*
X156682778Y-48477283D01*
X157066362Y-46317880D01*
X157439133Y-44223243D01*
X157794007Y-42233327D01*
X158123898Y-40388089D01*
X158421725Y-38727483D01*
X158680402Y-37291466D01*
X158892846Y-36119993D01*
X159051972Y-35253020D01*
X159150698Y-34730503D01*
X159181563Y-34587152D01*
X159395804Y-34606157D01*
X159395804Y-34606157D01*
G37*
X159395804Y-34606157D02*
X159919094Y-34712766D01*
X160651329Y-34885928D01*
X160899238Y-34948336D01*
X162516167Y-35334793D01*
X164015893Y-35629137D01*
X165504337Y-35843570D01*
X167087425Y-35990294D01*
X168871079Y-36081512D01*
X170961222Y-36129427D01*
X171175103Y-36132116D01*
X172703609Y-36153061D01*
X173873422Y-36178919D01*
X174749180Y-36215766D01*
X175395521Y-36269677D01*
X175877085Y-36346729D01*
X176258509Y-36452994D01*
X176604431Y-36594550D01*
X176730529Y-36654258D01*
X177402356Y-37050150D01*
X177974308Y-37505401D01*
X178141321Y-37685567D01*
X178325040Y-37944290D01*
X178462297Y-38222872D01*
X178544689Y-38551251D01*
X178563816Y-38959366D01*
X178511278Y-39477152D01*
X178378672Y-40134549D01*
X178157599Y-40961494D01*
X177839658Y-41987924D01*
X177416447Y-43243778D01*
X176879565Y-44758994D01*
X176220613Y-46563508D01*
X175431188Y-48687258D01*
X174502890Y-51160183D01*
X173944224Y-52642500D01*
X173137183Y-54781887D01*
X172372235Y-56809384D01*
X171662862Y-58689275D01*
X171022549Y-60385844D01*
X170464776Y-61863375D01*
X170003028Y-63086152D01*
X169650788Y-64018458D01*
X169421537Y-64624577D01*
X169329748Y-64866250D01*
X169267416Y-64963145D01*
X169135778Y-65041584D01*
X168893898Y-65103499D01*
X168500839Y-65150823D01*
X167915665Y-65185488D01*
X167097437Y-65209427D01*
X166005220Y-65224573D01*
X164598077Y-65232857D01*
X162835071Y-65236213D01*
X161483188Y-65236667D01*
X159724506Y-65232466D01*
X158106680Y-65220507D01*
X156676719Y-65201760D01*
X155481633Y-65177193D01*
X154568429Y-65147773D01*
X153984118Y-65114470D01*
X153775707Y-65078250D01*
X153775681Y-65077917D01*
X153810671Y-64843168D01*
X153912771Y-64233673D01*
X154074897Y-63289386D01*
X154289966Y-62050263D01*
X154550893Y-60556260D01*
X154850594Y-58847333D01*
X155181986Y-56963438D01*
X155537985Y-54944529D01*
X155911505Y-52830563D01*
X156295465Y-50661496D01*
X156682778Y-48477283D01*
X157066362Y-46317880D01*
X157439133Y-44223243D01*
X157794007Y-42233327D01*
X158123898Y-40388089D01*
X158421725Y-38727483D01*
X158680402Y-37291466D01*
X158892846Y-36119993D01*
X159051972Y-35253020D01*
X159150698Y-34730503D01*
X159181563Y-34587152D01*
X159395804Y-34606157D01*
G36*
X117541926Y-83945734D02*
X118230745Y-84402794D01*
X118802819Y-85181260D01*
X119014870Y-86001131D01*
X118916951Y-86798701D01*
X118559118Y-87510266D01*
X117991423Y-88072119D01*
X117263921Y-88420555D01*
X116426664Y-88491868D01*
X115529708Y-88222354D01*
X115321113Y-88105998D01*
X114663643Y-87476958D01*
X114312553Y-86647696D01*
X114305467Y-85745071D01*
X114471765Y-85242188D01*
X115048818Y-84441589D01*
X115815577Y-83944642D01*
X116677971Y-83772355D01*
X117541926Y-83945734D01*
X117541926Y-83945734D01*
G37*
X117541926Y-83945734D02*
X118230745Y-84402794D01*
X118802819Y-85181260D01*
X119014870Y-86001131D01*
X118916951Y-86798701D01*
X118559118Y-87510266D01*
X117991423Y-88072119D01*
X117263921Y-88420555D01*
X116426664Y-88491868D01*
X115529708Y-88222354D01*
X115321113Y-88105998D01*
X114663643Y-87476958D01*
X114312553Y-86647696D01*
X114305467Y-85745071D01*
X114471765Y-85242188D01*
X115048818Y-84441589D01*
X115815577Y-83944642D01*
X116677971Y-83772355D01*
X117541926Y-83945734D01*
G36*
X158258801Y-83977950D02*
X158944699Y-84531546D01*
X159378865Y-85342146D01*
X159495000Y-86135545D01*
X159438139Y-86804714D01*
X159206355Y-87311160D01*
X158775334Y-87800334D01*
X158222695Y-88272468D01*
X157697236Y-88481250D01*
X157166667Y-88520000D01*
X156518272Y-88454830D01*
X156004007Y-88198473D01*
X155558000Y-87800334D01*
X155091756Y-87259415D01*
X154882614Y-86745876D01*
X154838334Y-86135545D01*
X155011063Y-85130954D01*
X155522924Y-84376044D01*
X156364425Y-83884381D01*
X156429143Y-83862241D01*
X157395504Y-83736476D01*
X158258801Y-83977950D01*
X158258801Y-83977950D01*
G37*
X158258801Y-83977950D02*
X158944699Y-84531546D01*
X159378865Y-85342146D01*
X159495000Y-86135545D01*
X159438139Y-86804714D01*
X159206355Y-87311160D01*
X158775334Y-87800334D01*
X158222695Y-88272468D01*
X157697236Y-88481250D01*
X157166667Y-88520000D01*
X156518272Y-88454830D01*
X156004007Y-88198473D01*
X155558000Y-87800334D01*
X155091756Y-87259415D01*
X154882614Y-86745876D01*
X154838334Y-86135545D01*
X155011063Y-85130954D01*
X155522924Y-84376044D01*
X156364425Y-83884381D01*
X156429143Y-83862241D01*
X157395504Y-83736476D01*
X158258801Y-83977950D01*
%LPC*%
D10*
G36*
X175218752Y-49705469D02*
X178000304Y-50829289D01*
X177101248Y-53054531D01*
X174319696Y-51930711D01*
X175218752Y-49705469D01*
X175218752Y-49705469D01*
G37*
D14*
X175486654Y-53847429D02*
X174930344Y-53622665D01*
X174535154Y-56202476D02*
X173978844Y-55977712D01*
X173583653Y-58557523D02*
X173027343Y-58332759D01*
D15*
X115900000Y-79680000D03*
D16*
X115900000Y-77180000D03*
D15*
X114300000Y-80350937D03*
D16*
X117500000Y-76509063D03*
D17*
X166700000Y-68700000D03*
X160700000Y-68700000D03*
D18*
X169740000Y-81020000D03*
X169740000Y-76180000D03*
D19*
X172740000Y-81330000D03*
X172740000Y-75870000D03*
D20*
X174680000Y-40850000D03*
D21*
X135128000Y-46228000D03*
D22*
X135128000Y-48768000D03*
X135128000Y-51308000D03*
X135128000Y-53848000D03*
X135128000Y-56388000D03*
D23*
X98920515Y-71820000D03*
X110785064Y-64970000D03*
X111220000Y-70723332D03*
M02*
