<?xml version="1.0" encoding="UTF-8" standalone="no"?>
<!-- Created with Inkscape (http://www.inkscape.org/) -->

<svg
   xmlns:dc="http://purl.org/dc/elements/1.1/"
   xmlns:cc="http://creativecommons.org/ns#"
   xmlns:rdf="http://www.w3.org/1999/02/22-rdf-syntax-ns#"
   xmlns:svg="http://www.w3.org/2000/svg"
   xmlns="http://www.w3.org/2000/svg"
   xmlns:sodipodi="http://sodipodi.sourceforge.net/DTD/sodipodi-0.dtd"
   xmlns:inkscape="http://www.inkscape.org/namespaces/inkscape"
   width="500"
   height="500"
   viewBox="0 0 500.00001 500.00001"
   id="svg2"
   version="1.1"
   inkscape:version="0.91 r13725"
   sodipodi:docname="wagon.svg"
   inkscape:export-filename="/Users/ratface/MAGFest/deploy-stock/ubersystem-deploy/sideboard/plugins/magstock/magstock/static/icons/wagon.png"
   inkscape:export-xdpi="9"
   inkscape:export-ydpi="9">
  <defs
     id="defs4" />
  <sodipodi:namedview
     id="base"
     pagecolor="#ffffff"
     bordercolor="#666666"
     borderopacity="1.0"
     inkscape:pageopacity="0"
     inkscape:pageshadow="2"
     inkscape:zoom="1"
     inkscape:cx="319.46776"
     inkscape:cy="240.75934"
     inkscape:document-units="px"
     inkscape:current-layer="g4174"
     showgrid="false"
     units="px"
     borderlayer="false"
     inkscape:showpageshadow="true"
     showguides="true"
     inkscape:guide-bbox="true"
     inkscape:snap-object-midpoints="true"
     inkscape:snap-center="true"
     inkscape:snap-text-baseline="true"
     inkscape:snap-nodes="true"
     inkscape:snap-bbox="false"
     inkscape:bbox-paths="false"
     inkscape:snap-bbox-edge-midpoints="false"
     inkscape:bbox-nodes="false"
     inkscape:snap-bbox-midpoints="false"
     inkscape:object-paths="true"
     inkscape:snap-intersection-paths="true"
     inkscape:object-nodes="true"
     inkscape:snap-midpoints="true"
     inkscape:snap-smooth-nodes="true"
     inkscape:snap-global="true"
     inkscape:window-width="1440"
     inkscape:window-height="855"
     inkscape:window-x="0"
     inkscape:window-y="1"
     inkscape:window-maximized="1" />
  <metadata
     id="metadata7">
    <rdf:RDF>
      <cc:Work
         rdf:about="">
        <dc:format>image/svg+xml</dc:format>
        <dc:type
           rdf:resource="http://purl.org/dc/dcmitype/StillImage" />
        <dc:title></dc:title>
      </cc:Work>
    </rdf:RDF>
  </metadata>
  <g
     inkscape:groupmode="layer"
     id="layer4"
     inkscape:label="Wagon Outline"
     style="display:none">
    <g
       id="g5108"
       transform="matrix(0.97236739,0,0,0.97236739,6.9001544,6.908186)">
      <path
         id="path5095"
         d="m 446.93359,46.027344 c -0.60716,9.82e-4 -1.21338,0.01183 -1.82031,0.03125 l -21.02148,0.677734 c -3.47266,0.112265 -6.92901,0.525929 -10.33008,1.236328 c -26.21285,5.473606 -45.44042,6.992105 -60.66406,3.261719 c -5.29832,-1.298241 -10.74892,-1.867942 -16.20118,-1.693359 l -10.23632,0.328125 c -5.06533,0.162229 -10.0897,0.965499 -14.95313,2.390625 c -19.16,5.615105 -28.8827,4.649337 -43.75195,1.361328 c -4.88511,-1.080392 -9.88616,-1.545591 -14.88672,-1.384766 l -10,0.322266 c -5.40816,0.173989 -10.76794,1.078674 -15.93359,2.689453 c -14.27092,4.451209 -29.81912,4.870903 -49.7793,0.951172 c -4.44047,-0.872018 -8.96533,-1.238934 -13.48828,-1.09375 l -10.09571,0.324219 c -6.09497,0.195653 -12.12451,1.319235 -17.88086,3.332031 c -13.30781,4.654107 -9.31882,6.770332 -54.408198,-0.01953 C 77.890018,58.201712 74.255954,57.988624 70.625,58.105469 L 51.027344,58.734375 C 9.930572,60.05836 -17.690129,101.38743 -3.1933594,139.86523 l 34.4042974,91.2793 c -1.761,5.684 -2.666745,11.59832 -2.6875,17.54883 l 0,11.52148 c 0.02679,9.1459 2.143857,18.16467 6.189453,26.36719 c -4.058659,8.22916 -6.17608,17.27948 -6.189453,26.45508 l 0,14.47851 c 0.01017,16.38802 6.722507,32.05884 18.578124,43.37305 c 18.35198,48.25423 65.228468,83.05766 119.310548,83.08399 l 0.0742,0 c 28.06983,-0.021 54.14484,-9.50555 75.38281,-25.26368 c 21.24641,15.76403 47.33473,25.25 75.41602,25.26368 l 0.0742,0 c 47.64827,-0.0356 89.77111,-27.03347 111.66796,-66.45704 l 18.01954,0 c 33.13571,-0.003 59.99669,-26.86429 60,-60 l 0,-15.45703 c -0.006,-18.37888 -8.43437,-35.74141 -22.8711,-47.11523 c 0.0774,-1.18273 0.11973,-2.36749 0.12695,-3.55274 l 0,-12.69726 c -0.0201,-16.62016 -6.93258,-32.48756 -19.08984,-43.82031 l 35.65039,-72.31641 c 19.3188,-39.206604 -8.41751,-85.251829 -52.10738,-86.503906 c -0.60699,-0.01745 -1.2151,-0.02637 -1.82227,-0.02539 z m 0.6836,40.007812 a 20.002,20.002 0 0 1 17.36914,28.835934 L 408.875,228.69336 l 15.42773,0 a 20.002,20.002 0 0 1 20,20 l 0,12.69726 a 20.002,20.002 0 0 1 -20,20 l -10.83007,0 l -6.89454,10.24415 l 40.67774,0.42578 a 20.002,20.002 0 0 1 19.79102,19.99804 l 0,15.45703 a 20.002,20.002 0 0 1 -20,20 l -44.77735,0 c -9.58739,38.06732 -44.14502,66.42654 -84.93945,66.45704 a 20.002,20.002 0 0 1 -0.0254,0 c -31.97932,-0.0156 -60.11818,-17.46264 -75.43555,-43.32032 c -15.31332,25.85176 -43.44094,43.29642 -75.41211,43.32032 a 20.002,20.002 0 0 1 -0.0254,0 C 125.10523,413.95254 90.126488,384.87595 81.068359,346.0625 A 20.002,20.002 0 0 1 68.523438,327.51562 l 0,-14.47851 a 20.002,20.002 0 0 1 9.839843,-17.20117 l 0,-18.42188 a 20.002,20.002 0 0 1 -9.839843,-17.19922 l 0,-11.52148 a 20.002,20.002 0 0 1 6.5,-14.7207 L 34.236328,125.75781 A 20.002,20.002 0 0 1 52.310547,98.712891 l 19.597656,-0.628907 a 20.002,20.002 0 0 1 3.619141,0.212891 c 48.871236,7.359365 58.803546,3.386315 73.568356,-1.777344 a 20.002,20.002 0 0 1 5.95899,-1.111328 l 10.0957,-0.324219 a 20.002,20.002 0 0 1 4.49609,0.365235 c 24.66531,4.843711 47.51739,4.809241 69.39844,-2.015625 a 20.002,20.002 0 0 1 5.31055,-0.896485 l 10,-0.322265 a 20.002,20.002 0 0 1 4.96289,0.46289 c 19.11388,4.226617 37.79486,5.540686 63.63867,-2.033203 a 20.002,20.002 0 0 1 4.98438,-0.796875 l 10.23632,-0.328125 a 20.002,20.002 0 0 1 5.40039,0.564453 c 24.45361,5.992082 50.24272,2.914118 78.35938,-2.957031 a 20.002,20.002 0 0 1 3.44336,-0.412109 l 21.02148,-0.677735 a 20.002,20.002 0 0 1 1.21485,-0.002 z"
         style="color:#000000;font-style:normal;font-variant:normal;font-weight:normal;font-stretch:normal;font-size:medium;line-height:normal;font-family:sans-serif;text-indent:0;text-align:start;text-decoration:none;text-decoration-line:none;text-decoration-style:solid;text-decoration-color:#000000;letter-spacing:normal;word-spacing:normal;text-transform:none;direction:ltr;block-progression:tb;writing-mode:lr-tb;baseline-shift:baseline;text-anchor:start;white-space:normal;clip-rule:nonzero;display:inline;overflow:visible;visibility:visible;opacity:1;isolation:auto;mix-blend-mode:normal;color-interpolation:sRGB;color-interpolation-filters:linearRGB;solid-color:#000000;solid-opacity:1;fill:#000000;fill-opacity:1;fill-rule:nonzero;stroke:none;stroke-width:120;stroke-linecap:round;stroke-linejoin:round;stroke-miterlimit:4;stroke-dasharray:none;stroke-dashoffset:0;stroke-opacity:1;color-rendering:auto;image-rendering:auto;shape-rendering:auto;text-rendering:auto;enable-background:accumulate"
         inkscape:connector-curvature="0" />
      <path
         id="path5037"
         d="m 447.04688,106.02734 l -21.02149,0.67774 c -29.06857,6.06992 -58.13846,9.92762 -87.20703,2.80469 l -10.23633,0.32812 C 299.39631,118.39117 276.2362,116.901 255,112.20508 l -10,0.32226 c -25.68612,8.0117 -52.18917,7.85258 -79.20703,2.54688 l -10.0957,0.32422 c -15.49331,5.41843 -32.38628,10.31989 -83.148442,2.67578 l -19.597656,0.6289 l 48.994138,129.99024 l -13.421872,0 l 0,11.52148 l 9.839843,0 l 0,52.82227 l -9.839843,0 l 0,14.47851 l 10.246093,0 a 67.71656,67.71656 0 0 0 67.671879,66.45704 a 67.71656,67.71656 0 0 0 67.65429,-66.45704 l 15.54688,0 a 67.71656,67.71656 0 0 0 67.67187,66.45704 a 67.71656,67.71656 0 0 0 67.6543,-66.45704 l 62.07813,0 l 0,-15.45703 l -63.75391,-0.66601 a 67.71656,67.71656 0 0 0 -4.75781,-13.90625 l 24.28906,-36.09571 l 21.47851,0 l 0,-12.69726 l -47.58593,0 l 70.33008,-142.66602 z m -30.32422,19.54297 l -60.69727,123.12305 l -43.44141,0 l 22.7129,-120.50391 c 21.30657,3.18633 44.9603,4.73986 81.42578,-2.61914 z m -91.66211,2.94727 l -22.64844,120.17578 l -47.41211,0 l 0,-117.92188 c 20.35483,3.24695 41.80552,5.03275 70.06055,-2.2539 z M 245,131.09375 l 0,117.59961 l -55.45703,0 l -20.46875,-115.1582 c 21.82502,3.02087 43.09439,5.63586 75.92578,-2.44141 z m -86.02148,2.76758 l 20.40625,114.83203 l -57.60743,0 L 79.460938,136.41797 c 32.566592,6.54032 57.559012,4.18211 79.517582,-2.55664 z m 7.46289,134.2539 a 58.139718,58.139718 0 0 1 58.13867,58.13868 a 58.139718,58.139718 0 0 1 -58.13867,58.14062 a 58.139718,58.139718 0 0 1 -58.13868,-58.14062 a 58.139718,58.139718 0 0 1 58.13868,-58.13868 z m 150.87109,0 a 58.139718,58.139718 0 0 1 58.14062,58.13868 a 58.139718,58.139718 0 0 1 -58.14062,58.14062 a 58.139718,58.139718 0 0 1 -58.13867,-58.14062 a 58.139718,58.139718 0 0 1 58.13867,-58.13868 z m -145.87109,13.38282 l 0,26.97461 a 18.489254,18.489254 0 0 0 -5,-0.70704 a 18.489254,18.489254 0 0 0 -5,0.69141 l 0,-26.92578 a 45.058243,45.058243 0 0 0 -23.125,9.52734 l 19.09179,19.08985 a 18.489254,18.489254 0 0 0 -7.08398,7.0625 L 131.27148,298.1582 a 45.058243,45.058243 0 0 0 -9.58789,23.09766 l 26.97657,0 a 18.489254,18.489254 0 0 0 -0.70704,5 a 18.489254,18.489254 0 0 0 0.68946,5 l -26.92774,0 a 45.058243,45.058243 0 0 0 9.53125,23.12305 l 19.08789,-19.08985 a 18.489254,18.489254 0 0 0 7.0625,7.08203 l -19.05078,19.05274 a 45.058243,45.058243 0 0 0 23.09571,9.58789 l 0,-26.97656 a 18.489254,18.489254 0 0 0 5,0.70898 a 18.489254,18.489254 0 0 0 5,-0.69141 l 0,26.92579 a 45.058243,45.058243 0 0 0 23.12109,-9.5293 l -19.08789,-19.08789 a 18.489254,18.489254 0 0 0 7.08398,-7.0625 l 19.05079,19.05273 a 45.058243,45.058243 0 0 0 9.58789,-23.0957 l -26.97461,0 a 18.489254,18.489254 0 0 0 0.70703,-5 a 18.489254,18.489254 0 0 0 -0.68946,-5 l 26.92579,0 a 45.058243,45.058243 0 0 0 -9.53125,-23.12305 l -19.08789,19.08789 a 18.489254,18.489254 0 0 0 -7.0625,-7.08203 l 19.05273,-19.05273 a 45.058243,45.058243 0 0 0 -23.0957,-9.58789 z m 150.87109,0 l 0,26.97461 a 18.489254,18.489254 0 0 0 -5,-0.70704 a 18.489254,18.489254 0 0 0 -5,0.69141 l 0,-26.92578 a 45.058243,45.058243 0 0 0 -23.12305,9.52734 l 19.08985,19.08985 a 18.489254,18.489254 0 0 0 -7.08203,7.0625 L 282.14453,298.1582 a 45.058243,45.058243 0 0 0 -9.58984,23.09766 l 26.97656,0 a 18.489254,18.489254 0 0 0 -0.70703,5 a 18.489254,18.489254 0 0 0 0.6914,5 l -26.92773,0 a 45.058243,45.058243 0 0 0 9.5293,23.12305 l 19.08984,-19.08985 a 18.489254,18.489254 0 0 0 7.0625,7.08203 l -19.05273,19.05274 a 45.058243,45.058243 0 0 0 23.0957,9.58789 l 0,-26.97656 a 18.489254,18.489254 0 0 0 5,0.70898 a 18.489254,18.489254 0 0 0 5,-0.69141 l 0,26.92579 a 45.058243,45.058243 0 0 0 23.12305,-9.5293 l -19.08789,-19.08789 a 18.489254,18.489254 0 0 0 7.08203,-7.0625 l 19.05273,19.05273 a 45.058243,45.058243 0 0 0 9.58789,-23.0957 l -26.97656,0 a 18.489254,18.489254 0 0 0 0.70898,-5 a 18.489254,18.489254 0 0 0 -0.6914,-5 l 26.92578,0 a 45.058243,45.058243 0 0 0 -9.5293,-23.12305 l -19.08789,19.08789 a 18.489254,18.489254 0 0 0 -7.0625,-7.08203 l 19.05274,-19.05273 a 45.058243,45.058243 0 0 0 -23.09766,-9.58789 z m -155.87109,35.75781 a 9,9 0 0 1 9,9 a 9,9 0 0 1 -9,9 a 9,9 0 0 1 -9,-9 a 9,9 0 0 1 9,-9 z m 150.87109,0 a 9,9 0 0 1 9,9 a 9,9 0 0 1 -9,9 a 9,9 0 0 1 -9,-9 a 9,9 0 0 1 9,-9 z"
         style="opacity:1;fill:#000000;fill-opacity:1;fill-rule:nonzero;stroke:none;stroke-width:120;stroke-linecap:round;stroke-linejoin:round;stroke-miterlimit:4;stroke-dasharray:none;stroke-opacity:1"
         inkscape:connector-curvature="0" />
    </g>
  </g>
  <g
     style="display:inline"
     inkscape:label="Wagon"
     id="g4174"
     inkscape:groupmode="layer">
    <path
       id="path4180"
       d="m 500,67.338261 l -26.6706,0.86 c -36.8801,7.700999 -73.76182,12.595399 -110.6419,3.5584 l -12.98711,0.416 C 312.67166,83.02436 283.28781,81.13376 256.34486,75.17596 l -12.68729,0.409 c -32.58867,10.1647 -66.2138,9.9628 -100.49211,3.2313 l -12.80869,0.411 c -19.65679,6.8745 -41.089349,13.093099 -105.492693,3.3948 L -1.5000001e-6,83.42006 L 62.160191,248.34225 l -17.02869,0 l 0,14.6176 l 12.48407,0 l 0,67.0171 l -12.48407,0 l 0,18.3692 l 12.9995,0 a 85.913847,85.913847 0 0 0 85.857149,84.31589 A 85.913847,85.913847 0 0 0 229.823,348.34615 l 19.72475,0 a 85.913847,85.913847 0 0 0 85.85715,84.31589 a 85.913847,85.913847 0 0 0 85.8348,-84.31589 l 78.7603,0 l 0,-19.6107 l -80.8864,-0.845 a 85.913847,85.913847 0 0 0 -6.03632,-17.6432 l 30.81622,-45.7957 l 27.2503,0 l 0,-16.1093 l -60.37352,0 L 500,67.337961 Z M 461.5268,92.132959 L 384.51851,248.34255 l -55.11529,0 L 358.21971,95.455959 c 27.03221,4.0426 57.04235,6.013601 103.30709,-3.323 z m -116.29421,3.7393 L 316.4979,248.34255 l -60.15304,0 l 0,-149.610691 c 25.82472,4.119501 53.0398,6.385201 88.88773,-2.8596 z m -101.57502,3.2684 l 0,149.201891 l -70.35983,0 L 147.32847,102.23816 c 27.69001,3.8327 54.67503,7.1504 96.3291,-3.097501 z m -109.13779,3.511301 l 25.88998,145.69059 l -73.088129,0 L 33.633666,105.89566 c 41.318115,8.2979 73.026684,5.306 100.886114,-3.2437 z m 9.46837,170.33159 a 73.763446,73.763446 0 0 1 73.76212,73.7622 a 73.763446,73.763446 0 0 1 -73.76212,73.76459 A 73.763446,73.763446 0 0 1 70.226031,346.74575 a 73.763446,73.763446 0 0 1 73.762119,-73.7622 z m 191.41427,0 a 73.763446,73.763446 0 0 1 73.76459,73.7622 a 73.763446,73.763446 0 0 1 -73.76459,73.76459 a 73.763446,73.763446 0 0 1 -73.76211,-73.76459 a 73.763446,73.763446 0 0 1 73.76211,-73.7622 z m -185.07063,16.9792 l 0,34.2234 a 23.457822,23.457822 0 0 0 -6.34364,-0.897 a 23.457822,23.457822 0 0 0 -6.34362,0.877 l 0,-34.1615 a 57.166622,57.166622 0 0 0 -29.33933,12.0876 l 24.22227,24.2198 a 23.457822,23.457822 0 0 0 -8.98764,8.9604 l -24.172719,-24.1727 a 57.166622,57.166622 0 0 0 -12.16442,29.3046 l 34.225919,0 a 23.457822,23.457822 0 0 0 -0.897,6.3437 a 23.457822,23.457822 0 0 0 0.8747,6.34359 l -34.163949,0 a 57.166622,57.166622 0 0 0 12.09255,29.3368 l 24.217309,-24.2196 a 23.457822,23.457822 0 0 0 8.96039,8.9852 l -24.17025,24.1727 a 57.166622,57.166622 0 0 0 29.30217,12.1644 l 0,-34.2259 a 23.457822,23.457822 0 0 0 6.34362,0.899 a 23.457822,23.457822 0 0 0 6.34364,-0.877 l 0,34.1615 a 57.166622,57.166622 0 0 0 29.33436,-12.0901 l -24.21733,-24.2173 a 23.457822,23.457822 0 0 0 8.98764,-8.9604 l 24.17026,24.1727 a 57.166622,57.166622 0 0 0 12.16441,-29.3021 l -34.22341,0 a 23.457822,23.457822 0 0 0 0.897,-6.34359 a 23.457822,23.457822 0 0 0 -0.8747,-6.3437 l 34.16148,0 a 57.166622,57.166622 0 0 0 -12.09255,-29.3368 l -24.21733,24.2173 a 23.457822,23.457822 0 0 0 -8.9604,-8.9849 l 24.17273,-24.1727 a 57.166622,57.166622 0 0 0 -29.30216,-12.1644 z m 191.41428,0 l 0,34.2234 a 23.457822,23.457822 0 0 0 -6.34365,-0.897 a 23.457822,23.457822 0 0 0 -6.34364,0.877 l 0,-34.1615 a 57.166622,57.166622 0 0 0 -29.33683,12.0876 l 24.21981,24.2198 a 23.457822,23.457822 0 0 0 -8.98516,8.9604 l -24.17274,-24.1727 a 57.166622,57.166622 0 0 0 -12.16689,29.3046 l 34.22589,0 a 23.457822,23.457822 0 0 0 -0.897,6.3437 a 23.457822,23.457822 0 0 0 0.8772,6.34359 l -34.16395,0 a 57.166622,57.166622 0 0 0 12.09008,29.3368 l 24.21981,-24.2198 a 23.457822,23.457822 0 0 0 8.96038,8.9852 l -24.17272,24.1727 a 57.166622,57.166622 0 0 0 29.30214,12.1644 l 0,-34.2259 a 23.457822,23.457822 0 0 0 6.34364,0.899 a 23.457822,23.457822 0 0 0 6.34365,-0.877 l 0,34.1615 a 57.166622,57.166622 0 0 0 29.33683,-12.0901 l -24.21731,-24.2173 a 23.457822,23.457822 0 0 0 8.98515,-8.9604 l 24.17272,24.1727 a 57.166622,57.166622 0 0 0 12.16442,-29.3021 l -34.22589,0 a 23.457822,23.457822 0 0 0 0.8995,-6.34359 a 23.457822,23.457822 0 0 0 -0.8772,-6.3437 l 34.16147,0 a 57.166622,57.166622 0 0 0 -12.09009,-29.3368 l -24.21731,24.2173 a 23.457822,23.457822 0 0 0 -8.96038,-8.9852 l 24.17272,-24.1727 a 57.166622,57.166622 0 0 0 -29.30462,-12.1644 z m -197.75792,45.3669 a 11.418545,11.418545 0 0 1 11.41855,11.4186 a 11.418545,11.418545 0 0 1 -11.41855,11.41849 a 11.418545,11.418545 0 0 1 -11.41853,-11.41849 a 11.418545,11.418545 0 0 1 11.41853,-11.4186 z m 191.41427,0 a 11.418545,11.418545 0 0 1 11.41856,11.4186 a 11.418545,11.418545 0 0 1 -11.41856,11.41849 a 11.418545,11.418545 0 0 1 -11.41853,-11.41849 a 11.418545,11.418545 0 0 1 11.41853,-11.4186 z"
       style="opacity:1;fill:#000000;fill-opacity:1;fill-rule:nonzero;stroke:none;stroke-width:120;stroke-linecap:round;stroke-linejoin:round;stroke-miterlimit:4;stroke-dasharray:none;stroke-opacity:1"
       inkscape:connector-curvature="0" />
  </g>
</svg>
